<svg width="2560" height="512" viewBox="0 0 2560 512" fill="none" xmlns="http://www.w3.org/2000/svg">
<g clip-path="url(#clip0_13_806)">
<rect width="2560" height="512" fill="#263443"/>
<circle cx="2387.5" cy="179.5" r="320" fill="#E5292D" stroke="white" stroke-width="25"/>
<circle cx="2515" cy="512" r="256.5" fill="#E5292D" stroke="white" stroke-width="25"/>
<circle cx="270.695" cy="255.5" r="409" fill="#E5292D" stroke="white" stroke-width="25"/>
<g clip-path="url(#clip1_13_806)">
<path d="M76.2763 78.7782H94.8308V88.9443C94.8308 88.9443 110.549 77.1443 123.513 77.1443C137.125 77.1443 149.927 84.315 160.298 95.9335C169.747 86.3103 179.338 76.8721 197.893 76.8721C219.04 76.8721 231.842 92.2119 231.842 92.2119C238.123 99.2488 244.319 109.64 244.319 121.803V174.902H225.603V121.984C225.603 119.338 221.39 95.8427 197.893 95.8427C175.287 95.8427 170.021 117.332 170.021 122.438V174.993H151.385V120.986C151.385 116.35 144.741 95.8427 123.513 95.8427C102.285 95.8427 96.5322 114.904 96.5322 119.806V175.628H76.1953L76.2763 78.7782Z" fill="white"/>
<path d="M300.955 78.5962C286.569 78.5962 274.339 83.6815 265.948 93.6026C255.872 105.515 253.637 118.154 253.637 125.887C253.637 167.025 287.551 177.172 299.009 177.172C325.018 177.172 337.981 158.293 337.981 158.293L322.69 149.209C316.164 155.536 309.404 160.05 299.222 160.044C286.688 160.037 271.822 146.781 271.822 131.547H345.91C345.91 93.8254 320.125 78.5962 300.955 78.5962ZM300.353 96.248C319.947 96.248 325.217 116.017 325.217 116.017H273.654C273.654 116.017 280.759 96.248 300.353 96.248Z" fill="white"/>
<path d="M408.984 174.588L404.098 156.385H387.563C380.662 156.385 374.363 149.768 374.363 143.394V97.3858H403.612V78.2337H373.309V53H356.254V142.973C356.254 161.763 370.557 174.595 383.161 174.592L408.984 174.588Z" fill="white"/>
<path d="M446.311 79.3979H468.081L463.974 96.569H447.808C437.048 96.569 433.266 107.717 433.266 115.08V174.63H415.684V109.095C415.684 97.6033 425.239 79.3979 446.311 79.3979Z" fill="white"/>
<path d="M510.11 172.024C535.134 172.024 555.42 151.574 555.42 126.348C555.42 101.122 535.134 80.6721 510.11 80.6721C485.087 80.6721 464.801 101.122 464.801 126.348C464.801 151.574 485.087 172.024 510.11 172.024Z" stroke="white" stroke-width="7.58208" stroke-miterlimit="1.5" stroke-linecap="round" stroke-linejoin="round"/>
<path d="M510.109 157.615C527.239 157.615 541.125 143.616 541.125 126.348C541.125 109.08 527.239 95.0818 510.109 95.0818C492.98 95.0818 479.094 109.08 479.094 126.348C479.094 143.616 492.98 157.615 510.109 157.615Z" stroke="white" stroke-width="7.58499" stroke-miterlimit="1.5" stroke-linecap="round" stroke-linejoin="round"/>
<path d="M510.11 172.024C535.134 172.024 555.42 151.574 555.42 126.348C555.42 101.122 535.134 80.6721 510.11 80.6721C485.087 80.6721 464.801 101.122 464.801 126.348C464.801 151.574 485.087 172.024 510.11 172.024Z" stroke="white" stroke-width="7.58208" stroke-miterlimit="1.5" stroke-linecap="round" stroke-linejoin="round"/>
<path d="M510.109 157.615C527.239 157.615 541.125 143.616 541.125 126.348C541.125 109.08 527.239 95.0818 510.109 95.0818C492.98 95.0818 479.094 109.08 479.094 126.348C479.094 143.616 492.98 157.615 510.109 157.615Z" stroke="white" stroke-width="7.58499" stroke-miterlimit="1.5" stroke-linecap="round" stroke-linejoin="round"/>
</g>
<g clip-path="url(#clip2_13_806)">
<path fill-rule="evenodd" clip-rule="evenodd" d="M110.397 421.83L76.6914 389.115L121.302 345.496L138.155 362.349L129.233 371.271L121.302 363.34L95.5271 389.115L119.32 413.403L110.397 421.83Z" fill="white"/>
<path fill-rule="evenodd" clip-rule="evenodd" d="M111.388 388.124L120.31 379.202L153.521 412.412L108.91 456.032L92.0566 439.179L100.979 430.256L108.91 438.187L134.685 411.916L111.388 388.124Z" fill="white"/>
<path d="M200.478 437.918C196.164 437.918 192.722 436.935 190.152 434.968C187.615 432.969 186.124 430.162 185.68 426.545H191.628C191.913 428.639 192.849 430.273 194.435 431.447C196.021 432.589 198.099 433.16 200.669 433.16C202.794 433.16 204.412 432.779 205.522 432.018C206.664 431.225 207.236 430.13 207.236 428.734C207.236 427.497 206.887 426.498 206.189 425.736C205.491 424.975 204.317 424.357 202.667 423.881L196.481 422.025C193.341 421.073 191.025 419.82 189.534 418.266C188.075 416.711 187.345 414.76 187.345 412.413C187.345 410.446 187.853 408.733 188.868 407.274C189.883 405.814 191.31 404.688 193.15 403.895C195.022 403.102 197.195 402.705 199.669 402.705C203.476 402.705 206.506 403.641 208.758 405.513C211.042 407.353 212.343 409.859 212.66 413.031H206.712C206.363 411.128 205.57 409.732 204.333 408.844C203.096 407.924 201.43 407.464 199.336 407.464C197.496 407.464 196.037 407.829 194.959 408.558C193.88 409.288 193.341 410.287 193.341 411.556C193.341 412.603 193.658 413.491 194.292 414.221C194.959 414.951 196.18 415.585 197.956 416.124L204.238 418.028C207.378 418.948 209.662 420.201 211.09 421.787C212.517 423.373 213.231 425.388 213.231 427.83C213.231 431.066 212.105 433.556 209.853 435.301C207.632 437.046 204.507 437.918 200.478 437.918ZM228.496 437.966C225.514 437.966 223.309 437.268 221.882 435.872C220.486 434.445 219.788 432.319 219.788 429.496V407.702L225.831 405.465V429.638C225.831 430.812 226.148 431.685 226.783 432.256C227.417 432.827 228.417 433.112 229.781 433.112C230.32 433.112 230.796 433.08 231.208 433.017C231.652 432.922 232.065 432.811 232.446 432.684V437.347C232.065 437.538 231.526 437.68 230.828 437.776C230.13 437.902 229.353 437.966 228.496 437.966ZM215.125 417.933V413.222H232.446V417.933H215.125ZM247.084 437.966C244.514 437.966 242.262 437.427 240.327 436.348C238.423 435.269 236.932 433.778 235.854 431.875C234.807 429.972 234.284 427.783 234.284 425.308C234.284 422.834 234.807 420.661 235.854 418.789C236.932 416.886 238.423 415.411 240.327 414.364C242.23 413.285 244.451 412.746 246.989 412.746C249.4 412.746 251.493 413.253 253.27 414.269C255.046 415.252 256.426 416.648 257.41 418.456C258.393 420.264 258.885 422.374 258.885 424.785C258.885 425.229 258.869 425.641 258.837 426.022C258.806 426.403 258.758 426.783 258.695 427.164H237.995V422.977H254.079L252.842 424.119C252.842 421.835 252.318 420.121 251.271 418.979C250.224 417.837 248.765 417.266 246.894 417.266C244.863 417.266 243.245 417.964 242.04 419.36C240.866 420.756 240.279 422.77 240.279 425.403C240.279 428.005 240.866 430.003 242.04 431.399C243.245 432.763 244.943 433.445 247.131 433.445C248.4 433.445 249.511 433.207 250.462 432.731C251.414 432.256 252.112 431.526 252.556 430.543H258.219C257.426 432.827 256.077 434.635 254.174 435.967C252.302 437.3 249.939 437.966 247.084 437.966ZM277.219 437.966C274.903 437.966 273.016 437.427 271.556 436.348C270.129 435.238 269.241 433.715 268.892 431.78L269.367 431.732V447.245H263.372V413.222H269.225V418.694L268.749 418.599C269.193 416.791 270.208 415.363 271.794 414.316C273.38 413.269 275.316 412.746 277.6 412.746C279.757 412.746 281.628 413.269 283.215 414.316C284.833 415.331 286.086 416.775 286.974 418.646C287.862 420.518 288.306 422.723 288.306 425.261C288.306 427.83 287.846 430.067 286.926 431.97C286.006 433.874 284.722 435.349 283.072 436.396C281.422 437.442 279.471 437.966 277.219 437.966ZM275.696 433.017C277.631 433.017 279.17 432.351 280.312 431.018C281.454 429.654 282.025 427.751 282.025 425.308C282.025 422.866 281.438 420.978 280.264 419.646C279.122 418.313 277.584 417.647 275.649 417.647C273.745 417.647 272.207 418.329 271.033 419.693C269.859 421.026 269.272 422.913 269.272 425.356C269.272 427.799 269.859 429.686 271.033 431.018C272.207 432.351 273.761 433.017 275.696 433.017ZM294.458 437.49V410.985C294.458 408.32 295.188 406.29 296.647 404.894C298.138 403.467 300.359 402.753 303.309 402.753C303.975 402.753 304.53 402.785 304.974 402.848C305.419 402.912 305.847 403.007 306.259 403.134V407.797C306.037 407.702 305.752 407.638 305.403 407.607C305.054 407.543 304.657 407.511 304.213 407.511C302.944 407.511 301.992 407.829 301.358 408.463C300.755 409.066 300.454 409.954 300.454 411.128V437.49H294.458ZM290.08 417.933V413.222H305.736V417.933H290.08ZM320.138 437.966C317.568 437.966 315.3 437.427 313.333 436.348C311.398 435.269 309.891 433.778 308.812 431.875C307.734 429.94 307.195 427.735 307.195 425.261C307.195 422.786 307.734 420.613 308.812 418.741C309.891 416.87 311.398 415.411 313.333 414.364C315.3 413.285 317.568 412.746 320.138 412.746C322.739 412.746 325.007 413.285 326.942 414.364C328.877 415.411 330.384 416.87 331.463 418.741C332.541 420.613 333.081 422.786 333.081 425.261C333.081 427.735 332.526 429.94 331.415 431.875C330.337 433.778 328.83 435.269 326.895 436.348C324.96 437.427 322.707 437.966 320.138 437.966ZM320.138 433.16C321.407 433.16 322.549 432.843 323.564 432.208C324.579 431.542 325.372 430.622 325.943 429.448C326.514 428.243 326.8 426.831 326.8 425.213C326.8 422.834 326.165 420.962 324.896 419.598C323.659 418.234 322.073 417.552 320.138 417.552C318.203 417.552 316.6 418.234 315.332 419.598C314.063 420.962 313.428 422.834 313.428 425.213C313.428 426.831 313.714 428.243 314.285 429.448C314.887 430.622 315.681 431.542 316.664 432.208C317.679 432.843 318.837 433.16 320.138 433.16ZM337.491 437.49V413.222H343.344V419.075H343.487V437.49H337.491ZM343.487 424.832L342.868 419.075C343.439 417.013 344.407 415.442 345.771 414.364C347.135 413.285 348.769 412.746 350.672 412.746C351.338 412.746 351.814 412.809 352.1 412.936V418.599C351.941 418.535 351.719 418.504 351.433 418.504C351.148 418.472 350.799 418.456 350.386 418.456C348.071 418.456 346.342 418.964 345.2 419.979C344.058 420.994 343.487 422.612 343.487 424.832ZM372.796 437.49V432.018L373.272 432.113C372.859 433.889 371.86 435.317 370.274 436.396C368.687 437.442 366.8 437.966 364.611 437.966C362.39 437.966 360.455 437.458 358.806 436.443C357.188 435.396 355.935 433.937 355.046 432.065C354.158 430.194 353.714 427.989 353.714 425.451C353.714 422.881 354.174 420.645 355.094 418.741C356.014 416.838 357.299 415.363 358.948 414.316C360.63 413.269 362.581 412.746 364.801 412.746C367.085 412.746 368.973 413.301 370.464 414.411C371.955 415.49 372.875 416.997 373.224 418.932L372.605 418.979V403.229H378.649V437.49H372.796ZM366.372 433.065C368.307 433.065 369.845 432.398 370.987 431.066C372.161 429.702 372.748 427.799 372.748 425.356C372.748 422.913 372.161 421.026 370.987 419.693C369.814 418.361 368.259 417.695 366.324 417.695C364.421 417.695 362.882 418.377 361.708 419.741C360.535 421.073 359.948 422.961 359.948 425.403C359.948 427.846 360.535 429.734 361.708 431.066C362.882 432.398 364.437 433.065 366.372 433.065Z" fill="white"/>
<path d="M195.474 390.853V365.157H185.68V362.302H208.52V365.157H198.726V390.853H195.474ZM208.529 390.853V370.629H211.503V375.784H211.702V390.853H208.529ZM211.702 380.305L211.186 375.507C211.662 373.789 212.508 372.48 213.724 371.581C214.94 370.682 216.341 370.233 217.927 370.233C218.588 370.233 219.038 370.286 219.276 370.391V373.445C219.143 373.392 218.958 373.366 218.72 373.366C218.482 373.339 218.192 373.326 217.848 373.326C215.839 373.326 214.306 373.934 213.248 375.15C212.217 376.34 211.702 378.058 211.702 380.305ZM235.23 390.853C235.125 390.404 235.045 389.888 234.993 389.307C234.966 388.725 234.953 387.985 234.953 387.086H234.755V377.41C234.755 375.877 234.398 374.753 233.684 374.04C232.997 373.299 231.873 372.929 230.313 372.929C228.78 372.929 227.551 373.247 226.626 373.881C225.727 374.489 225.224 375.361 225.119 376.498H222.065C222.197 374.542 223.017 373.009 224.524 371.898C226.031 370.788 228 370.233 230.432 370.233C232.944 370.233 234.808 370.828 236.024 372.017C237.24 373.207 237.848 374.991 237.848 377.371V387.086C237.848 387.667 237.887 388.276 237.967 388.91C238.046 389.518 238.152 390.166 238.284 390.853H235.23ZM228.291 391.25C226.203 391.25 224.537 390.747 223.295 389.743C222.079 388.712 221.47 387.311 221.47 385.539C221.47 383.768 222.079 382.393 223.295 381.415C224.511 380.437 226.282 379.75 228.608 379.353L235.667 378.164V380.781L229.084 381.812C227.604 382.05 226.48 382.446 225.713 383.001C224.947 383.557 224.564 384.363 224.564 385.42C224.564 386.451 224.907 387.231 225.595 387.76C226.308 388.289 227.353 388.553 228.727 388.553C230.498 388.553 231.939 388.157 233.05 387.363C234.186 386.544 234.755 385.486 234.755 384.191L235.27 387.007C234.847 388.355 234.014 389.399 232.772 390.139C231.556 390.879 230.062 391.25 228.291 391.25ZM243.962 390.853V370.629H246.937V375.388H247.135V390.853H243.962ZM258.436 390.853V377.609C258.436 376.075 258.053 374.925 257.286 374.159C256.52 373.392 255.383 373.009 253.876 373.009C252.554 373.009 251.378 373.299 250.347 373.881C249.342 374.463 248.549 375.269 247.968 376.3C247.412 377.331 247.135 378.534 247.135 379.908L246.619 375.11C247.307 373.603 248.351 372.414 249.752 371.541C251.18 370.669 252.792 370.233 254.59 370.233C256.705 370.233 258.397 370.841 259.666 372.057C260.961 373.247 261.609 374.82 261.609 376.776V390.853H258.436ZM274.483 391.25C271.998 391.25 270.016 390.681 268.535 389.544C267.055 388.381 266.209 386.742 265.997 384.627H269.051C269.236 385.923 269.804 386.914 270.756 387.601C271.708 388.289 272.977 388.632 274.563 388.632C275.964 388.632 277.061 388.368 277.854 387.839C278.647 387.311 279.044 386.557 279.044 385.579C279.044 384.892 278.819 384.297 278.37 383.795C277.92 383.266 277.021 382.83 275.673 382.486L272.421 381.653C270.571 381.177 269.183 380.45 268.258 379.472C267.333 378.468 266.87 377.278 266.87 375.903C266.87 374.159 267.518 372.784 268.813 371.779C270.108 370.748 271.866 370.233 274.087 370.233C276.281 370.233 278.066 370.762 279.44 371.819C280.815 372.876 281.595 374.344 281.78 376.221H278.726C278.541 375.137 278.039 374.304 277.22 373.722C276.4 373.141 275.316 372.85 273.968 372.85C272.673 372.85 271.668 373.101 270.954 373.603C270.24 374.079 269.884 374.767 269.884 375.665C269.884 376.353 270.135 376.948 270.637 377.45C271.166 377.952 272.038 378.375 273.254 378.719L276.427 379.591C278.304 380.094 279.718 380.86 280.67 381.891C281.621 382.922 282.097 384.165 282.097 385.619C282.097 387.39 281.423 388.778 280.075 389.782C278.726 390.761 276.863 391.25 274.483 391.25ZM296.359 391.21C294.456 391.21 292.856 390.747 291.561 389.822C290.265 388.897 289.38 387.588 288.904 385.896L289.538 385.817V398.982H286.366V370.629H289.34V375.348L288.904 375.229C289.406 373.67 290.358 372.453 291.759 371.581C293.16 370.682 294.786 370.233 296.637 370.233C298.434 370.233 299.994 370.669 301.316 371.541C302.664 372.414 303.708 373.63 304.448 375.19C305.189 376.749 305.559 378.573 305.559 380.662C305.559 382.777 305.175 384.627 304.409 386.213C303.642 387.8 302.571 389.029 301.197 389.901C299.822 390.774 298.209 391.21 296.359 391.21ZM295.883 388.434C297.892 388.434 299.465 387.747 300.602 386.372C301.739 384.971 302.307 383.068 302.307 380.662C302.307 378.283 301.739 376.419 300.602 375.071C299.465 373.696 297.892 373.009 295.883 373.009C293.874 373.009 292.288 373.709 291.125 375.11C289.961 376.485 289.38 378.375 289.38 380.781C289.38 383.134 289.961 384.997 291.125 386.372C292.288 387.747 293.874 388.434 295.883 388.434ZM318.821 391.25C316.838 391.25 315.093 390.787 313.587 389.862C312.08 388.936 310.903 387.681 310.057 386.095C309.238 384.482 308.828 382.671 308.828 380.662C308.828 378.626 309.251 376.829 310.097 375.269C310.943 373.709 312.106 372.48 313.587 371.581C315.093 370.682 316.838 370.233 318.821 370.233C320.83 370.233 322.575 370.682 324.055 371.581C325.562 372.48 326.725 373.709 327.545 375.269C328.391 376.829 328.814 378.626 328.814 380.662C328.814 382.671 328.391 384.482 327.545 386.095C326.725 387.681 325.562 388.936 324.055 389.862C322.575 390.787 320.83 391.25 318.821 391.25ZM318.821 388.553C320.196 388.553 321.385 388.223 322.39 387.562C323.394 386.874 324.174 385.936 324.729 384.746C325.285 383.557 325.562 382.182 325.562 380.622C325.562 378.296 324.941 376.432 323.698 375.031C322.482 373.63 320.856 372.929 318.821 372.929C316.812 372.929 315.186 373.63 313.943 375.031C312.701 376.432 312.08 378.296 312.08 380.622C312.08 382.182 312.357 383.557 312.912 384.746C313.468 385.936 314.247 386.874 315.252 387.562C316.283 388.223 317.473 388.553 318.821 388.553ZM333.572 390.853V370.629H336.546V375.784H336.744V390.853H333.572ZM336.744 380.305L336.228 375.507C336.704 373.789 337.55 372.48 338.766 371.581C339.982 370.682 341.383 370.233 342.97 370.233C343.631 370.233 344.08 370.286 344.318 370.391V373.445C344.186 373.392 344.001 373.366 343.763 373.366C343.525 373.339 343.234 373.326 342.89 373.326C340.881 373.326 339.348 373.934 338.29 375.15C337.259 376.34 336.744 378.058 336.744 380.305ZM356.996 391.21C354.749 391.21 353.11 390.708 352.079 389.703C351.074 388.672 350.572 387.192 350.572 385.262V365.911L353.744 364.721V385.222C353.744 386.359 354.035 387.192 354.617 387.72C355.198 388.249 356.15 388.513 357.472 388.513C358.001 388.513 358.45 388.487 358.82 388.434C359.217 388.355 359.534 388.262 359.772 388.157V390.853C359.508 390.959 359.124 391.038 358.622 391.091C358.146 391.17 357.604 391.21 356.996 391.21ZM346.408 373.326V370.629H359.772V373.326H346.408ZM373.458 390.853V367.774C373.458 365.924 373.987 364.483 375.045 363.452C376.129 362.421 377.768 361.905 379.962 361.905C380.49 361.905 380.9 361.932 381.191 361.985C381.508 362.038 381.773 362.104 381.984 362.183V364.681C381.799 364.628 381.535 364.576 381.191 364.523C380.874 364.47 380.53 364.443 380.16 364.443C378.944 364.443 378.045 364.747 377.464 365.355C376.908 365.963 376.631 366.823 376.631 367.933V390.853H373.458ZM369.295 373.326V370.629H381.548V373.326H369.295ZM393.444 391.25C391.461 391.25 389.716 390.787 388.209 389.862C386.702 388.936 385.526 387.681 384.68 386.095C383.86 384.482 383.451 382.671 383.451 380.662C383.451 378.626 383.874 376.829 384.72 375.269C385.566 373.709 386.729 372.48 388.209 371.581C389.716 370.682 391.461 370.233 393.444 370.233C395.453 370.233 397.197 370.682 398.678 371.581C400.185 372.48 401.348 373.709 402.167 375.269C403.013 376.829 403.436 378.626 403.436 380.662C403.436 382.671 403.013 384.482 402.167 386.095C401.348 387.681 400.185 388.936 398.678 389.862C397.197 390.787 395.453 391.25 393.444 391.25ZM393.444 388.553C394.818 388.553 396.008 388.223 397.012 387.562C398.017 386.874 398.797 385.936 399.352 384.746C399.907 383.557 400.185 382.182 400.185 380.622C400.185 378.296 399.564 376.432 398.321 375.031C397.105 373.63 395.479 372.929 393.444 372.929C391.434 372.929 389.809 373.63 388.566 375.031C387.324 376.432 386.702 378.296 386.702 380.622C386.702 382.182 386.98 383.557 387.535 384.746C388.09 385.936 388.87 386.874 389.875 387.562C390.906 388.223 392.095 388.553 393.444 388.553ZM408.194 390.853V370.629H411.168V375.784H411.367V390.853H408.194ZM411.367 380.305L410.851 375.507C411.327 373.789 412.173 372.48 413.389 371.581C414.605 370.682 416.006 370.233 417.592 370.233C418.253 370.233 418.703 370.286 418.941 370.391V373.445C418.808 373.392 418.623 373.366 418.385 373.366C418.147 373.339 417.857 373.326 417.513 373.326C415.504 373.326 413.971 373.934 412.913 375.15C411.882 376.34 411.367 378.058 411.367 380.305Z" fill="white"/>
</g>
<path d="M788.967 320.281L746.637 194.725H760.268L799.909 312.927H793.093L833.988 194.725H846.185L886.543 312.927H880.086L920.085 194.725H932.82L890.489 320.281H876.498L837.934 208.177H841.522L802.778 320.281H788.967ZM999.782 225.217C1007.44 225.217 1014.13 226.712 1019.87 229.701C1025.73 232.571 1030.27 236.995 1033.5 242.974C1036.85 248.953 1038.53 256.487 1038.53 265.575V320.281H1025.79V266.83C1025.79 256.905 1023.28 249.432 1018.26 244.409C1013.35 239.267 1006.42 236.696 997.451 236.696C990.754 236.696 984.895 238.072 979.873 240.822C974.97 243.453 971.143 247.339 968.393 252.481C965.762 257.503 964.447 263.602 964.447 270.776V320.281H951.712V187.191H964.447V251.943L961.936 247.1C964.925 240.284 969.708 234.963 976.285 231.136C982.862 227.19 990.694 225.217 999.782 225.217ZM1067.54 320.281V226.114H1080.28V320.281H1067.54ZM1074 205.307C1071.37 205.307 1069.16 204.41 1067.36 202.617C1065.57 200.823 1064.67 198.671 1064.67 196.159C1064.67 193.648 1065.57 191.556 1067.36 189.882C1069.16 188.088 1071.37 187.191 1074 187.191C1076.63 187.191 1078.84 188.028 1080.64 189.702C1082.43 191.376 1083.33 193.469 1083.33 195.98C1083.33 198.611 1082.43 200.823 1080.64 202.617C1078.96 204.41 1076.75 205.307 1074 205.307ZM1140.11 321.178C1131.26 321.178 1124.44 318.787 1119.66 314.004C1114.88 309.221 1112.49 302.464 1112.49 293.735V205.307H1125.22V293.018C1125.22 298.518 1126.6 302.763 1129.35 305.753C1132.22 308.742 1136.28 310.237 1141.54 310.237C1147.16 310.237 1151.83 308.623 1155.53 305.394L1160.02 314.542C1157.51 316.814 1154.46 318.488 1150.87 319.564C1147.4 320.64 1143.81 321.178 1140.11 321.178ZM1095.62 236.696V226.114H1153.92V236.696H1095.62ZM1214.49 321.178C1204.68 321.178 1196.08 319.146 1188.66 315.08C1181.25 310.895 1175.45 305.215 1171.26 298.04C1167.08 290.746 1164.99 282.435 1164.99 273.108C1164.99 263.781 1166.96 255.53 1170.9 248.355C1174.97 241.181 1180.47 235.56 1187.41 231.495C1194.46 227.31 1202.35 225.217 1211.08 225.217C1219.93 225.217 1227.76 227.25 1234.58 231.315C1241.51 235.262 1246.96 240.882 1250.9 248.176C1254.85 255.351 1256.82 263.661 1256.82 273.108C1256.82 273.706 1256.76 274.364 1256.64 275.081C1256.64 275.679 1256.64 276.337 1256.64 277.054H1174.67V267.548H1249.83L1244.8 271.314C1244.8 264.498 1243.31 258.46 1240.32 253.198C1237.45 247.817 1233.5 243.632 1228.48 240.643C1223.46 237.653 1217.66 236.158 1211.08 236.158C1204.63 236.158 1198.83 237.653 1193.68 240.643C1188.54 243.632 1184.54 247.817 1181.67 253.198C1178.8 258.579 1177.36 264.737 1177.36 271.673V273.646C1177.36 280.821 1178.92 287.158 1182.02 292.659C1185.25 298.04 1189.68 302.285 1195.3 305.394C1201.04 308.383 1207.55 309.878 1214.85 309.878C1220.59 309.878 1225.91 308.862 1230.81 306.829C1235.84 304.796 1240.14 301.687 1243.73 297.502L1250.9 305.753C1246.72 310.775 1241.46 314.602 1235.12 317.232C1228.9 319.863 1222.02 321.178 1214.49 321.178ZM1279.51 320.281V214.276C1279.51 205.905 1281.97 199.149 1286.87 194.007C1291.77 188.865 1298.83 186.294 1308.03 186.294C1311.62 186.294 1315.09 186.773 1318.44 187.729C1321.78 188.686 1324.59 190.181 1326.87 192.213L1322.56 201.72C1320.77 200.165 1318.68 199.029 1316.28 198.312C1313.89 197.475 1311.32 197.056 1308.57 197.056C1303.19 197.056 1299.06 198.551 1296.19 201.54C1293.32 204.53 1291.89 208.954 1291.89 214.814V229.163L1292.25 235.082V320.281H1279.51ZM1262.65 236.696V226.114H1320.95V236.696H1262.65ZM1338.17 320.281V226.114H1350.9V320.281H1338.17ZM1344.62 205.307C1341.99 205.307 1339.78 204.41 1337.99 202.617C1336.19 200.823 1335.3 198.671 1335.3 196.159C1335.3 193.648 1336.19 191.556 1337.99 189.882C1339.78 188.088 1341.99 187.191 1344.62 187.191C1347.25 187.191 1349.47 188.028 1351.26 189.702C1353.05 191.376 1353.95 193.469 1353.95 195.98C1353.95 198.611 1353.05 200.823 1351.26 202.617C1349.59 204.41 1347.37 205.307 1344.62 205.307ZM1421.28 321.178C1411.48 321.178 1402.87 319.146 1395.45 315.08C1388.04 310.895 1382.24 305.215 1378.05 298.04C1373.87 290.746 1371.78 282.435 1371.78 273.108C1371.78 263.781 1373.75 255.53 1377.69 248.355C1381.76 241.181 1387.26 235.56 1394.2 231.495C1401.25 227.31 1409.14 225.217 1417.87 225.217C1426.72 225.217 1434.55 227.25 1441.37 231.315C1448.31 235.262 1453.75 240.882 1457.69 248.176C1461.64 255.351 1463.61 263.661 1463.61 273.108C1463.61 273.706 1463.55 274.364 1463.43 275.081C1463.43 275.679 1463.43 276.337 1463.43 277.054H1381.46V267.548H1456.62L1451.59 271.314C1451.59 264.498 1450.1 258.46 1447.11 253.198C1444.24 247.817 1440.29 243.632 1435.27 240.643C1430.25 237.653 1424.45 236.158 1417.87 236.158C1411.42 236.158 1405.62 237.653 1400.47 240.643C1395.33 243.632 1391.33 247.817 1388.46 253.198C1385.59 258.579 1384.15 264.737 1384.15 271.673V273.646C1384.15 280.821 1385.71 287.158 1388.82 292.659C1392.04 298.04 1396.47 302.285 1402.09 305.394C1407.83 308.383 1414.35 309.878 1421.64 309.878C1427.38 309.878 1432.7 308.862 1437.6 306.829C1442.63 304.796 1446.93 301.687 1450.52 297.502L1457.69 305.753C1453.51 310.775 1448.25 314.602 1441.91 317.232C1435.69 319.863 1428.81 321.178 1421.28 321.178ZM1484.15 320.281V187.191H1496.89V320.281H1484.15ZM1564.43 321.178C1555.46 321.178 1547.39 319.146 1540.21 315.08C1533.16 311.014 1527.6 305.394 1523.53 298.219C1519.47 290.925 1517.43 282.555 1517.43 273.108C1517.43 263.542 1519.47 255.171 1523.53 247.997C1527.6 240.822 1533.16 235.262 1540.21 231.315C1547.39 227.25 1555.46 225.217 1564.43 225.217C1572.68 225.217 1580.03 227.07 1586.49 230.777C1593.07 234.484 1598.27 239.925 1602.1 247.1C1606.04 254.155 1608.01 262.824 1608.01 273.108C1608.01 283.272 1606.1 291.941 1602.27 299.116C1598.45 306.291 1593.25 311.791 1586.67 315.618C1580.21 319.325 1572.8 321.178 1564.43 321.178ZM1565.33 309.878C1572.02 309.878 1578 308.383 1583.26 305.394C1588.64 302.285 1592.83 297.98 1595.82 292.48C1598.93 286.859 1600.48 280.402 1600.48 273.108C1600.48 265.694 1598.93 259.237 1595.82 253.736C1592.83 248.236 1588.64 243.991 1583.26 241.001C1578 237.892 1572.02 236.338 1565.33 236.338C1558.75 236.338 1552.83 237.892 1547.57 241.001C1542.31 243.991 1538.12 248.236 1535.01 253.736C1531.9 259.237 1530.35 265.694 1530.35 273.108C1530.35 280.402 1531.9 286.859 1535.01 292.48C1538.12 297.98 1542.31 302.285 1547.57 305.394C1552.83 308.383 1558.75 309.878 1565.33 309.878ZM1600.84 320.281V291.941L1602.1 272.929L1600.3 253.916V187.191H1613.04V320.281H1600.84ZM1687.38 320.281V194.725H1700.65V308.802H1770.96V320.281H1687.38ZM1784.93 320.281V226.114H1797.66V320.281H1784.93ZM1791.39 205.307C1788.75 205.307 1786.54 204.41 1784.75 202.617C1782.95 200.823 1782.06 198.671 1782.06 196.159C1782.06 193.648 1782.95 191.556 1784.75 189.882C1786.54 188.088 1788.75 187.191 1791.39 187.191C1794.02 187.191 1796.23 188.028 1798.02 189.702C1799.82 191.376 1800.71 193.469 1800.71 195.98C1800.71 198.611 1799.82 200.823 1798.02 202.617C1796.35 204.41 1794.14 205.307 1791.39 205.307ZM1865.2 321.178C1856.24 321.178 1848.16 319.146 1840.99 315.08C1833.93 311.014 1828.37 305.394 1824.31 298.219C1820.24 290.925 1818.21 282.555 1818.21 273.108C1818.21 263.542 1820.24 255.171 1824.31 247.997C1828.37 240.822 1833.93 235.262 1840.99 231.315C1848.16 227.25 1856.24 225.217 1865.2 225.217C1873.46 225.217 1880.81 227.07 1887.27 230.777C1893.84 234.484 1899.05 239.925 1902.87 247.1C1906.82 254.155 1908.79 262.824 1908.79 273.108C1908.79 283.272 1906.88 291.941 1903.05 299.116C1899.22 306.291 1894.02 311.791 1887.45 315.618C1880.99 319.325 1873.57 321.178 1865.2 321.178ZM1866.1 309.878C1872.8 309.878 1878.78 308.383 1884.04 305.394C1889.42 302.285 1893.6 297.98 1896.59 292.48C1899.7 286.859 1901.26 280.402 1901.26 273.108C1901.26 265.694 1899.7 259.237 1896.59 253.736C1893.6 248.236 1889.42 243.991 1884.04 241.001C1878.78 237.892 1872.8 236.338 1866.1 236.338C1859.52 236.338 1853.61 237.892 1848.34 241.001C1843.08 243.991 1838.9 248.236 1835.79 253.736C1832.68 259.237 1831.12 265.694 1831.12 273.108C1831.12 280.402 1832.68 286.859 1835.79 292.48C1838.9 297.98 1843.08 302.285 1848.34 305.394C1853.61 308.383 1859.52 309.878 1866.1 309.878ZM1901.62 320.281V291.941L1902.87 272.929L1901.08 253.916V187.191H1913.81V320.281H1901.62ZM1982.28 321.178C1973.2 321.178 1965 319.146 1957.71 315.08C1950.54 310.895 1944.86 305.215 1940.67 298.04C1936.49 290.746 1934.39 282.435 1934.39 273.108C1934.39 263.661 1936.49 255.351 1940.67 248.176C1944.86 241.001 1950.54 235.381 1957.71 231.315C1964.89 227.25 1973.08 225.217 1982.28 225.217C1991.61 225.217 1999.86 227.25 2007.04 231.315C2014.33 235.381 2020.01 241.001 2024.08 248.176C2028.26 255.351 2030.35 263.661 2030.35 273.108C2030.35 282.435 2028.26 290.746 2024.08 298.04C2020.01 305.215 2014.33 310.895 2007.04 315.08C1999.74 319.146 1991.49 321.178 1982.28 321.178ZM1982.28 309.878C1989.1 309.878 1995.14 308.383 2000.4 305.394C2005.66 302.285 2009.79 297.98 2012.78 292.48C2015.89 286.859 2017.44 280.402 2017.44 273.108C2017.44 265.694 2015.89 259.237 2012.78 253.736C2009.79 248.236 2005.66 243.991 2000.4 241.001C1995.14 237.892 1989.16 236.338 1982.46 236.338C1975.77 236.338 1969.79 237.892 1964.53 241.001C1959.26 243.991 1955.08 248.236 1951.97 253.736C1948.86 259.237 1947.31 265.694 1947.31 273.108C1947.31 280.402 1948.86 286.859 1951.97 292.48C1955.08 297.98 1959.26 302.285 1964.53 305.394C1969.79 308.383 1975.71 309.878 1982.28 309.878Z" fill="white"/>
</g>
<defs>
<clipPath id="clip0_13_806">
<rect width="2560" height="512" fill="white"/>
</clipPath>
<clipPath id="clip1_13_806">
<rect width="483" height="124.172" fill="white" transform="translate(76.1953 53)"/>
</clipPath>
<clipPath id="clip2_13_806">
<rect width="344" height="111.032" fill="white" transform="translate(76.1953 345)"/>
</clipPath>
</defs>
</svg>
