<svg width="2560" height="512" viewBox="0 0 2560 512" fill="none" xmlns="http://www.w3.org/2000/svg">
<rect width="2560" height="512" fill="#34495E"/>
<path d="M2105 512L2217 0H2560V512H2105Z" fill="#2A2A2A"/>
<path d="M121.246 296.876C123.134 298.292 126.025 299.708 129.919 301.124C133.813 302.422 138.414 303.071 143.724 303.071C148.916 303.071 153.105 302.245 156.291 300.593C159.595 298.823 162.073 296.227 163.725 292.805C165.495 289.265 166.675 284.781 167.264 279.353C167.972 273.926 168.326 267.495 168.326 260.061V193.334H188.327V257.229C188.327 266.551 187.796 275.105 186.734 282.893C185.79 290.681 183.843 297.466 180.893 303.248C177.943 308.911 173.518 313.277 167.618 316.345C161.837 319.413 154.049 320.947 144.255 320.947C138.473 320.947 133.341 320.298 128.857 319C124.373 317.702 120.243 315.755 116.467 313.159L121.246 296.876ZM195.671 291.92C195.671 286.02 197.323 280.887 200.626 276.521C204.048 272.038 208.709 268.616 214.609 266.256C220.509 263.778 227.353 262.539 235.14 262.539C239.27 262.539 243.459 262.834 247.707 263.424C252.073 264.014 255.908 264.958 259.211 266.256V260.415C259.211 253.925 257.265 248.851 253.371 245.194C249.477 241.536 243.872 239.707 236.556 239.707C231.364 239.707 226.468 240.651 221.866 242.539C217.264 244.309 212.367 246.845 207.175 250.149L200.626 237.052C206.762 232.922 212.898 229.854 219.034 227.848C225.288 225.842 231.836 224.839 238.68 224.839C251.07 224.839 260.804 228.143 267.884 234.751C275.082 241.241 278.681 250.503 278.681 262.539V297.053C278.681 299.295 279.035 300.888 279.743 301.832C280.569 302.776 281.926 303.307 283.814 303.425V319C282.044 319.354 280.451 319.59 279.035 319.708C277.619 319.826 276.439 319.885 275.495 319.885C271.365 319.885 268.238 318.882 266.114 316.876C263.99 314.87 262.751 312.51 262.397 309.796L261.866 304.486C257.855 309.678 252.722 313.69 246.468 316.522C240.214 319.354 233.901 320.77 227.53 320.77C221.394 320.77 215.907 319.531 211.069 317.053C206.231 314.457 202.455 310.976 199.741 306.61C197.028 302.245 195.671 297.348 195.671 291.92ZM254.61 297.584C256.026 296.05 257.147 294.516 257.973 292.982C258.798 291.448 259.211 290.091 259.211 288.911V278.291C255.908 276.993 252.427 276.049 248.769 275.459C245.111 274.752 241.512 274.398 237.972 274.398C230.892 274.398 225.111 275.813 220.627 278.645C216.261 281.477 214.078 285.371 214.078 290.327C214.078 293.041 214.786 295.637 216.202 298.115C217.736 300.593 219.86 302.599 222.574 304.133C225.406 305.666 228.887 306.433 233.016 306.433C237.264 306.433 241.335 305.607 245.229 303.956C249.123 302.304 252.25 300.18 254.61 297.584ZM435.047 319H415.577V267.141C415.577 258.527 414.161 252.214 411.33 248.202C408.498 244.191 404.368 242.185 398.94 242.185C393.512 242.185 388.438 244.25 383.718 248.379C379.117 252.391 375.872 257.642 373.984 264.132V319H354.514V267.141C354.514 258.527 353.098 252.214 350.267 248.202C347.435 244.191 343.364 242.185 338.054 242.185C332.626 242.185 327.552 244.191 322.833 248.202C318.231 252.214 314.927 257.465 312.921 263.955V319H293.452V226.432H311.151V245.017C314.809 238.527 319.588 233.571 325.487 230.149C331.505 226.609 338.349 224.839 346.019 224.839C353.688 224.839 359.706 226.845 364.072 230.857C368.556 234.869 371.329 239.884 372.391 245.901C376.403 239.058 381.3 233.866 387.081 230.326C392.981 226.668 399.707 224.839 407.259 224.839C412.686 224.839 417.229 225.842 420.887 227.848C424.545 229.854 427.377 232.627 429.383 236.167C431.389 239.589 432.805 243.601 433.631 248.202C434.575 252.686 435.047 257.465 435.047 262.539V319ZM490.58 320.77C483.382 320.77 476.833 319.531 470.934 317.053C465.152 314.457 460.137 310.976 455.889 306.61C451.641 302.127 448.337 297.053 445.977 291.389C443.736 285.607 442.615 279.471 442.615 272.982C442.615 264.25 444.621 256.285 448.632 249.087C452.644 241.772 458.249 235.931 465.447 231.565C472.645 227.081 481.081 224.839 490.757 224.839C500.433 224.839 508.751 227.081 515.713 231.565C522.793 235.931 528.28 241.713 532.174 248.91C536.067 256.108 538.014 263.837 538.014 272.097C538.014 273.513 537.955 274.869 537.837 276.167C537.719 277.347 537.601 278.35 537.483 279.176H463.323C463.677 284.604 465.152 289.383 467.748 293.513C470.462 297.525 473.884 300.711 478.013 303.071C482.143 305.312 486.568 306.433 491.288 306.433C496.48 306.433 501.377 305.135 505.978 302.54C510.698 299.944 513.884 296.522 515.536 292.274L532.174 297.053C530.168 301.537 527.1 305.607 522.97 309.265C518.958 312.805 514.179 315.637 508.633 317.761C503.088 319.767 497.07 320.77 490.58 320.77ZM462.792 266.256H518.722C518.368 260.946 516.834 256.285 514.12 252.273C511.524 248.143 508.161 244.958 504.031 242.716C500.02 240.356 495.536 239.176 490.58 239.176C485.742 239.176 481.258 240.356 477.128 242.716C473.117 244.958 469.813 248.143 467.217 252.273C464.621 256.285 463.146 260.946 462.792 266.256ZM577.967 320.77C570.179 320.77 562.804 319.531 555.842 317.053C548.881 314.457 542.922 310.622 537.966 305.548L545.223 292.451C550.533 297.171 555.842 300.593 561.152 302.717C566.58 304.84 571.949 305.902 577.259 305.902C582.686 305.902 587.111 304.899 590.533 302.894C593.955 300.77 595.666 297.702 595.666 293.69C595.666 290.74 594.781 288.557 593.011 287.141C591.241 285.725 588.645 284.486 585.223 283.424C581.919 282.362 577.908 281.182 573.188 279.884C566.58 277.878 561.034 275.813 556.55 273.69C552.066 271.448 548.704 268.734 546.462 265.548C544.22 262.362 543.099 258.291 543.099 253.335C543.099 247.317 544.633 242.185 547.701 237.937C550.769 233.689 555.016 230.444 560.444 228.202C565.99 225.96 572.362 224.839 579.56 224.839C586.285 224.839 592.48 225.901 598.144 228.025C603.926 230.031 609 233.217 613.365 237.583L605.047 250.503C600.917 246.727 596.669 243.955 592.303 242.185C588.055 240.415 583.453 239.53 578.498 239.53C575.666 239.53 572.952 239.884 570.356 240.592C567.76 241.182 565.577 242.362 563.807 244.132C562.155 245.783 561.329 248.143 561.329 251.211C561.329 253.689 562.037 255.695 563.453 257.229C564.869 258.763 566.993 260.061 569.825 261.123C572.657 262.185 576.138 263.365 580.268 264.663C587.465 266.787 593.601 268.911 598.675 271.035C603.749 273.041 607.643 275.695 610.356 278.999C613.188 282.185 614.604 286.61 614.604 292.274C614.604 301.242 611.241 308.262 604.516 313.336C597.908 318.292 589.058 320.77 577.967 320.77ZM734.833 222.892C733.653 221.594 731.942 220.237 729.7 218.821C727.458 217.287 724.803 215.871 721.736 214.574C718.668 213.276 715.364 212.214 711.824 211.388C708.284 210.562 704.626 210.149 700.85 210.149C692.59 210.149 686.455 211.683 682.443 214.751C678.431 217.818 676.425 222.066 676.425 227.494C676.425 231.506 677.546 234.692 679.788 237.052C682.03 239.294 685.452 241.182 690.054 242.716C694.655 244.25 700.437 245.901 707.399 247.671C715.895 249.677 723.269 252.096 729.523 254.928C735.777 257.642 740.556 261.3 743.86 265.902C747.164 270.504 748.816 276.58 748.816 284.132C748.816 290.504 747.636 295.991 745.276 300.593C742.916 305.194 739.612 308.97 735.364 311.92C731.116 314.752 726.219 316.876 720.674 318.292C715.128 319.59 709.169 320.239 702.797 320.239C696.543 320.239 690.29 319.59 684.036 318.292C677.9 316.994 672 315.106 666.336 312.628C660.791 310.032 655.658 306.905 650.938 303.248L659.965 286.256C661.499 287.79 663.681 289.501 666.513 291.389C669.463 293.159 672.826 294.87 676.602 296.522C680.496 298.174 684.685 299.59 689.169 300.77C693.77 301.832 698.431 302.363 703.151 302.363C711.057 302.363 717.075 301.006 721.205 298.292C725.452 295.46 727.576 291.448 727.576 286.256C727.576 282.008 726.219 278.645 723.505 276.167C720.792 273.572 716.839 271.389 711.647 269.619C706.455 267.849 700.26 266.079 693.062 264.309C684.803 262.067 677.9 259.648 672.354 257.052C666.808 254.338 662.62 250.916 659.788 246.786C657.074 242.539 655.717 237.17 655.717 230.68C655.717 222.42 657.723 215.459 661.735 209.795C665.746 204.013 671.174 199.706 678.018 196.874C684.98 193.924 692.767 192.449 701.381 192.449C707.045 192.449 712.414 193.098 717.488 194.396C722.561 195.576 727.281 197.228 731.647 199.352C736.131 201.476 740.202 203.895 743.86 206.609L734.833 222.892ZM806.973 314.221C805.321 315.047 803.256 315.932 800.779 316.876C798.301 317.82 795.469 318.646 792.283 319.354C789.215 320.062 786.029 320.416 782.725 320.416C778.713 320.416 774.996 319.708 771.574 318.292C768.153 316.876 765.38 314.634 763.256 311.566C761.25 308.38 760.247 304.309 760.247 299.354V241.477H748.034V226.432H760.247V195.989H779.716V226.432H799.894V241.477H779.716V293.159C779.952 296.345 780.955 298.705 782.725 300.239C784.613 301.773 786.914 302.54 789.628 302.54C792.342 302.54 794.938 302.068 797.416 301.124C799.894 300.18 801.722 299.413 802.902 298.823L806.973 314.221ZM863.645 243.247C856.093 243.365 849.367 245.076 843.467 248.379C837.685 251.683 833.556 256.344 831.078 262.362V319H811.608V226.432H829.662V247.14C832.848 240.769 837.036 235.695 842.228 231.919C847.42 228.025 852.907 225.901 858.689 225.547C859.869 225.547 860.813 225.547 861.521 225.547C862.347 225.547 863.055 225.606 863.645 225.724V243.247ZM909.178 320.77C901.98 320.77 895.431 319.531 889.531 317.053C883.75 314.457 878.735 310.976 874.487 306.61C870.239 302.127 866.935 297.053 864.575 291.389C862.333 285.607 861.212 279.471 861.212 272.982C861.212 264.25 863.218 256.285 867.23 249.087C871.242 241.772 876.847 235.931 884.044 231.565C891.242 227.081 899.679 224.839 909.355 224.839C919.03 224.839 927.349 227.081 934.311 231.565C941.391 235.931 946.877 241.713 950.771 248.91C954.665 256.108 956.612 263.837 956.612 272.097C956.612 273.513 956.553 274.869 956.435 276.167C956.317 277.347 956.199 278.35 956.081 279.176H881.921C882.275 284.604 883.75 289.383 886.345 293.513C889.059 297.525 892.481 300.711 896.611 303.071C900.741 305.312 905.166 306.433 909.886 306.433C915.077 306.433 919.974 305.135 924.576 302.54C929.296 299.944 932.482 296.522 934.134 292.274L950.771 297.053C948.765 301.537 945.697 305.607 941.568 309.265C937.556 312.805 932.777 315.637 927.231 317.761C921.685 319.767 915.667 320.77 909.178 320.77ZM881.39 266.256H937.32C936.966 260.946 935.432 256.285 932.718 252.273C930.122 248.143 926.759 244.958 922.629 242.716C918.617 240.356 914.133 239.176 909.178 239.176C904.34 239.176 899.856 240.356 895.726 242.716C891.714 244.958 888.41 248.143 885.814 252.273C883.219 256.285 881.744 260.946 881.39 266.256ZM1005.59 320.77C998.393 320.77 991.844 319.531 985.945 317.053C980.163 314.457 975.148 310.976 970.9 306.61C966.652 302.127 963.348 297.053 960.988 291.389C958.747 285.607 957.626 279.471 957.626 272.982C957.626 264.25 959.632 256.285 963.643 249.087C967.655 241.772 973.26 235.931 980.458 231.565C987.656 227.081 996.092 224.839 1005.77 224.839C1015.44 224.839 1023.76 227.081 1030.72 231.565C1037.8 235.931 1043.29 241.713 1047.18 248.91C1051.08 256.108 1053.03 263.837 1053.03 272.097C1053.03 273.513 1052.97 274.869 1052.85 276.167C1052.73 277.347 1052.61 278.35 1052.49 279.176H978.334C978.688 284.604 980.163 289.383 982.759 293.513C985.473 297.525 988.895 300.711 993.024 303.071C997.154 305.312 1001.58 306.433 1006.3 306.433C1011.49 306.433 1016.39 305.135 1020.99 302.54C1025.71 299.944 1028.9 296.522 1030.55 292.274L1047.18 297.053C1045.18 301.537 1042.11 305.607 1037.98 309.265C1033.97 312.805 1029.19 315.637 1023.64 317.761C1018.1 319.767 1012.08 320.77 1005.59 320.77ZM977.803 266.256H1033.73C1033.38 260.946 1031.85 256.285 1029.13 252.273C1026.54 248.143 1023.17 244.958 1019.04 242.716C1015.03 240.356 1010.55 239.176 1005.59 239.176C1000.75 239.176 996.269 240.356 992.139 242.716C988.128 244.958 984.824 248.143 982.228 252.273C979.632 256.285 978.157 260.946 977.803 266.256ZM1110.7 314.221C1109.05 315.047 1106.98 315.932 1104.5 316.876C1102.03 317.82 1099.19 318.646 1096.01 319.354C1092.94 320.062 1089.75 320.416 1086.45 320.416C1082.44 320.416 1078.72 319.708 1075.3 318.292C1071.88 316.876 1069.1 314.634 1066.98 311.566C1064.97 308.38 1063.97 304.309 1063.97 299.354V241.477H1051.76V226.432H1063.97V195.989H1083.44V226.432H1103.62V241.477H1083.44V293.159C1083.68 296.345 1084.68 298.705 1086.45 300.239C1088.34 301.773 1090.64 302.54 1093.35 302.54C1096.07 302.54 1098.66 302.068 1101.14 301.124C1103.62 300.18 1105.45 299.413 1106.63 298.823L1110.7 314.221Z" fill="white"/>
<g clip-path="url(#clip0_12_1653)">
<path d="M2429.02 192.193H2454.52L2401.08 319.233H2378.25L2355.42 261.907L2332.58 319.233H2309.75L2256.07 192.193H2281.57L2322.38 293.242L2340.36 246.361L2318.49 192.436H2341.08L2355.42 232.03L2369.5 192.436H2392.09L2370.48 246.361L2388.45 293.242L2429.02 192.193Z" fill="#B2BBC8"/>
</g>
<defs>
<clipPath id="clip0_12_1653">
<rect width="198.602" height="127.246" fill="white" transform="translate(2256 192.177)"/>
</clipPath>
</defs>
</svg>
