<svg width="3544" height="508" viewBox="0 0 3544 508" fill="none" xmlns="http://www.w3.org/2000/svg">
<g clip-path="url(#clip0_38_1116)">
<path fill-rule="evenodd" clip-rule="evenodd" d="M155.294 350.699L0.561279 200.517L205.354 0.275391L282.72 77.6416L241.762 118.6L205.354 82.1925L87.0294 200.517L196.252 312.016L155.294 350.699Z" fill="black"/>
<path fill-rule="evenodd" clip-rule="evenodd" d="M159.844 195.966L200.803 155.008L353.26 307.465L148.467 507.707L71.1008 430.34L112.059 389.382L148.467 425.79L266.792 305.189L159.844 195.966Z" fill="black"/>
<path d="M578.135 359.048V167.178H504.999V145.859H675.551V167.178H602.415V359.048H578.135ZM675.618 359.048V208.039H697.825V246.532H699.306V359.048H675.618ZM699.306 280.287L695.456 244.459C699.01 231.628 705.326 221.857 714.407 215.145C723.487 208.434 733.949 205.078 745.793 205.078C750.728 205.078 754.083 205.473 755.86 206.263V229.062C754.873 228.667 753.491 228.47 751.715 228.47C749.938 228.272 747.767 228.174 745.201 228.174C730.198 228.174 718.749 232.714 710.853 241.794C703.155 250.677 699.306 263.508 699.306 280.287ZM874.995 359.048C874.205 355.693 873.613 351.843 873.218 347.501C873.021 343.158 872.922 337.631 872.922 330.919H871.442V258.672C871.442 247.223 868.777 238.833 863.447 233.503C858.315 227.976 849.925 225.213 838.279 225.213C826.83 225.213 817.651 227.582 810.742 232.319C804.03 236.859 800.28 243.373 799.49 251.861H776.691C777.678 237.254 783.797 225.805 795.049 217.514C806.301 209.224 821.007 205.078 839.167 205.078C857.92 205.078 871.837 209.52 880.917 218.403C889.997 227.285 894.537 240.61 894.537 258.376V330.919C894.537 335.262 894.833 339.802 895.426 344.54C896.018 349.08 896.807 353.916 897.794 359.048H874.995ZM823.178 362.009C807.584 362.009 795.148 358.259 785.87 350.758C776.79 343.059 772.249 332.597 772.249 319.371C772.249 306.146 776.79 295.881 785.87 288.577C794.95 281.274 808.176 276.141 825.547 273.18L878.252 264.297V283.84L829.1 291.538C818.046 293.315 809.656 296.276 803.932 300.421C798.207 304.567 795.345 310.587 795.345 318.483C795.345 326.182 797.911 332.005 803.043 335.953C808.373 339.901 816.17 341.875 826.435 341.875C839.661 341.875 850.419 338.914 858.71 332.992C867.198 326.873 871.442 318.977 871.442 309.304L875.291 330.327C872.133 340.394 865.915 348.191 856.637 353.719C847.557 359.246 836.404 362.009 823.178 362.009ZM940.196 359.048V208.039H962.403V243.571H963.884V359.048H940.196ZM1048.27 359.048V260.152C1048.27 248.703 1045.41 240.116 1039.68 234.392C1033.96 228.667 1025.47 225.805 1014.22 225.805C1004.35 225.805 995.566 227.976 987.868 232.319C980.367 236.662 974.445 242.682 970.102 250.381C965.957 258.079 963.884 267.061 963.884 277.326L960.035 241.498C965.167 230.246 972.964 221.364 983.426 214.849C994.086 208.335 1006.13 205.078 1019.55 205.078C1035.34 205.078 1047.98 209.618 1057.45 218.699C1067.12 227.582 1071.96 239.327 1071.96 253.934V359.048H1048.27ZM1168.1 362.009C1149.54 362.009 1134.74 357.765 1123.68 349.277C1112.63 340.592 1106.31 328.353 1104.73 312.561H1127.53C1128.91 322.234 1133.16 329.636 1140.26 334.768C1147.37 339.901 1156.84 342.467 1168.69 342.467C1179.15 342.467 1187.34 340.493 1193.26 336.545C1199.19 332.597 1202.15 326.971 1202.15 319.668C1202.15 314.535 1200.47 310.094 1197.11 306.343C1193.76 302.395 1187.05 299.138 1176.98 296.572L1152.7 290.354C1138.88 286.801 1128.52 281.372 1121.61 274.069C1114.7 266.568 1111.25 257.685 1111.25 247.42C1111.25 234.392 1116.08 224.127 1125.75 216.626C1135.43 208.927 1148.55 205.078 1165.13 205.078C1181.52 205.078 1194.84 209.026 1205.11 216.922C1215.37 224.818 1221.2 235.774 1222.58 249.789H1199.78C1198.4 241.695 1194.65 235.477 1188.53 231.135C1182.41 226.792 1174.31 224.621 1164.25 224.621C1154.57 224.621 1147.07 226.496 1141.74 230.246C1136.41 233.8 1133.75 238.932 1133.75 245.643C1133.75 250.776 1135.62 255.217 1139.37 258.968C1143.32 262.718 1149.84 265.877 1158.92 268.443L1182.6 274.957C1196.62 278.708 1207.18 284.432 1214.29 292.131C1221.39 299.829 1224.95 309.107 1224.95 319.964C1224.95 333.189 1219.91 343.553 1209.85 351.054C1199.78 358.357 1185.86 362.009 1168.1 362.009ZM1331.44 361.713C1317.23 361.713 1305.28 358.259 1295.61 351.35C1285.94 344.441 1279.33 334.67 1275.77 322.036L1280.51 321.444V419.748H1256.82V208.039H1279.03V243.275L1275.77 242.386C1279.52 230.74 1286.63 221.66 1297.09 215.145C1307.55 208.434 1319.69 205.078 1333.51 205.078C1346.93 205.078 1358.58 208.335 1368.45 214.849C1378.52 221.364 1386.32 230.444 1391.84 242.09C1397.37 253.737 1400.13 267.357 1400.13 282.952C1400.13 298.743 1397.27 312.561 1391.55 324.405C1385.82 336.249 1377.83 345.428 1367.56 351.942C1357.3 358.456 1345.26 361.713 1331.44 361.713ZM1327.89 340.986C1342.89 340.986 1354.63 335.854 1363.12 325.589C1371.61 315.127 1375.85 300.915 1375.85 282.952C1375.85 265.186 1371.61 251.269 1363.12 241.202C1354.63 230.937 1342.89 225.805 1327.89 225.805C1312.88 225.805 1301.04 231.036 1292.35 241.498C1283.67 251.763 1279.33 265.877 1279.33 283.84C1279.33 301.408 1283.67 315.325 1292.35 325.589C1301.04 335.854 1312.88 340.986 1327.89 340.986ZM1499.16 362.009C1484.36 362.009 1471.33 358.555 1460.08 351.646C1448.83 344.737 1440.04 335.361 1433.72 323.517C1427.6 311.476 1424.55 297.954 1424.55 282.952C1424.55 267.752 1427.7 254.329 1434.02 242.682C1440.34 231.036 1449.02 221.857 1460.08 215.145C1471.33 208.434 1484.36 205.078 1499.16 205.078C1514.16 205.078 1527.19 208.434 1538.25 215.145C1549.5 221.857 1558.18 231.036 1564.3 242.682C1570.62 254.329 1573.78 267.752 1573.78 282.952C1573.78 297.954 1570.62 311.476 1564.3 323.517C1558.18 335.361 1549.5 344.737 1538.25 351.646C1527.19 358.555 1514.16 362.009 1499.16 362.009ZM1499.16 341.875C1509.43 341.875 1518.31 339.407 1525.81 334.472C1533.31 329.34 1539.13 322.332 1543.28 313.449C1547.43 304.567 1549.5 294.302 1549.5 282.655C1549.5 265.284 1544.86 251.368 1535.58 240.906C1526.5 230.444 1514.36 225.213 1499.16 225.213C1484.16 225.213 1472.02 230.444 1462.74 240.906C1453.46 251.368 1448.83 265.284 1448.83 282.655C1448.83 294.302 1450.9 304.567 1455.04 313.449C1459.19 322.332 1465.01 329.34 1472.51 334.472C1480.21 339.407 1489.09 341.875 1499.16 341.875ZM1609.3 359.048V208.039H1631.51V246.532H1632.99V359.048H1609.3ZM1632.99 280.287L1629.14 244.459C1632.7 231.628 1639.01 221.857 1648.09 215.145C1657.17 208.434 1667.64 205.078 1679.48 205.078C1684.41 205.078 1687.77 205.473 1689.55 206.263V229.062C1688.56 228.667 1687.18 228.47 1685.4 228.47C1683.62 228.272 1681.45 228.174 1678.89 228.174C1663.89 228.174 1652.44 232.714 1644.54 241.794C1636.84 250.677 1632.99 263.508 1632.99 280.287ZM1784.21 361.713C1767.44 361.713 1755.2 357.963 1747.5 350.462C1740 342.763 1736.25 331.709 1736.25 317.299V172.804L1759.93 163.921V317.003C1759.93 325.491 1762.11 331.709 1766.45 335.657C1770.79 339.605 1777.9 341.579 1787.77 341.579C1791.72 341.579 1795.07 341.381 1797.83 340.986C1800.8 340.394 1803.16 339.703 1804.94 338.914V359.048C1802.97 359.838 1800.1 360.43 1796.35 360.825C1792.8 361.417 1788.75 361.713 1784.21 361.713ZM1705.16 228.174V208.039H1804.94V228.174H1705.16ZM1907.14 359.048V186.72C1907.14 172.902 1911.09 162.144 1918.98 154.446C1927.08 146.747 1939.31 142.898 1955.7 142.898C1959.65 142.898 1962.71 143.095 1964.88 143.49C1967.25 143.885 1969.22 144.378 1970.8 144.971V163.625C1969.42 163.23 1967.44 162.835 1964.88 162.44C1962.51 162.046 1959.94 161.848 1957.18 161.848C1948.1 161.848 1941.39 164.118 1937.04 168.658C1932.9 173.199 1930.83 179.614 1930.83 187.905V359.048H1907.14ZM1876.05 228.174V208.039H1967.54V228.174H1876.05ZM2056.37 362.009C2041.56 362.009 2028.53 358.555 2017.28 351.646C2006.03 344.737 1997.25 335.361 1990.93 323.517C1984.81 311.476 1981.75 297.954 1981.75 282.952C1981.75 267.752 1984.91 254.329 1991.22 242.682C1997.54 231.036 2006.23 221.857 2017.28 215.145C2028.53 208.434 2041.56 205.078 2056.37 205.078C2071.37 205.078 2084.4 208.434 2095.45 215.145C2106.7 221.857 2115.39 231.036 2121.51 242.682C2127.82 254.329 2130.98 267.752 2130.98 282.952C2130.98 297.954 2127.82 311.476 2121.51 323.517C2115.39 335.361 2106.7 344.737 2095.45 351.646C2084.4 358.555 2071.37 362.009 2056.37 362.009ZM2056.37 341.875C2066.63 341.875 2075.51 339.407 2083.01 334.472C2090.52 329.34 2096.34 322.332 2100.48 313.449C2104.63 304.567 2106.7 294.302 2106.7 282.655C2106.7 265.284 2102.06 251.368 2092.79 240.906C2083.71 230.444 2071.57 225.213 2056.37 225.213C2041.36 225.213 2029.22 230.444 2019.95 240.906C2010.67 251.368 2006.03 265.284 2006.03 282.655C2006.03 294.302 2008.1 304.567 2012.25 313.449C2016.39 322.332 2022.22 329.34 2029.72 334.472C2037.42 339.407 2046.3 341.875 2056.37 341.875ZM2166.51 359.048V208.039H2188.72V246.532H2190.2V359.048H2166.51ZM2190.2 280.287L2186.35 244.459C2189.9 231.628 2196.22 221.857 2205.3 215.145C2214.38 208.434 2224.84 205.078 2236.68 205.078C2241.62 205.078 2244.97 205.473 2246.75 206.263V229.062C2245.76 228.667 2244.38 228.47 2242.61 228.47C2240.83 228.272 2238.66 228.174 2236.09 228.174C2221.09 228.174 2209.64 232.714 2201.74 241.794C2194.05 250.677 2190.2 263.508 2190.2 280.287ZM2414.1 361.713C2387.26 361.713 2365.84 355.594 2349.85 343.355C2334.06 330.919 2324.78 313.449 2322.02 290.946H2359.03C2360.81 303.974 2366.63 314.14 2376.5 321.444C2386.37 328.55 2399.3 332.104 2415.29 332.104C2428.51 332.104 2438.58 329.735 2445.49 324.997C2452.6 320.062 2456.15 313.252 2456.15 304.567C2456.15 296.868 2453.98 290.65 2449.64 285.913C2445.29 281.175 2437.99 277.326 2427.72 274.365L2389.23 262.817C2369.69 256.895 2355.28 249.098 2346 239.425C2336.92 229.753 2332.38 217.613 2332.38 203.006C2332.38 190.767 2335.54 180.107 2341.86 171.027C2348.17 161.947 2357.06 154.939 2368.51 150.004C2380.15 145.069 2393.67 142.602 2409.07 142.602C2432.76 142.602 2451.61 148.425 2465.62 160.072C2479.84 171.521 2487.93 187.115 2489.9 206.855H2452.89C2450.72 195.011 2445.79 186.325 2438.09 180.798C2430.39 175.074 2420.03 172.212 2407 172.212C2395.55 172.212 2386.47 174.482 2379.76 179.022C2373.05 183.562 2369.69 189.78 2369.69 197.676C2369.69 204.19 2371.66 209.717 2375.61 214.257C2379.76 218.797 2387.36 222.745 2398.41 226.101L2437.5 237.945C2457.04 243.669 2471.25 251.467 2480.13 261.337C2489.02 271.206 2493.46 283.741 2493.46 298.941C2493.46 319.075 2486.45 334.571 2472.43 345.428C2458.62 356.285 2439.17 361.713 2414.1 361.713ZM2588.44 362.009C2569.89 362.009 2556.17 357.667 2547.28 348.981C2538.6 340.098 2534.26 326.873 2534.26 309.304V173.692L2571.86 159.775V310.192C2571.86 317.496 2573.83 322.925 2577.78 326.478C2581.73 330.031 2587.95 331.807 2596.44 331.807C2599.79 331.807 2602.75 331.61 2605.32 331.215C2608.08 330.623 2610.65 329.932 2613.02 329.143V358.16C2610.65 359.344 2607.29 360.233 2602.95 360.825C2598.61 361.615 2593.77 362.009 2588.44 362.009ZM2505.24 237.353V208.039H2613.02V237.353H2505.24ZM2704.1 362.009C2688.12 362.009 2674.1 358.654 2662.06 351.942C2650.22 345.231 2640.94 335.953 2634.23 324.109C2627.71 312.265 2624.45 298.645 2624.45 283.248C2624.45 267.851 2627.71 254.329 2634.23 242.682C2640.94 230.839 2650.22 221.66 2662.06 215.145C2673.9 208.434 2687.72 205.078 2703.51 205.078C2718.51 205.078 2731.54 208.237 2742.6 214.553C2753.65 220.673 2762.24 229.358 2768.36 240.61C2774.48 251.861 2777.54 264.988 2777.54 279.991C2777.54 282.754 2777.44 285.32 2777.24 287.689C2777.04 290.058 2776.75 292.427 2776.35 294.795H2647.55V268.739H2747.63L2739.93 275.845C2739.93 261.633 2736.68 250.973 2730.16 243.867C2723.65 236.761 2714.57 233.207 2702.92 233.207C2690.29 233.207 2680.22 237.55 2672.72 246.236C2665.41 254.921 2661.76 267.456 2661.76 283.84C2661.76 300.026 2665.41 312.463 2672.72 321.148C2680.22 329.636 2690.78 333.88 2704.4 333.88C2712.3 333.88 2719.21 332.4 2725.13 329.439C2731.05 326.478 2735.39 321.938 2738.16 315.818H2773.39C2768.46 330.031 2760.07 341.283 2748.22 349.573C2736.58 357.864 2721.87 362.009 2704.1 362.009ZM2891.62 362.009C2877.21 362.009 2865.46 358.654 2856.38 351.942C2847.5 345.033 2841.97 335.558 2839.8 323.517L2842.76 323.221V419.748H2805.46V208.039H2841.88V242.09L2838.91 241.498C2841.68 230.246 2847.99 221.364 2857.86 214.849C2867.73 208.335 2879.78 205.078 2893.99 205.078C2907.41 205.078 2919.06 208.335 2928.93 214.849C2938.99 221.166 2946.79 230.148 2952.32 241.794C2957.85 253.441 2960.61 267.16 2960.61 282.952C2960.61 298.941 2957.75 312.857 2952.02 324.701C2946.3 336.545 2938.3 345.724 2928.04 352.238C2917.77 358.752 2905.63 362.009 2891.62 362.009ZM2882.14 331.215C2894.19 331.215 2903.76 327.07 2910.87 318.779C2917.97 310.291 2921.53 298.447 2921.53 283.248C2921.53 268.048 2917.87 256.303 2910.57 248.012C2903.46 239.721 2893.89 235.576 2881.85 235.576C2870 235.576 2860.43 239.82 2853.13 248.308C2845.82 256.599 2842.17 268.344 2842.17 283.544C2842.17 298.743 2845.82 310.489 2853.13 318.779C2860.43 327.07 2870.1 331.215 2882.14 331.215ZM2998.89 359.048V194.123C2998.89 177.541 3003.43 164.908 3012.51 156.222C3021.79 147.339 3035.61 142.898 3053.96 142.898C3058.11 142.898 3061.56 143.095 3064.33 143.49C3067.09 143.885 3069.76 144.477 3072.32 145.267V174.284C3070.94 173.692 3069.16 173.297 3066.99 173.1C3064.82 172.705 3062.35 172.508 3059.59 172.508C3051.69 172.508 3045.77 174.482 3041.82 178.43C3038.07 182.18 3036.2 187.707 3036.2 195.011V359.048H2998.89ZM2971.65 237.353V208.039H3069.06V237.353H2971.65ZM3158.68 362.009C3142.69 362.009 3128.58 358.654 3116.34 351.942C3104.3 345.231 3094.92 335.953 3088.21 324.109C3081.5 312.068 3078.14 298.349 3078.14 282.952C3078.14 267.555 3081.5 254.033 3088.21 242.386C3094.92 230.74 3104.3 221.66 3116.34 215.145C3128.58 208.434 3142.69 205.078 3158.68 205.078C3174.87 205.078 3188.98 208.434 3201.02 215.145C3213.06 221.66 3222.44 230.74 3229.15 242.386C3235.86 254.033 3239.22 267.555 3239.22 282.952C3239.22 298.349 3235.76 312.068 3228.85 324.109C3222.14 335.953 3212.77 345.231 3200.73 351.942C3188.68 358.654 3174.67 362.009 3158.68 362.009ZM3158.68 332.104C3166.58 332.104 3173.68 330.13 3180 326.182C3186.32 322.036 3191.25 316.312 3194.8 309.008C3198.36 301.507 3200.13 292.723 3200.13 282.655C3200.13 267.851 3196.19 256.204 3188.29 247.716C3180.59 239.228 3170.72 234.984 3158.68 234.984C3146.64 234.984 3136.67 239.228 3128.77 247.716C3120.88 256.204 3116.93 267.851 3116.93 282.655C3116.93 292.723 3118.71 301.507 3122.26 309.008C3126.01 316.312 3130.95 322.036 3137.06 326.182C3143.38 330.13 3150.59 332.104 3158.68 332.104ZM3266.66 359.048V208.039H3303.08V244.459H3303.97V359.048H3266.66ZM3303.97 280.287L3300.12 244.459C3303.67 231.628 3309.69 221.857 3318.18 215.145C3326.67 208.434 3336.84 205.078 3348.68 205.078C3352.82 205.078 3355.79 205.473 3357.56 206.263V241.498C3356.57 241.103 3355.19 240.906 3353.42 240.906C3351.64 240.708 3349.47 240.61 3346.9 240.61C3332.49 240.61 3321.73 243.768 3314.63 250.085C3307.52 256.402 3303.97 266.469 3303.97 280.287ZM3486.34 359.048V324.997L3489.3 325.589C3486.74 336.644 3480.52 345.527 3470.65 352.238C3460.78 358.752 3449.03 362.009 3435.41 362.009C3421.6 362.009 3409.56 358.851 3399.29 352.534C3389.22 346.02 3381.43 336.94 3375.9 325.293C3370.37 313.647 3367.61 299.928 3367.61 284.136C3367.61 268.147 3370.47 254.23 3376.2 242.386C3381.92 230.543 3389.91 221.364 3400.18 214.849C3410.64 208.335 3422.78 205.078 3436.6 205.078C3450.81 205.078 3462.56 208.533 3471.83 215.442C3481.11 222.153 3486.84 231.529 3489.01 243.571L3485.16 243.867V145.859H3522.76V359.048H3486.34ZM3446.37 331.511C3458.41 331.511 3467.98 327.366 3475.09 319.075C3482.39 310.587 3486.05 298.743 3486.05 283.544C3486.05 268.344 3482.39 256.599 3475.09 248.308C3467.79 240.018 3458.12 235.872 3446.07 235.872C3434.23 235.872 3424.66 240.116 3417.35 248.604C3410.05 256.895 3406.4 268.64 3406.4 283.84C3406.4 299.039 3410.05 310.785 3417.35 319.075C3424.66 327.366 3434.33 331.511 3446.37 331.511Z" fill="black"/>
</g>
<defs>
<clipPath id="clip0_38_1116">
<rect width="3543.34" height="508" fill="white"/>
</clipPath>
</defs>
</svg>
