<svg width="2560" height="512" viewBox="0 0 2560 512" fill="none" xmlns="http://www.w3.org/2000/svg">
<rect width="2560" height="512" fill="#34495E"/>
<path d="M2105 512L2217 0H2560V512H2105Z" fill="#2A2A2A"/>
<path d="M173.459 193.865H192.044L207.619 236.521L223.372 193.865H241.956L220.363 249.795L239.124 295.991L278.24 193.334H300.01L248.505 319H231.336L207.796 262.716L184.079 319H166.733L115.405 193.334H136.999L176.291 295.991L195.053 249.795L173.459 193.865ZM333.187 320.77C325.989 320.77 319.44 319.531 313.54 317.053C307.759 314.457 302.744 310.976 298.496 306.61C294.248 302.127 290.944 297.053 288.584 291.389C286.342 285.607 285.221 279.471 285.221 272.982C285.221 264.25 287.227 256.285 291.239 249.087C295.251 241.772 300.856 235.931 308.054 231.565C315.251 227.081 323.688 224.839 333.364 224.839C343.039 224.839 351.358 227.081 358.32 231.565C365.4 235.931 370.886 241.713 374.78 248.91C378.674 256.108 380.621 263.837 380.621 272.097C380.621 273.513 380.562 274.869 380.444 276.167C380.326 277.347 380.208 278.35 380.09 279.176H305.93C306.284 284.604 307.759 289.383 310.354 293.513C313.068 297.525 316.49 300.711 320.62 303.071C324.75 305.312 329.175 306.433 333.895 306.433C339.086 306.433 343.983 305.135 348.585 302.54C353.305 299.944 356.491 296.522 358.143 292.274L374.78 297.053C372.774 301.537 369.706 305.607 365.577 309.265C361.565 312.805 356.786 315.637 351.24 317.761C345.694 319.767 339.676 320.77 333.187 320.77ZM305.399 266.256H361.329C360.975 260.946 359.441 256.285 356.727 252.273C354.131 248.143 350.768 244.958 346.638 242.716C342.626 240.356 338.142 239.176 333.187 239.176C328.349 239.176 323.865 240.356 319.735 242.716C315.723 244.958 312.419 248.143 309.823 252.273C307.228 256.285 305.753 260.946 305.399 266.256ZM420.573 320.77C412.786 320.77 405.411 319.531 398.449 317.053C391.487 314.457 385.528 310.622 380.573 305.548L387.829 292.451C393.139 297.171 398.449 300.593 403.759 302.717C409.187 304.84 414.555 305.902 419.865 305.902C425.293 305.902 429.718 304.899 433.14 302.894C436.562 300.77 438.273 297.702 438.273 293.69C438.273 290.74 437.388 288.557 435.618 287.141C433.848 285.725 431.252 284.486 427.83 283.424C424.526 282.362 420.514 281.182 415.794 279.884C409.187 277.878 403.641 275.813 399.157 273.69C394.673 271.448 391.31 268.734 389.068 265.548C386.826 262.362 385.705 258.291 385.705 253.335C385.705 247.317 387.239 242.185 390.307 237.937C393.375 233.689 397.623 230.444 403.051 228.202C408.597 225.96 414.968 224.839 422.166 224.839C428.892 224.839 435.087 225.901 440.751 228.025C446.532 230.031 451.606 233.217 455.972 237.583L447.653 250.503C443.524 246.727 439.276 243.955 434.91 242.185C430.662 240.415 426.06 239.53 421.104 239.53C418.272 239.53 415.558 239.884 412.963 240.592C410.367 241.182 408.184 242.362 406.414 244.132C404.762 245.783 403.936 248.143 403.936 251.211C403.936 253.689 404.644 255.695 406.06 257.229C407.476 258.763 409.6 260.061 412.432 261.123C415.263 262.185 418.744 263.365 422.874 264.663C430.072 266.787 436.208 268.911 441.282 271.035C446.355 273.041 450.249 275.695 452.963 278.999C455.795 282.185 457.211 286.61 457.211 292.274C457.211 301.242 453.848 308.262 447.122 313.336C440.515 318.292 431.665 320.77 420.573 320.77ZM517.077 314.221C515.425 315.047 513.36 315.932 510.882 316.876C508.404 317.82 505.572 318.646 502.386 319.354C499.318 320.062 496.132 320.416 492.828 320.416C488.816 320.416 485.1 319.708 481.678 318.292C478.256 316.876 475.483 314.634 473.359 311.566C471.353 308.38 470.35 304.309 470.35 299.354V241.477H458.138V226.432H470.35V195.989H489.819V226.432H509.997V241.477H489.819V293.159C490.055 296.345 491.058 298.705 492.828 300.239C494.716 301.773 497.017 302.54 499.731 302.54C502.445 302.54 505.041 302.068 507.519 301.124C509.997 300.18 511.826 299.413 513.006 298.823L517.077 314.221ZM657.832 286.61C657.832 293.336 656.062 299.118 652.523 303.956C649.101 308.793 644.44 312.51 638.54 315.106C632.64 317.702 626.15 319 619.071 319H559.07V193.334H623.85C629.749 193.334 634.823 194.927 639.071 198.113C643.437 201.181 646.741 205.193 648.983 210.149C651.343 214.987 652.523 220.06 652.523 225.37C652.523 231.506 650.93 237.288 647.744 242.716C644.676 248.025 640.251 251.978 634.469 254.574C641.667 256.698 647.331 260.592 651.461 266.256C655.708 271.802 657.832 278.586 657.832 286.61ZM637.478 282.893C637.478 279.353 636.711 276.167 635.177 273.336C633.761 270.386 631.755 268.026 629.159 266.256C626.681 264.368 623.732 263.424 620.31 263.424H578.893V301.832H619.071C622.611 301.832 625.737 301.006 628.451 299.354C631.283 297.584 633.466 295.283 635 292.451C636.652 289.501 637.478 286.315 637.478 282.893ZM578.893 210.503V247.494H615.354C618.658 247.494 621.608 246.727 624.203 245.194C626.799 243.542 628.864 241.359 630.398 238.645C631.932 235.813 632.699 232.627 632.699 229.087C632.699 225.429 631.991 222.243 630.575 219.529C629.159 216.697 627.212 214.515 624.734 212.981C622.375 211.329 619.602 210.503 616.416 210.503H578.893ZM709.126 320.77C701.928 320.77 695.38 319.531 689.48 317.053C683.698 314.457 678.683 310.976 674.435 306.61C670.187 302.127 666.884 297.053 664.524 291.389C662.282 285.607 661.161 279.471 661.161 272.982C661.161 264.25 663.167 256.285 667.178 249.087C671.19 241.772 676.795 235.931 683.993 231.565C691.191 227.081 699.627 224.839 709.303 224.839C718.979 224.839 727.297 227.081 734.259 231.565C741.339 235.931 746.826 241.713 750.72 248.91C754.614 256.108 756.56 263.837 756.56 272.097C756.56 273.513 756.501 274.869 756.383 276.167C756.265 277.347 756.147 278.35 756.029 279.176H681.869C682.223 284.604 683.698 289.383 686.294 293.513C689.008 297.525 692.43 300.711 696.559 303.071C700.689 305.312 705.114 306.433 709.834 306.433C715.026 306.433 719.923 305.135 724.525 302.54C729.244 299.944 732.43 296.522 734.082 292.274L750.72 297.053C748.714 301.537 745.646 305.607 741.516 309.265C737.504 312.805 732.725 315.637 727.179 317.761C721.634 319.767 715.616 320.77 709.126 320.77ZM681.338 266.256H737.268C736.914 260.946 735.38 256.285 732.666 252.273C730.07 248.143 726.707 244.958 722.578 242.716C718.566 240.356 714.082 239.176 709.126 239.176C704.288 239.176 699.804 240.356 695.675 242.716C691.663 244.958 688.359 248.143 685.763 252.273C683.167 256.285 681.692 260.946 681.338 266.256ZM846.602 319H827.133V267.141C827.133 258.527 825.717 252.214 822.885 248.202C820.171 244.191 816.1 242.185 810.672 242.185C806.896 242.185 803.12 243.129 799.345 245.017C795.687 246.904 792.383 249.5 789.433 252.804C786.483 255.99 784.359 259.707 783.061 263.955V319H763.592V226.432H781.291V245.017C783.651 240.887 786.719 237.347 790.495 234.397C794.389 231.329 798.755 228.969 803.592 227.317C808.43 225.665 813.563 224.839 818.991 224.839C824.537 224.839 829.08 225.842 832.619 227.848C836.277 229.854 839.109 232.627 841.115 236.167C843.239 239.589 844.655 243.601 845.363 248.202C846.189 252.686 846.602 257.465 846.602 262.539V319ZM911.165 314.221C909.513 315.047 907.448 315.932 904.97 316.876C902.492 317.82 899.66 318.646 896.474 319.354C893.406 320.062 890.22 320.416 886.917 320.416C882.905 320.416 879.188 319.708 875.766 318.292C872.344 316.876 869.571 314.634 867.447 311.566C865.441 308.38 864.438 304.309 864.438 299.354V241.477H852.226V226.432H864.438V195.989H883.908V226.432H904.085V241.477H883.908V293.159C884.144 296.345 885.147 298.705 886.917 300.239C888.804 301.773 891.105 302.54 893.819 302.54C896.533 302.54 899.129 302.068 901.607 301.124C904.085 300.18 905.914 299.413 907.094 298.823L911.165 314.221ZM956.183 320.77C948.868 320.77 942.319 319.531 936.537 317.053C930.755 314.457 925.74 310.917 921.493 306.433C917.363 301.95 914.177 296.876 911.935 291.212C909.693 285.43 908.572 279.294 908.572 272.805C908.572 266.315 909.693 260.179 911.935 254.397C914.177 248.615 917.363 243.542 921.493 239.176C925.74 234.692 930.755 231.211 936.537 228.733C942.437 226.137 948.986 224.839 956.183 224.839C963.381 224.839 969.871 226.137 975.653 228.733C981.553 231.211 986.567 234.692 990.697 239.176C994.945 243.542 998.19 248.615 1000.43 254.397C1002.67 260.179 1003.79 266.315 1003.79 272.805C1003.79 279.294 1002.67 285.43 1000.43 291.212C998.19 296.876 994.945 301.95 990.697 306.433C986.567 310.917 981.553 314.457 975.653 317.053C969.871 319.531 963.381 320.77 956.183 320.77ZM928.572 272.982C928.572 278.881 929.811 284.191 932.289 288.911C934.767 293.631 938.071 297.348 942.201 300.062C946.331 302.776 950.992 304.133 956.183 304.133C961.257 304.133 965.859 302.776 969.989 300.062C974.237 297.23 977.6 293.454 980.078 288.734C982.556 283.896 983.794 278.586 983.794 272.805C983.794 266.905 982.556 261.595 980.078 256.875C977.6 252.155 974.237 248.438 969.989 245.724C965.859 242.893 961.257 241.477 956.183 241.477C950.992 241.477 946.331 242.893 942.201 245.724C938.071 248.556 934.767 252.332 932.289 257.052C929.811 261.654 928.572 266.964 928.572 272.982ZM1095.22 319H1075.75V267.141C1075.75 258.527 1074.34 252.214 1071.51 248.202C1068.79 244.191 1064.72 242.185 1059.29 242.185C1055.52 242.185 1051.74 243.129 1047.97 245.017C1044.31 246.904 1041 249.5 1038.05 252.804C1035.1 255.99 1032.98 259.707 1031.68 263.955V319H1012.21V226.432H1029.91V245.017C1032.27 240.887 1035.34 237.347 1039.12 234.397C1043.01 231.329 1047.38 228.969 1052.21 227.317C1057.05 225.665 1062.18 224.839 1067.61 224.839C1073.16 224.839 1077.7 225.842 1081.24 227.848C1084.9 229.854 1087.73 232.627 1089.74 236.167C1091.86 239.589 1093.28 243.601 1093.98 248.202C1094.81 252.686 1095.22 257.465 1095.22 262.539V319Z" fill="white"/>
<g clip-path="url(#clip0_12_1621)">
<path d="M2429.02 192.193H2454.52L2401.08 319.233H2378.25L2355.42 261.907L2332.58 319.233H2309.75L2256.07 192.193H2281.57L2322.38 293.242L2340.36 246.361L2318.49 192.436H2341.08L2355.42 232.03L2369.5 192.436H2392.09L2370.48 246.361L2388.45 293.242L2429.02 192.193Z" fill="#B2BBC8"/>
</g>
<defs>
<clipPath id="clip0_12_1621">
<rect width="198.602" height="127.246" fill="white" transform="translate(2256 192.177)"/>
</clipPath>
</defs>
</svg>
