<svg width="2560" height="512" viewBox="0 0 2560 512" fill="none" xmlns="http://www.w3.org/2000/svg">
<rect width="2560" height="512" fill="#34495E"/>
<path d="M2105 512L2217 0H2560V512H2105Z" fill="#2A2A2A"/>
<path d="M180.183 319.885C171.923 319.885 164.195 318.174 156.997 314.752C149.799 311.33 143.486 306.61 138.059 300.593C132.749 294.575 128.56 287.731 125.492 280.061C122.542 272.392 121.067 264.25 121.067 255.636C121.067 247.022 122.542 238.94 125.492 231.388C128.56 223.836 132.749 217.11 138.059 211.211C143.486 205.311 149.799 200.709 156.997 197.405C164.313 194.101 172.277 192.449 180.891 192.449C192.809 192.449 202.838 194.986 210.98 200.06C219.24 205.016 225.435 211.624 229.564 219.883L214.343 230.857C211.039 224.013 206.319 218.88 200.183 215.459C194.166 212.037 187.558 210.326 180.36 210.326C174.46 210.326 169.091 211.565 164.254 214.043C159.416 216.52 155.227 219.942 151.687 224.308C148.265 228.556 145.669 233.453 143.899 238.999C142.129 244.427 141.244 250.149 141.244 256.167C141.244 262.539 142.247 268.498 144.253 274.044C146.259 279.589 149.091 284.486 152.749 288.734C156.407 292.864 160.714 296.109 165.67 298.469C170.625 300.829 175.994 302.009 181.776 302.009C188.62 302.009 195.11 300.298 201.245 296.876C207.499 293.336 213.34 288.085 218.768 281.123V301.301C207.794 313.69 194.933 319.885 180.183 319.885ZM216.821 270.15H190.449V255.459H233.458V319H216.821V270.15ZM296.778 243.247C289.226 243.365 282.5 245.076 276.601 248.379C270.819 251.683 266.689 256.344 264.211 262.362V319H244.742V226.432H262.795V247.14C265.981 240.769 270.17 235.695 275.362 231.919C280.553 228.025 286.04 225.901 291.822 225.547C293.002 225.547 293.946 225.547 294.654 225.547C295.48 225.547 296.188 225.606 296.778 225.724V243.247ZM342.311 320.77C335.113 320.77 328.564 319.531 322.665 317.053C316.883 314.457 311.868 310.976 307.62 306.61C303.372 302.127 300.068 297.053 297.708 291.389C295.467 285.607 294.346 279.471 294.346 272.982C294.346 264.25 296.352 256.285 300.363 249.087C304.375 241.772 309.98 235.931 317.178 231.565C324.376 227.081 332.812 224.839 342.488 224.839C352.164 224.839 360.482 227.081 367.444 231.565C374.524 235.931 380.011 241.713 383.905 248.91C387.798 256.108 389.745 263.837 389.745 272.097C389.745 273.513 389.686 274.869 389.568 276.167C389.45 277.347 389.332 278.35 389.214 279.176H315.054C315.408 284.604 316.883 289.383 319.479 293.513C322.193 297.525 325.615 300.711 329.744 303.071C333.874 305.312 338.299 306.433 343.019 306.433C348.211 306.433 353.108 305.135 357.709 302.54C362.429 299.944 365.615 296.522 367.267 292.274L383.905 297.053C381.899 301.537 378.831 305.607 374.701 309.265C370.689 312.805 365.91 315.637 360.364 317.761C354.819 319.767 348.801 320.77 342.311 320.77ZM314.523 266.256H370.453C370.099 260.946 368.565 256.285 365.851 252.273C363.255 248.143 359.892 244.958 355.763 242.716C351.751 240.356 347.267 239.176 342.311 239.176C337.473 239.176 332.989 240.356 328.859 242.716C324.848 244.958 321.544 248.143 318.948 252.273C316.352 256.285 314.877 260.946 314.523 266.256ZM438.724 320.77C431.527 320.77 424.978 319.531 419.078 317.053C413.296 314.457 408.281 310.976 404.033 306.61C399.786 302.127 396.482 297.053 394.122 291.389C391.88 285.607 390.759 279.471 390.759 272.982C390.759 264.25 392.765 256.285 396.777 249.087C400.789 241.772 406.393 235.931 413.591 231.565C420.789 227.081 429.226 224.839 438.901 224.839C448.577 224.839 456.896 227.081 463.857 231.565C470.937 235.931 476.424 241.713 480.318 248.91C484.212 256.108 486.159 263.837 486.159 272.097C486.159 273.513 486.1 274.869 485.982 276.167C485.864 277.347 485.746 278.35 485.628 279.176H411.467C411.821 284.604 413.296 289.383 415.892 293.513C418.606 297.525 422.028 300.711 426.158 303.071C430.288 305.312 434.712 306.433 439.432 306.433C444.624 306.433 449.521 305.135 454.123 302.54C458.843 299.944 462.029 296.522 463.68 292.274L480.318 297.053C478.312 301.537 475.244 305.607 471.114 309.265C467.102 312.805 462.324 315.637 456.778 317.761C451.232 319.767 445.214 320.77 438.724 320.77ZM410.936 266.256H466.866C466.512 260.946 464.978 256.285 462.265 252.273C459.669 248.143 456.306 244.958 452.176 242.716C448.164 240.356 443.68 239.176 438.724 239.176C433.886 239.176 429.403 240.356 425.273 242.716C421.261 244.958 417.957 248.143 415.361 252.273C412.765 256.285 411.29 260.946 410.936 266.256ZM576.2 319H556.731V267.141C556.731 258.527 555.315 252.214 552.483 248.202C549.769 244.191 545.698 242.185 540.27 242.185C536.495 242.185 532.719 243.129 528.943 245.017C525.285 246.904 521.981 249.5 519.031 252.804C516.081 255.99 513.957 259.707 512.659 263.955V319H493.19V226.432H510.889V245.017C513.249 240.887 516.317 237.347 520.093 234.397C523.987 231.329 528.353 228.969 533.191 227.317C538.029 225.665 543.161 224.839 548.589 224.839C554.135 224.839 558.678 225.842 562.218 227.848C565.876 229.854 568.707 232.627 570.713 236.167C572.837 239.589 574.253 243.601 574.961 248.202C575.787 252.686 576.2 257.465 576.2 262.539V319ZM622.87 320.77C615.082 320.77 607.707 319.531 600.746 317.053C593.784 314.457 587.825 310.622 582.869 305.548L590.126 292.451C595.436 297.171 600.746 300.593 606.056 302.717C611.483 304.84 616.852 305.902 622.162 305.902C627.59 305.902 632.015 304.899 635.437 302.894C638.858 300.77 640.569 297.702 640.569 293.69C640.569 290.74 639.684 288.557 637.914 287.141C636.144 285.725 633.549 284.486 630.127 283.424C626.823 282.362 622.811 281.182 618.091 279.884C611.483 277.878 605.938 275.813 601.454 273.69C596.97 271.448 593.607 268.734 591.365 265.548C589.123 262.362 588.002 258.291 588.002 253.335C588.002 247.317 589.536 242.185 592.604 237.937C595.672 233.689 599.92 230.444 605.348 228.202C610.893 225.96 617.265 224.839 624.463 224.839C631.189 224.839 637.383 225.901 643.047 228.025C648.829 230.031 653.903 233.217 658.269 237.583L649.95 250.503C645.82 246.727 641.572 243.955 637.206 242.185C632.959 240.415 628.357 239.53 623.401 239.53C620.569 239.53 617.855 239.884 615.259 240.592C612.663 241.182 610.48 242.362 608.71 244.132C607.058 245.783 606.233 248.143 606.233 251.211C606.233 253.689 606.94 255.695 608.356 257.229C609.772 258.763 611.896 260.061 614.728 261.123C617.56 262.185 621.041 263.365 625.171 264.663C632.369 266.787 638.504 268.911 643.578 271.035C648.652 273.041 652.546 275.695 655.26 278.999C658.092 282.185 659.508 286.61 659.508 292.274C659.508 301.242 656.145 308.262 649.419 313.336C642.811 318.292 633.962 320.77 622.87 320.77ZM668.218 189.794H687.687V292.274C687.687 296.994 688.395 300.003 689.811 301.301C691.227 302.599 692.997 303.248 695.121 303.248C697.481 303.248 699.664 303.012 701.67 302.54C703.794 302.068 705.622 301.478 707.156 300.77L709.988 316.168C707.156 317.348 703.794 318.351 699.9 319.177C696.006 320.003 692.525 320.416 689.457 320.416C682.849 320.416 677.657 318.587 673.882 314.929C670.106 311.153 668.218 305.961 668.218 299.354V189.794ZM705.702 291.92C705.702 286.02 707.354 280.887 710.658 276.521C714.079 272.038 718.74 268.616 724.64 266.256C730.54 263.778 737.384 262.539 745.171 262.539C749.301 262.539 753.49 262.834 757.738 263.424C762.104 264.014 765.939 264.958 769.243 266.256V260.415C769.243 253.925 767.296 248.851 763.402 245.194C759.508 241.536 753.903 239.707 746.587 239.707C741.396 239.707 736.499 240.651 731.897 242.539C727.295 244.309 722.398 246.845 717.206 250.149L710.658 237.052C716.793 232.922 722.929 229.854 729.065 227.848C735.319 225.842 741.868 224.839 748.711 224.839C761.101 224.839 770.836 228.143 777.915 234.751C785.113 241.241 788.712 250.503 788.712 262.539V297.053C788.712 299.295 789.066 300.888 789.774 301.832C790.6 302.776 791.957 303.307 793.845 303.425V319C792.075 319.354 790.482 319.59 789.066 319.708C787.65 319.826 786.47 319.885 785.526 319.885C781.396 319.885 778.269 318.882 776.145 316.876C774.021 314.87 772.782 312.51 772.428 309.796L771.897 304.486C767.886 309.678 762.753 313.69 756.499 316.522C750.245 319.354 743.932 320.77 737.561 320.77C731.425 320.77 725.938 319.531 721.1 317.053C716.262 314.457 712.487 310.976 709.773 306.61C707.059 302.245 705.702 297.348 705.702 291.92ZM764.641 297.584C766.057 296.05 767.178 294.516 768.004 292.982C768.83 291.448 769.243 290.091 769.243 288.911V278.291C765.939 276.993 762.458 276.049 758.8 275.459C755.142 274.752 751.543 274.398 748.003 274.398C740.924 274.398 735.142 275.813 730.658 278.645C726.292 281.477 724.109 285.371 724.109 290.327C724.109 293.041 724.817 295.637 726.233 298.115C727.767 300.593 729.891 302.599 732.605 304.133C735.437 305.666 738.918 306.433 743.047 306.433C747.295 306.433 751.366 305.607 755.26 303.956C759.154 302.304 762.281 300.18 764.641 297.584ZM797.642 272.805C797.642 263.955 799.412 255.931 802.952 248.733C806.61 241.418 811.565 235.636 817.819 231.388C824.073 227.022 831.271 224.839 839.412 224.839C846.492 224.839 852.864 226.668 858.528 230.326C864.31 233.984 868.793 238.527 871.979 243.955V189.794H891.449V297.053C891.449 299.295 891.862 300.888 892.688 301.832C893.514 302.776 894.871 303.307 896.758 303.425V319C893.101 319.59 890.269 319.885 888.263 319.885C884.605 319.885 881.478 318.823 878.882 316.699C876.404 314.575 875.106 312.038 874.988 309.088L874.811 302.186C871.271 308.085 866.492 312.687 860.475 315.991C854.457 319.177 848.203 320.77 841.713 320.77C835.342 320.77 829.442 319.531 824.014 317.053C818.704 314.575 814.043 311.094 810.031 306.61C806.138 302.127 803.07 296.994 800.828 291.212C798.704 285.43 797.642 279.294 797.642 272.805ZM871.979 285.725V261.477C870.681 257.701 868.557 254.338 865.608 251.388C862.776 248.32 859.531 245.901 855.873 244.132C852.333 242.362 848.793 241.477 845.253 241.477C841.123 241.477 837.347 242.362 833.926 244.132C830.622 245.901 827.731 248.261 825.253 251.211C822.893 254.161 821.064 257.524 819.766 261.3C818.468 265.076 817.819 269.029 817.819 273.159C817.819 277.406 818.527 281.418 819.943 285.194C821.359 288.852 823.365 292.156 825.961 295.106C828.675 297.938 831.743 300.18 835.165 301.832C838.704 303.366 842.539 304.133 846.669 304.133C849.265 304.133 851.861 303.661 854.457 302.717C857.171 301.773 859.708 300.475 862.068 298.823C864.546 297.171 866.61 295.224 868.262 292.982C870.032 290.74 871.271 288.321 871.979 285.725ZM949.276 320.77C942.078 320.77 935.529 319.531 929.63 317.053C923.848 314.457 918.833 310.976 914.585 306.61C910.337 302.127 907.033 297.053 904.673 291.389C902.431 285.607 901.311 279.471 901.311 272.982C901.311 264.25 903.316 256.285 907.328 249.087C911.34 241.772 916.945 235.931 924.143 231.565C931.341 227.081 939.777 224.839 949.453 224.839C959.129 224.839 967.447 227.081 974.409 231.565C981.489 235.931 986.976 241.713 990.87 248.91C994.763 256.108 996.71 263.837 996.71 272.097C996.71 273.513 996.651 274.869 996.533 276.167C996.415 277.347 996.297 278.35 996.179 279.176H922.019C922.373 284.604 923.848 289.383 926.444 293.513C929.158 297.525 932.579 300.711 936.709 303.071C940.839 305.312 945.264 306.433 949.984 306.433C955.176 306.433 960.073 305.135 964.674 302.54C969.394 299.944 972.58 296.522 974.232 292.274L990.87 297.053C988.864 301.537 985.796 305.607 981.666 309.265C977.654 312.805 972.875 315.637 967.329 317.761C961.783 319.767 955.766 320.77 949.276 320.77ZM921.488 266.256H977.418C977.064 260.946 975.53 256.285 972.816 252.273C970.22 248.143 966.857 244.958 962.727 242.716C958.716 240.356 954.232 239.176 949.276 239.176C944.438 239.176 939.954 240.356 935.824 242.716C931.813 244.958 928.509 248.143 925.913 252.273C923.317 256.285 921.842 260.946 921.488 266.256Z" fill="white"/>
<g clip-path="url(#clip0_12_1683)">
<path d="M2429.02 192.193H2454.52L2401.08 319.233H2378.25L2355.42 261.907L2332.58 319.233H2309.75L2256.07 192.193H2281.57L2322.38 293.242L2340.36 246.361L2318.49 192.436H2341.08L2355.42 232.03L2369.5 192.436H2392.09L2370.48 246.361L2388.45 293.242L2429.02 192.193Z" fill="#B2BBC8"/>
</g>
<defs>
<clipPath id="clip0_12_1683">
<rect width="198.602" height="127.246" fill="white" transform="translate(2256 192.177)"/>
</clipPath>
</defs>
</svg>
