<svg width="2560" height="512" viewBox="0 0 2560 512" fill="none" xmlns="http://www.w3.org/2000/svg">
<rect width="2560" height="512" fill="#34495E"/>
<path d="M2105 512L2217 0H2560V512H2105Z" fill="#2A2A2A"/>
<path d="M128.857 319V193.334H212.575V210.857H148.68V248.379H202.132V264.84H148.68V319H128.857ZM204.313 291.92C204.313 286.02 205.965 280.887 209.269 276.521C212.691 272.038 217.351 268.616 223.251 266.256C229.151 263.778 235.995 262.539 243.783 262.539C247.912 262.539 252.101 262.834 256.349 263.424C260.715 264.014 264.55 264.958 267.854 266.256V260.415C267.854 253.925 265.907 248.851 262.013 245.194C258.119 241.536 252.514 239.707 245.199 239.707C240.007 239.707 235.11 240.651 230.508 242.539C225.906 244.309 221.009 246.845 215.818 250.149L209.269 237.052C215.405 232.922 221.54 229.854 227.676 227.848C233.93 225.842 240.479 224.839 247.322 224.839C259.712 224.839 269.447 228.143 276.526 234.751C283.724 241.241 287.323 250.503 287.323 262.539V297.053C287.323 299.295 287.677 300.888 288.385 301.832C289.211 302.776 290.568 303.307 292.456 303.425V319C290.686 319.354 289.093 319.59 287.677 319.708C286.261 319.826 285.081 319.885 284.137 319.885C280.007 319.885 276.88 318.882 274.757 316.876C272.633 314.87 271.394 312.51 271.04 309.796L270.509 304.486C266.497 309.678 261.364 313.69 255.11 316.522C248.856 319.354 242.544 320.77 236.172 320.77C230.036 320.77 224.549 319.531 219.711 317.053C214.874 314.457 211.098 310.976 208.384 306.61C205.67 302.245 204.313 297.348 204.313 291.92ZM263.252 297.584C264.668 296.05 265.789 294.516 266.615 292.982C267.441 291.448 267.854 290.091 267.854 288.911V278.291C264.55 276.993 261.069 276.049 257.411 275.459C253.753 274.752 250.154 274.398 246.614 274.398C239.535 274.398 233.753 275.813 229.269 278.645C224.903 281.477 222.72 285.371 222.72 290.327C222.72 293.041 223.428 295.637 224.844 298.115C226.378 300.593 228.502 302.599 231.216 304.133C234.048 305.666 237.529 306.433 241.659 306.433C245.907 306.433 249.977 305.607 253.871 303.956C257.765 302.304 260.892 300.18 263.252 297.584ZM354.13 243.247C346.578 243.365 339.853 245.076 333.953 248.379C328.171 251.683 324.041 256.344 321.563 262.362V319H302.094V226.432H320.147V247.14C323.333 240.769 327.522 235.695 332.714 231.919C337.906 228.025 343.392 225.901 349.174 225.547C350.354 225.547 351.298 225.547 352.006 225.547C352.832 225.547 353.54 225.606 354.13 225.724V243.247ZM352.545 291.92C352.545 286.02 354.197 280.887 357.501 276.521C360.923 272.038 365.584 268.616 371.484 266.256C377.384 263.778 384.227 262.539 392.015 262.539C396.145 262.539 400.334 262.834 404.582 263.424C408.947 264.014 412.782 264.958 416.086 266.256V260.415C416.086 253.925 414.139 248.851 410.245 245.194C406.352 241.536 400.747 239.707 393.431 239.707C388.239 239.707 383.342 240.651 378.74 242.539C374.139 244.309 369.242 246.845 364.05 250.149L357.501 237.052C363.637 232.922 369.773 229.854 375.909 227.848C382.162 225.842 388.711 224.839 395.555 224.839C407.945 224.839 417.679 228.143 424.759 234.751C431.957 241.241 435.556 250.503 435.556 262.539V297.053C435.556 299.295 435.91 300.888 436.618 301.832C437.444 302.776 438.8 303.307 440.688 303.425V319C438.918 319.354 437.326 319.59 435.91 319.708C434.494 319.826 433.314 319.885 432.37 319.885C428.24 319.885 425.113 318.882 422.989 316.876C420.865 314.87 419.626 312.51 419.272 309.796L418.741 304.486C414.729 309.678 409.596 313.69 403.343 316.522C397.089 319.354 390.776 320.77 384.404 320.77C378.269 320.77 372.782 319.531 367.944 317.053C363.106 314.457 359.33 310.976 356.616 306.61C353.902 302.245 352.545 297.348 352.545 291.92ZM411.484 297.584C412.9 296.05 414.021 294.516 414.847 292.982C415.673 291.448 416.086 290.091 416.086 288.911V278.291C412.782 276.993 409.301 276.049 405.644 275.459C401.986 274.752 398.387 274.398 394.847 274.398C387.767 274.398 381.985 275.813 377.502 278.645C373.136 281.477 370.953 285.371 370.953 290.327C370.953 293.041 371.661 295.637 373.077 298.115C374.611 300.593 376.735 302.599 379.448 304.133C382.28 305.666 385.761 306.433 389.891 306.433C394.139 306.433 398.21 305.607 402.104 303.956C405.998 302.304 409.124 300.18 411.484 297.584ZM444.485 272.805C444.485 263.955 446.255 255.931 449.795 248.733C453.453 241.418 458.409 235.636 464.663 231.388C470.917 227.022 478.114 224.839 486.256 224.839C493.336 224.839 499.708 226.668 505.371 230.326C511.153 233.984 515.637 238.527 518.823 243.955V189.794H538.292V297.053C538.292 299.295 538.705 300.888 539.531 301.832C540.357 302.776 541.714 303.307 543.602 303.425V319C539.944 319.59 537.112 319.885 535.106 319.885C531.449 319.885 528.322 318.823 525.726 316.699C523.248 314.575 521.95 312.038 521.832 309.088L521.655 302.186C518.115 308.085 513.336 312.687 507.318 315.991C501.301 319.177 495.047 320.77 488.557 320.77C482.185 320.77 476.285 319.531 470.858 317.053C465.548 314.575 460.887 311.094 456.875 306.61C452.981 302.127 449.913 296.994 447.671 291.212C445.547 285.43 444.485 279.294 444.485 272.805ZM518.823 285.725V261.477C517.525 257.701 515.401 254.338 512.451 251.388C509.619 248.32 506.374 245.901 502.716 244.132C499.177 242.362 495.637 241.477 492.097 241.477C487.967 241.477 484.191 242.362 480.769 244.132C477.465 245.901 474.574 248.261 472.097 251.211C469.737 254.161 467.908 257.524 466.61 261.3C465.312 265.076 464.663 269.029 464.663 273.159C464.663 277.406 465.371 281.418 466.787 285.194C468.203 288.852 470.209 292.156 472.804 295.106C475.518 297.938 478.586 300.18 482.008 301.832C485.548 303.366 489.383 304.133 493.513 304.133C496.109 304.133 498.705 303.661 501.301 302.717C504.014 301.773 506.551 300.475 508.911 298.823C511.389 297.171 513.454 295.224 515.106 292.982C516.876 290.74 518.115 288.321 518.823 285.725ZM547.446 291.92C547.446 286.02 549.098 280.887 552.402 276.521C555.824 272.038 560.485 268.616 566.385 266.256C572.284 263.778 579.128 262.539 586.916 262.539C591.046 262.539 595.235 262.834 599.482 263.424C603.848 264.014 607.683 264.958 610.987 266.256V260.415C610.987 253.925 609.04 248.851 605.146 245.194C601.252 241.536 595.648 239.707 588.332 239.707C583.14 239.707 578.243 240.651 573.641 242.539C569.039 244.309 564.143 246.845 558.951 250.149L552.402 237.052C558.538 232.922 564.674 229.854 570.809 227.848C577.063 225.842 583.612 224.839 590.456 224.839C602.845 224.839 612.58 228.143 619.66 234.751C626.857 241.241 630.456 250.503 630.456 262.539V297.053C630.456 299.295 630.81 300.888 631.518 301.832C632.344 302.776 633.701 303.307 635.589 303.425V319C633.819 319.354 632.226 319.59 630.81 319.708C629.394 319.826 628.214 319.885 627.27 319.885C623.141 319.885 620.014 318.882 617.89 316.876C615.766 314.87 614.527 312.51 614.173 309.796L613.642 304.486C609.63 309.678 604.497 313.69 598.243 316.522C591.99 319.354 585.677 320.77 579.305 320.77C573.169 320.77 567.683 319.531 562.845 317.053C558.007 314.457 554.231 310.976 551.517 306.61C548.803 302.245 547.446 297.348 547.446 291.92ZM606.385 297.584C607.801 296.05 608.922 294.516 609.748 292.982C610.574 291.448 610.987 290.091 610.987 288.911V278.291C607.683 276.993 604.202 276.049 600.544 275.459C596.887 274.752 593.288 274.398 589.748 274.398C582.668 274.398 576.886 275.813 572.402 278.645C568.036 281.477 565.854 285.371 565.854 290.327C565.854 293.041 566.562 295.637 567.977 298.115C569.511 300.593 571.635 302.599 574.349 304.133C577.181 305.666 580.662 306.433 584.792 306.433C589.04 306.433 593.111 305.607 597.005 303.956C600.898 302.304 604.025 300.18 606.385 297.584ZM645.129 340.77C646.899 341.006 648.61 341.242 650.262 341.478C652.032 341.832 653.448 342.009 654.51 342.009C656.516 342.009 658.226 341.36 659.642 340.062C661.176 338.882 662.71 336.64 664.244 333.337C665.778 330.033 667.666 325.254 669.908 319L631.854 226.432H652.209L680.528 299.177L705.661 226.432H724.422L682.475 340.416C681.177 343.838 679.289 346.965 676.811 349.797C674.333 352.747 671.265 355.048 667.607 356.7C663.949 358.352 659.642 359.178 654.687 359.178C653.271 359.178 651.796 359.06 650.262 358.824C648.728 358.588 647.017 358.234 645.129 357.762V340.77ZM762.578 319V193.334H817.269C822.933 193.334 828.125 194.514 832.845 196.874C837.565 199.234 841.636 202.361 845.057 206.255C848.597 210.149 851.311 214.515 853.199 219.352C855.205 224.19 856.208 229.146 856.208 234.22C856.208 239.766 855.205 245.076 853.199 250.149C851.193 255.223 848.302 259.589 844.526 263.247C840.869 266.905 836.562 269.56 831.606 271.212L861.164 319H838.863L811.606 275.282H782.402V319H762.578ZM782.402 257.76H817.092C820.75 257.76 823.995 256.698 826.827 254.574C829.659 252.45 831.901 249.618 833.553 246.078C835.205 242.421 836.031 238.468 836.031 234.22C836.031 229.854 835.087 225.96 833.199 222.538C831.311 218.998 828.833 216.166 825.765 214.043C822.815 211.919 819.57 210.857 816.03 210.857H782.402V257.76ZM906.922 320.77C899.607 320.77 893.058 319.531 887.276 317.053C881.494 314.457 876.479 310.917 872.232 306.433C868.102 301.95 864.916 296.876 862.674 291.212C860.432 285.43 859.311 279.294 859.311 272.805C859.311 266.315 860.432 260.179 862.674 254.397C864.916 248.615 868.102 243.542 872.232 239.176C876.479 234.692 881.494 231.211 887.276 228.733C893.176 226.137 899.725 224.839 906.922 224.839C914.12 224.839 920.61 226.137 926.392 228.733C932.291 231.211 937.306 234.692 941.436 239.176C945.684 243.542 948.929 248.615 951.171 254.397C953.413 260.179 954.534 266.315 954.534 272.805C954.534 279.294 953.413 285.43 951.171 291.212C948.929 296.876 945.684 301.95 941.436 306.433C937.306 310.917 932.291 314.457 926.392 317.053C920.61 319.531 914.12 320.77 906.922 320.77ZM879.311 272.982C879.311 278.881 880.55 284.191 883.028 288.911C885.506 293.631 888.81 297.348 892.94 300.062C897.07 302.776 901.731 304.133 906.922 304.133C911.996 304.133 916.598 302.776 920.728 300.062C924.976 297.23 928.339 293.454 930.817 288.734C933.294 283.896 934.533 278.586 934.533 272.805C934.533 266.905 933.294 261.595 930.817 256.875C928.339 252.155 924.976 248.438 920.728 245.724C916.598 242.893 911.996 241.477 906.922 241.477C901.731 241.477 897.07 242.893 892.94 245.724C888.81 248.556 885.506 252.332 883.028 257.052C880.55 261.654 879.311 266.964 879.311 272.982ZM956.226 291.92C956.226 286.02 957.878 280.887 961.182 276.521C964.604 272.038 969.265 268.616 975.165 266.256C981.064 263.778 987.908 262.539 995.696 262.539C999.826 262.539 1004.01 262.834 1008.26 263.424C1012.63 264.014 1016.46 264.958 1019.77 266.256V260.415C1019.77 253.925 1017.82 248.851 1013.93 245.194C1010.03 241.536 1004.43 239.707 997.112 239.707C991.92 239.707 987.023 240.651 982.421 242.539C977.819 244.309 972.923 246.845 967.731 250.149L961.182 237.052C967.318 232.922 973.454 229.854 979.589 227.848C985.843 225.842 992.392 224.839 999.236 224.839C1011.63 224.839 1021.36 228.143 1028.44 234.751C1035.64 241.241 1039.24 250.503 1039.24 262.539V297.053C1039.24 299.295 1039.59 300.888 1040.3 301.832C1041.12 302.776 1042.48 303.307 1044.37 303.425V319C1042.6 319.354 1041.01 319.59 1039.59 319.708C1038.17 319.826 1036.99 319.885 1036.05 319.885C1031.92 319.885 1028.79 318.882 1026.67 316.876C1024.55 314.87 1023.31 312.51 1022.95 309.796L1022.42 304.486C1018.41 309.678 1013.28 313.69 1007.02 316.522C1000.77 319.354 994.457 320.77 988.085 320.77C981.949 320.77 976.463 319.531 971.625 317.053C966.787 314.457 963.011 310.976 960.297 306.61C957.583 302.245 956.226 297.348 956.226 291.92ZM1015.17 297.584C1016.58 296.05 1017.7 294.516 1018.53 292.982C1019.35 291.448 1019.77 290.091 1019.77 288.911V278.291C1016.46 276.993 1012.98 276.049 1009.32 275.459C1005.67 274.752 1002.07 274.398 998.528 274.398C991.448 274.398 985.666 275.813 981.182 278.645C976.817 281.477 974.634 285.371 974.634 290.327C974.634 293.041 975.342 295.637 976.758 298.115C978.291 300.593 980.415 302.599 983.129 304.133C985.961 305.666 989.442 306.433 993.572 306.433C997.82 306.433 1001.89 305.607 1005.78 303.956C1009.68 302.304 1012.81 300.18 1015.17 297.584ZM1048.17 272.805C1048.17 263.955 1049.94 255.931 1053.48 248.733C1057.13 241.418 1062.09 235.636 1068.34 231.388C1074.6 227.022 1081.8 224.839 1089.94 224.839C1097.02 224.839 1103.39 226.668 1109.05 230.326C1114.83 233.984 1119.32 238.527 1122.5 243.955V189.794H1141.97V297.053C1141.97 299.295 1142.39 300.888 1143.21 301.832C1144.04 302.776 1145.4 303.307 1147.28 303.425V319C1143.63 319.59 1140.79 319.885 1138.79 319.885C1135.13 319.885 1132 318.823 1129.41 316.699C1126.93 314.575 1125.63 312.038 1125.51 309.088L1125.34 302.186C1121.8 308.085 1117.02 312.687 1111 315.991C1104.98 319.177 1098.73 320.77 1092.24 320.77C1085.87 320.77 1079.97 319.531 1074.54 317.053C1069.23 314.575 1064.57 311.094 1060.56 306.61C1056.66 302.127 1053.59 296.994 1051.35 291.212C1049.23 285.43 1048.17 279.294 1048.17 272.805ZM1122.5 285.725V261.477C1121.21 257.701 1119.08 254.338 1116.13 251.388C1113.3 248.32 1110.06 245.901 1106.4 244.132C1102.86 242.362 1099.32 241.477 1095.78 241.477C1091.65 241.477 1087.87 242.362 1084.45 244.132C1081.15 245.901 1078.26 248.261 1075.78 251.211C1073.42 254.161 1071.59 257.524 1070.29 261.3C1068.99 265.076 1068.34 269.029 1068.34 273.159C1068.34 277.406 1069.05 281.418 1070.47 285.194C1071.88 288.852 1073.89 292.156 1076.49 295.106C1079.2 297.938 1082.27 300.18 1085.69 301.832C1089.23 303.366 1093.06 304.133 1097.19 304.133C1099.79 304.133 1102.39 303.661 1104.98 302.717C1107.7 301.773 1110.23 300.475 1112.59 298.823C1115.07 297.171 1117.13 295.224 1118.79 292.982C1120.56 290.74 1121.8 288.321 1122.5 285.725Z" fill="white"/>
<g clip-path="url(#clip0_12_1616)">
<path d="M2429.02 192.193H2454.52L2401.08 319.233H2378.25L2355.41 261.907L2332.58 319.233H2309.75L2256.07 192.193H2281.57L2322.38 293.242L2340.35 246.361L2318.49 192.436H2341.08L2355.41 232.03L2369.5 192.436H2392.09L2370.47 246.361L2388.45 293.242L2429.02 192.193Z" fill="#B2BBC8"/>
</g>
<defs>
<clipPath id="clip0_12_1616">
<rect width="198.602" height="127.246" fill="white" transform="translate(2256 192.177)"/>
</clipPath>
</defs>
</svg>
