<svg width="2560" height="512" viewBox="0 0 2560 512" fill="none" xmlns="http://www.w3.org/2000/svg">
<g clip-path="url(#clip0_12_2055)">
<rect width="2560" height="512" fill="#1F1B36"/>
<g clip-path="url(#clip1_12_2055)">
<path d="M1569.61 0H475.56V145.9H1569.61V0Z" fill="#E4E5F1"/>
<path d="M1569.61 365.173H475.56V511.073H1569.61V365.173Z" fill="#FF0080"/>
</g>
<g clip-path="url(#clip2_12_2055)">
<path d="M2559.61 0H1465.56V145.9H2559.61V0Z" fill="#E4E5F1"/>
<path d="M2559.61 365.173H1465.56V511.073H2559.61V365.173Z" fill="#E4E5F1"/>
<path fill-rule="evenodd" clip-rule="evenodd" d="M1587.81 511.073H1465.56V365.173H1587.81C1784.12 365.173 1873.15 282.393 1962.41 201.484C2074.67 99.7282 2187.09 0.00313453 2431.09 0H2559.62V145.9H2431.09C2237.28 145.906 2149.57 228.761 2060.4 309.588C1948.22 411.266 1834.52 511.073 1587.81 511.073Z" fill="#FF0080"/>
</g>
<g clip-path="url(#clip3_12_2055)">
<path d="M1094.61 -1H0.55957V144.9H1094.61V-1Z" fill="#E4E5F1"/>
<path d="M1094.61 364.173H0.55957V510.073H1094.61V364.173Z" fill="#FF0080"/>
</g>
<path d="M93.6501 301V211.4H106.962L144.466 277.064V211.4H157.394V301H144.082L106.578 235.336V301H93.6501ZM195.872 302.536C189.813 302.536 184.395 301.171 179.616 298.44C174.837 295.709 171.083 291.869 168.352 286.92C165.621 281.885 164.256 275.997 164.256 269.256C164.256 262.515 165.621 256.669 168.352 251.72C171.083 246.685 174.837 242.803 179.616 240.072C184.395 237.341 189.856 235.976 196 235.976C202.144 235.976 207.563 237.341 212.256 240.072C217.035 242.803 220.747 246.685 223.392 251.72C226.123 256.669 227.488 262.515 227.488 269.256C227.488 275.997 226.123 281.885 223.392 286.92C220.661 291.869 216.907 295.709 212.128 298.44C207.435 301.171 202.016 302.536 195.872 302.536ZM195.872 289.608C199.115 289.608 202.101 288.883 204.832 287.432C207.563 285.981 209.739 283.763 211.36 280.776C213.067 277.704 213.92 273.864 213.92 269.256C213.92 264.563 213.067 260.723 211.36 257.736C209.739 254.749 207.563 252.531 204.832 251.08C202.187 249.629 199.243 248.904 196 248.904C192.757 248.904 189.771 249.629 187.04 251.08C184.309 252.531 182.091 254.749 180.384 257.736C178.763 260.723 177.952 264.563 177.952 269.256C177.952 276.253 179.701 281.416 183.2 284.744C186.784 287.987 191.008 289.608 195.872 289.608ZM237.678 301V289.224H253.166V253.512C253.166 250.696 251.801 249.288 249.07 249.288H238.958V237.512H254.19C257.689 237.512 260.547 238.536 262.766 240.584C264.985 242.547 266.094 245.32 266.094 248.904V250.44H266.734C267.673 245.661 269.678 242.077 272.75 239.688C275.907 237.213 280.473 235.976 286.446 235.976H296.302V250.312H282.478C277.443 250.312 273.561 252.061 270.83 255.56C268.099 259.059 266.734 263.24 266.734 268.104V289.224H286.446V301H237.678ZM343.484 301C337.255 301 332.305 299.507 328.636 296.52C324.967 293.448 323.132 288.029 323.132 280.264V249.032H307.132V237.512H316.604C320.956 237.512 323.516 235.379 324.284 231.112L326.204 220.872H336.7V237.512H361.788V249.032H336.7V280.008C336.7 283.336 337.425 285.683 338.876 287.048C340.412 288.328 343.015 288.968 346.684 288.968H361.532V301H343.484ZM377.866 301V208.84H391.434V246.984C393.141 243.827 395.871 241.224 399.626 239.176C403.381 237.043 407.605 235.976 412.298 235.976C420.149 235.976 426.122 238.365 430.218 243.144C434.314 247.837 436.362 254.621 436.362 263.496V301H422.794V265.416C422.794 260.125 421.514 256.029 418.954 253.128C416.394 250.227 412.853 248.776 408.33 248.776C403.637 248.776 399.626 250.355 396.298 253.512C393.055 256.669 391.434 261.235 391.434 267.208V301H377.866ZM477.784 302.536C469.421 302.536 462.765 300.573 457.816 296.648C452.867 292.723 450.051 287.517 449.368 281.032H463.32C463.832 284.019 465.325 286.451 467.8 288.328C470.36 290.205 473.731 291.144 477.912 291.144C481.923 291.144 484.995 290.333 487.128 288.712C489.347 287.005 490.456 285.043 490.456 282.824C490.456 279.581 489.133 277.363 486.488 276.168C483.928 274.973 480.131 274.077 475.096 273.48C470.744 272.968 466.776 271.987 463.192 270.536C459.693 269 456.92 266.952 454.872 264.392C452.824 261.747 451.8 258.461 451.8 254.536C451.8 248.989 453.976 244.509 458.328 241.096C462.68 237.683 468.739 235.976 476.504 235.976C484.269 235.976 490.285 237.725 494.552 241.224C498.819 244.723 501.293 249.501 501.976 255.56H488.92C488.579 253 487.256 250.995 484.952 249.544C482.648 248.008 479.789 247.24 476.376 247.24C472.877 247.24 470.104 247.923 468.056 249.288C466.008 250.568 464.984 252.275 464.984 254.408C464.984 259.016 469.933 261.832 479.832 262.856C484.525 263.368 488.707 264.264 492.376 265.544C496.045 266.739 498.947 268.659 501.08 271.304C503.213 273.864 504.28 277.491 504.28 282.184C504.365 286.024 503.256 289.48 500.952 292.552C498.733 295.624 495.619 298.056 491.608 299.848C487.683 301.64 483.075 302.536 477.784 302.536ZM518.566 301V208.84H532.134V246.984C533.841 243.827 536.571 241.224 540.326 239.176C544.081 237.043 548.305 235.976 552.998 235.976C560.849 235.976 566.822 238.365 570.918 243.144C575.014 247.837 577.062 254.621 577.062 263.496V301H563.494V265.416C563.494 260.125 562.214 256.029 559.654 253.128C557.094 250.227 553.553 248.776 549.03 248.776C544.337 248.776 540.326 250.355 536.998 253.512C533.755 256.669 532.134 261.235 532.134 267.208V301H518.566ZM617.972 302.536C611.913 302.536 606.495 301.171 601.716 298.44C596.937 295.709 593.183 291.869 590.452 286.92C587.721 281.885 586.356 275.997 586.356 269.256C586.356 262.515 587.721 256.669 590.452 251.72C593.183 246.685 596.937 242.803 601.716 240.072C606.495 237.341 611.956 235.976 618.1 235.976C624.244 235.976 629.663 237.341 634.356 240.072C639.135 242.803 642.847 246.685 645.492 251.72C648.223 256.669 649.588 262.515 649.588 269.256C649.588 275.997 648.223 281.885 645.492 286.92C642.761 291.869 639.007 295.709 634.228 298.44C629.535 301.171 624.116 302.536 617.972 302.536ZM617.972 289.608C621.215 289.608 624.201 288.883 626.932 287.432C629.663 285.981 631.839 283.763 633.46 280.776C635.167 277.704 636.02 273.864 636.02 269.256C636.02 264.563 635.167 260.723 633.46 257.736C631.839 254.749 629.663 252.531 626.932 251.08C624.287 249.629 621.343 248.904 618.1 248.904C614.857 248.904 611.871 249.629 609.14 251.08C606.409 252.531 604.191 254.749 602.484 257.736C600.863 260.723 600.052 264.563 600.052 269.256C600.052 276.253 601.801 281.416 605.3 284.744C608.884 287.987 613.108 289.608 617.972 289.608ZM659.778 301V289.224H675.266V253.512C675.266 250.696 673.901 249.288 671.17 249.288H661.058V237.512H676.29C679.789 237.512 682.647 238.536 684.866 240.584C687.085 242.547 688.194 245.32 688.194 248.904V250.44H688.834C689.773 245.661 691.778 242.077 694.85 239.688C698.007 237.213 702.573 235.976 708.546 235.976H718.402V250.312H704.578C699.543 250.312 695.661 252.061 692.93 255.56C690.199 259.059 688.834 263.24 688.834 268.104V289.224H708.546V301H659.778ZM759.44 302.536C753.296 302.536 747.877 301.171 743.184 298.44C738.491 295.624 734.821 291.741 732.176 286.792C729.531 281.843 728.208 276.083 728.208 269.512C728.208 262.856 729.488 257.011 732.048 251.976C734.693 246.941 738.363 243.016 743.056 240.2C747.835 237.384 753.339 235.976 759.568 235.976C765.712 235.976 771.003 237.384 775.44 240.2C779.877 242.931 783.291 246.6 785.68 251.208C788.155 255.816 789.392 260.893 789.392 266.44C789.392 267.293 789.392 268.232 789.392 269.256C789.392 270.195 789.349 271.261 789.264 272.456H741.52C741.947 278.344 743.867 282.824 747.28 285.896C750.693 288.883 754.704 290.376 759.312 290.376C763.323 290.376 766.48 289.565 768.784 287.944C771.173 286.237 772.923 283.933 774.032 281.032H787.728C786.192 287.091 782.992 292.211 778.128 296.392C773.264 300.488 767.035 302.536 759.44 302.536ZM759.44 247.752C755.259 247.752 751.547 249.032 748.304 251.592C745.061 254.067 742.971 257.565 742.032 262.088H775.824C775.483 257.821 773.819 254.365 770.832 251.72C767.845 249.075 764.048 247.752 759.44 247.752Z" fill="#E4E5F1"/>
</g>
<defs>
<clipPath id="clip0_12_2055">
<rect width="2560" height="512" fill="white"/>
</clipPath>
<clipPath id="clip1_12_2055">
<rect width="1095.4" height="512.055" fill="white" transform="translate(475.122)"/>
</clipPath>
<clipPath id="clip2_12_2055">
<rect width="1095.4" height="512.055" fill="white" transform="translate(1465.12)"/>
</clipPath>
<clipPath id="clip3_12_2055">
<rect width="1095.4" height="512.055" fill="white" transform="translate(0.12207 -1)"/>
</clipPath>
</defs>
</svg>
