<svg width="350" height="350" viewBox="0 0 350 350" fill="none" xmlns="http://www.w3.org/2000/svg">
<path d="M0 0H250C305.228 0 350 44.7715 350 100V350H100C44.7715 350 0 305.228 0 250V0Z" fill="#CC7B2B"/>
<path d="M103.182 152.576V65C103.182 62.2386 100.944 60 98.1822 60H75.0762C72.3147 60 70.0762 62.2386 70.0762 65V283.514C70.0762 286.792 73.1782 289.184 76.3486 288.349L99.4547 282.269C101.651 281.691 103.182 279.705 103.182 277.433V266.895C103.182 248.366 111.21 230.746 125.192 218.588C136.842 208.458 151.76 202.879 167.198 202.879H181.531C196.182 202.879 210.344 208.148 221.431 217.723C234.858 229.319 242.576 246.183 242.576 263.924V277.384C242.576 279.678 244.138 281.678 246.363 282.235L271.212 288.447C274.368 289.236 277.425 286.849 277.425 283.596V65C277.425 62.2386 275.186 60 272.425 60H247.576C244.815 60 242.576 62.2386 242.576 65V152.576C242.576 155.337 240.338 157.576 237.576 157.576H108.182C105.421 157.576 103.182 155.337 103.182 152.576Z" fill="white"/>
</svg>
