<svg width="2560" height="512" viewBox="0 0 2560 512" fill="none" xmlns="http://www.w3.org/2000/svg">
<rect width="2560" height="512" fill="url(#paint0_linear_12_696)"/>
<path d="M559.355 320.593C543.307 320.593 530.505 316.935 520.947 309.619C511.508 302.186 505.962 291.743 504.31 278.291H526.434C527.496 286.079 530.977 292.156 536.877 296.522C542.777 300.77 550.505 302.894 560.063 302.894C567.969 302.894 573.986 301.478 578.116 298.646C582.364 295.696 584.488 291.625 584.488 286.433C584.488 281.831 583.19 278.114 580.594 275.282C577.998 272.451 573.632 270.15 567.497 268.38L544.487 261.477C532.806 257.937 524.192 253.276 518.646 247.494C513.219 241.713 510.505 234.456 510.505 225.724C510.505 218.408 512.393 212.037 516.168 206.609C519.944 201.181 525.254 196.992 532.098 194.042C539.06 191.092 547.142 189.617 556.346 189.617C570.506 189.617 581.774 193.098 590.152 200.06C598.648 206.904 603.485 216.225 604.665 228.025H582.541C581.243 220.945 578.293 215.754 573.691 212.45C569.09 209.028 562.895 207.317 555.107 207.317C548.263 207.317 542.836 208.674 538.824 211.388C534.812 214.102 532.806 217.818 532.806 222.538C532.806 226.432 533.986 229.736 536.346 232.45C538.824 235.164 543.366 237.524 549.974 239.53L573.337 246.609C585.019 250.031 593.515 254.692 598.825 260.592C604.134 266.492 606.789 273.985 606.789 283.07C606.789 295.106 602.6 304.368 594.223 310.858C585.963 317.348 574.34 320.593 559.355 320.593ZM663.567 320.77C652.475 320.77 644.275 318.174 638.965 312.982C633.773 307.672 631.177 299.767 631.177 289.265V208.202L653.655 199.883V289.796C653.655 294.162 654.835 297.407 657.195 299.531C659.555 301.655 663.272 302.717 668.346 302.717C670.352 302.717 672.122 302.599 673.656 302.363C675.308 302.009 676.842 301.596 678.258 301.124V318.469C676.842 319.177 674.836 319.708 672.24 320.062C669.644 320.534 666.753 320.77 663.567 320.77ZM613.832 246.255V228.733H678.258V246.255H613.832ZM691.474 319V293.513H717.138V319H691.474ZM773.909 319V191.564H796.918V319H773.909ZM857.273 319V191.564H880.282V319H857.273ZM784.883 243.601H867.716V261.654H784.883V243.601ZM943.577 320.77C934.019 320.77 925.642 318.764 918.444 314.752C911.364 310.74 905.818 305.194 901.807 298.115C897.913 291.035 895.966 282.893 895.966 273.69C895.966 264.486 897.913 256.403 901.807 249.441C905.818 242.362 911.364 236.875 918.444 232.981C925.524 228.969 933.783 226.963 943.223 226.963C952.191 226.963 959.979 228.851 966.586 232.627C973.194 236.285 978.327 241.477 981.985 248.202C985.643 254.928 987.472 262.775 987.472 271.743C987.472 273.395 987.413 274.928 987.295 276.344C987.177 277.76 987 279.176 986.764 280.592H909.771V265.017H969.595L964.993 269.265C964.993 260.769 963.046 254.397 959.153 250.149C955.259 245.901 949.831 243.778 942.869 243.778C935.317 243.778 929.3 246.373 924.816 251.565C920.45 256.757 918.267 264.25 918.267 274.044C918.267 283.719 920.45 291.153 924.816 296.345C929.3 301.419 935.612 303.956 943.754 303.956C948.474 303.956 952.604 303.071 956.144 301.301C959.684 299.531 962.279 296.817 963.931 293.159H984.994C982.044 301.655 977.029 308.38 969.949 313.336C962.987 318.292 954.197 320.77 943.577 320.77ZM1004.16 319V191.564H1026.46V319H1004.16ZM1090.67 320.77C1081.11 320.77 1072.73 318.764 1065.54 314.752C1058.46 310.74 1052.91 305.194 1048.9 298.115C1045 291.035 1043.06 282.893 1043.06 273.69C1043.06 264.486 1045 256.403 1048.9 249.441C1052.91 242.362 1058.46 236.875 1065.54 232.981C1072.62 228.969 1080.88 226.963 1090.31 226.963C1099.28 226.963 1107.07 228.851 1113.68 232.627C1120.29 236.285 1125.42 241.477 1129.08 248.202C1132.73 254.928 1134.56 262.775 1134.56 271.743C1134.56 273.395 1134.5 274.928 1134.39 276.344C1134.27 277.76 1134.09 279.176 1133.86 280.592H1056.86V265.017H1116.69L1112.09 269.265C1112.09 260.769 1110.14 254.397 1106.24 250.149C1102.35 245.901 1096.92 243.778 1089.96 243.778C1082.41 243.778 1076.39 246.373 1071.91 251.565C1067.54 256.757 1065.36 264.25 1065.36 274.044C1065.36 283.719 1067.54 291.153 1071.91 296.345C1076.39 301.419 1082.7 303.956 1090.85 303.956C1095.57 303.956 1099.7 303.071 1103.24 301.301C1106.78 299.531 1109.37 296.817 1111.02 293.159H1132.09C1129.14 301.655 1124.12 308.38 1117.04 313.336C1110.08 318.292 1101.29 320.77 1090.67 320.77ZM1151.25 319V228.733H1173.02V249.972H1173.55V319H1151.25ZM1214.62 319V262.008C1214.62 256.462 1213.2 252.273 1210.37 249.441C1207.54 246.609 1203.41 245.194 1197.98 245.194C1193.26 245.194 1189.01 246.255 1185.23 248.379C1181.58 250.503 1178.69 253.453 1176.56 257.229C1174.56 261.005 1173.55 265.371 1173.55 270.327L1171.25 248.733C1174.32 242.126 1178.8 236.875 1184.7 232.981C1190.6 228.969 1197.68 226.963 1205.94 226.963C1215.74 226.963 1223.35 229.736 1228.78 235.282C1234.32 240.828 1237.09 248.202 1237.09 257.406V319H1214.62ZM1293.79 320.77C1281.29 320.77 1271.32 318.174 1263.88 312.982C1256.45 307.672 1252.38 300.357 1251.67 291.035H1272.02C1272.61 295.637 1274.8 299.118 1278.57 301.478C1282.35 303.838 1287.42 305.017 1293.79 305.017C1299.58 305.017 1303.88 304.133 1306.71 302.363C1309.66 300.475 1311.14 297.82 1311.14 294.398C1311.14 291.92 1310.31 289.914 1308.66 288.38C1307.01 286.728 1303.88 285.371 1299.28 284.309L1284.77 280.946C1274.86 278.822 1267.48 275.518 1262.64 271.035C1257.92 266.433 1255.56 260.71 1255.56 253.866C1255.56 245.488 1258.75 238.94 1265.12 234.22C1271.61 229.382 1280.52 226.963 1291.85 226.963C1303.06 226.963 1312.02 229.382 1318.75 234.22C1325.59 238.94 1329.37 245.488 1330.08 253.866H1309.72C1309.13 250.208 1307.25 247.435 1304.06 245.547C1300.99 243.66 1296.74 242.716 1291.32 242.716C1286.24 242.716 1282.41 243.542 1279.81 245.194C1277.22 246.727 1275.92 249.028 1275.92 252.096C1275.92 254.456 1276.92 256.462 1278.93 258.114C1280.93 259.648 1284.3 261.005 1289.02 262.185L1304.59 265.725C1313.44 267.731 1320.11 271.212 1324.59 276.167C1329.19 281.123 1331.49 286.964 1331.49 293.69C1331.49 302.304 1328.19 308.97 1321.58 313.69C1314.97 318.41 1305.71 320.77 1293.79 320.77ZM1398.13 319V302.009H1433.71C1440.2 302.009 1445.21 300.239 1448.75 296.699C1452.29 293.041 1454.06 288.085 1454.06 281.831C1454.06 275.341 1452.17 270.209 1448.4 266.433C1444.62 262.657 1439.37 260.769 1432.65 260.769H1398.13V243.778H1431.05C1437.42 243.778 1442.32 242.244 1445.74 239.176C1449.17 236.108 1450.88 231.683 1450.88 225.901C1450.88 220.237 1449.22 215.93 1445.92 212.981C1442.73 210.031 1438.01 208.556 1431.76 208.556H1398.13V191.564H1436.01C1447.45 191.564 1456.6 194.455 1463.44 200.237C1470.4 205.901 1473.89 213.63 1473.89 223.423C1473.89 229.559 1472.41 234.928 1469.46 239.53C1466.63 244.014 1462.79 247.494 1457.96 249.972C1453.12 252.45 1447.63 253.689 1441.5 253.689L1442.38 249.972C1448.87 249.972 1454.77 251.447 1460.08 254.397C1465.39 257.229 1469.58 261.241 1472.65 266.433C1475.83 271.625 1477.43 277.642 1477.43 284.486C1477.43 291.448 1475.77 297.525 1472.47 302.717C1469.28 307.908 1464.74 311.92 1458.84 314.752C1453.06 317.584 1446.22 319 1438.31 319H1398.13ZM1380.08 319V191.564H1403.09V319H1380.08ZM1495.04 319V228.733H1516.81V250.503H1517.34V319H1495.04ZM1517.34 271.92L1515.04 250.503C1517.17 242.834 1520.77 236.993 1525.84 232.981C1530.91 228.969 1536.99 226.963 1544.07 226.963C1546.55 226.963 1548.32 227.199 1549.38 227.671V248.733C1548.79 248.497 1547.96 248.379 1546.9 248.379C1545.84 248.261 1544.54 248.202 1543.01 248.202C1534.39 248.202 1527.96 250.09 1523.72 253.866C1519.47 257.642 1517.34 263.66 1517.34 271.92ZM1562.62 319V228.733H1584.93V319H1562.62ZM1561.56 213.866V189.263H1585.81V213.866H1561.56ZM1672.51 319V298.646L1674.28 299C1672.74 305.607 1669.03 310.917 1663.13 314.929C1657.23 318.823 1650.21 320.77 1642.07 320.77C1633.81 320.77 1626.61 318.882 1620.47 315.106C1614.45 311.212 1609.79 305.784 1606.49 298.823C1603.19 291.861 1601.53 283.66 1601.53 274.221C1601.53 264.663 1603.25 256.344 1606.67 249.264C1610.09 242.185 1614.87 236.698 1621 232.804C1627.26 228.91 1634.51 226.963 1642.77 226.963C1651.27 226.963 1658.29 229.028 1663.84 233.158C1669.38 237.17 1672.8 242.775 1674.1 249.972L1671.8 250.149V191.564H1694.28V319H1672.51ZM1648.61 302.54C1655.81 302.54 1661.54 300.062 1665.78 295.106C1670.15 290.032 1672.33 282.952 1672.33 273.867C1672.33 264.781 1670.15 257.76 1665.78 252.804C1661.42 247.848 1655.64 245.37 1648.44 245.37C1641.36 245.37 1635.64 247.907 1631.27 252.981C1626.9 257.937 1624.72 264.958 1624.72 274.044C1624.72 283.129 1626.9 290.15 1631.27 295.106C1635.64 300.062 1641.42 302.54 1648.61 302.54ZM1757.66 357.054C1745.74 357.054 1735.95 354.458 1728.28 349.266C1720.73 344.074 1716.24 337.053 1714.83 328.204H1736.07C1737.13 331.272 1739.43 333.632 1742.97 335.283C1746.63 337.053 1751.35 337.938 1757.13 337.938C1765.51 337.938 1771.7 336.05 1775.71 332.275C1779.72 328.617 1781.73 323.012 1781.73 315.46V295.991L1783.32 296.345C1781.91 302.953 1778.31 308.262 1772.53 312.274C1766.75 316.168 1759.67 318.115 1751.29 318.115C1743.26 318.115 1736.24 316.227 1730.23 312.451C1724.33 308.675 1719.72 303.425 1716.42 296.699C1713.12 289.855 1711.46 281.89 1711.46 272.805C1711.46 263.601 1713.18 255.577 1716.6 248.733C1720.02 241.89 1724.8 236.58 1730.93 232.804C1737.19 228.91 1744.44 226.963 1752.7 226.963C1761.2 226.963 1768.16 229.028 1773.59 233.158C1779.13 237.17 1782.56 242.775 1783.85 249.972L1782.44 250.149V228.733H1804.21V315.283C1804.21 328.145 1800.02 338.292 1791.64 345.726C1783.38 353.278 1772.06 357.054 1757.66 357.054ZM1758.54 300.416C1765.74 300.416 1771.47 297.997 1775.71 293.159C1780.08 288.203 1782.26 281.3 1782.26 272.451C1782.26 263.601 1780.08 256.757 1775.71 251.919C1771.35 247.081 1765.57 244.663 1758.37 244.663C1751.29 244.663 1745.56 247.14 1741.2 252.096C1736.83 256.934 1734.65 263.778 1734.65 272.628C1734.65 281.477 1736.83 288.321 1741.2 293.159C1745.56 297.997 1751.35 300.416 1758.54 300.416ZM1868.47 320.77C1858.92 320.77 1850.54 318.764 1843.34 314.752C1836.26 310.74 1830.72 305.194 1826.7 298.115C1822.81 291.035 1820.86 282.893 1820.86 273.69C1820.86 264.486 1822.81 256.403 1826.7 249.441C1830.72 242.362 1836.26 236.875 1843.34 232.981C1850.42 228.969 1858.68 226.963 1868.12 226.963C1877.09 226.963 1884.88 228.851 1891.48 232.627C1898.09 236.285 1903.22 241.477 1906.88 248.202C1910.54 254.928 1912.37 262.775 1912.37 271.743C1912.37 273.395 1912.31 274.928 1912.19 276.344C1912.07 277.76 1911.9 279.176 1911.66 280.592H1834.67V265.017H1894.49L1889.89 269.265C1889.89 260.769 1887.94 254.397 1884.05 250.149C1880.16 245.901 1874.73 243.778 1867.77 243.778C1860.21 243.778 1854.2 246.373 1849.71 251.565C1845.35 256.757 1843.16 264.25 1843.16 274.044C1843.16 283.719 1845.35 291.153 1849.71 296.345C1854.2 301.419 1860.51 303.956 1868.65 303.956C1873.37 303.956 1877.5 303.071 1881.04 301.301C1884.58 299.531 1887.18 296.817 1888.83 293.159H1909.89C1906.94 301.655 1901.93 308.38 1894.85 313.336C1887.88 318.292 1879.09 320.77 1868.47 320.77Z" fill="white"/>
<path d="M56 81H306C361.228 81 406 125.772 406 181V431H156C100.772 431 56 386.228 56 331V81Z" fill="#CC7B2B"/>
<path d="M159.182 233.576V146C159.182 143.239 156.944 141 154.182 141H131.076C128.315 141 126.076 143.239 126.076 146V364.514C126.076 367.792 129.178 370.184 132.349 369.349L155.455 363.269C157.651 362.691 159.182 360.705 159.182 358.433V347.895C159.182 329.366 167.21 311.746 181.192 299.588C192.842 289.458 207.76 283.879 223.198 283.879H237.531C252.182 283.879 266.344 289.148 277.431 298.723C290.858 310.319 298.576 327.183 298.576 344.924V358.384C298.576 360.678 300.138 362.678 302.363 363.235L327.212 369.447C330.368 370.236 333.425 367.849 333.425 364.596V146C333.425 143.239 331.186 141 328.425 141H303.576C300.815 141 298.576 143.239 298.576 146V233.576C298.576 236.337 296.338 238.576 293.576 238.576H164.182C161.421 238.576 159.182 236.337 159.182 233.576Z" fill="white"/>
<g clip-path="url(#clip0_12_696)">
<path fill-rule="evenodd" clip-rule="evenodd" d="M2112.74 430.504L2068.65 387.709L2127.01 330.648L2149.05 352.695L2137.38 364.366L2127.01 353.991L2093.29 387.709L2124.41 419.481L2112.74 430.504Z" fill="white"/>
<path fill-rule="evenodd" clip-rule="evenodd" d="M2114.04 386.412L2125.71 374.741L2169.15 418.184L2110.8 475.245L2088.75 453.199L2100.42 441.527L2110.8 451.902L2144.51 417.536L2114.04 386.412Z" fill="white"/>
<path d="M2230.58 452.073C2224.94 452.073 2220.43 450.787 2217.07 448.214C2213.75 445.599 2211.8 441.927 2211.22 437.196H2219C2219.38 439.935 2220.6 442.072 2222.67 443.607C2224.75 445.101 2227.47 445.848 2230.83 445.848C2233.61 445.848 2235.73 445.35 2237.18 444.354C2238.67 443.317 2239.42 441.885 2239.42 440.059C2239.42 438.441 2238.96 437.134 2238.05 436.138C2237.14 435.142 2235.6 434.333 2233.44 433.71L2225.35 431.282C2221.24 430.037 2218.21 428.398 2216.26 426.365C2214.35 424.331 2213.4 421.779 2213.4 418.708C2213.4 416.135 2214.06 413.895 2215.39 411.986C2216.72 410.077 2218.59 408.603 2220.99 407.566C2223.44 406.529 2226.28 406.01 2229.52 406.01C2234.5 406.01 2238.46 407.234 2241.41 409.682C2244.4 412.089 2246.1 415.368 2246.52 419.518H2238.73C2238.28 417.028 2237.24 415.202 2235.62 414.04C2234 412.836 2231.82 412.235 2229.09 412.235C2226.68 412.235 2224.77 412.712 2223.36 413.666C2221.95 414.621 2221.24 415.928 2221.24 417.588C2221.24 418.957 2221.66 420.119 2222.49 421.074C2223.36 422.028 2224.96 422.858 2227.28 423.564L2235.5 426.054C2239.61 427.257 2242.59 428.896 2244.46 430.971C2246.33 433.046 2247.26 435.681 2247.26 438.877C2247.26 443.11 2245.79 446.367 2242.84 448.65C2239.94 450.932 2235.85 452.073 2230.58 452.073ZM2267.23 452.135C2263.33 452.135 2260.45 451.222 2258.58 449.397C2256.75 447.529 2255.84 444.749 2255.84 441.055V412.546L2263.74 409.62V441.242C2263.74 442.778 2264.16 443.919 2264.99 444.666C2265.82 445.413 2267.13 445.786 2268.91 445.786C2269.62 445.786 2270.24 445.745 2270.78 445.662C2271.36 445.537 2271.9 445.392 2272.4 445.226V451.326C2271.9 451.575 2271.19 451.762 2270.28 451.886C2269.37 452.052 2268.35 452.135 2267.23 452.135ZM2249.74 425.929V419.767H2272.4V425.929H2249.74ZM2291.55 452.135C2288.19 452.135 2285.24 451.43 2282.71 450.019C2280.22 448.608 2278.27 446.658 2276.86 444.168C2275.49 441.678 2274.8 438.814 2274.8 435.578C2274.8 432.341 2275.49 429.498 2276.86 427.05C2278.27 424.56 2280.22 422.63 2282.71 421.261C2285.2 419.85 2288.1 419.144 2291.42 419.144C2294.58 419.144 2297.31 419.808 2299.64 421.136C2301.96 422.422 2303.77 424.248 2305.05 426.614C2306.34 428.979 2306.98 431.739 2306.98 434.893C2306.98 435.474 2306.96 436.013 2306.92 436.511C2306.88 437.009 2306.82 437.507 2306.73 438.005H2279.66V432.527H2300.7L2299.08 434.021C2299.08 431.033 2298.39 428.793 2297.02 427.299C2295.65 425.805 2293.75 425.058 2291.3 425.058C2288.64 425.058 2286.53 425.971 2284.95 427.797C2283.41 429.622 2282.64 432.258 2282.64 435.702C2282.64 439.105 2283.41 441.719 2284.95 443.545C2286.53 445.33 2288.75 446.222 2291.61 446.222C2293.27 446.222 2294.72 445.911 2295.97 445.288C2297.21 444.666 2298.12 443.711 2298.7 442.425H2306.11C2305.07 445.413 2303.31 447.778 2300.82 449.521C2298.37 451.264 2295.28 452.135 2291.55 452.135ZM2330.97 452.135C2327.94 452.135 2325.47 451.43 2323.56 450.019C2321.69 448.567 2320.53 446.575 2320.07 444.043L2320.7 443.981V464.274H2312.85V419.767H2320.51V426.925L2319.89 426.801C2320.47 424.435 2321.8 422.568 2323.87 421.198C2325.95 419.829 2328.48 419.144 2331.47 419.144C2334.29 419.144 2336.74 419.829 2338.81 421.198C2340.93 422.526 2342.57 424.414 2343.73 426.863C2344.89 429.311 2345.47 432.195 2345.47 435.515C2345.47 438.877 2344.87 441.802 2343.67 444.292C2342.46 446.782 2340.78 448.712 2338.62 450.081C2336.47 451.451 2333.91 452.135 2330.97 452.135ZM2328.98 445.662C2331.51 445.662 2333.52 444.79 2335.01 443.047C2336.51 441.263 2337.25 438.773 2337.25 435.578C2337.25 432.382 2336.49 429.913 2334.95 428.17C2333.46 426.427 2331.44 425.556 2328.91 425.556C2326.42 425.556 2324.41 426.448 2322.88 428.232C2321.34 429.975 2320.57 432.444 2320.57 435.64C2320.57 438.835 2321.34 441.304 2322.88 443.047C2324.41 444.79 2326.44 445.662 2328.98 445.662ZM2353.52 451.513V416.841C2353.52 413.355 2354.47 410.699 2356.38 408.873C2358.33 407.006 2361.24 406.072 2365.1 406.072C2365.97 406.072 2366.69 406.114 2367.28 406.197C2367.86 406.28 2368.42 406.404 2368.96 406.57V412.67C2368.67 412.546 2368.29 412.463 2367.84 412.421C2367.38 412.338 2366.86 412.297 2366.28 412.297C2364.62 412.297 2363.37 412.712 2362.54 413.542C2361.76 414.33 2361.36 415.492 2361.36 417.028V451.513H2353.52ZM2347.79 425.929V419.767H2368.27V425.929H2347.79ZM2387.11 452.135C2383.75 452.135 2380.78 451.43 2378.21 450.019C2375.68 448.608 2373.71 446.658 2372.3 444.168C2370.89 441.636 2370.18 438.752 2370.18 435.515C2370.18 432.278 2370.89 429.436 2372.3 426.987C2373.71 424.539 2375.68 422.63 2378.21 421.261C2380.78 419.85 2383.75 419.144 2387.11 419.144C2390.51 419.144 2393.48 419.85 2396.01 421.261C2398.54 422.63 2400.52 424.539 2401.93 426.987C2403.34 429.436 2404.04 432.278 2404.04 435.515C2404.04 438.752 2403.32 441.636 2401.86 444.168C2400.45 446.658 2398.48 448.608 2395.95 450.019C2393.42 451.43 2390.47 452.135 2387.11 452.135ZM2387.11 445.848C2388.77 445.848 2390.26 445.433 2391.59 444.603C2392.92 443.732 2393.96 442.529 2394.71 440.993C2395.45 439.416 2395.83 437.569 2395.83 435.453C2395.83 432.341 2395 429.892 2393.34 428.108C2391.72 426.323 2389.64 425.431 2387.11 425.431C2384.58 425.431 2382.48 426.323 2380.82 428.108C2379.16 429.892 2378.33 432.341 2378.33 435.453C2378.33 437.569 2378.71 439.416 2379.45 440.993C2380.24 442.529 2381.28 443.732 2382.57 444.603C2383.89 445.433 2385.41 445.848 2387.11 445.848ZM2409.81 451.513V419.767H2417.47V427.423H2417.65V451.513H2409.81ZM2417.65 434.955L2416.85 427.423C2417.59 424.726 2418.86 422.671 2420.64 421.261C2422.43 419.85 2424.56 419.144 2427.05 419.144C2427.93 419.144 2428.55 419.227 2428.92 419.393V426.801C2428.71 426.718 2428.42 426.676 2428.05 426.676C2427.68 426.635 2427.22 426.614 2426.68 426.614C2423.65 426.614 2421.39 427.278 2419.9 428.606C2418.4 429.934 2417.65 432.05 2417.65 434.955ZM2456 451.513V444.354L2456.62 444.479C2456.08 446.803 2454.77 448.67 2452.7 450.081C2450.62 451.451 2448.15 452.135 2445.29 452.135C2442.38 452.135 2439.85 451.471 2437.69 450.144C2435.58 448.774 2433.94 446.865 2432.78 444.417C2431.61 441.968 2431.03 439.084 2431.03 435.764C2431.03 432.403 2431.64 429.477 2432.84 426.987C2434.04 424.497 2435.72 422.568 2437.88 421.198C2440.08 419.829 2442.63 419.144 2445.54 419.144C2448.53 419.144 2450.99 419.87 2452.94 421.323C2454.9 422.734 2456.1 424.705 2456.56 427.236L2455.75 427.299V406.695H2463.65V451.513H2456ZM2447.59 445.724C2450.12 445.724 2452.14 444.852 2453.63 443.11C2455.17 441.325 2455.93 438.835 2455.93 435.64C2455.93 432.444 2455.17 429.975 2453.63 428.232C2452.09 426.489 2450.06 425.618 2447.53 425.618C2445.04 425.618 2443.03 426.51 2441.49 428.295C2439.96 430.037 2439.19 432.507 2439.19 435.702C2439.19 438.897 2439.96 441.367 2441.49 443.11C2443.03 444.852 2445.06 445.724 2447.59 445.724Z" fill="white"/>
<path d="M2224.03 389.046V355.432H2211.22V351.697H2241.1V355.432H2228.29V389.046H2224.03ZM2241.11 389.046V362.591H2245V369.334H2245.26V389.046H2241.11ZM2245.26 375.248L2244.59 368.971C2245.21 366.723 2246.32 365.012 2247.91 363.836C2249.5 362.66 2251.33 362.072 2253.41 362.072C2254.27 362.072 2254.86 362.141 2255.17 362.28V366.274C2255 366.205 2254.75 366.17 2254.44 366.17C2254.13 366.135 2253.75 366.118 2253.3 366.118C2250.67 366.118 2248.67 366.914 2247.28 368.504C2245.94 370.061 2245.26 372.308 2245.26 375.248ZM2276.04 389.046C2275.9 388.458 2275.8 387.784 2275.73 387.023C2275.69 386.262 2275.68 385.294 2275.68 384.118H2275.42V371.461C2275.42 369.455 2274.95 367.986 2274.02 367.052C2273.12 366.084 2271.65 365.599 2269.61 365.599C2267.6 365.599 2265.99 366.014 2264.78 366.844C2263.61 367.64 2262.95 368.781 2262.81 370.268H2258.82C2258.99 367.709 2260.06 365.703 2262.03 364.251C2264.01 362.798 2266.58 362.072 2269.76 362.072C2273.05 362.072 2275.49 362.85 2277.08 364.406C2278.67 365.963 2279.46 368.297 2279.46 371.409V384.118C2279.46 384.879 2279.52 385.674 2279.62 386.504C2279.72 387.3 2279.86 388.147 2280.03 389.046H2276.04ZM2266.96 389.565C2264.23 389.565 2262.05 388.908 2260.43 387.594C2258.84 386.245 2258.04 384.412 2258.04 382.095C2258.04 379.778 2258.84 377.98 2260.43 376.7C2262.02 375.421 2264.33 374.522 2267.38 374.003L2276.61 372.447V375.87L2268 377.219C2266.06 377.53 2264.59 378.049 2263.59 378.775C2262.59 379.501 2262.09 380.556 2262.09 381.939C2262.09 383.288 2262.54 384.308 2263.44 385C2264.37 385.692 2265.74 386.037 2267.53 386.037C2269.85 386.037 2271.74 385.519 2273.19 384.481C2274.67 383.409 2275.42 382.026 2275.42 380.331L2276.09 384.014C2275.54 385.778 2274.45 387.144 2272.82 388.112C2271.23 389.081 2269.28 389.565 2266.96 389.565ZM2287.46 389.046V362.591H2291.35V368.816H2291.61V389.046H2287.46ZM2306.4 389.046V371.72C2306.4 369.715 2305.9 368.21 2304.89 367.207C2303.89 366.205 2302.4 365.703 2300.43 365.703C2298.7 365.703 2297.16 366.084 2295.81 366.844C2294.5 367.605 2293.46 368.66 2292.7 370.009C2291.98 371.357 2291.61 372.931 2291.61 374.729L2290.94 368.452C2291.84 366.481 2293.2 364.925 2295.04 363.784C2296.9 362.643 2299.01 362.072 2301.37 362.072C2304.13 362.072 2306.35 362.867 2308 364.458C2309.7 366.014 2310.55 368.072 2310.55 370.631V389.046H2306.4ZM2327.39 389.565C2324.14 389.565 2321.54 388.821 2319.61 387.334C2317.67 385.813 2316.56 383.669 2316.29 380.902H2320.28C2320.52 382.597 2321.27 383.893 2322.51 384.793C2323.76 385.692 2325.42 386.141 2327.49 386.141C2329.33 386.141 2330.76 385.795 2331.8 385.104C2332.84 384.412 2333.35 383.427 2333.35 382.147C2333.35 381.248 2333.06 380.47 2332.47 379.813C2331.88 379.121 2330.71 378.55 2328.95 378.101L2324.69 377.012C2322.27 376.389 2320.46 375.438 2319.24 374.159C2318.03 372.844 2317.43 371.288 2317.43 369.49C2317.43 367.207 2318.28 365.409 2319.97 364.095C2321.67 362.746 2323.97 362.072 2326.87 362.072C2329.74 362.072 2332.07 362.764 2333.87 364.147C2335.67 365.53 2336.69 367.45 2336.93 369.905H2332.94C2332.7 368.487 2332.04 367.398 2330.97 366.637C2329.9 365.876 2328.48 365.496 2326.71 365.496C2325.02 365.496 2323.71 365.824 2322.77 366.481C2321.84 367.104 2321.37 368.003 2321.37 369.179C2321.37 370.078 2321.7 370.856 2322.36 371.513C2323.05 372.17 2324.19 372.723 2325.78 373.173L2329.93 374.314C2332.39 374.971 2334.24 375.974 2335.48 377.323C2336.73 378.671 2337.35 380.297 2337.35 382.199C2337.35 384.516 2336.47 386.331 2334.7 387.646C2332.94 388.925 2330.5 389.565 2327.39 389.565ZM2356.01 389.513C2353.52 389.513 2351.42 388.908 2349.73 387.697C2348.03 386.487 2346.88 384.775 2346.25 382.562L2347.08 382.458V399.68H2342.93V362.591H2346.82V368.764L2346.25 368.608C2346.91 366.568 2348.15 364.977 2349.99 363.836C2351.82 362.66 2353.95 362.072 2356.37 362.072C2358.72 362.072 2360.76 362.643 2362.49 363.784C2364.25 364.925 2365.62 366.516 2366.59 368.556C2367.56 370.597 2368.04 372.983 2368.04 375.715C2368.04 378.481 2367.54 380.902 2366.54 382.977C2365.53 385.052 2364.13 386.66 2362.33 387.801C2360.54 388.942 2358.43 389.513 2356.01 389.513ZM2355.38 385.882C2358.01 385.882 2360.07 384.983 2361.56 383.184C2363.04 381.352 2363.79 378.862 2363.79 375.715C2363.79 372.602 2363.04 370.164 2361.56 368.401C2360.07 366.602 2358.01 365.703 2355.38 365.703C2352.75 365.703 2350.68 366.62 2349.16 368.452C2347.64 370.251 2346.88 372.723 2346.88 375.87C2346.88 378.948 2347.64 381.386 2349.16 383.184C2350.68 384.983 2352.75 385.882 2355.38 385.882ZM2385.39 389.565C2382.79 389.565 2380.51 388.96 2378.54 387.749C2376.57 386.539 2375.03 384.896 2373.92 382.821C2372.85 380.712 2372.32 378.343 2372.32 375.715C2372.32 373.052 2372.87 370.7 2373.98 368.66C2375.08 366.62 2376.6 365.012 2378.54 363.836C2380.51 362.66 2382.79 362.072 2385.39 362.072C2388.02 362.072 2390.3 362.66 2392.24 363.836C2394.21 365.012 2395.73 366.62 2396.8 368.66C2397.91 370.7 2398.46 373.052 2398.46 375.715C2398.46 378.343 2397.91 380.712 2396.8 382.821C2395.73 384.896 2394.21 386.539 2392.24 387.749C2390.3 388.96 2388.02 389.565 2385.39 389.565ZM2385.39 386.037C2387.19 386.037 2388.74 385.605 2390.06 384.741C2391.37 383.842 2392.39 382.614 2393.12 381.058C2393.84 379.501 2394.21 377.703 2394.21 375.663C2394.21 372.62 2393.39 370.182 2391.77 368.349C2390.18 366.516 2388.05 365.599 2385.39 365.599C2382.76 365.599 2380.63 366.516 2379.01 368.349C2377.38 370.182 2376.57 372.62 2376.57 375.663C2376.57 377.703 2376.93 379.501 2377.66 381.058C2378.39 382.614 2379.41 383.842 2380.72 384.741C2382.07 385.605 2383.62 386.037 2385.39 386.037ZM2404.68 389.046V362.591H2408.57V369.334H2408.83V389.046H2404.68ZM2408.83 375.248L2408.16 368.971C2408.78 366.723 2409.89 365.012 2411.48 363.836C2413.07 362.66 2414.9 362.072 2416.98 362.072C2417.84 362.072 2418.43 362.141 2418.74 362.28V366.274C2418.57 366.205 2418.33 366.17 2418.02 366.17C2417.7 366.135 2417.32 366.118 2416.87 366.118C2414.25 366.118 2412.24 366.914 2410.86 368.504C2409.51 370.061 2408.83 372.308 2408.83 375.248ZM2435.33 389.513C2432.39 389.513 2430.24 388.856 2428.89 387.542C2427.58 386.193 2426.92 384.256 2426.92 381.732V356.418L2431.07 354.862V381.68C2431.07 383.167 2431.45 384.256 2432.21 384.948C2432.98 385.64 2434.22 385.986 2435.95 385.986C2436.64 385.986 2437.23 385.951 2437.71 385.882C2438.23 385.778 2438.65 385.657 2438.96 385.519V389.046C2438.61 389.184 2438.11 389.288 2437.45 389.357C2436.83 389.461 2436.12 389.513 2435.33 389.513ZM2421.48 366.118V362.591H2438.96V366.118H2421.48ZM2456.86 389.046V358.856C2456.86 356.435 2457.55 354.55 2458.94 353.202C2460.35 351.853 2462.5 351.179 2465.37 351.179C2466.06 351.179 2466.6 351.213 2466.98 351.282C2467.39 351.352 2467.74 351.438 2468.01 351.542V354.81C2467.77 354.741 2467.43 354.671 2466.98 354.602C2466.56 354.533 2466.11 354.499 2465.63 354.499C2464.04 354.499 2462.86 354.896 2462.1 355.692C2461.37 356.487 2461.01 357.611 2461.01 359.063V389.046H2456.86ZM2451.42 366.118V362.591H2467.44V366.118H2451.42ZM2483.01 389.565C2480.41 389.565 2478.13 388.96 2476.16 387.749C2474.19 386.539 2472.65 384.896 2471.54 382.821C2470.47 380.712 2469.93 378.343 2469.93 375.715C2469.93 373.052 2470.49 370.7 2471.59 368.66C2472.7 366.62 2474.22 365.012 2476.16 363.836C2478.13 362.66 2480.41 362.072 2483.01 362.072C2485.63 362.072 2487.92 362.66 2489.85 363.836C2491.82 365.012 2493.35 366.62 2494.42 368.66C2495.52 370.7 2496.08 373.052 2496.08 375.715C2496.08 378.343 2495.52 380.712 2494.42 382.821C2493.35 384.896 2491.82 386.539 2489.85 387.749C2487.92 388.96 2485.63 389.565 2483.01 389.565ZM2483.01 386.037C2484.8 386.037 2486.36 385.605 2487.67 384.741C2488.99 383.842 2490.01 382.614 2490.73 381.058C2491.46 379.501 2491.82 377.703 2491.82 375.663C2491.82 372.62 2491.01 370.182 2489.39 368.349C2487.79 366.516 2485.67 365.599 2483.01 365.599C2480.38 365.599 2478.25 366.516 2476.62 368.349C2475 370.182 2474.19 372.62 2474.19 375.663C2474.19 377.703 2474.55 379.501 2475.28 381.058C2476 382.614 2477.02 383.842 2478.34 384.741C2479.69 385.605 2481.24 386.037 2483.01 386.037ZM2502.3 389.046V362.591H2506.19V369.334H2506.45V389.046H2502.3ZM2506.45 375.248L2505.78 368.971C2506.4 366.723 2507.51 365.012 2509.1 363.836C2510.69 362.66 2512.52 362.072 2514.6 362.072C2515.46 362.072 2516.05 362.141 2516.36 362.28V366.274C2516.19 366.205 2515.94 366.17 2515.63 366.17C2515.32 366.135 2514.94 366.118 2514.49 366.118C2511.86 366.118 2509.86 366.914 2508.47 368.504C2507.13 370.061 2506.45 372.308 2506.45 375.248Z" fill="white"/>
</g>
<defs>
<linearGradient id="paint0_linear_12_696" x1="0" y1="256" x2="2560" y2="256" gradientUnits="userSpaceOnUse">
<stop stop-color="#040D1C"/>
<stop offset="1" stop-color="#001840"/>
</linearGradient>
<clipPath id="clip0_12_696">
<rect width="450" height="145.245" fill="white" transform="translate(2068 330)"/>
</clipPath>
</defs>
</svg>
