<svg width="2560" height="512" viewBox="0 0 2560 512" fill="none" xmlns="http://www.w3.org/2000/svg">
<rect width="2560" height="512" fill="#34495E"/>
<path d="M2105 512L2217 0H2560V512H2105Z" fill="#2A2A2A"/>
<path d="M215.051 301.478V319H128.855V193.334H213.458V210.857H148.678V246.609H204.785V263.07H148.678V301.478H215.051ZM256.921 320.77C249.133 320.77 241.759 319.531 234.797 317.053C227.835 314.457 221.876 310.622 216.92 305.548L224.177 292.451C229.487 297.171 234.797 300.593 240.107 302.717C245.534 304.84 250.903 305.902 256.213 305.902C261.641 305.902 266.066 304.899 269.488 302.894C272.91 300.77 274.62 297.702 274.62 293.69C274.62 290.74 273.735 288.557 271.966 287.141C270.196 285.725 267.6 284.486 264.178 283.424C260.874 282.362 256.862 281.182 252.142 279.884C245.534 277.878 239.989 275.813 235.505 273.69C231.021 271.448 227.658 268.734 225.416 265.548C223.174 262.362 222.053 258.291 222.053 253.335C222.053 247.317 223.587 242.185 226.655 237.937C229.723 233.689 233.971 230.444 239.399 228.202C244.944 225.96 251.316 224.839 258.514 224.839C265.24 224.839 271.435 225.901 277.098 228.025C282.88 230.031 287.954 233.217 292.32 237.583L284.001 250.503C279.871 246.727 275.623 243.955 271.258 242.185C267.01 240.415 262.408 239.53 257.452 239.53C254.62 239.53 251.906 239.884 249.31 240.592C246.714 241.182 244.531 242.362 242.762 244.132C241.11 245.783 240.284 248.143 240.284 251.211C240.284 253.689 240.992 255.695 242.408 257.229C243.823 258.763 245.947 260.061 248.779 261.123C251.611 262.185 255.092 263.365 259.222 264.663C266.42 266.787 272.556 268.911 277.629 271.035C282.703 273.041 286.597 275.695 289.311 278.999C292.143 282.185 293.559 286.61 293.559 292.274C293.559 301.242 290.196 308.262 283.47 313.336C276.862 318.292 268.013 320.77 256.921 320.77ZM353.424 314.221C351.772 315.047 349.707 315.932 347.229 316.876C344.752 317.82 341.92 318.646 338.734 319.354C335.666 320.062 332.48 320.416 329.176 320.416C325.164 320.416 321.447 319.708 318.025 318.292C314.604 316.876 311.831 314.634 309.707 311.566C307.701 308.38 306.698 304.309 306.698 299.354V241.477H294.485V226.432H306.698V195.989H326.167V226.432H346.344V241.477H326.167V293.159C326.403 296.345 327.406 298.705 329.176 300.239C331.064 301.773 333.365 302.54 336.079 302.54C338.793 302.54 341.389 302.068 343.867 301.124C346.344 300.18 348.173 299.413 349.353 298.823L353.424 314.221ZM398.797 320.77C391.599 320.77 385.05 319.531 379.151 317.053C373.369 314.457 368.354 310.976 364.106 306.61C359.858 302.127 356.554 297.053 354.194 291.389C351.953 285.607 350.832 279.471 350.832 272.982C350.832 264.25 352.837 256.285 356.849 249.087C360.861 241.772 366.466 235.931 373.664 231.565C380.862 227.081 389.298 224.839 398.974 224.839C408.65 224.839 416.968 227.081 423.93 231.565C431.01 235.931 436.497 241.713 440.391 248.91C444.284 256.108 446.231 263.837 446.231 272.097C446.231 273.513 446.172 274.869 446.054 276.167C445.936 277.347 445.818 278.35 445.7 279.176H371.54C371.894 284.604 373.369 289.383 375.965 293.513C378.679 297.525 382.101 300.711 386.23 303.071C390.36 305.312 394.785 306.433 399.505 306.433C404.697 306.433 409.594 305.135 414.195 302.54C418.915 299.944 422.101 296.522 423.753 292.274L440.391 297.053C438.385 301.537 435.317 305.607 431.187 309.265C427.175 312.805 422.396 315.637 416.85 317.761C411.305 319.767 405.287 320.77 398.797 320.77ZM371.009 266.256H426.939C426.585 260.946 425.051 256.285 422.337 252.273C419.741 248.143 416.378 244.958 412.248 242.716C408.237 240.356 403.753 239.176 398.797 239.176C393.959 239.176 389.475 240.356 385.345 242.716C381.334 244.958 378.03 248.143 375.434 252.273C372.838 256.285 371.363 260.946 371.009 266.256ZM505.299 243.247C497.747 243.365 491.021 245.076 485.122 248.379C479.34 251.683 475.21 256.344 472.732 262.362V319H453.263V226.432H471.316V247.14C474.502 240.769 478.691 235.695 483.883 231.919C489.074 228.025 494.561 225.901 500.343 225.547C501.523 225.547 502.467 225.547 503.175 225.547C504.001 225.547 504.709 225.606 505.299 225.724V243.247ZM515.923 243.778H503.533V228.733H515.923V225.016C515.923 220.178 516.69 215.577 518.224 211.211C519.758 206.727 522.058 202.774 525.126 199.352C528.194 195.812 531.911 193.039 536.277 191.033C540.761 189.027 545.953 188.024 551.852 188.024C556.218 188.024 560.289 188.496 564.065 189.44C567.959 190.384 571.499 191.682 574.685 193.334C577.989 194.868 580.879 196.52 583.357 198.29L575.393 212.804C572.797 210.444 569.493 208.497 565.481 206.963C561.469 205.429 557.339 204.662 553.091 204.662C549.08 204.662 545.717 205.606 543.003 207.494C540.407 209.382 538.46 211.86 537.162 214.928C535.982 217.995 535.392 221.181 535.392 224.485V228.733H583.888V319H564.419V243.778H535.392V319H515.923V243.778ZM640.332 320.77C633.134 320.77 626.585 319.531 620.685 317.053C614.903 314.457 609.889 310.976 605.641 306.61C601.393 302.127 598.089 297.053 595.729 291.389C593.487 285.607 592.366 279.471 592.366 272.982C592.366 264.25 594.372 256.285 598.384 249.087C602.396 241.772 608.001 235.931 615.198 231.565C622.396 227.081 630.833 224.839 640.509 224.839C650.184 224.839 658.503 227.081 665.465 231.565C672.544 235.931 678.031 241.713 681.925 248.91C685.819 256.108 687.766 263.837 687.766 272.097C687.766 273.513 687.707 274.869 687.589 276.167C687.471 277.347 687.353 278.35 687.235 279.176H613.074C613.428 284.604 614.903 289.383 617.499 293.513C620.213 297.525 623.635 300.711 627.765 303.071C631.895 305.312 636.32 306.433 641.039 306.433C646.231 306.433 651.128 305.135 655.73 302.54C660.45 299.944 663.636 296.522 665.288 292.274L681.925 297.053C679.919 301.537 676.851 305.607 672.721 309.265C668.71 312.805 663.931 315.637 658.385 317.761C652.839 319.767 646.821 320.77 640.332 320.77ZM612.543 266.256H668.474C668.12 260.946 666.586 256.285 663.872 252.273C661.276 248.143 657.913 244.958 653.783 242.716C649.771 240.356 645.287 239.176 640.332 239.176C635.494 239.176 631.01 240.356 626.88 242.716C622.868 244.958 619.564 248.143 616.968 252.273C614.372 256.285 612.897 260.946 612.543 266.256ZM694.974 189.794H714.444V292.274C714.444 296.994 715.152 300.003 716.568 301.301C717.983 302.599 719.753 303.248 721.877 303.248C724.237 303.248 726.42 303.012 728.426 302.54C730.55 302.068 732.379 301.478 733.913 300.77L736.745 316.168C733.913 317.348 730.55 318.351 726.656 319.177C722.762 320.003 719.281 320.416 716.214 320.416C709.606 320.416 704.414 318.587 700.638 314.929C696.862 311.153 694.974 305.961 694.974 299.354V189.794ZM733.343 272.805C733.343 263.955 735.113 255.931 738.653 248.733C742.311 241.418 747.267 235.636 753.521 231.388C759.774 227.022 766.972 224.839 775.114 224.839C782.194 224.839 788.565 226.668 794.229 230.326C800.011 233.984 804.495 238.527 807.681 243.955V189.794H827.15V297.053C827.15 299.295 827.563 300.888 828.389 301.832C829.215 302.776 830.572 303.307 832.46 303.425V319C828.802 319.59 825.97 319.885 823.964 319.885C820.306 319.885 817.179 318.823 814.583 316.699C812.106 314.575 810.808 312.038 810.69 309.088L810.513 302.186C806.973 308.085 802.194 312.687 796.176 315.991C790.158 319.177 783.905 320.77 777.415 320.77C771.043 320.77 765.143 319.531 759.715 317.053C754.406 314.575 749.745 311.094 745.733 306.61C741.839 302.127 738.771 296.994 736.529 291.212C734.405 285.43 733.343 279.294 733.343 272.805ZM807.681 285.725V261.477C806.383 257.701 804.259 254.338 801.309 251.388C798.477 248.32 795.232 245.901 791.574 244.132C788.034 242.362 784.495 241.477 780.955 241.477C776.825 241.477 773.049 242.362 769.627 244.132C766.323 245.901 763.432 248.261 760.954 251.211C758.594 254.161 756.765 257.524 755.467 261.3C754.17 265.076 753.521 269.029 753.521 273.159C753.521 277.406 754.229 281.418 755.644 285.194C757.06 288.852 759.066 292.156 761.662 295.106C764.376 297.938 767.444 300.18 770.866 301.832C774.406 303.366 778.241 304.133 782.371 304.133C784.966 304.133 787.562 303.661 790.158 302.717C792.872 301.773 795.409 300.475 797.769 298.823C800.247 297.171 802.312 295.224 803.964 292.982C805.734 290.74 806.973 288.321 807.681 285.725Z" fill="white"/>
<g clip-path="url(#clip0_12_1668)">
<path d="M2429.02 192.193H2454.52L2401.08 319.233H2378.25L2355.42 261.907L2332.58 319.233H2309.75L2256.07 192.193H2281.57L2322.38 293.242L2340.36 246.361L2318.49 192.436H2341.08L2355.42 232.03L2369.5 192.436H2392.09L2370.48 246.361L2388.45 293.242L2429.02 192.193Z" fill="#B2BBC8"/>
</g>
<defs>
<clipPath id="clip0_12_1668">
<rect width="198.602" height="127.246" fill="white" transform="translate(2256 192.177)"/>
</clipPath>
</defs>
</svg>
