<svg width="2560" height="512" viewBox="0 0 2560 512" fill="none" xmlns="http://www.w3.org/2000/svg">
<g clip-path="url(#clip0_13_834)">
<rect width="2560" height="512" fill="#263443"/>
<circle cx="2338.5" cy="179.5" r="320" fill="#E5292D" stroke="white" stroke-width="25"/>
<circle cx="2515" cy="512" r="256.5" fill="#E5292D" stroke="white" stroke-width="25"/>
<circle cx="270.695" cy="255.5" r="409" fill="#E5292D" stroke="white" stroke-width="25"/>
<g clip-path="url(#clip1_13_834)">
<path d="M76.2763 78.7782H94.8308V88.9443C94.8308 88.9443 110.549 77.1443 123.513 77.1443C137.125 77.1443 149.927 84.315 160.298 95.9335C169.747 86.3103 179.338 76.8721 197.893 76.8721C219.04 76.8721 231.842 92.2119 231.842 92.2119C238.123 99.2488 244.319 109.64 244.319 121.803V174.902H225.603V121.984C225.603 119.338 221.39 95.8427 197.893 95.8427C175.287 95.8427 170.021 117.332 170.021 122.438V174.993H151.385V120.986C151.385 116.35 144.741 95.8427 123.513 95.8427C102.285 95.8427 96.5322 114.904 96.5322 119.806V175.628H76.1953L76.2763 78.7782Z" fill="white"/>
<path d="M300.955 78.5962C286.569 78.5962 274.339 83.6815 265.948 93.6026C255.872 105.515 253.637 118.154 253.637 125.887C253.637 167.025 287.551 177.172 299.009 177.172C325.018 177.172 337.981 158.293 337.981 158.293L322.69 149.209C316.164 155.536 309.404 160.05 299.222 160.044C286.688 160.037 271.822 146.781 271.822 131.547H345.91C345.91 93.8254 320.125 78.5962 300.955 78.5962ZM300.353 96.248C319.947 96.248 325.217 116.017 325.217 116.017H273.654C273.654 116.017 280.759 96.248 300.353 96.248Z" fill="white"/>
<path d="M408.984 174.588L404.098 156.385H387.563C380.662 156.385 374.363 149.768 374.363 143.394V97.3858H403.612V78.2337H373.309V53H356.254V142.973C356.254 161.763 370.557 174.595 383.161 174.592L408.984 174.588Z" fill="white"/>
<path d="M446.311 79.3979H468.081L463.974 96.569H447.808C437.048 96.569 433.266 107.717 433.266 115.08V174.63H415.684V109.095C415.684 97.6033 425.239 79.3979 446.311 79.3979Z" fill="white"/>
<path d="M510.11 172.024C535.134 172.024 555.42 151.574 555.42 126.348C555.42 101.122 535.134 80.6721 510.11 80.6721C485.087 80.6721 464.801 101.122 464.801 126.348C464.801 151.574 485.087 172.024 510.11 172.024Z" stroke="white" stroke-width="7.58208" stroke-miterlimit="1.5" stroke-linecap="round" stroke-linejoin="round"/>
<path d="M510.109 157.615C527.239 157.615 541.125 143.616 541.125 126.348C541.125 109.08 527.239 95.0818 510.109 95.0818C492.98 95.0818 479.094 109.08 479.094 126.348C479.094 143.616 492.98 157.615 510.109 157.615Z" stroke="white" stroke-width="7.58499" stroke-miterlimit="1.5" stroke-linecap="round" stroke-linejoin="round"/>
<path d="M510.11 172.024C535.134 172.024 555.42 151.574 555.42 126.348C555.42 101.122 535.134 80.6721 510.11 80.6721C485.087 80.6721 464.801 101.122 464.801 126.348C464.801 151.574 485.087 172.024 510.11 172.024Z" stroke="white" stroke-width="7.58208" stroke-miterlimit="1.5" stroke-linecap="round" stroke-linejoin="round"/>
<path d="M510.109 157.615C527.239 157.615 541.125 143.616 541.125 126.348C541.125 109.08 527.239 95.0818 510.109 95.0818C492.98 95.0818 479.094 109.08 479.094 126.348C479.094 143.616 492.98 157.615 510.109 157.615Z" stroke="white" stroke-width="7.58499" stroke-miterlimit="1.5" stroke-linecap="round" stroke-linejoin="round"/>
</g>
<g clip-path="url(#clip2_13_834)">
<path fill-rule="evenodd" clip-rule="evenodd" d="M110.397 421.83L76.6914 389.115L121.302 345.496L138.155 362.349L129.233 371.271L121.302 363.34L95.5271 389.115L119.32 413.403L110.397 421.83Z" fill="white"/>
<path fill-rule="evenodd" clip-rule="evenodd" d="M111.388 388.124L120.31 379.202L153.521 412.412L108.91 456.032L92.0566 439.179L100.979 430.256L108.91 438.187L134.685 411.916L111.388 388.124Z" fill="white"/>
<path d="M200.478 437.918C196.164 437.918 192.722 436.935 190.152 434.968C187.615 432.969 186.124 430.162 185.68 426.545H191.628C191.913 428.639 192.849 430.273 194.435 431.447C196.021 432.589 198.099 433.16 200.669 433.16C202.794 433.16 204.412 432.779 205.522 432.018C206.664 431.225 207.236 430.13 207.236 428.734C207.236 427.497 206.887 426.498 206.189 425.736C205.491 424.975 204.317 424.357 202.667 423.881L196.481 422.025C193.341 421.073 191.025 419.82 189.534 418.266C188.075 416.711 187.345 414.76 187.345 412.413C187.345 410.446 187.853 408.733 188.868 407.274C189.883 405.814 191.31 404.688 193.15 403.895C195.022 403.102 197.195 402.705 199.669 402.705C203.476 402.705 206.506 403.641 208.758 405.513C211.042 407.353 212.343 409.859 212.66 413.031H206.712C206.363 411.128 205.57 409.732 204.333 408.844C203.096 407.924 201.43 407.464 199.336 407.464C197.496 407.464 196.037 407.829 194.959 408.558C193.88 409.288 193.341 410.287 193.341 411.556C193.341 412.603 193.658 413.491 194.292 414.221C194.959 414.951 196.18 415.585 197.956 416.124L204.238 418.028C207.378 418.948 209.662 420.201 211.09 421.787C212.517 423.373 213.231 425.388 213.231 427.83C213.231 431.066 212.105 433.556 209.853 435.301C207.632 437.046 204.507 437.918 200.478 437.918ZM228.496 437.966C225.514 437.966 223.309 437.268 221.882 435.872C220.486 434.445 219.788 432.319 219.788 429.496V407.702L225.831 405.465V429.638C225.831 430.812 226.148 431.685 226.783 432.256C227.417 432.827 228.417 433.112 229.781 433.112C230.32 433.112 230.796 433.08 231.208 433.017C231.652 432.922 232.065 432.811 232.446 432.684V437.347C232.065 437.538 231.526 437.68 230.828 437.776C230.13 437.902 229.353 437.966 228.496 437.966ZM215.125 417.933V413.222H232.446V417.933H215.125ZM247.084 437.966C244.514 437.966 242.262 437.427 240.327 436.348C238.423 435.269 236.932 433.778 235.854 431.875C234.807 429.972 234.284 427.783 234.284 425.308C234.284 422.834 234.807 420.661 235.854 418.789C236.932 416.886 238.423 415.411 240.327 414.364C242.23 413.285 244.451 412.746 246.989 412.746C249.4 412.746 251.493 413.253 253.27 414.269C255.046 415.252 256.426 416.648 257.41 418.456C258.393 420.264 258.885 422.374 258.885 424.785C258.885 425.229 258.869 425.641 258.837 426.022C258.806 426.403 258.758 426.783 258.695 427.164H237.995V422.977H254.079L252.842 424.119C252.842 421.835 252.318 420.121 251.271 418.979C250.224 417.837 248.765 417.266 246.894 417.266C244.863 417.266 243.245 417.964 242.04 419.36C240.866 420.756 240.279 422.77 240.279 425.403C240.279 428.005 240.866 430.003 242.04 431.399C243.245 432.763 244.943 433.445 247.131 433.445C248.4 433.445 249.511 433.207 250.462 432.731C251.414 432.256 252.112 431.526 252.556 430.543H258.219C257.426 432.827 256.077 434.635 254.174 435.967C252.302 437.3 249.939 437.966 247.084 437.966ZM277.219 437.966C274.903 437.966 273.016 437.427 271.556 436.348C270.129 435.238 269.241 433.715 268.892 431.78L269.367 431.732V447.245H263.372V413.222H269.225V418.694L268.749 418.599C269.193 416.791 270.208 415.363 271.794 414.316C273.38 413.269 275.316 412.746 277.6 412.746C279.757 412.746 281.628 413.269 283.215 414.316C284.833 415.331 286.086 416.775 286.974 418.646C287.862 420.518 288.306 422.723 288.306 425.261C288.306 427.83 287.846 430.067 286.926 431.97C286.006 433.874 284.722 435.349 283.072 436.396C281.422 437.442 279.471 437.966 277.219 437.966ZM275.696 433.017C277.631 433.017 279.17 432.351 280.312 431.018C281.454 429.654 282.025 427.751 282.025 425.308C282.025 422.866 281.438 420.978 280.264 419.646C279.122 418.313 277.584 417.647 275.649 417.647C273.745 417.647 272.207 418.329 271.033 419.693C269.859 421.026 269.272 422.913 269.272 425.356C269.272 427.799 269.859 429.686 271.033 431.018C272.207 432.351 273.761 433.017 275.696 433.017ZM294.458 437.49V410.985C294.458 408.32 295.188 406.29 296.647 404.894C298.138 403.467 300.359 402.753 303.309 402.753C303.975 402.753 304.53 402.785 304.974 402.848C305.419 402.912 305.847 403.007 306.259 403.134V407.797C306.037 407.702 305.752 407.638 305.403 407.607C305.054 407.543 304.657 407.511 304.213 407.511C302.944 407.511 301.992 407.829 301.358 408.463C300.755 409.066 300.454 409.954 300.454 411.128V437.49H294.458ZM290.08 417.933V413.222H305.736V417.933H290.08ZM320.138 437.966C317.568 437.966 315.3 437.427 313.333 436.348C311.398 435.269 309.891 433.778 308.812 431.875C307.734 429.94 307.195 427.735 307.195 425.261C307.195 422.786 307.734 420.613 308.812 418.741C309.891 416.87 311.398 415.411 313.333 414.364C315.3 413.285 317.568 412.746 320.138 412.746C322.739 412.746 325.007 413.285 326.942 414.364C328.877 415.411 330.384 416.87 331.463 418.741C332.541 420.613 333.081 422.786 333.081 425.261C333.081 427.735 332.526 429.94 331.415 431.875C330.337 433.778 328.83 435.269 326.895 436.348C324.96 437.427 322.707 437.966 320.138 437.966ZM320.138 433.16C321.407 433.16 322.549 432.843 323.564 432.208C324.579 431.542 325.372 430.622 325.943 429.448C326.514 428.243 326.8 426.831 326.8 425.213C326.8 422.834 326.165 420.962 324.896 419.598C323.659 418.234 322.073 417.552 320.138 417.552C318.203 417.552 316.6 418.234 315.332 419.598C314.063 420.962 313.428 422.834 313.428 425.213C313.428 426.831 313.714 428.243 314.285 429.448C314.887 430.622 315.681 431.542 316.664 432.208C317.679 432.843 318.837 433.16 320.138 433.16ZM337.491 437.49V413.222H343.344V419.075H343.487V437.49H337.491ZM343.487 424.832L342.868 419.075C343.439 417.013 344.407 415.442 345.771 414.364C347.135 413.285 348.769 412.746 350.672 412.746C351.338 412.746 351.814 412.809 352.1 412.936V418.599C351.941 418.535 351.719 418.504 351.433 418.504C351.148 418.472 350.799 418.456 350.386 418.456C348.071 418.456 346.342 418.964 345.2 419.979C344.058 420.994 343.487 422.612 343.487 424.832ZM372.796 437.49V432.018L373.272 432.113C372.859 433.889 371.86 435.317 370.274 436.396C368.687 437.442 366.8 437.966 364.611 437.966C362.39 437.966 360.455 437.458 358.806 436.443C357.188 435.396 355.935 433.937 355.046 432.065C354.158 430.194 353.714 427.989 353.714 425.451C353.714 422.881 354.174 420.645 355.094 418.741C356.014 416.838 357.299 415.363 358.948 414.316C360.63 413.269 362.581 412.746 364.801 412.746C367.085 412.746 368.973 413.301 370.464 414.411C371.955 415.49 372.875 416.997 373.224 418.932L372.605 418.979V403.229H378.649V437.49H372.796ZM366.372 433.065C368.307 433.065 369.845 432.398 370.987 431.066C372.161 429.702 372.748 427.799 372.748 425.356C372.748 422.913 372.161 421.026 370.987 419.693C369.814 418.361 368.259 417.695 366.324 417.695C364.421 417.695 362.882 418.377 361.708 419.741C360.535 421.073 359.948 422.961 359.948 425.403C359.948 427.846 360.535 429.734 361.708 431.066C362.882 432.398 364.437 433.065 366.372 433.065Z" fill="white"/>
<path d="M195.474 390.853V365.157H185.68V362.302H208.52V365.157H198.726V390.853H195.474ZM208.529 390.853V370.629H211.503V375.784H211.702V390.853H208.529ZM211.702 380.305L211.186 375.507C211.662 373.789 212.508 372.48 213.724 371.581C214.94 370.682 216.341 370.233 217.927 370.233C218.588 370.233 219.038 370.286 219.276 370.391V373.445C219.143 373.392 218.958 373.366 218.72 373.366C218.482 373.339 218.192 373.326 217.848 373.326C215.839 373.326 214.306 373.934 213.248 375.15C212.217 376.34 211.702 378.058 211.702 380.305ZM235.23 390.853C235.125 390.404 235.045 389.888 234.993 389.307C234.966 388.725 234.953 387.985 234.953 387.086H234.755V377.41C234.755 375.877 234.398 374.753 233.684 374.04C232.997 373.299 231.873 372.929 230.313 372.929C228.78 372.929 227.551 373.247 226.626 373.881C225.727 374.489 225.224 375.361 225.119 376.498H222.065C222.197 374.542 223.017 373.009 224.524 371.898C226.031 370.788 228 370.233 230.432 370.233C232.944 370.233 234.808 370.828 236.024 372.017C237.24 373.207 237.848 374.991 237.848 377.371V387.086C237.848 387.667 237.887 388.276 237.967 388.91C238.046 389.518 238.152 390.166 238.284 390.853H235.23ZM228.291 391.25C226.203 391.25 224.537 390.747 223.295 389.743C222.079 388.712 221.47 387.311 221.47 385.539C221.47 383.768 222.079 382.393 223.295 381.415C224.511 380.437 226.282 379.75 228.608 379.353L235.667 378.164V380.781L229.084 381.812C227.604 382.05 226.48 382.446 225.713 383.001C224.947 383.557 224.564 384.363 224.564 385.42C224.564 386.451 224.907 387.231 225.595 387.76C226.308 388.289 227.353 388.553 228.727 388.553C230.498 388.553 231.939 388.157 233.05 387.363C234.186 386.544 234.755 385.486 234.755 384.191L235.27 387.007C234.847 388.355 234.014 389.399 232.772 390.139C231.556 390.879 230.062 391.25 228.291 391.25ZM243.962 390.853V370.629H246.937V375.388H247.135V390.853H243.962ZM258.436 390.853V377.609C258.436 376.075 258.053 374.925 257.286 374.159C256.52 373.392 255.383 373.009 253.876 373.009C252.554 373.009 251.378 373.299 250.347 373.881C249.342 374.463 248.549 375.269 247.968 376.3C247.412 377.331 247.135 378.534 247.135 379.908L246.619 375.11C247.307 373.603 248.351 372.414 249.752 371.541C251.18 370.669 252.792 370.233 254.59 370.233C256.705 370.233 258.397 370.841 259.666 372.057C260.961 373.247 261.609 374.82 261.609 376.776V390.853H258.436ZM274.483 391.25C271.998 391.25 270.016 390.681 268.535 389.544C267.055 388.381 266.209 386.742 265.997 384.627H269.051C269.236 385.923 269.804 386.914 270.756 387.601C271.708 388.289 272.977 388.632 274.563 388.632C275.964 388.632 277.061 388.368 277.854 387.839C278.647 387.311 279.044 386.557 279.044 385.579C279.044 384.892 278.819 384.297 278.37 383.795C277.92 383.266 277.021 382.83 275.673 382.486L272.421 381.653C270.571 381.177 269.183 380.45 268.258 379.472C267.333 378.468 266.87 377.278 266.87 375.903C266.87 374.159 267.518 372.784 268.813 371.779C270.108 370.748 271.866 370.233 274.087 370.233C276.281 370.233 278.066 370.762 279.44 371.819C280.815 372.876 281.595 374.344 281.78 376.221H278.726C278.541 375.137 278.039 374.304 277.22 373.722C276.4 373.141 275.316 372.85 273.968 372.85C272.673 372.85 271.668 373.101 270.954 373.603C270.24 374.079 269.884 374.767 269.884 375.665C269.884 376.353 270.135 376.948 270.637 377.45C271.166 377.952 272.038 378.375 273.254 378.719L276.427 379.591C278.304 380.094 279.718 380.86 280.67 381.891C281.621 382.922 282.097 384.165 282.097 385.619C282.097 387.39 281.423 388.778 280.075 389.782C278.726 390.761 276.863 391.25 274.483 391.25ZM296.359 391.21C294.456 391.21 292.856 390.747 291.561 389.822C290.265 388.897 289.38 387.588 288.904 385.896L289.538 385.817V398.982H286.366V370.629H289.34V375.348L288.904 375.229C289.406 373.67 290.358 372.453 291.759 371.581C293.16 370.682 294.786 370.233 296.637 370.233C298.434 370.233 299.994 370.669 301.316 371.541C302.664 372.414 303.708 373.63 304.448 375.19C305.189 376.749 305.559 378.573 305.559 380.662C305.559 382.777 305.175 384.627 304.409 386.213C303.642 387.8 302.571 389.029 301.197 389.901C299.822 390.774 298.209 391.21 296.359 391.21ZM295.883 388.434C297.892 388.434 299.465 387.747 300.602 386.372C301.739 384.971 302.307 383.068 302.307 380.662C302.307 378.283 301.739 376.419 300.602 375.071C299.465 373.696 297.892 373.009 295.883 373.009C293.874 373.009 292.288 373.709 291.125 375.11C289.961 376.485 289.38 378.375 289.38 380.781C289.38 383.134 289.961 384.997 291.125 386.372C292.288 387.747 293.874 388.434 295.883 388.434ZM318.821 391.25C316.838 391.25 315.093 390.787 313.587 389.862C312.08 388.936 310.903 387.681 310.057 386.095C309.238 384.482 308.828 382.671 308.828 380.662C308.828 378.626 309.251 376.829 310.097 375.269C310.943 373.709 312.106 372.48 313.587 371.581C315.093 370.682 316.838 370.233 318.821 370.233C320.83 370.233 322.575 370.682 324.055 371.581C325.562 372.48 326.725 373.709 327.545 375.269C328.391 376.829 328.814 378.626 328.814 380.662C328.814 382.671 328.391 384.482 327.545 386.095C326.725 387.681 325.562 388.936 324.055 389.862C322.575 390.787 320.83 391.25 318.821 391.25ZM318.821 388.553C320.196 388.553 321.385 388.223 322.39 387.562C323.394 386.874 324.174 385.936 324.729 384.746C325.285 383.557 325.562 382.182 325.562 380.622C325.562 378.296 324.941 376.432 323.698 375.031C322.482 373.63 320.856 372.929 318.821 372.929C316.812 372.929 315.186 373.63 313.943 375.031C312.701 376.432 312.08 378.296 312.08 380.622C312.08 382.182 312.357 383.557 312.912 384.746C313.468 385.936 314.247 386.874 315.252 387.562C316.283 388.223 317.473 388.553 318.821 388.553ZM333.572 390.853V370.629H336.546V375.784H336.744V390.853H333.572ZM336.744 380.305L336.228 375.507C336.704 373.789 337.55 372.48 338.766 371.581C339.982 370.682 341.383 370.233 342.97 370.233C343.631 370.233 344.08 370.286 344.318 370.391V373.445C344.186 373.392 344.001 373.366 343.763 373.366C343.525 373.339 343.234 373.326 342.89 373.326C340.881 373.326 339.348 373.934 338.29 375.15C337.259 376.34 336.744 378.058 336.744 380.305ZM356.996 391.21C354.749 391.21 353.11 390.708 352.079 389.703C351.074 388.672 350.572 387.192 350.572 385.262V365.911L353.744 364.721V385.222C353.744 386.359 354.035 387.192 354.617 387.72C355.198 388.249 356.15 388.513 357.472 388.513C358.001 388.513 358.45 388.487 358.82 388.434C359.217 388.355 359.534 388.262 359.772 388.157V390.853C359.508 390.959 359.124 391.038 358.622 391.091C358.146 391.17 357.604 391.21 356.996 391.21ZM346.408 373.326V370.629H359.772V373.326H346.408ZM373.458 390.853V367.774C373.458 365.924 373.987 364.483 375.045 363.452C376.129 362.421 377.768 361.905 379.962 361.905C380.49 361.905 380.9 361.932 381.191 361.985C381.508 362.038 381.773 362.104 381.984 362.183V364.681C381.799 364.628 381.535 364.576 381.191 364.523C380.874 364.47 380.53 364.443 380.16 364.443C378.944 364.443 378.045 364.747 377.464 365.355C376.908 365.963 376.631 366.823 376.631 367.933V390.853H373.458ZM369.295 373.326V370.629H381.548V373.326H369.295ZM393.444 391.25C391.461 391.25 389.716 390.787 388.209 389.862C386.702 388.936 385.526 387.681 384.68 386.095C383.86 384.482 383.451 382.671 383.451 380.662C383.451 378.626 383.874 376.829 384.72 375.269C385.566 373.709 386.729 372.48 388.209 371.581C389.716 370.682 391.461 370.233 393.444 370.233C395.453 370.233 397.197 370.682 398.678 371.581C400.185 372.48 401.348 373.709 402.167 375.269C403.013 376.829 403.436 378.626 403.436 380.662C403.436 382.671 403.013 384.482 402.167 386.095C401.348 387.681 400.185 388.936 398.678 389.862C397.197 390.787 395.453 391.25 393.444 391.25ZM393.444 388.553C394.818 388.553 396.008 388.223 397.012 387.562C398.017 386.874 398.797 385.936 399.352 384.746C399.907 383.557 400.185 382.182 400.185 380.622C400.185 378.296 399.564 376.432 398.321 375.031C397.105 373.63 395.479 372.929 393.444 372.929C391.434 372.929 389.809 373.63 388.566 375.031C387.324 376.432 386.702 378.296 386.702 380.622C386.702 382.182 386.98 383.557 387.535 384.746C388.09 385.936 388.87 386.874 389.875 387.562C390.906 388.223 392.095 388.553 393.444 388.553ZM408.194 390.853V370.629H411.168V375.784H411.367V390.853H408.194ZM411.367 380.305L410.851 375.507C411.327 373.789 412.173 372.48 413.389 371.581C414.605 370.682 416.006 370.233 417.592 370.233C418.253 370.233 418.703 370.286 418.941 370.391V373.445C418.808 373.392 418.623 373.366 418.385 373.366C418.147 373.339 417.857 373.326 417.513 373.326C415.504 373.326 413.971 373.934 412.913 375.15C411.882 376.34 411.367 378.058 411.367 380.305Z" fill="white"/>
</g>
<path d="M795.066 321.358C785.739 321.358 776.77 319.863 768.161 316.874C759.671 313.764 753.094 309.818 748.43 305.035L753.632 294.811C758.056 299.116 763.975 302.763 771.389 305.753C778.923 308.623 786.815 310.058 795.066 310.058C802.958 310.058 809.355 309.101 814.258 307.188C819.28 305.155 822.927 302.464 825.199 299.116C827.591 295.768 828.787 292.061 828.787 287.995C828.787 283.093 827.352 279.147 824.482 276.157C821.732 273.168 818.084 270.836 813.54 269.162C808.997 267.368 803.974 265.814 798.474 264.498C792.973 263.183 787.472 261.808 781.972 260.373C776.471 258.818 771.389 256.786 766.726 254.274C762.182 251.763 758.475 248.475 755.605 244.409C752.855 240.224 751.479 234.783 751.479 228.087C751.479 221.869 753.094 216.189 756.322 211.047C759.671 205.786 764.753 201.6 771.569 198.491C778.385 195.263 787.114 193.648 797.756 193.648C804.811 193.648 811.807 194.665 818.742 196.698C825.678 198.611 831.657 201.301 836.679 204.769L832.195 215.352C826.814 211.764 821.074 209.134 814.975 207.46C808.997 205.786 803.197 204.948 797.577 204.948C790.043 204.948 783.825 205.965 778.923 207.998C774.02 210.031 770.373 212.781 767.981 216.249C765.709 219.597 764.573 223.423 764.573 227.728C764.573 232.631 765.948 236.577 768.699 239.566C771.569 242.556 775.276 244.888 779.819 246.562C784.483 248.236 789.565 249.73 795.066 251.046C800.566 252.361 806.007 253.796 811.388 255.351C816.889 256.905 821.911 258.938 826.455 261.449C831.118 263.841 834.825 267.069 837.576 271.135C840.446 275.201 841.88 280.522 841.88 287.099C841.88 293.197 840.206 298.877 836.858 304.138C833.51 309.28 828.368 313.466 821.433 316.694C814.617 319.803 805.828 321.358 795.066 321.358ZM892.504 321.178C883.655 321.178 876.839 318.787 872.056 314.004C867.273 309.221 864.882 302.464 864.882 293.735V205.307H877.617V293.018C877.617 298.518 878.992 302.763 881.742 305.753C884.612 308.742 888.678 310.237 893.939 310.237C899.559 310.237 904.223 308.623 907.93 305.394L912.414 314.542C909.903 316.814 906.853 318.488 903.266 319.564C899.798 320.64 896.211 321.178 892.504 321.178ZM848.021 236.696V226.114H906.315V236.696H848.021ZM966.887 321.178C957.081 321.178 948.472 319.146 941.058 315.08C933.644 310.895 927.844 305.215 923.659 298.04C919.474 290.746 917.381 282.435 917.381 273.108C917.381 263.781 919.354 255.53 923.301 248.355C927.366 241.181 932.867 235.56 939.802 231.495C946.857 227.31 954.75 225.217 963.479 225.217C972.328 225.217 980.16 227.25 986.976 231.315C993.911 235.262 999.352 240.882 1003.3 248.176C1007.24 255.351 1009.22 263.661 1009.22 273.108C1009.22 273.706 1009.16 274.364 1009.04 275.081C1009.04 275.679 1009.04 276.337 1009.04 277.054H927.067V267.548H1002.22L997.2 271.314C997.2 264.498 995.705 258.46 992.716 253.198C989.846 247.817 985.9 243.632 980.877 240.643C975.855 237.653 970.056 236.158 963.479 236.158C957.022 236.158 951.222 237.653 946.08 240.643C940.938 243.632 936.932 247.817 934.063 253.198C931.193 258.579 929.758 264.737 929.758 271.673V273.646C929.758 280.821 931.312 287.158 934.421 292.659C937.65 298.04 942.074 302.285 947.694 305.394C953.434 308.383 959.951 309.878 967.245 309.878C972.985 309.878 978.306 308.862 983.209 306.829C988.231 304.796 992.536 301.687 996.124 297.502L1003.3 305.753C999.113 310.775 993.852 314.602 987.514 317.232C981.296 319.863 974.42 321.178 966.887 321.178ZM1078.37 321.178C1070.23 321.178 1062.88 319.325 1056.3 315.618C1049.73 311.791 1044.47 306.351 1040.52 299.296C1036.69 292.121 1034.78 283.392 1034.78 273.108C1034.78 262.824 1036.69 254.155 1040.52 247.1C1044.35 239.925 1049.55 234.484 1056.12 230.777C1062.7 227.07 1070.12 225.217 1078.37 225.217C1087.33 225.217 1095.35 227.25 1102.4 231.315C1109.58 235.262 1115.2 240.882 1119.26 248.176C1123.33 255.351 1125.36 263.661 1125.36 273.108C1125.36 282.674 1123.33 291.045 1119.26 298.219C1115.2 305.394 1109.58 311.014 1102.4 315.08C1095.35 319.146 1087.33 321.178 1078.37 321.178ZM1029.76 355.079V226.114H1041.95V254.454L1040.7 273.287L1042.49 292.3V355.079H1029.76ZM1077.47 309.878C1084.17 309.878 1090.14 308.383 1095.41 305.394C1100.67 302.285 1104.85 297.98 1107.96 292.48C1111.07 286.859 1112.63 280.402 1112.63 273.108C1112.63 265.814 1111.07 259.416 1107.96 253.916C1104.85 248.415 1100.67 244.11 1095.41 241.001C1090.14 237.892 1084.17 236.338 1077.47 236.338C1070.77 236.338 1064.73 237.892 1059.35 241.001C1054.09 244.11 1049.91 248.415 1046.8 253.916C1043.81 259.416 1042.31 265.814 1042.31 273.108C1042.31 280.402 1043.81 286.859 1046.8 292.48C1049.91 297.98 1054.09 302.285 1059.35 305.394C1064.73 308.383 1070.77 309.878 1077.47 309.878ZM1148.09 320.281V214.276C1148.09 205.905 1150.54 199.149 1155.45 194.007C1160.35 188.865 1167.4 186.294 1176.61 186.294C1180.2 186.294 1183.67 186.773 1187.01 187.729C1190.36 188.686 1193.17 190.181 1195.45 192.213L1191.14 201.72C1189.35 200.165 1187.25 199.029 1184.86 198.312C1182.47 197.475 1179.9 197.056 1177.15 197.056C1171.77 197.056 1167.64 198.551 1164.77 201.54C1161.9 204.53 1160.47 208.954 1160.47 214.814V229.163L1160.83 235.082V320.281H1148.09ZM1131.23 236.696V226.114H1189.53V236.696H1131.23ZM1238.15 321.178C1229.06 321.178 1220.87 319.146 1213.58 315.08C1206.4 310.895 1200.72 305.215 1196.54 298.04C1192.35 290.746 1190.26 282.435 1190.26 273.108C1190.26 263.661 1192.35 255.351 1196.54 248.176C1200.72 241.001 1206.4 235.381 1213.58 231.315C1220.75 227.25 1228.94 225.217 1238.15 225.217C1247.48 225.217 1255.73 227.25 1262.9 231.315C1270.2 235.381 1275.88 241.001 1279.94 248.176C1284.13 255.351 1286.22 263.661 1286.22 273.108C1286.22 282.435 1284.13 290.746 1279.94 298.04C1275.88 305.215 1270.2 310.895 1262.9 315.08C1255.61 319.146 1247.36 321.178 1238.15 321.178ZM1238.15 309.878C1244.96 309.878 1251 308.383 1256.26 305.394C1261.53 302.285 1265.65 297.98 1268.64 292.48C1271.75 286.859 1273.3 280.402 1273.3 273.108C1273.3 265.694 1271.75 259.237 1268.64 253.736C1265.65 248.236 1261.53 243.991 1256.26 241.001C1251 237.892 1245.02 236.338 1238.33 236.338C1231.63 236.338 1225.65 237.892 1220.39 241.001C1215.13 243.991 1210.94 248.236 1207.84 253.736C1204.73 259.237 1203.17 265.694 1203.17 273.108C1203.17 280.402 1204.73 286.859 1207.84 292.48C1210.94 297.98 1215.13 302.285 1220.39 305.394C1225.65 308.383 1231.57 309.878 1238.15 309.878ZM1306.84 320.281V226.114H1319.03V251.763L1317.78 247.279C1320.41 240.104 1324.83 234.664 1331.05 230.957C1337.27 227.13 1344.98 225.217 1354.19 225.217V237.593C1353.71 237.593 1353.23 237.593 1352.76 237.593C1352.28 237.474 1351.8 237.414 1351.32 237.414C1341.4 237.414 1333.62 240.463 1328 246.562C1322.38 252.541 1319.57 261.09 1319.57 272.211V320.281H1306.84ZM1408.66 321.178C1399.69 321.178 1391.62 319.146 1384.44 315.08C1377.39 311.014 1371.83 305.394 1367.76 298.219C1363.7 290.925 1361.67 282.555 1361.67 273.108C1361.67 263.542 1363.7 255.171 1367.76 247.997C1371.83 240.822 1377.39 235.262 1384.44 231.315C1391.62 227.25 1399.69 225.217 1408.66 225.217C1416.91 225.217 1424.26 227.07 1430.72 230.777C1437.3 234.484 1442.5 239.925 1446.33 247.1C1450.27 254.155 1452.25 262.824 1452.25 273.108C1452.25 283.272 1450.33 291.941 1446.51 299.116C1442.68 306.291 1437.48 311.791 1430.9 315.618C1424.44 319.325 1417.03 321.178 1408.66 321.178ZM1409.56 309.878C1416.25 309.878 1422.23 308.383 1427.49 305.394C1432.87 302.285 1437.06 297.98 1440.05 292.48C1443.16 286.859 1444.71 280.402 1444.71 273.108C1444.71 265.694 1443.16 259.237 1440.05 253.736C1437.06 248.236 1432.87 243.991 1427.49 241.001C1422.23 237.892 1416.25 236.338 1409.56 236.338C1402.98 236.338 1397.06 237.892 1391.8 241.001C1386.54 243.991 1382.35 248.236 1379.24 253.736C1376.13 259.237 1374.58 265.694 1374.58 273.108C1374.58 280.402 1376.13 286.859 1379.24 292.48C1382.35 297.98 1386.54 302.285 1391.8 305.394C1397.06 308.383 1402.98 309.878 1409.56 309.878ZM1445.07 320.281V291.941L1446.33 272.929L1444.53 253.916V187.191H1457.27V320.281H1445.07ZM1582.19 321.358C1566.17 321.358 1553.55 316.754 1544.34 307.546C1535.13 298.339 1530.53 284.707 1530.53 266.651V194.725H1543.8V266.113C1543.8 280.94 1547.15 291.882 1553.85 298.937C1560.54 305.992 1569.99 309.519 1582.19 309.519C1594.51 309.519 1604.01 305.992 1610.71 298.937C1617.4 291.882 1620.75 280.94 1620.75 266.113V194.725H1633.67V266.651C1633.67 284.707 1629.06 298.339 1619.86 307.546C1610.77 316.754 1598.21 321.358 1582.19 321.358ZM1680.12 255.53H1746.49V267.009H1680.12V255.53ZM1681.56 320.281H1668.28V194.725H1754.38V206.204H1681.56V320.281ZM1829.36 321.358C1819.91 321.358 1811.18 319.803 1803.17 316.694C1795.16 313.466 1788.22 308.981 1782.36 303.242C1776.51 297.502 1771.9 290.746 1768.55 282.973C1765.33 275.201 1763.71 266.711 1763.71 257.503C1763.71 248.296 1765.33 239.805 1768.55 232.033C1771.9 224.26 1776.51 217.504 1782.36 211.764C1788.34 206.025 1795.34 201.6 1803.35 198.491C1811.36 195.263 1820.09 193.648 1829.54 193.648C1838.63 193.648 1847.18 195.203 1855.19 198.312C1863.2 201.301 1869.96 205.845 1875.46 211.944L1867.03 220.374C1861.88 215.113 1856.2 211.346 1849.99 209.074C1843.77 206.682 1837.07 205.487 1829.9 205.487C1822.36 205.487 1815.37 206.802 1808.91 209.433C1802.45 211.944 1796.83 215.591 1792.05 220.374C1787.27 225.038 1783.5 230.538 1780.75 236.876C1778.12 243.094 1776.8 249.97 1776.8 257.503C1776.8 265.036 1778.12 271.972 1780.75 278.31C1783.5 284.528 1787.27 290.028 1792.05 294.811C1796.83 299.475 1802.45 303.122 1808.91 305.753C1815.37 308.264 1822.36 309.519 1829.9 309.519C1837.07 309.519 1843.77 308.324 1849.99 305.932C1856.2 303.541 1861.88 299.714 1867.03 294.453L1875.46 302.883C1869.96 308.981 1863.2 313.585 1855.19 316.694C1847.18 319.803 1838.57 321.358 1829.36 321.358Z" fill="white"/>
</g>
<defs>
<clipPath id="clip0_13_834">
<rect width="2560" height="512" fill="white"/>
</clipPath>
<clipPath id="clip1_13_834">
<rect width="483" height="124.172" fill="white" transform="translate(76.1953 53)"/>
</clipPath>
<clipPath id="clip2_13_834">
<rect width="344" height="111.032" fill="white" transform="translate(76.1953 345)"/>
</clipPath>
</defs>
</svg>
