<svg width="2560" height="512" viewBox="0 0 2560 512" fill="none" xmlns="http://www.w3.org/2000/svg">
<rect width="2560" height="512" fill="#34495E"/>
<path d="M2105 512L2217 0H2560V512H2105Z" fill="#2A2A2A"/>
<path d="M148.683 230.149V319H128.86V193.334H145.143L216.295 284.132V193.511H236.295V319H218.95L148.683 230.149ZM293.608 320.77C286.41 320.77 279.861 319.531 273.962 317.053C268.18 314.457 263.165 310.976 258.917 306.61C254.669 302.127 251.365 297.053 249.005 291.389C246.764 285.607 245.643 279.471 245.643 272.982C245.643 264.25 247.648 256.285 251.66 249.087C255.672 241.772 261.277 235.931 268.475 231.565C275.673 227.081 284.109 224.839 293.785 224.839C303.461 224.839 311.779 227.081 318.741 231.565C325.821 235.931 331.308 241.713 335.202 248.91C339.095 256.108 341.042 263.837 341.042 272.097C341.042 273.513 340.983 274.869 340.865 276.167C340.747 277.347 340.629 278.35 340.511 279.176H266.351C266.705 284.604 268.18 289.383 270.776 293.513C273.49 297.525 276.911 300.711 281.041 303.071C285.171 305.312 289.596 306.433 294.316 306.433C299.508 306.433 304.405 305.135 309.006 302.54C313.726 299.944 316.912 296.522 318.564 292.274L335.202 297.053C333.196 301.537 330.128 305.607 325.998 309.265C321.986 312.805 317.207 315.637 311.661 317.761C306.116 319.767 300.098 320.77 293.608 320.77ZM265.82 266.256H321.75C321.396 260.946 319.862 256.285 317.148 252.273C314.552 248.143 311.189 244.958 307.059 242.716C303.048 240.356 298.564 239.176 293.608 239.176C288.77 239.176 284.286 240.356 280.156 242.716C276.145 244.958 272.841 248.143 270.245 252.273C267.649 256.285 266.174 260.946 265.82 266.256ZM460.881 226.432H479.465L440.527 319H423.889L407.252 277.229L390.614 319H373.977L334.861 226.432H353.446L383.181 300.062L396.278 265.902L380.349 226.609H396.809L407.252 255.459L417.518 226.609H433.978L418.226 265.902L431.323 300.062L460.881 226.432ZM535.586 243.247C528.035 243.365 521.309 245.076 515.409 248.379C509.627 251.683 505.497 256.344 503.019 262.362V319H483.55V226.432H501.604V247.14C504.789 240.769 508.978 235.695 514.17 231.919C519.362 228.025 524.849 225.901 530.631 225.547C531.81 225.547 532.754 225.547 533.462 225.547C534.288 225.547 534.996 225.606 535.586 225.724V243.247ZM544.086 340.77C545.856 341.006 547.567 341.242 549.219 341.478C550.989 341.832 552.405 342.009 553.467 342.009C555.473 342.009 557.184 341.36 558.6 340.062C560.134 338.882 561.668 336.64 563.202 333.337C564.736 330.033 566.623 325.254 568.865 319L530.812 226.432H551.166L579.485 299.177L604.618 226.432H623.38L581.432 340.416C580.134 343.838 578.246 346.965 575.768 349.797C573.29 352.747 570.222 355.048 566.564 356.7C562.907 358.352 558.6 359.178 553.644 359.178C552.228 359.178 550.753 359.06 549.219 358.824C547.685 358.588 545.974 358.234 544.086 357.762V340.77Z" fill="white"/>
<g clip-path="url(#clip0_12_1606)">
<path d="M2429.02 192.193H2454.52L2401.08 319.233H2378.25L2355.41 261.907L2332.58 319.233H2309.75L2256.07 192.193H2281.57L2322.38 293.242L2340.35 246.361L2318.49 192.436H2341.08L2355.41 232.03L2369.5 192.436H2392.09L2370.47 246.361L2388.45 293.242L2429.02 192.193Z" fill="#B2BBC8"/>
</g>
<defs>
<clipPath id="clip0_12_1606">
<rect width="198.602" height="127.246" fill="white" transform="translate(2256 192.177)"/>
</clipPath>
</defs>
</svg>
