<svg width="2560" height="512" viewBox="0 0 2560 512" fill="none" xmlns="http://www.w3.org/2000/svg">
<g clip-path="url(#clip0_12_2079)">
<rect width="2560" height="512" fill="#263443"/>
<circle cx="2338.7" cy="179.5" r="320" fill="#E5292D" stroke="white" stroke-width="25"/>
<circle cx="2515.2" cy="512" r="256.5" fill="#E5292D" stroke="white" stroke-width="25"/>
<circle cx="270.695" cy="255.5" r="409" fill="#E5292D" stroke="white" stroke-width="25"/>
<g clip-path="url(#clip1_12_2079)">
<path d="M76.2758 78.7782H94.8303V88.9443C94.8303 88.9443 110.549 77.1443 123.513 77.1443C137.125 77.1443 149.926 84.315 160.297 95.9335C169.746 86.3103 179.338 76.8721 197.892 76.8721C219.039 76.8721 231.841 92.2119 231.841 92.2119C238.123 99.2488 244.319 109.64 244.319 121.803V174.902H225.602V121.984C225.602 119.338 221.389 95.8427 197.892 95.8427C175.287 95.8427 170.02 117.332 170.02 122.438V174.993H151.385V120.986C151.385 116.35 144.741 95.8427 123.513 95.8427C102.284 95.8427 96.5318 114.904 96.5318 119.806V175.628H76.1948L76.2758 78.7782Z" fill="white"/>
<path d="M300.955 78.5962C286.569 78.5962 274.339 83.6815 265.948 93.6026C255.872 105.515 253.637 118.154 253.637 125.887C253.637 167.025 287.551 177.172 299.01 177.172C325.018 177.172 337.982 158.293 337.982 158.293L322.69 149.209C316.165 155.536 309.405 160.05 299.222 160.044C286.688 160.037 271.823 146.781 271.823 131.547H345.91C345.91 93.8254 320.126 78.5962 300.955 78.5962ZM300.353 96.248C319.947 96.248 325.218 116.017 325.218 116.017H273.654C273.654 116.017 280.759 96.248 300.353 96.248Z" fill="white"/>
<path d="M408.983 174.588L404.097 156.385H387.562C380.661 156.385 374.362 149.768 374.362 143.394V97.3858H403.611V78.2337H373.308V53H356.253V142.973C356.253 161.763 370.556 174.595 383.16 174.592L408.983 174.588Z" fill="white"/>
<path d="M446.311 79.3979H468.081L463.974 96.569H447.809C437.048 96.569 433.266 107.717 433.266 115.08V174.63H415.684V109.095C415.684 97.6033 425.24 79.3979 446.311 79.3979Z" fill="white"/>
<path d="M510.109 172.024C535.133 172.024 555.419 151.574 555.419 126.348C555.419 101.122 535.133 80.6721 510.109 80.6721C485.086 80.6721 464.8 101.122 464.8 126.348C464.8 151.574 485.086 172.024 510.109 172.024Z" stroke="white" stroke-width="7.58208" stroke-miterlimit="1.5" stroke-linecap="round" stroke-linejoin="round"/>
<path d="M510.109 157.615C527.239 157.615 541.125 143.616 541.125 126.348C541.125 109.08 527.239 95.0818 510.109 95.0818C492.98 95.0818 479.094 109.08 479.094 126.348C479.094 143.616 492.98 157.615 510.109 157.615Z" stroke="white" stroke-width="7.58499" stroke-miterlimit="1.5" stroke-linecap="round" stroke-linejoin="round"/>
<path d="M510.109 172.024C535.133 172.024 555.419 151.574 555.419 126.348C555.419 101.122 535.133 80.6721 510.109 80.6721C485.086 80.6721 464.8 101.122 464.8 126.348C464.8 151.574 485.086 172.024 510.109 172.024Z" stroke="white" stroke-width="7.58208" stroke-miterlimit="1.5" stroke-linecap="round" stroke-linejoin="round"/>
<path d="M510.109 157.615C527.239 157.615 541.125 143.616 541.125 126.348C541.125 109.08 527.239 95.0818 510.109 95.0818C492.98 95.0818 479.094 109.08 479.094 126.348C479.094 143.616 492.98 157.615 510.109 157.615Z" stroke="white" stroke-width="7.58499" stroke-miterlimit="1.5" stroke-linecap="round" stroke-linejoin="round"/>
</g>
<g clip-path="url(#clip2_12_2079)">
<path fill-rule="evenodd" clip-rule="evenodd" d="M110.396 421.83L76.6904 389.115L121.301 345.496L138.154 362.349L129.232 371.271L121.301 363.34L95.5262 389.115L119.319 413.403L110.396 421.83Z" fill="white"/>
<path fill-rule="evenodd" clip-rule="evenodd" d="M111.388 388.124L120.31 379.202L153.521 412.412L108.91 456.032L92.0566 439.179L100.979 430.256L108.91 438.187L134.685 411.916L111.388 388.124Z" fill="white"/>
<path d="M200.479 437.918C196.165 437.918 192.723 436.935 190.153 434.968C187.615 432.969 186.124 430.162 185.68 426.545H191.628C191.914 428.639 192.849 430.273 194.436 431.447C196.022 432.589 198.1 433.16 200.669 433.16C202.795 433.16 204.413 432.779 205.523 432.018C206.665 431.225 207.236 430.13 207.236 428.734C207.236 427.497 206.887 426.498 206.189 425.736C205.491 424.975 204.317 424.357 202.668 423.881L196.482 422.025C193.341 421.073 191.025 419.82 189.534 418.266C188.075 416.711 187.345 414.76 187.345 412.413C187.345 410.446 187.853 408.733 188.868 407.274C189.883 405.814 191.311 404.688 193.151 403.895C195.023 403.102 197.196 402.705 199.67 402.705C203.477 402.705 206.506 403.641 208.759 405.513C211.043 407.353 212.343 409.859 212.661 413.031H206.713C206.364 411.128 205.571 409.732 204.333 408.844C203.096 407.924 201.431 407.464 199.337 407.464C197.497 407.464 196.038 407.829 194.959 408.558C193.88 409.288 193.341 410.287 193.341 411.556C193.341 412.603 193.658 413.491 194.293 414.221C194.959 414.951 196.18 415.585 197.957 416.124L204.238 418.028C207.379 418.948 209.663 420.201 211.09 421.787C212.518 423.373 213.232 425.388 213.232 427.83C213.232 431.066 212.106 433.556 209.853 435.301C207.633 437.046 204.508 437.918 200.479 437.918ZM228.496 437.966C225.514 437.966 223.31 437.268 221.882 435.872C220.486 434.445 219.788 432.319 219.788 429.496V407.702L225.832 405.465V429.638C225.832 430.812 226.149 431.685 226.783 432.256C227.418 432.827 228.417 433.112 229.781 433.112C230.321 433.112 230.796 433.08 231.209 433.017C231.653 432.922 232.065 432.811 232.446 432.684V437.347C232.065 437.538 231.526 437.68 230.828 437.776C230.13 437.902 229.353 437.966 228.496 437.966ZM215.125 417.933V413.222H232.446V417.933H215.125ZM247.084 437.966C244.515 437.966 242.262 437.427 240.327 436.348C238.424 435.269 236.933 433.778 235.854 431.875C234.807 429.972 234.284 427.783 234.284 425.308C234.284 422.834 234.807 420.661 235.854 418.789C236.933 416.886 238.424 415.411 240.327 414.364C242.231 413.285 244.451 412.746 246.989 412.746C249.4 412.746 251.494 413.253 253.27 414.269C255.047 415.252 256.427 416.648 257.41 418.456C258.394 420.264 258.885 422.374 258.885 424.785C258.885 425.229 258.87 425.641 258.838 426.022C258.806 426.403 258.759 426.783 258.695 427.164H237.996V422.977H254.079L252.842 424.119C252.842 421.835 252.319 420.121 251.272 418.979C250.225 417.837 248.766 417.266 246.894 417.266C244.864 417.266 243.246 417.964 242.04 419.36C240.867 420.756 240.28 422.77 240.28 425.403C240.28 428.005 240.867 430.003 242.04 431.399C243.246 432.763 244.943 433.445 247.132 433.445C248.401 433.445 249.511 433.207 250.463 432.731C251.415 432.256 252.113 431.526 252.557 430.543H258.219C257.426 432.827 256.078 434.635 254.175 435.967C252.303 437.3 249.939 437.966 247.084 437.966ZM277.219 437.966C274.904 437.966 273.016 437.427 271.557 436.348C270.129 435.238 269.241 433.715 268.892 431.78L269.368 431.732V447.245H263.372V413.222H269.225V418.694L268.749 418.599C269.193 416.791 270.209 415.363 271.795 414.316C273.381 413.269 275.316 412.746 277.6 412.746C279.757 412.746 281.629 413.269 283.215 414.316C284.833 415.331 286.086 416.775 286.974 418.646C287.863 420.518 288.307 422.723 288.307 425.261C288.307 427.83 287.847 430.067 286.927 431.97C286.007 433.874 284.722 435.349 283.072 436.396C281.423 437.442 279.472 437.966 277.219 437.966ZM275.697 433.017C277.632 433.017 279.17 432.351 280.312 431.018C281.455 429.654 282.026 427.751 282.026 425.308C282.026 422.866 281.439 420.978 280.265 419.646C279.123 418.313 277.584 417.647 275.649 417.647C273.746 417.647 272.207 418.329 271.033 419.693C269.86 421.026 269.273 422.913 269.273 425.356C269.273 427.799 269.86 429.686 271.033 431.018C272.207 432.351 273.762 433.017 275.697 433.017ZM294.459 437.49V410.985C294.459 408.32 295.188 406.29 296.647 404.894C298.138 403.467 300.359 402.753 303.309 402.753C303.976 402.753 304.531 402.785 304.975 402.848C305.419 402.912 305.847 403.007 306.26 403.134V407.797C306.038 407.702 305.752 407.638 305.403 407.607C305.054 407.543 304.658 407.511 304.214 407.511C302.945 407.511 301.993 407.829 301.358 408.463C300.756 409.066 300.454 409.954 300.454 411.128V437.49H294.459ZM290.081 417.933V413.222H305.736V417.933H290.081ZM320.138 437.966C317.569 437.966 315.3 437.427 313.333 436.348C311.398 435.269 309.891 433.778 308.813 431.875C307.734 429.94 307.195 427.735 307.195 425.261C307.195 422.786 307.734 420.613 308.813 418.741C309.891 416.87 311.398 415.411 313.333 414.364C315.3 413.285 317.569 412.746 320.138 412.746C322.739 412.746 325.008 413.285 326.943 414.364C328.878 415.411 330.385 416.87 331.463 418.741C332.542 420.613 333.081 422.786 333.081 425.261C333.081 427.735 332.526 429.94 331.416 431.875C330.337 433.778 328.83 435.269 326.895 436.348C324.96 437.427 322.708 437.966 320.138 437.966ZM320.138 433.16C321.407 433.16 322.549 432.843 323.564 432.208C324.579 431.542 325.372 430.622 325.944 429.448C326.515 428.243 326.8 426.831 326.8 425.213C326.8 422.834 326.166 420.962 324.897 419.598C323.659 418.234 322.073 417.552 320.138 417.552C318.203 417.552 316.601 418.234 315.332 419.598C314.063 420.962 313.429 422.834 313.429 425.213C313.429 426.831 313.714 428.243 314.285 429.448C314.888 430.622 315.681 431.542 316.664 432.208C317.68 432.843 318.837 433.16 320.138 433.16ZM337.491 437.49V413.222H343.344V419.075H343.487V437.49H337.491ZM343.487 424.832L342.869 419.075C343.44 417.013 344.407 415.442 345.771 414.364C347.135 413.285 348.769 412.746 350.672 412.746C351.339 412.746 351.815 412.809 352.1 412.936V418.599C351.941 418.535 351.719 418.504 351.434 418.504C351.148 418.472 350.799 418.456 350.387 418.456C348.071 418.456 346.342 418.964 345.2 419.979C344.058 420.994 343.487 422.612 343.487 424.832ZM372.796 437.49V432.018L373.272 432.113C372.86 433.889 371.86 435.317 370.274 436.396C368.688 437.442 366.8 437.966 364.612 437.966C362.391 437.966 360.456 437.458 358.806 436.443C357.188 435.396 355.935 433.937 355.047 432.065C354.159 430.194 353.715 427.989 353.715 425.451C353.715 422.881 354.175 420.645 355.095 418.741C356.015 416.838 357.299 415.363 358.949 414.316C360.63 413.269 362.581 412.746 364.802 412.746C367.086 412.746 368.973 413.301 370.464 414.411C371.955 415.49 372.875 416.997 373.224 418.932L372.606 418.979V403.229H378.649V437.49H372.796ZM366.372 433.065C368.307 433.065 369.846 432.398 370.988 431.066C372.162 429.702 372.749 427.799 372.749 425.356C372.749 422.913 372.162 421.026 370.988 419.693C369.814 418.361 368.26 417.695 366.325 417.695C364.421 417.695 362.883 418.377 361.709 419.741C360.535 421.073 359.948 422.961 359.948 425.403C359.948 427.846 360.535 429.734 361.709 431.066C362.883 432.398 364.437 433.065 366.372 433.065Z" fill="white"/>
<path d="M195.475 390.853V365.157H185.68V362.302H208.521V365.157H198.726V390.853H195.475ZM208.53 390.853V370.629H211.504V375.784H211.702V390.853H208.53ZM211.702 380.305L211.187 375.507C211.662 373.789 212.508 372.48 213.724 371.581C214.941 370.682 216.342 370.233 217.928 370.233C218.589 370.233 219.038 370.286 219.276 370.391V373.445C219.144 373.392 218.959 373.366 218.721 373.366C218.483 373.339 218.192 373.326 217.849 373.326C215.839 373.326 214.306 373.934 213.249 375.15C212.218 376.34 211.702 378.058 211.702 380.305ZM235.231 390.853C235.125 390.404 235.046 389.888 234.993 389.307C234.967 388.725 234.953 387.985 234.953 387.086H234.755V377.41C234.755 375.877 234.398 374.753 233.684 374.04C232.997 373.299 231.874 372.929 230.314 372.929C228.781 372.929 227.551 373.247 226.626 373.881C225.727 374.489 225.225 375.361 225.119 376.498H222.066C222.198 374.542 223.017 373.009 224.524 371.898C226.031 370.788 228.001 370.233 230.433 370.233C232.944 370.233 234.808 370.828 236.024 372.017C237.24 373.207 237.848 374.991 237.848 377.371V387.086C237.848 387.667 237.888 388.276 237.967 388.91C238.046 389.518 238.152 390.166 238.284 390.853H235.231ZM228.292 391.25C226.203 391.25 224.538 390.747 223.295 389.743C222.079 388.712 221.471 387.311 221.471 385.539C221.471 383.768 222.079 382.393 223.295 381.415C224.511 380.437 226.282 379.75 228.609 379.353L235.667 378.164V380.781L229.085 381.812C227.604 382.05 226.481 382.446 225.714 383.001C224.947 383.557 224.564 384.363 224.564 385.42C224.564 386.451 224.908 387.231 225.595 387.76C226.309 388.289 227.353 388.553 228.728 388.553C230.499 388.553 231.94 388.157 233.05 387.363C234.187 386.544 234.755 385.486 234.755 384.191L235.271 387.007C234.848 388.355 234.015 389.399 232.772 390.139C231.556 390.879 230.063 391.25 228.292 391.25ZM243.963 390.853V370.629H246.937V375.388H247.135V390.853H243.963ZM258.437 390.853V377.609C258.437 376.075 258.053 374.925 257.287 374.159C256.52 373.392 255.383 373.009 253.877 373.009C252.555 373.009 251.378 373.299 250.347 373.881C249.343 374.463 248.55 375.269 247.968 376.3C247.413 377.331 247.135 378.534 247.135 379.908L246.62 375.11C247.307 373.603 248.351 372.414 249.752 371.541C251.18 370.669 252.793 370.233 254.59 370.233C256.705 370.233 258.397 370.841 259.666 372.057C260.961 373.247 261.609 374.82 261.609 376.776V390.853H258.437ZM274.484 391.25C271.999 391.25 270.016 390.681 268.536 389.544C267.055 388.381 266.209 386.742 265.998 384.627H269.051C269.236 385.923 269.805 386.914 270.756 387.601C271.708 388.289 272.977 388.632 274.563 388.632C275.964 388.632 277.061 388.368 277.855 387.839C278.648 387.311 279.044 386.557 279.044 385.579C279.044 384.892 278.82 384.297 278.37 383.795C277.921 383.266 277.022 382.83 275.674 382.486L272.422 381.653C270.571 381.177 269.184 380.45 268.258 379.472C267.333 378.468 266.87 377.278 266.87 375.903C266.87 374.159 267.518 372.784 268.813 371.779C270.109 370.748 271.867 370.233 274.087 370.233C276.282 370.233 278.066 370.762 279.441 371.819C280.815 372.876 281.595 374.344 281.78 376.221H278.727C278.542 375.137 278.04 374.304 277.22 373.722C276.401 373.141 275.317 372.85 273.968 372.85C272.673 372.85 271.669 373.101 270.955 373.603C270.241 374.079 269.884 374.767 269.884 375.665C269.884 376.353 270.135 376.948 270.638 377.45C271.166 377.952 272.039 378.375 273.255 378.719L276.427 379.591C278.304 380.094 279.718 380.86 280.67 381.891C281.622 382.922 282.098 384.165 282.098 385.619C282.098 387.39 281.423 388.778 280.075 389.782C278.727 390.761 276.863 391.25 274.484 391.25ZM296.359 391.21C294.456 391.21 292.857 390.747 291.561 389.822C290.266 388.897 289.38 387.588 288.904 385.896L289.539 385.817V398.982H286.367V370.629H289.341V375.348L288.904 375.229C289.407 373.67 290.358 372.453 291.76 371.581C293.161 370.682 294.787 370.233 296.637 370.233C298.435 370.233 299.994 370.669 301.316 371.541C302.664 372.414 303.709 373.63 304.449 375.19C305.189 376.749 305.559 378.573 305.559 380.662C305.559 382.777 305.176 384.627 304.409 386.213C303.643 387.8 302.572 389.029 301.197 389.901C299.823 390.774 298.21 391.21 296.359 391.21ZM295.884 388.434C297.893 388.434 299.466 387.747 300.602 386.372C301.739 384.971 302.308 383.068 302.308 380.662C302.308 378.283 301.739 376.419 300.602 375.071C299.466 373.696 297.893 373.009 295.884 373.009C293.874 373.009 292.288 373.709 291.125 375.11C289.962 376.485 289.38 378.375 289.38 380.781C289.38 383.134 289.962 384.997 291.125 386.372C292.288 387.747 293.874 388.434 295.884 388.434ZM318.821 391.25C316.839 391.25 315.094 390.787 313.587 389.862C312.08 388.936 310.904 387.681 310.058 386.095C309.238 384.482 308.829 382.671 308.829 380.662C308.829 378.626 309.252 376.829 310.097 375.269C310.943 373.709 312.107 372.48 313.587 371.581C315.094 370.682 316.839 370.233 318.821 370.233C320.831 370.233 322.575 370.682 324.056 371.581C325.563 372.48 326.726 373.709 327.545 375.269C328.391 376.829 328.814 378.626 328.814 380.662C328.814 382.671 328.391 384.482 327.545 386.095C326.726 387.681 325.563 388.936 324.056 389.862C322.575 390.787 320.831 391.25 318.821 391.25ZM318.821 388.553C320.196 388.553 321.386 388.223 322.39 387.562C323.395 386.874 324.175 385.936 324.73 384.746C325.285 383.557 325.563 382.182 325.563 380.622C325.563 378.296 324.941 376.432 323.699 375.031C322.483 373.63 320.857 372.929 318.821 372.929C316.812 372.929 315.186 373.63 313.944 375.031C312.701 376.432 312.08 378.296 312.08 380.622C312.08 382.182 312.358 383.557 312.913 384.746C313.468 385.936 314.248 386.874 315.252 387.562C316.284 388.223 317.473 388.553 318.821 388.553ZM333.572 390.853V370.629H336.546V375.784H336.744V390.853H333.572ZM336.744 380.305L336.229 375.507C336.705 373.789 337.551 372.48 338.767 371.581C339.983 370.682 341.384 370.233 342.97 370.233C343.631 370.233 344.08 370.286 344.318 370.391V373.445C344.186 373.392 344.001 373.366 343.763 373.366C343.525 373.339 343.235 373.326 342.891 373.326C340.882 373.326 339.348 373.934 338.291 375.15C337.26 376.34 336.744 378.058 336.744 380.305ZM356.997 391.21C354.75 391.21 353.11 390.708 352.079 389.703C351.075 388.672 350.573 387.192 350.573 385.262V365.911L353.745 364.721V385.222C353.745 386.359 354.036 387.192 354.617 387.72C355.199 388.249 356.151 388.513 357.472 388.513C358.001 388.513 358.451 388.487 358.821 388.434C359.217 388.355 359.534 388.262 359.772 388.157V390.853C359.508 390.959 359.125 391.038 358.622 391.091C358.147 391.17 357.605 391.21 356.997 391.21ZM346.409 373.326V370.629H359.772V373.326H346.409ZM373.459 390.853V367.774C373.459 365.924 373.988 364.483 375.045 363.452C376.129 362.421 377.768 361.905 379.962 361.905C380.491 361.905 380.901 361.932 381.192 361.985C381.509 362.038 381.773 362.104 381.985 362.183V364.681C381.8 364.628 381.535 364.576 381.192 364.523C380.874 364.47 380.531 364.443 380.161 364.443C378.944 364.443 378.046 364.747 377.464 365.355C376.909 365.963 376.631 366.823 376.631 367.933V390.853H373.459ZM369.295 373.326V370.629H381.548V373.326H369.295ZM393.444 391.25C391.461 391.25 389.717 390.787 388.21 389.862C386.703 388.936 385.526 387.681 384.68 386.095C383.861 384.482 383.451 382.671 383.451 380.662C383.451 378.626 383.874 376.829 384.72 375.269C385.566 373.709 386.729 372.48 388.21 371.581C389.717 370.682 391.461 370.233 393.444 370.233C395.453 370.233 397.198 370.682 398.678 371.581C400.185 372.48 401.348 373.709 402.168 375.269C403.014 376.829 403.437 378.626 403.437 380.662C403.437 382.671 403.014 384.482 402.168 386.095C401.348 387.681 400.185 388.936 398.678 389.862C397.198 390.787 395.453 391.25 393.444 391.25ZM393.444 388.553C394.819 388.553 396.008 388.223 397.013 387.562C398.017 386.874 398.797 385.936 399.353 384.746C399.908 383.557 400.185 382.182 400.185 380.622C400.185 378.296 399.564 376.432 398.322 375.031C397.105 373.63 395.48 372.929 393.444 372.929C391.435 372.929 389.809 373.63 388.567 375.031C387.324 376.432 386.703 378.296 386.703 380.622C386.703 382.182 386.98 383.557 387.536 384.746C388.091 385.936 388.871 386.874 389.875 387.562C390.906 388.223 392.096 388.553 393.444 388.553ZM408.195 390.853V370.629H411.169V375.784H411.367V390.853H408.195ZM411.367 380.305L410.852 375.507C411.327 373.789 412.173 372.48 413.389 371.581C414.606 370.682 416.007 370.233 417.593 370.233C418.254 370.233 418.703 370.286 418.941 370.391V373.445C418.809 373.392 418.624 373.366 418.386 373.366C418.148 373.339 417.857 373.326 417.513 373.326C415.504 373.326 413.971 373.934 412.914 375.15C411.883 376.34 411.367 378.058 411.367 380.305Z" fill="white"/>
</g>
<path d="M788.967 320.281L746.637 194.725H760.268L799.909 312.927H793.093L833.988 194.725H846.185L886.543 312.927H880.086L920.085 194.725H932.82L890.489 320.281H876.498L837.934 208.177H841.522L802.778 320.281H788.967ZM948.559 320.281V226.114H961.294V320.281H948.559ZM955.016 205.307C952.386 205.307 950.173 204.41 948.38 202.617C946.586 200.823 945.689 198.671 945.689 196.159C945.689 193.648 946.586 191.556 948.38 189.882C950.173 188.088 952.386 187.191 955.016 187.191C957.647 187.191 959.859 188.028 961.653 189.702C963.447 191.376 964.343 193.469 964.343 195.98C964.343 198.611 963.447 200.823 961.653 202.617C959.979 204.41 957.767 205.307 955.016 205.307ZM991.348 320.281V187.191H1004.08V320.281H991.348ZM1034.14 320.281V187.191H1046.87V320.281H1034.14ZM1115.31 321.178C1106.22 321.178 1098.03 319.146 1090.74 315.08C1083.56 310.895 1077.88 305.215 1073.7 298.04C1069.51 290.746 1067.42 282.435 1067.42 273.108C1067.42 263.661 1069.51 255.351 1073.7 248.176C1077.88 241.001 1083.56 235.381 1090.74 231.315C1097.91 227.25 1106.1 225.217 1115.31 225.217C1124.64 225.217 1132.89 227.25 1140.06 231.315C1147.36 235.381 1153.04 241.001 1157.1 248.176C1161.29 255.351 1163.38 263.661 1163.38 273.108C1163.38 282.435 1161.29 290.746 1157.1 298.04C1153.04 305.215 1147.36 310.895 1140.06 315.08C1132.77 319.146 1124.52 321.178 1115.31 321.178ZM1115.31 309.878C1122.13 309.878 1128.16 308.383 1133.43 305.394C1138.69 302.285 1142.81 297.98 1145.8 292.48C1148.91 286.859 1150.47 280.402 1150.47 273.108C1150.47 265.694 1148.91 259.237 1145.8 253.736C1142.81 248.236 1138.69 243.991 1133.43 241.001C1128.16 237.892 1122.19 236.338 1115.49 236.338C1108.79 236.338 1102.81 237.892 1097.55 241.001C1092.29 243.991 1088.11 248.236 1085 253.736C1081.89 259.237 1080.33 265.694 1080.33 273.108C1080.33 280.402 1081.89 286.859 1085 292.48C1088.11 297.98 1092.29 302.285 1097.55 305.394C1102.81 308.383 1108.73 309.878 1115.31 309.878ZM1200.56 320.281L1165.05 226.114H1177.25L1209.53 313.466H1203.97L1237.16 226.114H1248.1L1280.92 313.466H1275.36L1308.18 226.114H1319.84L1284.15 320.281H1272.13L1240.56 238.131H1244.33L1212.58 320.281H1200.56ZM1338.42 320.281V214.276C1338.42 205.905 1340.87 199.149 1345.77 194.007C1350.67 188.865 1357.73 186.294 1366.94 186.294C1370.52 186.294 1373.99 186.773 1377.34 187.729C1380.69 188.686 1383.5 190.181 1385.77 192.213L1381.47 201.72C1379.67 200.165 1377.58 199.029 1375.19 198.312C1372.8 197.475 1370.23 197.056 1367.47 197.056C1362.09 197.056 1357.97 198.551 1355.1 201.54C1352.23 204.53 1350.79 208.954 1350.79 214.814V229.163L1351.15 235.082V320.281H1338.42ZM1321.56 236.696V226.114H1379.85V236.696H1321.56ZM1397.07 320.281V226.114H1409.81V320.281H1397.07ZM1403.53 205.307C1400.9 205.307 1398.68 204.41 1396.89 202.617C1395.1 200.823 1394.2 198.671 1394.2 196.159C1394.2 193.648 1395.1 191.556 1396.89 189.882C1398.68 188.088 1400.9 187.191 1403.53 187.191C1406.16 187.191 1408.37 188.028 1410.16 189.702C1411.96 191.376 1412.85 193.469 1412.85 195.98C1412.85 198.611 1411.96 200.823 1410.16 202.617C1408.49 204.41 1406.28 205.307 1403.53 205.307ZM1480.18 321.178C1470.38 321.178 1461.77 319.146 1454.36 315.08C1446.94 310.895 1441.14 305.215 1436.96 298.04C1432.77 290.746 1430.68 282.435 1430.68 273.108C1430.68 263.781 1432.65 255.53 1436.6 248.355C1440.66 241.181 1446.16 235.56 1453.1 231.495C1460.16 227.31 1468.05 225.217 1476.78 225.217C1485.63 225.217 1493.46 227.25 1500.27 231.315C1507.21 235.262 1512.65 240.882 1516.6 248.176C1520.54 255.351 1522.52 263.661 1522.52 273.108C1522.52 273.706 1522.46 274.364 1522.34 275.081C1522.34 275.679 1522.34 276.337 1522.34 277.054H1440.37V267.548H1515.52L1510.5 271.314C1510.5 264.498 1509 258.46 1506.01 253.198C1503.14 247.817 1499.2 243.632 1494.18 240.643C1489.15 237.653 1483.35 236.158 1476.78 236.158C1470.32 236.158 1464.52 237.653 1459.38 240.643C1454.24 243.632 1450.23 247.817 1447.36 253.198C1444.49 258.579 1443.06 264.737 1443.06 271.673V273.646C1443.06 280.821 1444.61 287.158 1447.72 292.659C1450.95 298.04 1455.37 302.285 1460.99 305.394C1466.73 308.383 1473.25 309.878 1480.54 309.878C1486.28 309.878 1491.6 308.862 1496.51 306.829C1501.53 304.796 1505.83 301.687 1509.42 297.502L1516.6 305.753C1512.41 310.775 1507.15 314.602 1500.81 317.232C1494.59 319.863 1487.72 321.178 1480.18 321.178ZM1543.06 320.281V187.191H1555.79V320.281H1543.06ZM1623.33 321.178C1614.36 321.178 1606.29 319.146 1599.12 315.08C1592.06 311.014 1586.5 305.394 1582.44 298.219C1578.37 290.925 1576.34 282.555 1576.34 273.108C1576.34 263.542 1578.37 255.171 1582.44 247.997C1586.5 240.822 1592.06 235.262 1599.12 231.315C1606.29 227.25 1614.36 225.217 1623.33 225.217C1631.58 225.217 1638.94 227.07 1645.39 230.777C1651.97 234.484 1657.17 239.925 1661 247.1C1664.95 254.155 1666.92 262.824 1666.92 273.108C1666.92 283.272 1665.01 291.941 1661.18 299.116C1657.35 306.291 1652.15 311.791 1645.57 315.618C1639.12 319.325 1631.7 321.178 1623.33 321.178ZM1624.23 309.878C1630.93 309.878 1636.9 308.383 1642.17 305.394C1647.55 302.285 1651.73 297.98 1654.72 292.48C1657.83 286.859 1659.39 280.402 1659.39 273.108C1659.39 265.694 1657.83 259.237 1654.72 253.736C1651.73 248.236 1647.55 243.991 1642.17 241.001C1636.9 237.892 1630.93 236.338 1624.23 236.338C1617.65 236.338 1611.73 237.892 1606.47 241.001C1601.21 243.991 1597.03 248.236 1593.92 253.736C1590.81 259.237 1589.25 265.694 1589.25 273.108C1589.25 280.402 1590.81 286.859 1593.92 292.48C1597.03 297.98 1601.21 302.285 1606.47 305.394C1611.73 308.383 1617.65 309.878 1624.23 309.878ZM1659.74 320.281V291.941L1661 272.929L1659.21 253.916V187.191H1671.94V320.281H1659.74Z" fill="white"/>
</g>
<defs>
<clipPath id="clip0_12_2079">
<rect width="2560" height="512" fill="white"/>
</clipPath>
<clipPath id="clip1_12_2079">
<rect width="483" height="124.172" fill="white" transform="translate(76.1948 53)"/>
</clipPath>
<clipPath id="clip2_12_2079">
<rect width="344" height="111.032" fill="white" transform="translate(76.1948 345)"/>
</clipPath>
</defs>
</svg>
