<svg width="2560" height="512" viewBox="0 0 2560 512" fill="none" xmlns="http://www.w3.org/2000/svg">
<g clip-path="url(#clip0_13_644)">
<rect width="2560" height="512" fill="#263443"/>
<circle cx="2338.5" cy="179.5" r="320" fill="#E5292D" stroke="white" stroke-width="25"/>
<circle cx="2515" cy="512" r="256.5" fill="#E5292D" stroke="white" stroke-width="25"/>
<circle cx="270.695" cy="255.5" r="409" fill="#E5292D" stroke="white" stroke-width="25"/>
<g clip-path="url(#clip1_13_644)">
<path d="M76.2763 78.7782H94.8308V88.9443C94.8308 88.9443 110.549 77.1443 123.513 77.1443C137.125 77.1443 149.927 84.315 160.298 95.9335C169.747 86.3103 179.338 76.8721 197.893 76.8721C219.04 76.8721 231.842 92.2119 231.842 92.2119C238.123 99.2488 244.319 109.64 244.319 121.803V174.902H225.603V121.984C225.603 119.338 221.39 95.8427 197.893 95.8427C175.287 95.8427 170.021 117.332 170.021 122.438V174.993H151.385V120.986C151.385 116.35 144.741 95.8427 123.513 95.8427C102.285 95.8427 96.5322 114.904 96.5322 119.806V175.628H76.1953L76.2763 78.7782Z" fill="white"/>
<path d="M300.956 78.5962C286.57 78.5962 274.34 83.6815 265.949 93.6026C255.873 105.515 253.638 118.154 253.638 125.887C253.638 167.025 287.552 177.172 299.01 177.172C325.019 177.172 337.982 158.293 337.982 158.293L322.691 149.209C316.165 155.536 309.405 160.05 299.223 160.044C286.689 160.037 271.823 146.781 271.823 131.547H345.911C345.911 93.8254 320.126 78.5962 300.956 78.5962ZM300.354 96.248C319.948 96.248 325.218 116.017 325.218 116.017H273.655C273.655 116.017 280.76 96.248 300.354 96.248Z" fill="white"/>
<path d="M408.984 174.588L404.098 156.385H387.563C380.662 156.385 374.363 149.768 374.363 143.394V97.3858H403.612V78.2337H373.309V53H356.254V142.973C356.254 161.763 370.557 174.595 383.161 174.592L408.984 174.588Z" fill="white"/>
<path d="M446.311 79.3979H468.082L463.975 96.569H447.809C437.049 96.569 433.267 107.717 433.267 115.08V174.63H415.685V109.095C415.685 97.6033 425.24 79.3979 446.311 79.3979Z" fill="white"/>
<path d="M510.11 172.024C535.134 172.024 555.42 151.574 555.42 126.348C555.42 101.122 535.134 80.6721 510.11 80.6721C485.087 80.6721 464.801 101.122 464.801 126.348C464.801 151.574 485.087 172.024 510.11 172.024Z" stroke="white" stroke-width="7.58208" stroke-miterlimit="1.5" stroke-linecap="round" stroke-linejoin="round"/>
<path d="M510.11 157.615C527.24 157.615 541.126 143.616 541.126 126.348C541.126 109.08 527.24 95.0818 510.11 95.0818C492.981 95.0818 479.095 109.08 479.095 126.348C479.095 143.616 492.981 157.615 510.11 157.615Z" stroke="white" stroke-width="7.58499" stroke-miterlimit="1.5" stroke-linecap="round" stroke-linejoin="round"/>
<path d="M510.11 172.024C535.134 172.024 555.42 151.574 555.42 126.348C555.42 101.122 535.134 80.6721 510.11 80.6721C485.087 80.6721 464.801 101.122 464.801 126.348C464.801 151.574 485.087 172.024 510.11 172.024Z" stroke="white" stroke-width="7.58208" stroke-miterlimit="1.5" stroke-linecap="round" stroke-linejoin="round"/>
<path d="M510.11 157.615C527.24 157.615 541.126 143.616 541.126 126.348C541.126 109.08 527.24 95.0818 510.11 95.0818C492.981 95.0818 479.095 109.08 479.095 126.348C479.095 143.616 492.981 157.615 510.11 157.615Z" stroke="white" stroke-width="7.58499" stroke-miterlimit="1.5" stroke-linecap="round" stroke-linejoin="round"/>
</g>
<g clip-path="url(#clip2_13_644)">
<path fill-rule="evenodd" clip-rule="evenodd" d="M110.397 421.83L76.6914 389.115L121.302 345.496L138.155 362.349L129.233 371.271L121.302 363.34L95.5271 389.115L119.32 413.403L110.397 421.83Z" fill="white"/>
<path fill-rule="evenodd" clip-rule="evenodd" d="M111.389 388.124L120.311 379.202L153.522 412.412L108.911 456.032L92.0576 439.179L100.98 430.256L108.911 438.187L134.686 411.916L111.389 388.124Z" fill="white"/>
<path d="M200.479 437.918C196.165 437.918 192.723 436.935 190.153 434.968C187.616 432.969 186.125 430.162 185.68 426.545H191.629C191.914 428.639 192.85 430.273 194.436 431.447C196.022 432.589 198.1 433.16 200.67 433.16C202.795 433.16 204.413 432.779 205.523 432.018C206.665 431.225 207.236 430.13 207.236 428.734C207.236 427.497 206.888 426.498 206.19 425.736C205.492 424.975 204.318 424.357 202.668 423.881L196.482 422.025C193.342 421.073 191.026 419.82 189.535 418.266C188.076 416.711 187.346 414.76 187.346 412.413C187.346 410.446 187.854 408.733 188.869 407.274C189.884 405.814 191.311 404.688 193.151 403.895C195.023 403.102 197.196 402.705 199.67 402.705C203.477 402.705 206.507 403.641 208.759 405.513C211.043 407.353 212.344 409.859 212.661 413.031H206.713C206.364 411.128 205.571 409.732 204.334 408.844C203.097 407.924 201.431 407.464 199.337 407.464C197.497 407.464 196.038 407.829 194.96 408.558C193.881 409.288 193.342 410.287 193.342 411.556C193.342 412.603 193.659 413.491 194.293 414.221C194.96 414.951 196.181 415.585 197.957 416.124L204.239 418.028C207.379 418.948 209.663 420.201 211.091 421.787C212.518 423.373 213.232 425.388 213.232 427.83C213.232 431.066 212.106 433.556 209.854 435.301C207.633 437.046 204.508 437.918 200.479 437.918ZM228.497 437.966C225.515 437.966 223.31 437.268 221.883 435.872C220.487 434.445 219.789 432.319 219.789 429.496V407.702L225.832 405.465V429.638C225.832 430.812 226.149 431.685 226.784 432.256C227.418 432.827 228.418 433.112 229.782 433.112C230.321 433.112 230.797 433.08 231.209 433.017C231.653 432.922 232.066 432.811 232.447 432.684V437.347C232.066 437.538 231.527 437.68 230.829 437.776C230.131 437.902 229.353 437.966 228.497 437.966ZM215.126 417.933V413.222H232.447V417.933H215.126ZM247.085 437.966C244.515 437.966 242.263 437.427 240.328 436.348C238.424 435.269 236.933 433.778 235.855 431.875C234.808 429.972 234.284 427.783 234.284 425.308C234.284 422.834 234.808 420.661 235.855 418.789C236.933 416.886 238.424 415.411 240.328 414.364C242.231 413.285 244.452 412.746 246.99 412.746C249.401 412.746 251.494 413.253 253.271 414.269C255.047 415.252 256.427 416.648 257.411 418.456C258.394 420.264 258.886 422.374 258.886 424.785C258.886 425.229 258.87 425.641 258.838 426.022C258.807 426.403 258.759 426.783 258.696 427.164H237.996V422.977H254.08L252.843 424.119C252.843 421.835 252.319 420.121 251.272 418.979C250.225 417.837 248.766 417.266 246.895 417.266C244.864 417.266 243.246 417.964 242.041 419.36C240.867 420.756 240.28 422.77 240.28 425.403C240.28 428.005 240.867 430.003 242.041 431.399C243.246 432.763 244.944 433.445 247.132 433.445C248.401 433.445 249.512 433.207 250.463 432.731C251.415 432.256 252.113 431.526 252.557 430.543H258.22C257.427 432.827 256.078 434.635 254.175 435.967C252.303 437.3 249.94 437.966 247.085 437.966ZM277.22 437.966C274.904 437.966 273.017 437.427 271.557 436.348C270.13 435.238 269.242 433.715 268.893 431.78L269.368 431.732V447.245H263.373V413.222H269.226V418.694L268.75 418.599C269.194 416.791 270.209 415.363 271.795 414.316C273.381 413.269 275.317 412.746 277.601 412.746C279.758 412.746 281.629 413.269 283.216 414.316C284.834 415.331 286.087 416.775 286.975 418.646C287.863 420.518 288.307 422.723 288.307 425.261C288.307 427.83 287.847 430.067 286.927 431.97C286.007 433.874 284.722 435.349 283.073 436.396C281.423 437.442 279.472 437.966 277.22 437.966ZM275.697 433.017C277.632 433.017 279.171 432.351 280.313 431.018C281.455 429.654 282.026 427.751 282.026 425.308C282.026 422.866 281.439 420.978 280.265 419.646C279.123 418.313 277.585 417.647 275.65 417.647C273.746 417.647 272.208 418.329 271.034 419.693C269.86 421.026 269.273 422.913 269.273 425.356C269.273 427.799 269.86 429.686 271.034 431.018C272.208 432.351 273.762 433.017 275.697 433.017ZM294.459 437.49V410.985C294.459 408.32 295.189 406.29 296.648 404.894C298.139 403.467 300.36 402.753 303.31 402.753C303.976 402.753 304.531 402.785 304.975 402.848C305.419 402.912 305.848 403.007 306.26 403.134V407.797C306.038 407.702 305.753 407.638 305.404 407.607C305.055 407.543 304.658 407.511 304.214 407.511C302.945 407.511 301.993 407.829 301.359 408.463C300.756 409.066 300.455 409.954 300.455 411.128V437.49H294.459ZM290.081 417.933V413.222H305.737V417.933H290.081ZM320.139 437.966C317.569 437.966 315.301 437.427 313.334 436.348C311.399 435.269 309.892 433.778 308.813 431.875C307.735 429.94 307.196 427.735 307.196 425.261C307.196 422.786 307.735 420.613 308.813 418.741C309.892 416.87 311.399 415.411 313.334 414.364C315.301 413.285 317.569 412.746 320.139 412.746C322.74 412.746 325.008 413.285 326.943 414.364C328.878 415.411 330.385 416.87 331.464 418.741C332.542 420.613 333.082 422.786 333.082 425.261C333.082 427.735 332.527 429.94 331.416 431.875C330.338 433.778 328.831 435.269 326.896 436.348C324.961 437.427 322.708 437.966 320.139 437.966ZM320.139 433.16C321.408 433.16 322.55 432.843 323.565 432.208C324.58 431.542 325.373 430.622 325.944 429.448C326.515 428.243 326.801 426.831 326.801 425.213C326.801 422.834 326.166 420.962 324.897 419.598C323.66 418.234 322.074 417.552 320.139 417.552C318.204 417.552 316.601 418.234 315.333 419.598C314.064 420.962 313.429 422.834 313.429 425.213C313.429 426.831 313.715 428.243 314.286 429.448C314.888 430.622 315.681 431.542 316.665 432.208C317.68 432.843 318.838 433.16 320.139 433.16ZM337.492 437.49V413.222H343.345V419.075H343.488V437.49H337.492ZM343.488 424.832L342.869 419.075C343.44 417.013 344.408 415.442 345.772 414.364C347.136 413.285 348.77 412.746 350.673 412.746C351.339 412.746 351.815 412.809 352.101 412.936V418.599C351.942 418.535 351.72 418.504 351.434 418.504C351.149 418.472 350.8 418.456 350.387 418.456C348.072 418.456 346.343 418.964 345.201 419.979C344.059 420.994 343.488 422.612 343.488 424.832ZM372.797 437.49V432.018L373.272 432.113C372.86 433.889 371.861 435.317 370.275 436.396C368.688 437.442 366.801 437.966 364.612 437.966C362.391 437.966 360.456 437.458 358.807 436.443C357.189 435.396 355.936 433.937 355.047 432.065C354.159 430.194 353.715 427.989 353.715 425.451C353.715 422.881 354.175 420.645 355.095 418.741C356.015 416.838 357.3 415.363 358.949 414.316C360.631 413.269 362.582 412.746 364.802 412.746C367.086 412.746 368.974 413.301 370.465 414.411C371.956 415.49 372.876 416.997 373.225 418.932L372.606 418.979V403.229H378.65V437.49H372.797ZM366.373 433.065C368.308 433.065 369.846 432.398 370.988 431.066C372.162 429.702 372.749 427.799 372.749 425.356C372.749 422.913 372.162 421.026 370.988 419.693C369.815 418.361 368.26 417.695 366.325 417.695C364.422 417.695 362.883 418.377 361.709 419.741C360.536 421.073 359.949 422.961 359.949 425.403C359.949 427.846 360.536 429.734 361.709 431.066C362.883 432.398 364.438 433.065 366.373 433.065Z" fill="white"/>
<path d="M195.475 390.853V365.157H185.68V362.302H208.521V365.157H198.727V390.853H195.475ZM208.53 390.853V370.629H211.504V375.784H211.703V390.853H208.53ZM211.703 380.305L211.187 375.507C211.663 373.789 212.509 372.48 213.725 371.581C214.941 370.682 216.342 370.233 217.928 370.233C218.589 370.233 219.039 370.286 219.277 370.391V373.445C219.144 373.392 218.959 373.366 218.721 373.366C218.483 373.339 218.193 373.326 217.849 373.326C215.84 373.326 214.307 373.934 213.249 375.15C212.218 376.34 211.703 378.058 211.703 380.305ZM235.231 390.853C235.126 390.404 235.046 389.888 234.994 389.307C234.967 388.725 234.954 387.985 234.954 387.086H234.756V377.41C234.756 375.877 234.399 374.753 233.685 374.04C232.998 373.299 231.874 372.929 230.314 372.929C228.781 372.929 227.552 373.247 226.627 373.881C225.728 374.489 225.225 375.361 225.12 376.498H222.066C222.198 374.542 223.018 373.009 224.525 371.898C226.032 370.788 228.001 370.233 230.433 370.233C232.945 370.233 234.808 370.828 236.025 372.017C237.241 373.207 237.849 374.991 237.849 377.371V387.086C237.849 387.667 237.888 388.276 237.968 388.91C238.047 389.518 238.153 390.166 238.285 390.853H235.231ZM228.292 391.25C226.204 391.25 224.538 390.747 223.296 389.743C222.08 388.712 221.471 387.311 221.471 385.539C221.471 383.768 222.08 382.393 223.296 381.415C224.512 380.437 226.283 379.75 228.609 379.353L235.668 378.164V380.781L229.085 381.812C227.605 382.05 226.481 382.446 225.714 383.001C224.948 383.557 224.564 384.363 224.564 385.42C224.564 386.451 224.908 387.231 225.596 387.76C226.309 388.289 227.354 388.553 228.728 388.553C230.499 388.553 231.94 388.157 233.05 387.363C234.187 386.544 234.756 385.486 234.756 384.191L235.271 387.007C234.848 388.355 234.015 389.399 232.773 390.139C231.557 390.879 230.063 391.25 228.292 391.25ZM243.963 390.853V370.629H246.938V375.388H247.136V390.853H243.963ZM258.437 390.853V377.609C258.437 376.075 258.054 374.925 257.287 374.159C256.521 373.392 255.384 373.009 253.877 373.009C252.555 373.009 251.379 373.299 250.348 373.881C249.343 374.463 248.55 375.269 247.969 376.3C247.413 377.331 247.136 378.534 247.136 379.908L246.62 375.11C247.308 373.603 248.352 372.414 249.753 371.541C251.181 370.669 252.793 370.233 254.591 370.233C256.706 370.233 258.398 370.841 259.667 372.057C260.962 373.247 261.61 374.82 261.61 376.776V390.853H258.437ZM274.484 391.25C271.999 391.25 270.017 390.681 268.536 389.544C267.056 388.381 266.21 386.742 265.998 384.627H269.052C269.237 385.923 269.805 386.914 270.757 387.601C271.709 388.289 272.978 388.632 274.564 388.632C275.965 388.632 277.062 388.368 277.855 387.839C278.648 387.311 279.045 386.557 279.045 385.579C279.045 384.892 278.82 384.297 278.371 383.795C277.921 383.266 277.022 382.83 275.674 382.486L272.422 381.653C270.572 381.177 269.184 380.45 268.259 379.472C267.333 378.468 266.871 377.278 266.871 375.903C266.871 374.159 267.519 372.784 268.814 371.779C270.109 370.748 271.867 370.233 274.088 370.233C276.282 370.233 278.067 370.762 279.441 371.819C280.816 372.876 281.596 374.344 281.781 376.221H278.727C278.542 375.137 278.04 374.304 277.221 373.722C276.401 373.141 275.317 372.85 273.969 372.85C272.674 372.85 271.669 373.101 270.955 373.603C270.241 374.079 269.885 374.767 269.885 375.665C269.885 376.353 270.136 376.948 270.638 377.45C271.167 377.952 272.039 378.375 273.255 378.719L276.428 379.591C278.304 380.094 279.719 380.86 280.671 381.891C281.622 382.922 282.098 384.165 282.098 385.619C282.098 387.39 281.424 388.778 280.076 389.782C278.727 390.761 276.864 391.25 274.484 391.25ZM296.36 391.21C294.457 391.21 292.857 390.747 291.562 389.822C290.266 388.897 289.381 387.588 288.905 385.896L289.539 385.817V398.982H286.367V370.629H289.341V375.348L288.905 375.229C289.407 373.67 290.359 372.453 291.76 371.581C293.161 370.682 294.787 370.233 296.638 370.233C298.435 370.233 299.995 370.669 301.317 371.541C302.665 372.414 303.709 373.63 304.449 375.19C305.19 376.749 305.56 378.573 305.56 380.662C305.56 382.777 305.176 384.627 304.41 386.213C303.643 387.8 302.572 389.029 301.198 389.901C299.823 390.774 298.21 391.21 296.36 391.21ZM295.884 388.434C297.893 388.434 299.466 387.747 300.603 386.372C301.74 384.971 302.308 383.068 302.308 380.662C302.308 378.283 301.74 376.419 300.603 375.071C299.466 373.696 297.893 373.009 295.884 373.009C293.875 373.009 292.289 373.709 291.126 375.11C289.962 376.485 289.381 378.375 289.381 380.781C289.381 383.134 289.962 384.997 291.126 386.372C292.289 387.747 293.875 388.434 295.884 388.434ZM318.822 391.25C316.839 391.25 315.094 390.787 313.588 389.862C312.081 388.936 310.904 387.681 310.058 386.095C309.239 384.482 308.829 382.671 308.829 380.662C308.829 378.626 309.252 376.829 310.098 375.269C310.944 373.709 312.107 372.48 313.588 371.581C315.094 370.682 316.839 370.233 318.822 370.233C320.831 370.233 322.576 370.682 324.056 371.581C325.563 372.48 326.726 373.709 327.546 375.269C328.392 376.829 328.815 378.626 328.815 380.662C328.815 382.671 328.392 384.482 327.546 386.095C326.726 387.681 325.563 388.936 324.056 389.862C322.576 390.787 320.831 391.25 318.822 391.25ZM318.822 388.553C320.197 388.553 321.386 388.223 322.391 387.562C323.395 386.874 324.175 385.936 324.73 384.746C325.285 383.557 325.563 382.182 325.563 380.622C325.563 378.296 324.942 376.432 323.699 375.031C322.483 373.63 320.857 372.929 318.822 372.929C316.813 372.929 315.187 373.63 313.944 375.031C312.702 376.432 312.081 378.296 312.081 380.622C312.081 382.182 312.358 383.557 312.913 384.746C313.469 385.936 314.248 386.874 315.253 387.562C316.284 388.223 317.474 388.553 318.822 388.553ZM333.573 390.853V370.629H336.547V375.784H336.745V390.853H333.573ZM336.745 380.305L336.229 375.507C336.705 373.789 337.551 372.48 338.767 371.581C339.983 370.682 341.384 370.233 342.971 370.233C343.632 370.233 344.081 370.286 344.319 370.391V373.445C344.187 373.392 344.002 373.366 343.764 373.366C343.526 373.339 343.235 373.326 342.891 373.326C340.882 373.326 339.349 373.934 338.291 375.15C337.26 376.34 336.745 378.058 336.745 380.305ZM356.997 391.21C354.75 391.21 353.111 390.708 352.08 389.703C351.075 388.672 350.573 387.192 350.573 385.262V365.911L353.745 364.721V385.222C353.745 386.359 354.036 387.192 354.618 387.72C355.199 388.249 356.151 388.513 357.473 388.513C358.002 388.513 358.451 388.487 358.821 388.434C359.218 388.355 359.535 388.262 359.773 388.157V390.853C359.508 390.959 359.125 391.038 358.623 391.091C358.147 391.17 357.605 391.21 356.997 391.21ZM346.409 373.326V370.629H359.773V373.326H346.409ZM373.459 390.853V367.774C373.459 365.924 373.988 364.483 375.046 363.452C376.129 362.421 377.769 361.905 379.963 361.905C380.491 361.905 380.901 361.932 381.192 361.985C381.509 362.038 381.774 362.104 381.985 362.183V364.681C381.8 364.628 381.536 364.576 381.192 364.523C380.875 364.47 380.531 364.443 380.161 364.443C378.945 364.443 378.046 364.747 377.465 365.355C376.909 365.963 376.632 366.823 376.632 367.933V390.853H373.459ZM369.296 373.326V370.629H381.549V373.326H369.296ZM393.445 391.25C391.462 391.25 389.717 390.787 388.21 389.862C386.703 388.936 385.527 387.681 384.681 386.095C383.861 384.482 383.452 382.671 383.452 380.662C383.452 378.626 383.875 376.829 384.721 375.269C385.567 373.709 386.73 372.48 388.21 371.581C389.717 370.682 391.462 370.233 393.445 370.233C395.454 370.233 397.198 370.682 398.679 371.581C400.186 372.48 401.349 373.709 402.168 375.269C403.014 376.829 403.437 378.626 403.437 380.662C403.437 382.671 403.014 384.482 402.168 386.095C401.349 387.681 400.186 388.936 398.679 389.862C397.198 390.787 395.454 391.25 393.445 391.25ZM393.445 388.553C394.819 388.553 396.009 388.223 397.013 387.562C398.018 386.874 398.798 385.936 399.353 384.746C399.908 383.557 400.186 382.182 400.186 380.622C400.186 378.296 399.564 376.432 398.322 375.031C397.106 373.63 395.48 372.929 393.445 372.929C391.435 372.929 389.81 373.63 388.567 375.031C387.325 376.432 386.703 378.296 386.703 380.622C386.703 382.182 386.981 383.557 387.536 384.746C388.091 385.936 388.871 386.874 389.876 387.562C390.907 388.223 392.096 388.553 393.445 388.553ZM408.195 390.853V370.629H411.169V375.784H411.368V390.853H408.195ZM411.368 380.305L410.852 375.507C411.328 373.789 412.174 372.48 413.39 371.581C414.606 370.682 416.007 370.233 417.593 370.233C418.254 370.233 418.704 370.286 418.942 370.391V373.445C418.809 373.392 418.624 373.366 418.386 373.366C418.148 373.339 417.858 373.326 417.514 373.326C415.505 373.326 413.972 373.934 412.914 375.15C411.883 376.34 411.368 378.058 411.368 380.305Z" fill="white"/>
</g>
<path d="M852.284 194.725H865.378V320.281H852.284V194.725ZM773.721 320.281H760.448V194.725H773.721V320.281ZM853.539 262.346H772.286V250.687H853.539V262.346ZM938.286 321.178C928.481 321.178 919.871 319.146 912.457 315.08C905.043 310.895 899.244 305.215 895.059 298.04C890.873 290.746 888.781 282.435 888.781 273.108C888.781 263.781 890.754 255.53 894.7 248.355C898.766 241.181 904.266 235.56 911.202 231.495C918.257 227.31 926.149 225.217 934.878 225.217C943.727 225.217 951.559 227.25 958.375 231.315C965.311 235.262 970.752 240.882 974.698 248.176C978.644 255.351 980.617 263.661 980.617 273.108C980.617 273.706 980.557 274.364 980.437 275.081C980.437 275.679 980.437 276.337 980.437 277.054H898.467V267.548H973.621L968.599 271.314C968.599 264.498 967.104 258.46 964.115 253.198C961.245 247.817 957.299 243.632 952.277 240.643C947.254 237.653 941.455 236.158 934.878 236.158C928.421 236.158 922.621 237.653 917.479 240.643C912.338 243.632 908.332 247.817 905.462 253.198C902.592 258.579 901.157 264.737 901.157 271.673V273.646C901.157 280.821 902.712 287.158 905.821 292.659C909.049 298.04 913.474 302.285 919.094 305.394C924.834 308.383 931.351 309.878 938.645 309.878C944.385 309.878 949.706 308.862 954.608 306.829C959.631 304.796 963.936 301.687 967.523 297.502L974.698 305.753C970.512 310.775 965.251 314.602 958.913 317.232C952.695 319.863 945.819 321.178 938.286 321.178ZM1118.82 225.217C1126.47 225.217 1133.11 226.712 1138.73 229.701C1144.47 232.571 1148.9 236.995 1152 242.974C1155.23 248.953 1156.85 256.487 1156.85 265.575V320.281H1144.11V266.83C1144.11 256.905 1141.72 249.432 1136.94 244.409C1132.27 239.267 1125.64 236.696 1117.03 236.696C1110.57 236.696 1104.95 238.072 1100.17 240.822C1095.5 243.453 1091.86 247.339 1089.23 252.481C1086.72 257.503 1085.46 263.602 1085.46 270.776V320.281H1072.72V266.83C1072.72 256.905 1070.33 249.432 1065.55 244.409C1060.77 239.267 1054.07 236.696 1045.46 236.696C1039.12 236.696 1033.56 238.072 1028.78 240.822C1024 243.453 1020.29 247.339 1017.66 252.481C1015.15 257.503 1013.89 263.602 1013.89 270.776V320.281H1001.16V226.114H1013.35V251.584L1011.38 247.1C1014.25 240.284 1018.85 234.963 1025.19 231.136C1031.65 227.19 1039.24 225.217 1047.97 225.217C1057.18 225.217 1065.01 227.549 1071.47 232.212C1077.93 236.756 1082.11 243.632 1084.02 252.839L1079 250.866C1081.75 243.213 1086.6 237.055 1093.53 232.392C1100.59 227.609 1109.02 225.217 1118.82 225.217ZM1223.49 321.178C1214.52 321.178 1206.45 319.146 1199.28 315.08C1192.22 311.014 1186.66 305.394 1182.6 298.219C1178.53 290.925 1176.5 282.555 1176.5 273.108C1176.5 263.542 1178.53 255.171 1182.6 247.997C1186.66 240.822 1192.22 235.262 1199.28 231.315C1206.45 227.25 1214.52 225.217 1223.49 225.217C1231.74 225.217 1239.1 227.07 1245.55 230.777C1252.13 234.484 1257.33 239.925 1261.16 247.1C1265.1 254.155 1267.08 262.824 1267.08 273.108C1267.08 283.272 1265.16 291.941 1261.34 299.116C1257.51 306.291 1252.31 311.791 1245.73 315.618C1239.28 319.325 1231.86 321.178 1223.49 321.178ZM1224.39 309.878C1231.08 309.878 1237.06 308.383 1242.32 305.394C1247.71 302.285 1251.89 297.98 1254.88 292.48C1257.99 286.859 1259.54 280.402 1259.54 273.108C1259.54 265.694 1257.99 259.237 1254.88 253.736C1251.89 248.236 1247.71 243.991 1242.32 241.001C1237.06 237.892 1231.08 236.338 1224.39 236.338C1217.81 236.338 1211.89 237.892 1206.63 241.001C1201.37 243.991 1197.18 248.236 1194.07 253.736C1190.97 259.237 1189.41 265.694 1189.41 273.108C1189.41 280.402 1190.97 286.859 1194.07 292.48C1197.18 297.98 1201.37 302.285 1206.63 305.394C1211.89 308.383 1217.81 309.878 1224.39 309.878ZM1259.9 320.281V291.941L1261.16 272.929L1259.36 253.916V187.191H1272.1V320.281H1259.9ZM1340.57 321.178C1331.48 321.178 1323.29 319.146 1316 315.08C1308.82 310.895 1303.14 305.215 1298.96 298.04C1294.77 290.746 1292.68 282.435 1292.68 273.108C1292.68 263.661 1294.77 255.351 1298.96 248.176C1303.14 241.001 1308.82 235.381 1316 231.315C1323.17 227.25 1331.36 225.217 1340.57 225.217C1349.9 225.217 1358.15 227.25 1365.32 231.315C1372.62 235.381 1378.3 241.001 1382.36 248.176C1386.55 255.351 1388.64 263.661 1388.64 273.108C1388.64 282.435 1386.55 290.746 1382.36 298.04C1378.3 305.215 1372.62 310.895 1365.32 315.08C1358.03 319.146 1349.78 321.178 1340.57 321.178ZM1340.57 309.878C1347.39 309.878 1353.42 308.383 1358.69 305.394C1363.95 302.285 1368.07 297.98 1371.06 292.48C1374.17 286.859 1375.73 280.402 1375.73 273.108C1375.73 265.694 1374.17 259.237 1371.06 253.736C1368.07 248.236 1363.95 243.991 1358.69 241.001C1353.42 237.892 1347.45 236.338 1340.75 236.338C1334.05 236.338 1328.07 237.892 1322.81 241.001C1317.55 243.991 1313.37 248.236 1310.26 253.736C1307.15 259.237 1305.59 265.694 1305.59 273.108C1305.59 280.402 1307.15 286.859 1310.26 292.48C1313.37 297.98 1317.55 302.285 1322.81 305.394C1328.07 308.383 1333.99 309.878 1340.57 309.878ZM1457.33 225.217C1464.98 225.217 1471.68 226.712 1477.42 229.701C1483.28 232.571 1487.82 236.995 1491.05 242.974C1494.4 248.953 1496.07 256.487 1496.07 265.575V320.281H1483.34V266.83C1483.34 256.905 1480.83 249.432 1475.8 244.409C1470.9 239.267 1463.97 236.696 1455 236.696C1448.3 236.696 1442.44 238.072 1437.42 240.822C1432.52 243.453 1428.69 247.339 1425.94 252.481C1423.31 257.503 1421.99 263.602 1421.99 270.776V320.281H1409.26V226.114H1421.46V251.943L1419.48 247.1C1422.47 240.284 1427.26 234.963 1433.83 231.136C1440.41 227.19 1448.24 225.217 1457.33 225.217ZM1569.34 320.281V194.725H1616.34C1626.98 194.725 1636.13 196.458 1643.78 199.926C1651.43 203.274 1657.29 208.177 1661.36 214.634C1665.54 220.972 1667.64 228.685 1667.64 237.773C1667.64 246.621 1665.54 254.274 1661.36 260.732C1657.29 267.069 1651.43 271.972 1643.78 275.44C1636.13 278.907 1626.98 280.641 1616.34 280.641H1576.7L1582.62 274.364V320.281H1569.34ZM1582.62 275.44L1576.7 268.983H1615.98C1628.54 268.983 1638.04 266.292 1644.5 260.911C1651.08 255.41 1654.36 247.698 1654.36 237.773C1654.36 227.728 1651.08 219.956 1644.5 214.455C1638.04 208.954 1628.54 206.204 1615.98 206.204H1576.7L1582.62 199.926V275.44ZM1746.4 320.281V299.475L1745.86 296.067V261.27C1745.86 253.258 1743.59 247.1 1739.05 242.795C1734.62 238.49 1727.99 236.338 1719.14 236.338C1713.04 236.338 1707.24 237.354 1701.74 239.387C1696.24 241.42 1691.58 244.11 1687.75 247.458L1682.01 237.952C1686.79 233.886 1692.53 230.777 1699.23 228.625C1705.92 226.353 1712.98 225.217 1720.39 225.217C1732.59 225.217 1741.98 228.266 1748.55 234.365C1755.25 240.344 1758.6 249.491 1758.6 261.808V320.281H1746.4ZM1713.94 321.178C1706.88 321.178 1700.72 320.042 1695.46 317.77C1690.32 315.379 1686.37 312.15 1683.62 308.085C1680.87 303.899 1679.5 299.116 1679.5 293.735C1679.5 288.832 1680.63 284.408 1682.91 280.462C1685.3 276.396 1689.12 273.168 1694.39 270.776C1699.77 268.265 1706.94 267.009 1715.91 267.009H1748.37V276.516H1716.27C1707.18 276.516 1700.84 278.13 1697.26 281.359C1693.79 284.587 1692.05 288.593 1692.05 293.376C1692.05 298.757 1694.15 303.062 1698.33 306.291C1702.52 309.519 1708.38 311.134 1715.91 311.134C1723.08 311.134 1729.24 309.519 1734.38 306.291C1739.65 302.943 1743.47 298.16 1745.86 291.941L1748.73 300.73C1746.34 306.949 1742.16 311.911 1736.18 315.618C1730.32 319.325 1722.9 321.178 1713.94 321.178ZM1787.81 320.281V226.114H1800V251.763L1798.75 247.279C1801.38 240.104 1805.8 234.664 1812.02 230.957C1818.24 227.13 1825.95 225.217 1835.16 225.217V237.593C1834.68 237.593 1834.2 237.593 1833.73 237.593C1833.25 237.474 1832.77 237.414 1832.29 237.414C1822.37 237.414 1814.59 240.463 1808.97 246.562C1803.35 252.541 1800.54 261.09 1800.54 272.211V320.281H1787.81ZM1863.06 295.888L1863.42 279.565L1922.07 226.114H1937.68L1896.24 265.754L1889.07 271.852L1863.06 295.888ZM1853.02 320.281V187.191H1865.75V320.281H1853.02ZM1926.02 320.281L1886.74 271.314L1894.99 261.449L1941.62 320.281H1926.02Z" fill="white"/>
</g>
<defs>
<clipPath id="clip0_13_644">
<rect width="2560" height="512" fill="white"/>
</clipPath>
<clipPath id="clip1_13_644">
<rect width="483" height="124.172" fill="white" transform="translate(76.1953 53)"/>
</clipPath>
<clipPath id="clip2_13_644">
<rect width="344" height="111.032" fill="white" transform="translate(76.1953 345)"/>
</clipPath>
</defs>
</svg>
