<svg width="350" height="350" viewBox="0 0 350 350" fill="none" xmlns="http://www.w3.org/2000/svg">
<path d="M0 0H250C305.228 0 350 44.7715 350 100V350H100C44.7715 350 0 305.228 0 250V0Z" fill="#9492F7"/>
<path d="M271.909 141.643H206.195V141.643C185.024 141.643 167.861 158.805 167.861 179.976V183.627V216.484V216.484C167.861 239.671 186.658 258.468 209.845 258.468H211.671" stroke="white" stroke-width="10.9524" stroke-linecap="round"/>
<path d="M103.973 59.5V210.012V210.012C103.973 236.774 125.667 258.468 152.429 258.468H178.814H271.909" stroke="#9492F7" stroke-width="25.5556" stroke-linecap="round"/>
<path d="M103.973 59.5V210.012V210.012C103.973 236.774 125.667 258.468 152.429 258.468H178.814H271.909" stroke="white" stroke-width="10.9524" stroke-linecap="round"/>
<path d="M74.7656 59.5V216.484V218.31C74.7656 257.627 106.639 289.5 145.956 289.5V289.5L209.845 289.5" stroke="white" stroke-width="10.9524" stroke-linecap="round"/>
<path d="M273.735 110.611H206.195V110.611C167.886 110.611 136.83 141.667 136.83 179.976V179.976V218.31V218.31C136.83 257.627 168.703 289.5 208.021 289.5H209.846" stroke="#9492F7" stroke-width="25.5556" stroke-linecap="round"/>
<path d="M273.735 110.611H206.195V110.611C167.886 110.611 136.83 141.667 136.83 179.976V179.976V218.31V218.31C136.83 257.627 168.703 289.5 208.021 289.5H209.846" stroke="white" stroke-width="10.9524" stroke-linecap="round"/>
<path d="M208.02 289.5H271.908" stroke="white" stroke-width="10.9524" stroke-linecap="round"/>
</svg>
