<svg width="2560" height="512" viewBox="0 0 2560 512" fill="none" xmlns="http://www.w3.org/2000/svg">
<rect width="2560" height="512" fill="#040D1C"/>
<path d="M509.974 319V191.564H532.983V319H509.974ZM520.947 319V300.77H595.639V319H520.947ZM648.53 320.77C638.972 320.77 630.594 318.764 623.396 314.752C616.317 310.74 610.771 305.194 606.759 298.115C602.865 291.035 600.918 282.893 600.918 273.69C600.918 264.486 602.865 256.403 606.759 249.441C610.771 242.362 616.317 236.875 623.396 232.981C630.476 228.969 638.736 226.963 648.176 226.963C657.143 226.963 664.931 228.851 671.539 232.627C678.147 236.285 683.279 241.477 686.937 248.202C690.595 254.928 692.424 262.775 692.424 271.743C692.424 273.395 692.365 274.928 692.247 276.344C692.129 277.76 691.952 279.176 691.716 280.592H614.724V265.017H674.548L669.946 269.265C669.946 260.769 667.999 254.397 664.105 250.149C660.211 245.901 654.783 243.778 647.822 243.778C640.27 243.778 634.252 246.373 629.768 251.565C625.402 256.757 623.219 264.25 623.219 274.044C623.219 283.719 625.402 291.153 629.768 296.345C634.252 301.419 640.565 303.956 648.707 303.956C653.426 303.956 657.556 303.071 661.096 301.301C664.636 299.531 667.232 296.817 668.884 293.159H689.946C686.996 301.655 681.981 308.38 674.902 313.336C667.94 318.292 659.149 320.77 648.53 320.77ZM708.594 319V228.733H730.895V319H708.594ZM707.532 213.866V189.263H731.78V213.866H707.532ZM793.526 357.054C781.609 357.054 771.815 354.458 764.145 349.266C756.594 344.074 752.11 337.053 750.694 328.204H771.933C772.995 331.272 775.296 333.632 778.836 335.283C782.494 337.053 787.214 337.938 792.995 337.938C801.373 337.938 807.568 336.05 811.58 332.275C815.592 328.617 817.597 323.012 817.597 315.46V295.991L819.19 296.345C817.774 302.953 814.176 308.262 808.394 312.274C802.612 316.168 795.532 318.115 787.155 318.115C779.131 318.115 772.11 316.227 766.092 312.451C760.192 308.675 755.591 303.425 752.287 296.699C748.983 289.855 747.331 281.89 747.331 272.805C747.331 263.601 749.042 255.577 752.464 248.733C755.886 241.89 760.664 236.58 766.8 232.804C773.054 228.91 780.311 226.963 788.57 226.963C797.066 226.963 804.028 229.028 809.456 233.158C815.002 237.17 818.423 242.775 819.721 249.972L818.305 250.149V228.733H840.076V315.283C840.076 328.145 835.887 338.292 827.509 345.726C819.249 353.278 807.922 357.054 793.526 357.054ZM794.411 300.416C801.609 300.416 807.332 297.997 811.58 293.159C815.946 288.203 818.128 281.3 818.128 272.451C818.128 263.601 815.946 256.757 811.58 251.919C807.214 247.081 801.432 244.663 794.234 244.663C787.155 244.663 781.432 247.14 777.066 252.096C772.7 256.934 770.517 263.778 770.517 272.628C770.517 281.477 772.7 288.321 777.066 293.159C781.432 297.997 787.214 300.416 794.411 300.416ZM863.809 319V191.564H886.111V319H863.809ZM927.173 319V262.008C927.173 256.462 925.757 252.273 922.925 249.441C920.094 246.609 915.964 245.194 910.536 245.194C905.816 245.194 901.568 246.255 897.792 248.379C894.134 250.503 891.244 253.453 889.12 257.229C887.114 261.005 886.111 265.371 886.111 270.327L883.81 248.733C886.878 242.126 891.362 236.875 897.261 232.981C903.161 228.969 910.241 226.963 918.501 226.963C928.294 226.963 935.905 229.736 941.333 235.282C946.879 240.828 949.652 248.202 949.652 257.406V319H927.173ZM1009.43 320.77C998.34 320.77 990.139 318.174 984.829 312.982C979.637 307.672 977.041 299.767 977.041 289.265V208.202L999.52 199.883V289.796C999.52 294.162 1000.7 297.407 1003.06 299.531C1005.42 301.655 1009.14 302.717 1014.21 302.717C1016.22 302.717 1017.99 302.599 1019.52 302.363C1021.17 302.009 1022.71 301.596 1024.12 301.124V318.469C1022.71 319.177 1020.7 319.708 1018.1 320.062C1015.51 320.534 1012.62 320.77 1009.43 320.77ZM959.696 246.255V228.733H1024.12V246.255H959.696ZM1079.1 320.77C1069.54 320.77 1061.11 318.764 1053.79 314.752C1046.59 310.74 1040.99 305.194 1036.98 298.115C1032.96 290.917 1030.96 282.716 1030.96 273.513C1030.96 264.309 1032.96 256.226 1036.98 249.264C1040.99 242.303 1046.59 236.875 1053.79 232.981C1061.11 228.969 1069.54 226.963 1079.1 226.963C1088.78 226.963 1097.21 228.969 1104.41 232.981C1111.61 236.875 1117.21 242.303 1121.23 249.264C1125.24 256.226 1127.24 264.309 1127.24 273.513C1127.24 282.716 1125.18 290.917 1121.05 298.115C1117.04 305.194 1111.43 310.74 1104.23 314.752C1097.04 318.764 1088.66 320.77 1079.1 320.77ZM1079.1 302.894C1083.82 302.894 1088.07 301.714 1091.84 299.354C1095.62 296.876 1098.57 293.454 1100.69 289.088C1102.82 284.604 1103.88 279.353 1103.88 273.336C1103.88 264.486 1101.52 257.524 1096.8 252.45C1092.2 247.376 1086.3 244.84 1079.1 244.84C1071.9 244.84 1065.94 247.376 1061.22 252.45C1056.5 257.524 1054.14 264.486 1054.14 273.336C1054.14 279.353 1055.21 284.604 1057.33 289.088C1059.57 293.454 1062.52 296.876 1066.18 299.354C1069.96 301.714 1074.26 302.894 1079.1 302.894ZM1143.65 319V228.733H1165.42V249.972H1165.95V319H1143.65ZM1207.01 319V262.008C1207.01 256.462 1205.59 252.273 1202.76 249.441C1199.93 246.609 1195.8 245.194 1190.37 245.194C1185.65 245.194 1181.41 246.255 1177.63 248.379C1173.97 250.503 1171.08 253.453 1168.96 257.229C1166.95 261.005 1165.95 265.371 1165.95 270.327L1163.65 248.733C1166.71 242.126 1171.2 236.875 1177.1 232.981C1183 228.969 1190.08 226.963 1198.34 226.963C1208.13 226.963 1215.74 229.736 1221.17 235.282C1226.72 240.828 1229.49 248.202 1229.49 257.406V319H1207.01ZM1343.59 320.77C1334.5 320.77 1326.13 319.177 1318.46 315.991C1310.91 312.687 1304.3 308.085 1298.63 302.186C1292.97 296.286 1288.6 289.324 1285.54 281.3C1282.47 273.277 1280.93 264.486 1280.93 254.928C1280.93 245.37 1282.47 236.639 1285.54 228.733C1288.6 220.827 1292.91 213.984 1298.46 208.202C1304.12 202.302 1310.73 197.759 1318.28 194.573C1325.95 191.387 1334.39 189.794 1343.59 189.794C1353.74 189.794 1362.88 191.8 1371.02 195.812C1379.17 199.824 1385.83 205.488 1391.02 212.804C1396.33 220.001 1399.58 228.497 1400.76 238.291H1378.1C1376.69 228.733 1372.85 221.417 1366.6 216.343C1360.35 211.152 1352.74 208.556 1343.77 208.556C1335.86 208.556 1328.96 210.444 1323.06 214.22C1317.16 217.995 1312.56 223.364 1309.25 230.326C1305.95 237.17 1304.3 245.312 1304.3 254.751C1304.3 264.427 1305.95 272.805 1309.25 279.884C1312.56 286.846 1317.22 292.274 1323.24 296.168C1329.25 300.062 1336.16 302.009 1343.94 302.009C1352.68 302.009 1360.17 299.472 1366.42 294.398C1372.68 289.206 1376.63 281.89 1378.28 272.451H1401.11C1399.7 282.126 1396.33 290.622 1391.02 297.938C1385.83 305.253 1379.17 310.917 1371.02 314.929C1362.88 318.823 1353.74 320.77 1343.59 320.77ZM1417.09 319V228.733H1439.39V319H1417.09ZM1416.03 213.866V189.263H1440.27V213.866H1416.03ZM1502.56 320.77C1491.47 320.77 1483.27 318.174 1477.96 312.982C1472.77 307.672 1470.17 299.767 1470.17 289.265V208.202L1492.65 199.883V289.796C1492.65 294.162 1493.83 297.407 1496.19 299.531C1498.55 301.655 1502.27 302.717 1507.34 302.717C1509.34 302.717 1511.11 302.599 1512.65 302.363C1514.3 302.009 1515.83 301.596 1517.25 301.124V318.469C1515.83 319.177 1513.83 319.708 1511.23 320.062C1508.64 320.534 1505.75 320.77 1502.56 320.77ZM1452.82 246.255V228.733H1517.25V246.255H1452.82ZM1540.11 355.284L1563.48 302.894L1567.55 296.168L1593.04 228.733H1616.75L1562.77 355.284H1540.11ZM1560.11 318.115L1523.48 228.733H1547.73L1578.35 309.796L1560.11 318.115Z" fill="white"/>
<path d="M56 81H306C361.228 81 406 125.772 406 181V431H156C100.772 431 56 386.228 56 331V81Z" fill="#9492F7"/>
<path d="M327.909 222.643H262.195V222.643C241.024 222.643 223.861 239.805 223.861 260.976V264.627V297.484V297.484C223.861 320.671 242.658 339.468 265.845 339.468H267.671" stroke="white" stroke-width="10.9524" stroke-linecap="round"/>
<path d="M159.973 140.5V291.012V291.012C159.973 317.774 181.667 339.468 208.429 339.468H234.814H327.909" stroke="#9492F7" stroke-width="25.5556" stroke-linecap="round"/>
<path d="M159.973 140.5V291.012V291.012C159.973 317.774 181.667 339.468 208.429 339.468H234.814H327.909" stroke="white" stroke-width="10.9524" stroke-linecap="round"/>
<path d="M130.766 140.5V297.484V299.31C130.766 338.627 162.639 370.5 201.956 370.5V370.5L265.845 370.5" stroke="white" stroke-width="10.9524" stroke-linecap="round"/>
<path d="M329.735 191.611H262.195V191.611C223.886 191.611 192.83 222.667 192.83 260.976V260.976V299.31V299.31C192.83 338.627 224.703 370.5 264.021 370.5H265.846" stroke="#9492F7" stroke-width="25.5556" stroke-linecap="round"/>
<path d="M329.735 191.611H262.195V191.611C223.886 191.611 192.83 222.667 192.83 260.976V260.976V299.31V299.31C192.83 338.627 224.703 370.5 264.021 370.5H265.846" stroke="white" stroke-width="10.9524" stroke-linecap="round"/>
<path d="M264.02 370.5H327.908" stroke="white" stroke-width="10.9524" stroke-linecap="round"/>
</svg>
