<svg width="2560" height="512" viewBox="0 0 2560 512" fill="none" xmlns="http://www.w3.org/2000/svg">
<rect width="2560" height="512" fill="#34495E"/>
<path d="M2105 512L2217 0H2560V512H2105Z" fill="#2A2A2A"/>
<path d="M215.053 301.478V319H128.857V193.334H213.46V210.857H148.68V246.609H204.787V263.07H148.68V301.478H215.053ZM216.433 272.805C216.433 263.955 218.203 255.931 221.743 248.733C225.401 241.418 230.356 235.636 236.61 231.388C242.864 227.022 250.062 224.839 258.203 224.839C265.283 224.839 271.655 226.668 277.319 230.326C283.101 233.984 287.584 238.527 290.77 243.955V189.794H310.24V297.053C310.24 299.295 310.653 300.888 311.479 301.832C312.305 302.776 313.662 303.307 315.55 303.425V319C311.892 319.59 309.06 319.885 307.054 319.885C303.396 319.885 300.269 318.823 297.673 316.699C295.195 314.575 293.897 312.038 293.779 309.088L293.602 302.186C290.062 308.085 285.284 312.687 279.266 315.991C273.248 319.177 266.994 320.77 260.504 320.77C254.133 320.77 248.233 319.531 242.805 317.053C237.495 314.575 232.834 311.094 228.822 306.61C224.929 302.127 221.861 296.994 219.619 291.212C217.495 285.43 216.433 279.294 216.433 272.805ZM290.77 285.725V261.477C289.472 257.701 287.348 254.338 284.399 251.388C281.567 248.32 278.322 245.901 274.664 244.132C271.124 242.362 267.584 241.477 264.044 241.477C259.914 241.477 256.139 242.362 252.717 244.132C249.413 245.901 246.522 248.261 244.044 251.211C241.684 254.161 239.855 257.524 238.557 261.3C237.259 265.076 236.61 269.029 236.61 273.159C236.61 277.406 237.318 281.418 238.734 285.194C240.15 288.852 242.156 292.156 244.752 295.106C247.466 297.938 250.534 300.18 253.956 301.832C257.495 303.366 261.33 304.133 265.46 304.133C268.056 304.133 270.652 303.661 273.248 302.717C275.962 301.773 278.499 300.475 280.859 298.823C283.337 297.171 285.402 295.224 287.053 292.982C288.823 290.74 290.062 288.321 290.77 285.725ZM368.067 320.77C360.869 320.77 354.32 319.531 348.421 317.053C342.639 314.457 337.624 310.976 333.376 306.61C329.128 302.127 325.824 297.053 323.464 291.389C321.223 285.607 320.102 279.471 320.102 272.982C320.102 264.25 322.107 256.285 326.119 249.087C330.131 241.772 335.736 235.931 342.934 231.565C350.132 227.081 358.568 224.839 368.244 224.839C377.92 224.839 386.238 227.081 393.2 231.565C400.28 235.931 405.767 241.713 409.661 248.91C413.554 256.108 415.501 263.837 415.501 272.097C415.501 273.513 415.442 274.869 415.324 276.167C415.206 277.347 415.088 278.35 414.97 279.176H340.81C341.164 284.604 342.639 289.383 345.235 293.513C347.949 297.525 351.37 300.711 355.5 303.071C359.63 305.312 364.055 306.433 368.775 306.433C373.967 306.433 378.864 305.135 383.465 302.54C388.185 299.944 391.371 296.522 393.023 292.274L409.661 297.053C407.655 301.537 404.587 305.607 400.457 309.265C396.445 312.805 391.666 315.637 386.12 317.761C380.575 319.767 374.557 320.77 368.067 320.77ZM340.279 266.256H396.209C395.855 260.946 394.321 256.285 391.607 252.273C389.011 248.143 385.648 244.958 381.518 242.716C377.507 240.356 373.023 239.176 368.067 239.176C363.229 239.176 358.745 240.356 354.615 242.716C350.604 244.958 347.3 248.143 344.704 252.273C342.108 256.285 340.633 260.946 340.279 266.256ZM505.543 319H486.074V267.141C486.074 258.527 484.658 252.214 481.826 248.202C479.112 244.191 475.041 242.185 469.613 242.185C465.837 242.185 462.061 243.129 458.285 245.017C454.628 246.904 451.324 249.5 448.374 252.804C445.424 255.99 443.3 259.707 442.002 263.955V319H422.533V226.432H440.232V245.017C442.592 240.887 445.66 237.347 449.436 234.397C453.33 231.329 457.695 228.969 462.533 227.317C467.371 225.665 472.504 224.839 477.932 224.839C483.478 224.839 488.02 225.842 491.56 227.848C495.218 229.854 498.05 232.627 500.056 236.167C502.18 239.589 503.596 243.601 504.304 248.202C505.13 252.686 505.543 257.465 505.543 262.539V319ZM608.863 319.885C599.777 319.885 591.577 318.115 584.261 314.575C576.945 310.917 570.632 306.079 565.323 300.062C560.013 294.044 555.883 287.259 552.933 279.707C550.101 272.038 548.685 264.191 548.685 256.167C548.685 247.789 550.219 239.825 553.287 232.273C556.355 224.603 560.603 217.818 566.031 211.919C571.458 205.901 577.83 201.181 585.146 197.759C592.58 194.219 600.603 192.449 609.217 192.449C618.185 192.449 626.327 194.278 633.642 197.936C641.076 201.594 647.389 206.491 652.581 212.627C657.89 218.762 661.961 225.606 664.793 233.158C667.743 240.71 669.218 248.438 669.218 256.344C669.218 264.722 667.684 272.746 664.616 280.415C661.666 287.967 657.477 294.752 652.05 300.77C646.622 306.669 640.191 311.33 632.757 314.752C625.442 318.174 617.477 319.885 608.863 319.885ZM609.04 302.009C615.412 302.009 621.076 300.711 626.032 298.115C630.987 295.519 635.117 292.038 638.421 287.672C641.843 283.188 644.439 278.232 646.209 272.805C647.979 267.259 648.864 261.713 648.864 256.167C648.864 250.267 647.92 244.545 646.032 238.999C644.262 233.453 641.607 228.556 638.067 224.308C634.527 220.06 630.279 216.697 625.324 214.22C620.486 211.624 615.058 210.326 609.04 210.326C602.668 210.326 597.005 211.624 592.049 214.22C587.093 216.815 582.904 220.355 579.482 224.839C576.06 229.205 573.405 234.102 571.517 239.53C569.747 244.958 568.862 250.503 568.862 256.167C568.862 262.067 569.806 267.79 571.694 273.336C573.582 278.881 576.237 283.778 579.659 288.026C583.199 292.274 587.447 295.696 592.403 298.292C597.358 300.77 602.904 302.009 609.04 302.009ZM611.518 275.282H630.633L668.864 319H649.749L611.518 275.282ZM677.183 283.07V226.432H696.652V279.176C696.652 287.436 698.127 293.69 701.077 297.938C704.145 302.068 708.57 304.133 714.351 304.133C718.009 304.133 721.549 303.366 724.971 301.832C728.511 300.298 731.697 298.056 734.529 295.106C737.479 292.038 739.839 288.38 741.609 284.132V226.432H761.078V297.053C761.078 299.295 761.491 300.888 762.317 301.832C763.143 302.776 764.5 303.307 766.388 303.425V319C764.382 319.354 762.73 319.59 761.432 319.708C760.134 319.826 758.895 319.885 757.715 319.885C754.175 319.885 751.225 318.941 748.865 317.053C746.505 315.047 745.148 312.51 744.794 309.442L744.44 300.239C740.311 306.964 734.942 312.097 728.334 315.637C721.726 319.059 714.469 320.77 706.564 320.77C696.888 320.77 689.572 317.584 684.616 311.212C679.661 304.84 677.183 295.46 677.183 283.07ZM770.348 291.92C770.348 286.02 772 280.887 775.304 276.521C778.726 272.038 783.387 268.616 789.286 266.256C795.186 263.778 802.03 262.539 809.818 262.539C813.948 262.539 818.136 262.834 822.384 263.424C826.75 264.014 830.585 264.958 833.889 266.256V260.415C833.889 253.925 831.942 248.851 828.048 245.194C824.154 241.536 818.549 239.707 811.234 239.707C806.042 239.707 801.145 240.651 796.543 242.539C791.941 244.309 787.044 246.845 781.853 250.149L775.304 237.052C781.44 232.922 787.575 229.854 793.711 227.848C799.965 225.842 806.514 224.839 813.358 224.839C825.747 224.839 835.482 228.143 842.562 234.751C849.759 241.241 853.358 250.503 853.358 262.539V297.053C853.358 299.295 853.712 300.888 854.42 301.832C855.246 302.776 856.603 303.307 858.491 303.425V319C856.721 319.354 855.128 319.59 853.712 319.708C852.296 319.826 851.116 319.885 850.172 319.885C846.042 319.885 842.916 318.882 840.792 316.876C838.668 314.87 837.429 312.51 837.075 309.796L836.544 304.486C832.532 309.678 827.399 313.69 821.145 316.522C814.891 319.354 808.579 320.77 802.207 320.77C796.071 320.77 790.584 319.531 785.746 317.053C780.909 314.457 777.133 310.976 774.419 306.61C771.705 302.245 770.348 297.348 770.348 291.92ZM829.287 297.584C830.703 296.05 831.824 294.516 832.65 292.982C833.476 291.448 833.889 290.091 833.889 288.911V278.291C830.585 276.993 827.104 276.049 823.446 275.459C819.788 274.752 816.189 274.398 812.65 274.398C805.57 274.398 799.788 275.813 795.304 278.645C790.938 281.477 788.755 285.371 788.755 290.327C788.755 293.041 789.463 295.637 790.879 298.115C792.413 300.593 794.537 302.599 797.251 304.133C800.083 305.666 803.564 306.433 807.694 306.433C811.942 306.433 816.012 305.607 819.906 303.956C823.8 302.304 826.927 300.18 829.287 297.584ZM868.031 340.77C869.801 341.006 871.512 341.242 873.164 341.478C874.933 341.832 876.349 342.009 877.411 342.009C879.417 342.009 881.128 341.36 882.544 340.062C884.078 338.882 885.612 336.64 887.146 333.337C888.68 330.033 890.568 325.254 892.81 319L854.756 226.432H875.11L903.43 299.177L928.563 226.432H947.324L905.376 340.416C904.078 343.838 902.191 346.965 899.713 349.797C897.235 352.747 894.167 355.048 890.509 356.7C886.851 358.352 882.544 359.178 877.588 359.178C876.172 359.178 874.697 359.06 873.164 358.824C871.63 358.588 869.919 358.234 868.031 357.762V340.77Z" fill="white"/>
<g clip-path="url(#clip0_12_1611)">
<path d="M2429.02 192.193H2454.52L2401.08 319.233H2378.25L2355.42 261.907L2332.58 319.233H2309.75L2256.07 192.193H2281.57L2322.38 293.242L2340.36 246.361L2318.49 192.436H2341.08L2355.42 232.03L2369.5 192.436H2392.09L2370.48 246.361L2388.45 293.242L2429.02 192.193Z" fill="#B2BBC8"/>
</g>
<defs>
<clipPath id="clip0_12_1611">
<rect width="198.602" height="127.246" fill="white" transform="translate(2256 192.177)"/>
</clipPath>
</defs>
</svg>
