<svg width="2560" height="512" viewBox="0 0 2560 512" fill="none" xmlns="http://www.w3.org/2000/svg">
<rect width="2560" height="512" fill="#34495E"/>
<path d="M2105 512L2217 0H2560V512H2105Z" fill="#2A2A2A"/>
<path d="M120.613 156.549C120.613 149.226 121.908 142.071 124.5 135.085C127.091 127.987 130.866 121.564 135.824 115.818C140.894 109.959 147.035 105.339 154.246 101.959C161.457 98.4663 169.625 96.7198 178.752 96.7198C189.569 96.7198 198.921 99.1987 206.808 104.156C214.695 109.001 220.554 115.255 224.385 122.916L209.512 132.888C207.258 128.043 204.385 124.212 200.892 121.395C197.512 118.578 193.794 116.607 189.738 115.48C185.794 114.353 181.907 113.79 178.076 113.79C171.766 113.79 166.245 115.086 161.513 117.677C156.781 120.156 152.781 123.48 149.513 127.649C146.358 131.818 143.936 136.494 142.246 141.676C140.668 146.859 139.88 152.042 139.88 157.225C139.88 162.972 140.837 168.549 142.753 173.957C144.668 179.253 147.316 183.985 150.696 188.154C154.189 192.21 158.302 195.422 163.034 197.788C167.766 200.154 172.949 201.337 178.583 201.337C182.414 201.337 186.414 200.661 190.583 199.309C194.752 197.957 198.583 195.872 202.075 193.056C205.681 190.126 208.498 186.295 210.526 181.563L226.244 190.52C223.765 196.492 219.878 201.562 214.582 205.731C209.399 209.9 203.54 213.055 197.005 215.196C190.583 217.337 184.217 218.407 177.907 218.407C169.456 218.407 161.738 216.661 154.753 213.168C147.767 209.562 141.739 204.83 136.669 198.971C131.598 192.999 127.655 186.351 124.838 179.028C122.021 171.591 120.613 164.098 120.613 156.549ZM226.513 191.534C226.513 185.901 228.091 180.999 231.245 176.831C234.513 172.549 238.964 169.281 244.597 167.028C250.231 164.662 256.766 163.479 264.202 163.479C268.146 163.479 272.146 163.76 276.202 164.324C280.371 164.887 284.033 165.789 287.188 167.028V161.451C287.188 155.254 285.329 150.409 281.61 146.916C277.892 143.423 272.54 141.676 265.554 141.676C260.597 141.676 255.921 142.578 251.527 144.381C247.132 146.071 242.456 148.493 237.499 151.648L231.245 139.141C237.104 135.198 242.963 132.268 248.822 130.353C254.794 128.437 261.048 127.48 267.583 127.48C279.413 127.48 288.709 130.635 295.469 136.944C302.342 143.141 305.779 151.986 305.779 163.479V196.436C305.779 198.577 306.117 200.098 306.793 200.999C307.582 201.9 308.877 202.407 310.68 202.52V217.393C308.99 217.731 307.469 217.956 306.117 218.069C304.765 218.182 303.638 218.238 302.737 218.238C298.793 218.238 295.807 217.28 293.779 215.365C291.751 213.449 290.568 211.196 290.23 208.604L289.723 203.534C285.892 208.492 280.991 212.323 275.019 215.027C269.047 217.731 263.019 219.083 256.935 219.083C251.076 219.083 245.837 217.9 241.217 215.534C236.597 213.055 232.992 209.731 230.4 205.562C227.809 201.393 226.513 196.717 226.513 191.534ZM282.793 196.943C284.146 195.478 285.216 194.013 286.005 192.548C286.793 191.084 287.188 189.788 287.188 188.661V178.521C284.033 177.281 280.709 176.38 277.216 175.816C273.723 175.14 270.287 174.802 266.907 174.802C260.146 174.802 254.625 176.155 250.344 178.859C246.175 181.563 244.09 185.281 244.09 190.013C244.09 192.605 244.766 195.084 246.118 197.45C247.583 199.816 249.611 201.731 252.203 203.196C254.907 204.661 258.231 205.393 262.174 205.393C266.231 205.393 270.118 204.605 273.836 203.027C277.554 201.45 280.54 199.422 282.793 196.943ZM455.091 217.393H436.5V167.873C436.5 159.648 435.148 153.62 432.444 149.789C429.74 145.958 425.796 144.043 420.613 144.043C415.43 144.043 410.585 146.014 406.078 149.958C401.684 153.789 398.586 158.803 396.783 165V217.393H378.192V167.873C378.192 159.648 376.84 153.62 374.135 149.789C371.431 145.958 367.544 144.043 362.474 144.043C357.291 144.043 352.446 145.958 347.939 149.789C343.545 153.62 340.39 158.634 338.474 164.831V217.393H319.883V129.001H336.784V146.747C340.277 140.55 344.84 135.817 350.474 132.55C356.22 129.17 362.755 127.48 370.079 127.48C377.403 127.48 383.149 129.395 387.318 133.226C391.6 137.057 394.248 141.846 395.262 147.592C399.093 141.057 403.769 136.099 409.29 132.719C414.923 129.226 421.346 127.48 428.557 127.48C433.74 127.48 438.078 128.437 441.57 130.353C445.063 132.268 447.767 134.916 449.683 138.296C451.598 141.564 452.95 145.395 453.739 149.789C454.641 154.071 455.091 158.634 455.091 163.479V217.393ZM515.725 219.083C508.964 219.083 502.824 217.506 497.303 214.351C491.894 211.083 487.613 206.745 484.458 201.337V217.393H468.064V94.0157H486.655V145.733C490.148 140.099 494.486 135.648 499.669 132.381C504.965 129.113 511.162 127.48 518.26 127.48C524.119 127.48 529.471 128.719 534.316 131.198C539.161 133.677 543.273 137.057 546.654 141.338C550.147 145.62 552.794 150.521 554.597 156.042C556.513 161.563 557.47 167.422 557.47 173.619C557.47 179.816 556.4 185.675 554.259 191.196C552.231 196.717 549.301 201.562 545.471 205.731C541.64 209.9 537.189 213.168 532.119 215.534C527.161 217.9 521.697 219.083 515.725 219.083ZM510.824 203.196C514.88 203.196 518.598 202.407 521.978 200.83C525.358 199.14 528.288 196.943 530.767 194.239C533.246 191.534 535.105 188.38 536.344 184.774C537.696 181.168 538.372 177.45 538.372 173.619C538.372 168.324 537.245 163.366 534.992 158.746C532.851 154.127 529.809 150.409 525.865 147.592C521.922 144.775 517.359 143.367 512.176 143.367C508.457 143.367 504.965 144.268 501.697 146.071C498.429 147.761 495.5 150.071 492.908 153C490.43 155.817 488.345 158.972 486.655 162.465V185.788C487.331 188.38 488.514 190.746 490.204 192.887C491.894 194.915 493.866 196.717 496.12 198.295C498.373 199.76 500.796 200.943 503.387 201.844C505.979 202.745 508.457 203.196 510.824 203.196ZM615.429 145.057C608.218 145.169 601.795 146.803 596.162 149.958C590.641 153.113 586.697 157.563 584.331 163.31V217.393H565.74V129.001H582.979V148.775C586.021 142.691 590.021 137.846 594.979 134.24C599.936 130.522 605.176 128.494 610.697 128.156C611.823 128.156 612.725 128.156 613.401 128.156C614.189 128.156 614.865 128.212 615.429 128.325V145.057ZM620.503 217.393V129.001H639.094V217.393H620.503ZM620.503 114.466V94.0157H639.094V114.466H620.503ZM647.407 173.281C647.407 164.831 649.097 157.169 652.478 150.296C655.971 143.31 660.703 137.789 666.674 133.733C672.646 129.564 679.519 127.48 687.294 127.48C694.054 127.48 700.138 129.226 705.547 132.719C711.068 136.212 715.349 140.55 718.392 145.733V94.0157H736.983V196.436C736.983 198.577 737.377 200.098 738.166 200.999C738.954 201.9 740.25 202.407 742.053 202.52V217.393C738.56 217.956 735.856 218.238 733.94 218.238C730.448 218.238 727.462 217.224 724.983 215.196C722.617 213.168 721.377 210.745 721.265 207.928L721.096 201.337C717.715 206.971 713.152 211.365 707.406 214.52C701.66 217.562 695.688 219.083 689.491 219.083C683.406 219.083 677.773 217.9 672.59 215.534C667.52 213.168 663.069 209.844 659.238 205.562C655.52 201.281 652.59 196.379 650.45 190.858C648.421 185.337 647.407 179.478 647.407 173.281ZM718.392 185.619V162.465C717.152 158.859 715.124 155.648 712.307 152.831C709.603 149.902 706.504 147.592 703.012 145.902C699.631 144.212 696.251 143.367 692.871 143.367C688.927 143.367 685.322 144.212 682.054 145.902C678.9 147.592 676.139 149.845 673.773 152.662C671.519 155.479 669.773 158.69 668.534 162.296C667.294 165.901 666.674 169.676 666.674 173.619C666.674 177.676 667.351 181.507 668.703 185.112C670.055 188.605 671.97 191.76 674.449 194.577C677.04 197.281 679.97 199.422 683.237 200.999C686.618 202.464 690.28 203.196 694.223 203.196C696.702 203.196 699.181 202.745 701.66 201.844C704.251 200.943 706.673 199.703 708.927 198.126C711.293 196.548 713.265 194.689 714.842 192.548C716.532 190.408 717.715 188.098 718.392 185.619ZM787.131 218.238C781.159 218.238 775.695 217.055 770.737 214.689C765.779 212.21 761.498 208.886 757.892 204.717C754.399 200.548 751.639 195.76 749.611 190.351C747.695 184.943 746.738 179.253 746.738 173.281C746.738 166.972 747.752 161.056 749.78 155.535C751.808 150.014 754.625 145.169 758.23 141C761.949 136.719 766.286 133.395 771.244 131.029C776.202 128.663 781.723 127.48 787.807 127.48C794.906 127.48 801.103 129.17 806.398 132.55C811.807 135.93 816.257 140.324 819.75 145.733V129.001H836.144V214.858C836.144 223.421 834.059 230.688 829.891 236.66C825.834 242.632 820.257 247.195 813.159 250.35C806.06 253.505 798.06 255.082 789.159 255.082C779.357 255.082 771.244 253.392 764.822 250.012C758.399 246.632 752.935 242.012 748.428 236.153L758.906 226.35C762.287 231.083 766.625 234.688 771.92 237.167C777.328 239.646 783.075 240.885 789.159 240.885C794.229 240.885 798.905 239.928 803.187 238.012C807.581 236.209 811.074 233.336 813.666 229.393C816.257 225.562 817.553 220.717 817.553 214.858V201.337C814.398 206.633 810.06 210.802 804.539 213.844C799.018 216.773 793.215 218.238 787.131 218.238ZM793.215 203.196C796.032 203.196 798.736 202.745 801.328 201.844C803.919 200.83 806.286 199.534 808.426 197.957C810.68 196.267 812.595 194.408 814.173 192.379C815.75 190.239 816.877 187.985 817.553 185.619V162.465C816.088 158.634 814.004 155.31 811.299 152.493C808.595 149.564 805.553 147.31 802.173 145.733C798.793 144.155 795.356 143.367 791.863 143.367C787.807 143.367 784.145 144.268 780.878 146.071C777.723 147.761 775.019 150.071 772.765 153C770.512 155.817 768.765 159.028 767.526 162.634C766.286 166.239 765.667 169.957 765.667 173.788C765.667 177.845 766.343 181.619 767.695 185.112C769.16 188.605 771.131 191.76 773.61 194.577C776.089 197.281 779.019 199.422 782.399 200.999C785.779 202.464 789.385 203.196 793.215 203.196ZM890.042 219.083C883.169 219.083 876.916 217.9 871.282 215.534C865.761 213.055 860.973 209.731 856.916 205.562C852.86 201.281 849.705 196.436 847.452 191.027C845.311 185.506 844.241 179.647 844.241 173.45C844.241 165.113 846.156 157.507 849.987 150.634C853.818 143.648 859.17 138.071 866.043 133.902C872.916 129.62 880.972 127.48 890.211 127.48C899.45 127.48 907.394 129.62 914.042 133.902C920.802 138.071 926.041 143.592 929.76 150.465C933.478 157.338 935.337 164.718 935.337 172.605C935.337 173.957 935.281 175.253 935.168 176.493C935.055 177.619 934.943 178.577 934.83 179.366H864.015C864.353 184.549 865.761 189.112 868.24 193.056C870.831 196.886 874.099 199.929 878.043 202.182C881.986 204.323 886.211 205.393 890.718 205.393C895.676 205.393 900.352 204.154 904.746 201.675C909.253 199.196 912.295 195.929 913.873 191.872L929.76 196.436C927.844 200.717 924.915 204.605 920.971 208.097C917.14 211.478 912.577 214.182 907.281 216.21C901.986 218.125 896.239 219.083 890.042 219.083ZM863.508 167.028H916.915C916.577 161.958 915.112 157.507 912.521 153.676C910.042 149.733 906.831 146.69 902.887 144.55C899.056 142.296 894.775 141.169 890.042 141.169C885.423 141.169 881.141 142.296 877.197 144.55C873.367 146.69 870.212 149.733 867.733 153.676C865.254 157.507 863.846 161.958 863.508 167.028ZM1048.71 125.621C1047.58 124.381 1045.95 123.085 1043.81 121.733C1041.67 120.269 1039.13 118.916 1036.2 117.677C1033.27 116.438 1030.12 115.424 1026.74 114.635C1023.36 113.846 1019.86 113.452 1016.26 113.452C1008.37 113.452 1002.51 114.917 998.681 117.846C994.85 120.776 992.935 124.832 992.935 130.015C992.935 133.846 994.005 136.888 996.146 139.141C998.287 141.282 1001.55 143.085 1005.95 144.55C1010.34 146.014 1015.86 147.592 1022.51 149.282C1030.62 151.197 1037.67 153.507 1043.64 156.211C1049.61 158.803 1054.17 162.296 1057.33 166.69C1060.48 171.084 1062.06 176.887 1062.06 184.098C1062.06 190.182 1060.93 195.422 1058.68 199.816C1056.43 204.21 1053.27 207.816 1049.22 210.633C1045.16 213.337 1040.48 215.365 1035.19 216.717C1029.89 217.956 1024.2 218.576 1018.12 218.576C1012.15 218.576 1006.17 217.956 1000.2 216.717C994.343 215.477 988.71 213.675 983.301 211.309C978.006 208.83 973.104 205.844 968.598 202.351L977.217 186.126C978.682 187.591 980.766 189.225 983.47 191.027C986.287 192.717 989.498 194.351 993.104 195.929C996.822 197.506 1000.82 198.858 1005.1 199.985C1009.5 200.999 1013.95 201.506 1018.46 201.506C1026 201.506 1031.75 200.21 1035.69 197.619C1039.75 194.915 1041.78 191.084 1041.78 186.126C1041.78 182.07 1040.48 178.859 1037.89 176.493C1035.3 174.014 1031.53 171.929 1026.57 170.239C1021.61 168.549 1015.69 166.859 1008.82 165.169C1000.93 163.028 994.343 160.718 989.048 158.239C983.752 155.648 979.752 152.38 977.048 148.437C974.457 144.381 973.161 139.254 973.161 133.057C973.161 125.17 975.076 118.522 978.907 113.114C982.738 107.593 987.921 103.48 994.456 100.776C1001.1 97.9593 1008.54 96.5508 1016.77 96.5508C1022.17 96.5508 1027.3 97.1705 1032.15 98.4099C1036.99 99.5367 1041.5 101.114 1045.67 103.142C1049.95 105.17 1053.83 107.48 1057.33 110.072L1048.71 125.621ZM1117.59 212.83C1116.02 213.618 1114.05 214.463 1111.68 215.365C1109.31 216.266 1106.61 217.055 1103.57 217.731C1100.64 218.407 1097.59 218.745 1094.44 218.745C1090.61 218.745 1087.06 218.069 1083.79 216.717C1080.52 215.365 1077.88 213.224 1075.85 210.295C1073.93 207.252 1072.98 203.365 1072.98 198.633V143.367H1061.31V129.001H1072.98V99.931H1091.57V129.001H1110.83V143.367H1091.57V192.717C1091.79 195.76 1092.75 198.013 1094.44 199.478C1096.24 200.943 1098.44 201.675 1101.03 201.675C1103.62 201.675 1106.1 201.224 1108.47 200.323C1110.83 199.422 1112.58 198.689 1113.71 198.126L1117.59 212.83ZM1171.71 145.057C1164.5 145.169 1158.08 146.803 1152.44 149.958C1146.92 153.113 1142.98 157.563 1140.61 163.31V217.393H1122.02V129.001H1139.26V148.775C1142.3 142.691 1146.3 137.846 1151.26 134.24C1156.22 130.522 1161.46 128.494 1166.98 128.156C1168.1 128.156 1169.01 128.156 1169.68 128.156C1170.47 128.156 1171.15 128.212 1171.71 128.325V145.057ZM1215.19 219.083C1208.32 219.083 1202.06 217.9 1196.43 215.534C1190.91 213.055 1186.12 209.731 1182.06 205.562C1178.01 201.281 1174.85 196.436 1172.6 191.027C1170.46 185.506 1169.39 179.647 1169.39 173.45C1169.39 165.113 1171.3 157.507 1175.13 150.634C1178.96 143.648 1184.32 138.071 1191.19 133.902C1198.06 129.62 1206.12 127.48 1215.36 127.48C1224.6 127.48 1232.54 129.62 1239.19 133.902C1245.95 138.071 1251.19 143.592 1254.91 150.465C1258.62 157.338 1260.48 164.718 1260.48 172.605C1260.48 173.957 1260.43 175.253 1260.31 176.493C1260.2 177.619 1260.09 178.577 1259.98 179.366H1189.16C1189.5 184.549 1190.91 189.112 1193.39 193.056C1195.98 196.886 1199.25 199.929 1203.19 202.182C1207.13 204.323 1211.36 205.393 1215.86 205.393C1220.82 205.393 1225.5 204.154 1229.89 201.675C1234.4 199.196 1237.44 195.929 1239.02 191.872L1254.91 196.436C1252.99 200.717 1250.06 204.605 1246.12 208.097C1242.29 211.478 1237.72 214.182 1232.43 216.21C1227.13 218.125 1221.39 219.083 1215.19 219.083ZM1188.65 167.028H1242.06C1241.72 161.958 1240.26 157.507 1237.67 153.676C1235.19 149.733 1231.98 146.69 1228.03 144.55C1224.2 142.296 1219.92 141.169 1215.19 141.169C1210.57 141.169 1206.29 142.296 1202.34 144.55C1198.51 146.69 1195.36 149.733 1192.88 153.676C1190.4 157.507 1188.99 161.958 1188.65 167.028ZM1307.25 219.083C1300.38 219.083 1294.13 217.9 1288.49 215.534C1282.97 213.055 1278.18 209.731 1274.13 205.562C1270.07 201.281 1266.92 196.436 1264.66 191.027C1262.52 185.506 1261.45 179.647 1261.45 173.45C1261.45 165.113 1263.37 157.507 1267.2 150.634C1271.03 143.648 1276.38 138.071 1283.25 133.902C1290.13 129.62 1298.18 127.48 1307.42 127.48C1316.66 127.48 1324.6 129.62 1331.25 133.902C1338.01 138.071 1343.25 143.592 1346.97 150.465C1350.69 157.338 1352.55 164.718 1352.55 172.605C1352.55 173.957 1352.49 175.253 1352.38 176.493C1352.27 177.619 1352.15 178.577 1352.04 179.366H1281.22C1281.56 184.549 1282.97 189.112 1285.45 193.056C1288.04 196.886 1291.31 199.929 1295.25 202.182C1299.2 204.323 1303.42 205.393 1307.93 205.393C1312.89 205.393 1317.56 204.154 1321.96 201.675C1326.46 199.196 1329.51 195.929 1331.08 191.872L1346.97 196.436C1345.05 200.717 1342.12 204.605 1338.18 208.097C1334.35 211.478 1329.79 214.182 1324.49 216.21C1319.2 218.125 1313.45 219.083 1307.25 219.083ZM1280.72 167.028H1334.13C1333.79 161.958 1332.32 157.507 1329.73 153.676C1327.25 149.733 1324.04 146.69 1320.1 144.55C1316.27 142.296 1311.98 141.169 1307.25 141.169C1302.63 141.169 1298.35 142.296 1294.41 144.55C1290.58 146.69 1287.42 149.733 1284.94 153.676C1282.46 157.507 1281.06 161.958 1280.72 167.028ZM1407.62 212.83C1406.04 213.618 1404.07 214.463 1401.7 215.365C1399.34 216.266 1396.63 217.055 1393.59 217.731C1390.66 218.407 1387.62 218.745 1384.46 218.745C1380.63 218.745 1377.08 218.069 1373.82 216.717C1370.55 215.365 1367.9 213.224 1365.87 210.295C1363.96 207.252 1363 203.365 1363 198.633V143.367H1351.34V129.001H1363V99.931H1381.59V129.001H1400.86V143.367H1381.59V192.717C1381.82 195.76 1382.77 198.013 1384.46 199.478C1386.27 200.943 1388.46 201.675 1391.05 201.675C1393.65 201.675 1396.13 201.224 1398.49 200.323C1400.86 199.422 1402.6 198.689 1403.73 198.126L1407.62 212.83ZM128.218 415.393V295.396H178.583C183.991 295.396 188.949 296.523 193.456 298.776C197.963 301.03 201.906 304.015 205.287 307.734C208.667 311.452 211.258 315.621 213.061 320.24C214.864 324.86 215.765 329.592 215.765 334.437C215.765 341.085 214.244 347.451 211.202 353.535C208.272 359.507 204.047 364.352 198.526 368.07C193.118 371.788 186.808 373.647 179.597 373.647H147.147V415.393H128.218ZM147.147 356.916H178.414C182.02 356.916 185.174 355.958 187.879 354.042C190.583 352.014 192.667 349.31 194.132 345.93C195.709 342.55 196.498 338.719 196.498 334.437C196.498 330.043 195.597 326.156 193.794 322.775C191.991 319.395 189.625 316.804 186.696 315.001C183.879 313.086 180.78 312.128 177.4 312.128H147.147V356.916ZM215.29 389.534C215.29 383.901 216.867 378.999 220.022 374.831C223.29 370.549 227.74 367.281 233.374 365.028C239.008 362.662 245.543 361.479 252.979 361.479C256.923 361.479 260.923 361.76 264.979 362.324C269.148 362.887 272.81 363.789 275.964 365.028V359.451C275.964 353.254 274.105 348.409 270.387 344.916C266.669 341.423 261.317 339.676 254.331 339.676C249.374 339.676 244.698 340.578 240.303 342.381C235.909 344.071 231.233 346.493 226.276 349.648L220.022 337.141C225.881 333.198 231.74 330.268 237.599 328.353C243.571 326.437 249.824 325.48 256.359 325.48C268.19 325.48 277.486 328.635 284.246 334.944C291.119 341.141 294.556 349.986 294.556 361.479V394.436C294.556 396.577 294.894 398.098 295.57 398.999C296.358 399.9 297.654 400.407 299.457 400.52V415.393C297.767 415.731 296.246 415.956 294.894 416.069C293.541 416.182 292.415 416.238 291.513 416.238C287.57 416.238 284.584 415.28 282.556 413.365C280.528 411.449 279.345 409.196 279.007 406.604L278.5 401.534C274.669 406.492 269.767 410.323 263.796 413.027C257.824 415.731 251.796 417.083 245.712 417.083C239.853 417.083 234.613 415.9 229.994 413.534C225.374 411.055 221.769 407.731 219.177 403.562C216.586 399.393 215.29 394.717 215.29 389.534ZM271.57 394.943C272.922 393.478 273.993 392.013 274.781 390.548C275.57 389.084 275.964 387.788 275.964 386.661V376.521C272.81 375.281 269.486 374.38 265.993 373.816C262.5 373.14 259.063 372.802 255.683 372.802C248.923 372.802 243.402 374.155 239.12 376.859C234.951 379.563 232.867 383.281 232.867 388.013C232.867 390.605 233.543 393.084 234.895 395.45C236.36 397.816 238.388 399.731 240.979 401.196C243.684 402.661 247.007 403.393 250.951 403.393C255.007 403.393 258.894 402.605 262.613 401.027C266.331 399.45 269.317 397.422 271.57 394.943ZM358.349 343.057C351.138 343.169 344.715 344.803 339.082 347.958C333.561 351.113 329.617 355.563 327.251 361.31V415.393H308.66V327.001H325.899V346.775C328.941 340.691 332.941 335.846 337.899 332.24C342.856 328.522 348.096 326.494 353.617 326.156C354.743 326.156 355.645 326.156 356.321 326.156C357.109 326.156 357.785 326.212 358.349 326.325V343.057ZM424.943 415.393L396.549 374.662L382.014 388.52V415.393H363.423V292.016H382.014V369.76L422.915 327.17H442.858L408.549 364.183L444.717 415.393H424.943ZM557.759 327.001H575.505L538.323 415.393H522.436L506.549 375.507L490.662 415.393H474.776L437.424 327.001H455.17L483.564 397.309L496.071 364.69L480.86 327.17H496.578L506.549 354.718L516.352 327.17H532.07L517.028 364.69L529.535 397.309L557.759 327.001ZM570.838 389.534C570.838 383.901 572.415 378.999 575.57 374.831C578.838 370.549 583.288 367.281 588.922 365.028C594.556 362.662 601.091 361.479 608.527 361.479C612.471 361.479 616.471 361.76 620.527 362.324C624.696 362.887 628.358 363.789 631.512 365.028V359.451C631.512 353.254 629.653 348.409 625.935 344.916C622.217 341.423 616.865 339.676 609.879 339.676C604.922 339.676 600.246 340.578 595.851 342.381C591.457 344.071 586.781 346.493 581.824 349.648L575.57 337.141C581.429 333.198 587.288 330.268 593.147 328.353C599.119 326.437 605.372 325.48 611.907 325.48C623.738 325.48 633.034 328.635 639.794 334.944C646.667 341.141 650.104 349.986 650.104 361.479V394.436C650.104 396.577 650.442 398.098 651.118 398.999C651.906 399.9 653.202 400.407 655.005 400.52V415.393C653.315 415.731 651.794 415.956 650.442 416.069C649.09 416.182 647.963 416.238 647.061 416.238C643.118 416.238 640.132 415.28 638.104 413.365C636.076 411.449 634.893 409.196 634.555 406.604L634.048 401.534C630.217 406.492 625.315 410.323 619.344 413.027C613.372 415.731 607.344 417.083 601.26 417.083C595.401 417.083 590.161 415.9 585.542 413.534C580.922 411.055 577.317 407.731 574.725 403.562C572.134 399.393 570.838 394.717 570.838 389.534ZM627.118 394.943C628.47 393.478 629.541 392.013 630.329 390.548C631.118 389.084 631.512 387.788 631.512 386.661V376.521C628.358 375.281 625.034 374.38 621.541 373.816C618.048 373.14 614.611 372.802 611.231 372.802C604.471 372.802 598.95 374.155 594.668 376.859C590.499 379.563 588.415 383.281 588.415 388.013C588.415 390.605 589.091 393.084 590.443 395.45C591.908 397.816 593.936 399.731 596.527 401.196C599.232 402.661 602.555 403.393 606.499 403.393C610.555 403.393 614.442 402.605 618.161 401.027C621.879 399.45 624.865 397.422 627.118 394.943ZM664.114 436.181C665.804 436.407 667.438 436.632 669.016 436.857C670.706 437.195 672.058 437.364 673.072 437.364C674.987 437.364 676.621 436.745 677.973 435.505C679.438 434.378 680.903 432.238 682.367 429.083C683.832 425.928 685.635 421.365 687.776 415.393L651.439 327.001H670.875L697.916 396.464L721.916 327.001H739.831L699.775 435.843C698.536 439.111 696.733 442.097 694.367 444.801C692.001 447.618 689.071 449.815 685.579 451.392C682.086 452.969 677.973 453.758 673.241 453.758C671.889 453.758 670.48 453.646 669.016 453.42C667.551 453.195 665.917 452.857 664.114 452.406V436.181Z" fill="white"/>
<g clip-path="url(#clip0_12_1631)">
<path d="M2429.02 192.193H2454.52L2401.08 319.233H2378.25L2355.42 261.907L2332.58 319.233H2309.75L2256.07 192.193H2281.57L2322.38 293.242L2340.36 246.361L2318.49 192.436H2341.08L2355.42 232.03L2369.5 192.436H2392.09L2370.48 246.361L2388.45 293.242L2429.02 192.193Z" fill="#B2BBC8"/>
</g>
<defs>
<clipPath id="clip0_12_1631">
<rect width="198.602" height="127.246" fill="white" transform="translate(2256 192.177)"/>
</clipPath>
</defs>
</svg>
