<svg width="2560" height="512" viewBox="0 0 2560 512" fill="none" xmlns="http://www.w3.org/2000/svg">
<rect width="2560" height="512" fill="#040D1C"/>
<path d="M528.027 319V302.009H563.603C570.093 302.009 575.107 300.239 578.647 296.699C582.187 293.041 583.957 288.085 583.957 281.831C583.957 275.341 582.069 270.209 578.293 266.433C574.517 262.657 569.267 260.769 562.541 260.769H528.027V243.778H560.948C567.32 243.778 572.217 242.244 575.638 239.176C579.06 236.108 580.771 231.683 580.771 225.901C580.771 220.237 579.119 215.93 575.815 212.981C572.63 210.031 567.91 208.556 561.656 208.556H528.027V191.564H565.904C577.349 191.564 586.494 194.455 593.338 200.237C600.3 205.901 603.78 213.63 603.78 223.423C603.78 229.559 602.305 234.928 599.356 239.53C596.524 244.014 592.689 247.494 587.851 249.972C583.013 252.45 577.526 253.689 571.391 253.689L572.276 249.972C578.765 249.972 584.665 251.447 589.975 254.397C595.285 257.229 599.474 261.241 602.541 266.433C605.727 271.625 607.32 277.642 607.32 284.486C607.32 291.448 605.668 297.525 602.364 302.717C599.179 307.908 594.636 311.92 588.736 314.752C582.954 317.584 576.11 319 568.205 319H528.027ZM509.974 319V191.564H532.983V319H509.974ZM665.468 320.77C655.911 320.77 647.533 318.764 640.335 314.752C633.255 310.74 627.71 305.194 623.698 298.115C619.804 291.035 617.857 282.893 617.857 273.69C617.857 264.486 619.804 256.403 623.698 249.441C627.71 242.362 633.255 236.875 640.335 232.981C647.415 228.969 655.675 226.963 665.114 226.963C674.082 226.963 681.87 228.851 688.478 232.627C695.085 236.285 700.218 241.477 703.876 248.202C707.534 254.928 709.363 262.775 709.363 271.743C709.363 273.395 709.304 274.928 709.186 276.344C709.068 277.76 708.891 279.176 708.655 280.592H631.663V265.017H691.486L686.885 269.265C686.885 260.769 684.938 254.397 681.044 250.149C677.15 245.901 671.722 243.778 664.76 243.778C657.209 243.778 651.191 246.373 646.707 251.565C642.341 256.757 640.158 264.25 640.158 274.044C640.158 283.719 642.341 291.153 646.707 296.345C651.191 301.419 657.504 303.956 665.645 303.956C670.365 303.956 674.495 303.071 678.035 301.301C681.575 299.531 684.171 296.817 685.823 293.159H706.885C703.935 301.655 698.92 308.38 691.84 313.336C684.879 318.292 676.088 320.77 665.468 320.77ZM726.051 319V228.733H747.822V249.972H748.353V319H726.051ZM789.415 319V262.008C789.415 256.462 787.999 252.273 785.167 249.441C782.336 246.609 778.206 245.194 772.778 245.194C768.058 245.194 763.81 246.255 760.034 248.379C756.376 250.503 753.486 253.453 751.362 257.229C749.356 261.005 748.353 265.371 748.353 270.327L746.052 248.733C749.12 242.126 753.604 236.875 759.503 232.981C765.403 228.969 772.483 226.963 780.743 226.963C790.536 226.963 798.147 229.736 803.575 235.282C809.121 240.828 811.894 248.202 811.894 257.406V319H789.415ZM871.673 320.77C860.582 320.77 852.381 318.174 847.071 312.982C841.879 307.672 839.283 299.767 839.283 289.265V208.202L861.762 199.883V289.796C861.762 294.162 862.942 297.407 865.302 299.531C867.661 301.655 871.378 302.717 876.452 302.717C878.458 302.717 880.228 302.599 881.762 302.363C883.414 302.009 884.948 301.596 886.364 301.124V318.469C884.948 319.177 882.942 319.708 880.346 320.062C877.75 320.534 874.859 320.77 871.673 320.77ZM821.938 246.255V228.733H886.364V246.255H821.938ZM941.343 320.77C931.785 320.77 923.348 318.764 916.032 314.752C908.835 310.74 903.23 305.194 899.218 298.115C895.206 290.917 893.2 282.716 893.2 273.513C893.2 264.309 895.206 256.226 899.218 249.264C903.23 242.303 908.835 236.875 916.032 232.981C923.348 228.969 931.785 226.963 941.343 226.963C951.018 226.963 959.455 228.969 966.653 232.981C973.85 236.875 979.455 242.303 983.467 249.264C987.479 256.226 989.485 264.309 989.485 273.513C989.485 282.716 987.42 290.917 983.29 298.115C979.278 305.194 973.673 310.74 966.476 314.752C959.278 318.764 950.9 320.77 941.343 320.77ZM941.343 302.894C946.062 302.894 950.31 301.714 954.086 299.354C957.862 296.876 960.812 293.454 962.936 289.088C965.06 284.604 966.122 279.353 966.122 273.336C966.122 264.486 963.762 257.524 959.042 252.45C954.44 247.376 948.54 244.84 941.343 244.84C934.145 244.84 928.186 247.376 923.466 252.45C918.746 257.524 916.386 264.486 916.386 273.336C916.386 279.353 917.448 284.604 919.572 289.088C921.814 293.454 924.764 296.876 928.422 299.354C932.198 301.714 936.505 302.894 941.343 302.894ZM1005.89 319V228.733H1027.66V249.972H1028.19V319H1005.89ZM1069.25 319V262.008C1069.25 256.462 1067.84 252.273 1065 249.441C1062.17 246.609 1058.04 245.194 1052.62 245.194C1047.9 245.194 1043.65 246.255 1039.87 248.379C1036.21 250.503 1033.32 253.453 1031.2 257.229C1029.19 261.005 1028.19 265.371 1028.19 270.327L1025.89 248.733C1028.96 242.126 1033.44 236.875 1039.34 232.981C1045.24 228.969 1052.32 226.963 1060.58 226.963C1070.37 226.963 1077.98 229.736 1083.41 235.282C1088.96 240.828 1091.73 248.202 1091.73 257.406V319H1069.25Z" fill="white"/>
<path d="M56 81H306C361.228 81 406 125.772 406 181V431H156C100.772 431 56 386.228 56 331V81Z" fill="#2FA854"/>
<path d="M322.407 304.968V360.774C322.407 363.535 320.169 365.774 317.407 365.774H273.846C271.084 365.774 268.846 363.535 268.846 360.774V265.25C268.846 260.906 274.004 258.628 277.214 261.555L320.776 301.273C321.815 302.22 322.407 303.562 322.407 304.968Z" stroke="white" stroke-width="6.30137"/>
<path d="M201.107 265.524C201.107 261.138 206.351 258.878 209.54 261.889L256.253 306.007C257.253 306.951 257.819 308.266 257.819 309.641V365.5C257.819 368.261 255.581 370.5 252.819 370.5H206.107C203.346 370.5 201.107 368.261 201.107 365.5V265.524ZM205.833 327.966V346.87H224.737V327.966H205.833ZM205.833 305.911V324.815H224.737V305.911H205.833Z" fill="white"/>
<path d="M186.484 147.897C189.709 145.031 194.805 147.32 194.806 151.634V365.5C194.806 368.261 192.567 370.5 189.806 370.5H143.094C140.332 370.5 138.094 368.261 138.094 365.5V193.156C138.094 191.728 138.704 190.368 139.771 189.419L186.484 147.897ZM171.176 327.966V346.87H190.08V327.966H171.176ZM171.176 305.911V324.815H190.08V305.911H171.176Z" fill="white"/>
</svg>
