<svg width="350" height="350" viewBox="0 0 350 350" fill="none" xmlns="http://www.w3.org/2000/svg">
<path d="M0 0H250C305.228 0 350 44.7715 350 100V350H100C44.7715 350 0 305.228 0 250V0Z" fill="#2FA854"/>
<path d="M266.407 223.968V279.774C266.407 282.535 264.169 284.774 261.407 284.774H217.846C215.084 284.774 212.846 282.535 212.846 279.774V184.25C212.846 179.906 218.004 177.628 221.214 180.555L264.776 220.273C265.815 221.22 266.407 222.562 266.407 223.968Z" stroke="white" stroke-width="6.30137"/>
<path d="M145.107 184.524C145.107 180.138 150.351 177.878 153.54 180.889L200.253 225.007C201.253 225.951 201.819 227.266 201.819 228.641V284.5C201.819 287.261 199.581 289.5 196.819 289.5H150.107C147.346 289.5 145.107 287.261 145.107 284.5V184.524ZM149.833 246.966V265.87H168.737V246.966H149.833ZM149.833 224.911V243.815H168.737V224.911H149.833Z" fill="white"/>
<path d="M130.484 66.8975C133.709 64.0315 138.805 66.3199 138.806 70.6338V284.5C138.806 287.261 136.567 289.5 133.806 289.5H87.0938C84.3323 289.5 82.0938 287.261 82.0938 284.5V112.156C82.0938 110.728 82.7041 109.368 83.7715 108.419L130.484 66.8975ZM115.176 246.966V265.87H134.08V246.966H115.176ZM115.176 224.911V243.815H134.08V224.911H115.176Z" fill="white"/>
</svg>
