<svg width="2560" height="512" viewBox="0 0 2560 512" fill="none" xmlns="http://www.w3.org/2000/svg">
<g clip-path="url(#clip0_13_966)">
<rect width="2560" height="512" fill="#263443"/>
<circle cx="2338.5" cy="179.5" r="320" fill="#E5292D" stroke="white" stroke-width="25"/>
<circle cx="2515" cy="512" r="256.5" fill="#E5292D" stroke="white" stroke-width="25"/>
<circle cx="270.695" cy="255.5" r="409" fill="#E5292D" stroke="white" stroke-width="25"/>
<g clip-path="url(#clip1_13_966)">
<path d="M76.2763 219.778H94.8308V229.944C94.8308 229.944 110.549 218.144 123.513 218.144C137.125 218.144 149.927 225.315 160.298 236.933C169.747 227.31 179.338 217.872 197.893 217.872C219.04 217.872 231.842 233.212 231.842 233.212C238.123 240.249 244.319 250.64 244.319 262.803V315.902H225.603V262.984C225.603 260.338 221.39 236.843 197.893 236.843C175.287 236.843 170.021 258.332 170.021 263.438V315.993H151.385V261.986C151.385 257.35 144.741 236.843 123.513 236.843C102.285 236.843 96.5322 255.904 96.5322 260.806V316.628H76.1953L76.2763 219.778Z" fill="white"/>
<path d="M300.955 219.596C286.569 219.596 274.339 224.682 265.948 234.603C255.872 246.515 253.637 259.154 253.637 266.887C253.637 308.025 287.551 318.172 299.009 318.172C325.018 318.172 337.981 299.293 337.981 299.293L322.69 290.209C316.164 296.536 309.404 301.05 299.222 301.044C286.688 301.037 271.822 287.781 271.822 272.547H345.91C345.91 234.825 320.125 219.596 300.955 219.596ZM300.353 237.248C319.947 237.248 325.217 257.017 325.217 257.017H273.654C273.654 257.017 280.759 237.248 300.353 237.248Z" fill="white"/>
<path d="M408.984 315.588L404.098 297.385H387.563C380.662 297.385 374.363 290.768 374.363 284.394V238.386H403.612V219.234H373.309V194H356.254V283.973C356.254 302.763 370.557 315.595 383.161 315.592L408.984 315.588Z" fill="white"/>
<path d="M446.311 220.398H468.081L463.974 237.569H447.808C437.048 237.569 433.266 248.717 433.266 256.08V315.63H415.684V250.095C415.684 238.603 425.239 220.398 446.311 220.398Z" fill="white"/>
<path d="M510.11 313.024C535.134 313.024 555.42 292.574 555.42 267.348C555.42 242.122 535.134 221.672 510.11 221.672C485.087 221.672 464.801 242.122 464.801 267.348C464.801 292.574 485.087 313.024 510.11 313.024Z" stroke="white" stroke-width="7.58208" stroke-miterlimit="1.5" stroke-linecap="round" stroke-linejoin="round"/>
<path d="M510.109 298.615C527.239 298.615 541.125 284.616 541.125 267.348C541.125 250.08 527.239 236.082 510.109 236.082C492.98 236.082 479.094 250.08 479.094 267.348C479.094 284.616 492.98 298.615 510.109 298.615Z" stroke="white" stroke-width="7.58499" stroke-miterlimit="1.5" stroke-linecap="round" stroke-linejoin="round"/>
<path d="M510.11 313.024C535.134 313.024 555.42 292.574 555.42 267.348C555.42 242.122 535.134 221.672 510.11 221.672C485.087 221.672 464.801 242.122 464.801 267.348C464.801 292.574 485.087 313.024 510.11 313.024Z" stroke="white" stroke-width="7.58208" stroke-miterlimit="1.5" stroke-linecap="round" stroke-linejoin="round"/>
<path d="M510.109 298.615C527.239 298.615 541.125 284.616 541.125 267.348C541.125 250.08 527.239 236.082 510.109 236.082C492.98 236.082 479.094 250.08 479.094 267.348C479.094 284.616 492.98 298.615 510.109 298.615Z" stroke="white" stroke-width="7.58499" stroke-miterlimit="1.5" stroke-linecap="round" stroke-linejoin="round"/>
</g>
<path d="M760.448 320.281V194.725H814.617C828.607 194.725 839.429 197.535 847.082 203.155C854.855 208.775 858.741 216.727 858.741 227.011C858.741 233.827 857.127 239.566 853.898 244.23C850.789 248.893 846.484 252.421 840.984 254.813C835.603 257.204 829.684 258.4 823.226 258.4L826.276 254.095C834.287 254.095 841.163 255.351 846.903 257.862C852.762 260.253 857.306 263.9 860.535 268.803C863.763 273.586 865.378 279.565 865.378 286.74C865.378 297.382 861.432 305.633 853.539 311.493C845.767 317.352 833.988 320.281 818.204 320.281H760.448ZM773.721 309.34H818.025C829.026 309.34 837.456 307.487 843.315 303.78C849.175 299.953 852.104 293.915 852.104 285.664C852.104 277.532 849.175 271.613 843.315 267.906C837.456 264.08 829.026 262.167 818.025 262.167H772.286V251.225H813.72C823.764 251.225 831.537 249.312 837.038 245.485C842.658 241.659 845.468 235.979 845.468 228.446C845.468 220.793 842.658 215.113 837.038 211.406C831.537 207.579 823.764 205.666 813.72 205.666H773.721V309.34ZM927.601 321.178C917.796 321.178 909.186 319.146 901.772 315.08C894.358 310.895 888.559 305.215 884.374 298.04C880.188 290.746 878.096 282.435 878.096 273.108C878.096 263.781 880.069 255.53 884.015 248.355C888.081 241.181 893.581 235.56 900.517 231.495C907.572 227.31 915.464 225.217 924.193 225.217C933.042 225.217 940.874 227.25 947.69 231.315C954.626 235.262 960.067 240.882 964.013 248.176C967.959 255.351 969.932 263.661 969.932 273.108C969.932 273.706 969.872 274.364 969.752 275.081C969.752 275.679 969.752 276.337 969.752 277.054H887.782V267.548H962.936L957.914 271.314C957.914 264.498 956.419 258.46 953.43 253.198C950.56 247.817 946.614 243.632 941.592 240.643C936.569 237.653 930.77 236.158 924.193 236.158C917.736 236.158 911.936 237.653 906.795 240.643C901.653 243.632 897.647 247.817 894.777 253.198C891.907 258.579 890.472 264.737 890.472 271.673V273.646C890.472 280.821 892.027 287.158 895.136 292.659C898.364 298.04 902.789 302.285 908.409 305.394C914.149 308.383 920.666 309.878 927.96 309.878C933.7 309.878 939.021 308.862 943.924 306.829C948.946 304.796 953.251 301.687 956.838 297.502L964.013 305.753C959.827 310.775 954.566 314.602 948.228 317.232C942.01 319.863 935.135 321.178 927.601 321.178ZM1046.86 320.281V299.475L1046.32 296.067V261.27C1046.32 253.258 1044.05 247.1 1039.5 242.795C1035.08 238.49 1028.44 236.338 1019.59 236.338C1013.49 236.338 1007.69 237.354 1002.19 239.387C996.693 241.42 992.03 244.11 988.203 247.458L982.464 237.952C987.247 233.886 992.986 230.777 999.683 228.625C1006.38 226.353 1013.43 225.217 1020.85 225.217C1033.05 225.217 1042.43 228.266 1049.01 234.365C1055.71 240.344 1059.05 249.491 1059.05 261.808V320.281H1046.86ZM1014.39 321.178C1007.34 321.178 1001.18 320.042 995.916 317.77C990.774 315.379 986.828 312.15 984.078 308.085C981.328 303.899 979.952 299.116 979.952 293.735C979.952 288.832 981.088 284.408 983.36 280.462C985.752 276.396 989.579 273.168 994.84 270.776C1000.22 268.265 1007.4 267.009 1016.36 267.009H1048.83V276.516H1016.72C1007.63 276.516 1001.3 278.13 997.71 281.359C994.242 284.587 992.508 288.593 992.508 293.376C992.508 298.757 994.601 303.062 998.786 306.291C1002.97 309.519 1008.83 311.134 1016.36 311.134C1023.54 311.134 1029.7 309.519 1034.84 306.291C1040.1 302.943 1043.93 298.16 1046.32 291.941L1049.19 300.73C1046.8 306.949 1042.61 311.911 1036.63 315.618C1030.77 319.325 1023.36 321.178 1014.39 321.178ZM1127.18 321.178C1119.17 321.178 1112.18 319.684 1106.2 316.694C1100.22 313.705 1095.56 309.221 1092.21 303.242C1088.98 297.263 1087.37 289.789 1087.37 280.821V226.114H1100.1V279.386C1100.1 289.43 1102.55 297.024 1107.45 302.165C1112.48 307.188 1119.47 309.699 1128.44 309.699C1135.02 309.699 1140.7 308.383 1145.48 305.753C1150.38 303.002 1154.09 299.056 1156.6 293.915C1159.23 288.773 1160.55 282.614 1160.55 275.44V226.114H1173.28V320.281H1161.09V294.453L1163.06 299.116C1160.07 306.052 1155.41 311.493 1149.07 315.439C1142.85 319.265 1135.56 321.178 1127.18 321.178ZM1203.39 320.281V187.191H1216.13V320.281H1203.39ZM1246.18 320.281V226.114H1258.92V320.281H1246.18ZM1252.64 205.307C1250.01 205.307 1247.8 204.41 1246 202.617C1244.21 200.823 1243.31 198.671 1243.31 196.159C1243.31 193.648 1244.21 191.556 1246 189.882C1247.8 188.088 1250.01 187.191 1252.64 187.191C1255.27 187.191 1257.48 188.028 1259.28 189.702C1261.07 191.376 1261.97 193.469 1261.97 195.98C1261.97 198.611 1261.07 200.823 1259.28 202.617C1257.6 204.41 1255.39 205.307 1252.64 205.307ZM1328.97 321.178C1319.16 321.178 1310.55 319.146 1303.14 315.08C1295.73 310.895 1289.93 305.215 1285.74 298.04C1281.56 290.746 1279.46 282.435 1279.46 273.108C1279.46 263.781 1281.44 255.53 1285.38 248.355C1289.45 241.181 1294.95 235.56 1301.89 231.495C1308.94 227.31 1316.83 225.217 1325.56 225.217C1334.41 225.217 1342.24 227.25 1349.06 231.315C1355.99 235.262 1361.44 240.882 1365.38 248.176C1369.33 255.351 1371.3 263.661 1371.3 273.108C1371.3 273.706 1371.24 274.364 1371.12 275.081C1371.12 275.679 1371.12 276.337 1371.12 277.054H1289.15V267.548H1364.31L1359.28 271.314C1359.28 264.498 1357.79 258.46 1354.8 253.198C1351.93 247.817 1347.98 243.632 1342.96 240.643C1337.94 237.653 1332.14 236.158 1325.56 236.158C1319.1 236.158 1313.31 237.653 1308.16 240.643C1303.02 243.632 1299.02 247.817 1296.15 253.198C1293.28 258.579 1291.84 264.737 1291.84 271.673V273.646C1291.84 280.821 1293.4 287.158 1296.5 292.659C1299.73 298.04 1304.16 302.285 1309.78 305.394C1315.52 308.383 1322.03 309.878 1329.33 309.878C1335.07 309.878 1340.39 308.862 1345.29 306.829C1350.31 304.796 1354.62 301.687 1358.21 297.502L1365.38 305.753C1361.2 310.775 1355.93 314.602 1349.6 317.232C1343.38 319.863 1336.5 321.178 1328.97 321.178ZM1430.76 321.178C1422.75 321.178 1415.76 319.684 1409.78 316.694C1403.8 313.705 1399.14 309.221 1395.79 303.242C1392.56 297.263 1390.94 289.789 1390.94 280.821V226.114H1403.68V279.386C1403.68 289.43 1406.13 297.024 1411.03 302.165C1416.06 307.188 1423.05 309.699 1432.02 309.699C1438.6 309.699 1444.28 308.383 1449.06 305.753C1453.96 303.002 1457.67 299.056 1460.18 293.915C1462.81 288.773 1464.13 282.614 1464.13 275.44V226.114H1476.86V320.281H1464.66V294.453L1466.64 299.116C1463.65 306.052 1458.98 311.493 1452.65 315.439C1446.43 319.265 1439.13 321.178 1430.76 321.178ZM1551.23 320.281V194.725H1598.22C1608.86 194.725 1618.01 196.458 1625.66 199.926C1633.32 203.274 1639.17 208.177 1643.24 214.634C1647.43 220.972 1649.52 228.685 1649.52 237.773C1649.52 246.621 1647.43 254.274 1643.24 260.732C1639.17 267.069 1633.32 271.972 1625.66 275.44C1618.01 278.907 1608.86 280.641 1598.22 280.641H1558.58L1564.5 274.364V320.281H1551.23ZM1564.5 275.44L1558.58 268.983H1597.86C1610.42 268.983 1619.92 266.292 1626.38 260.911C1632.96 255.41 1636.25 247.698 1636.25 237.773C1636.25 227.728 1632.96 219.956 1626.38 214.455C1619.92 208.954 1610.42 206.204 1597.86 206.204H1558.58L1564.5 199.926V275.44ZM1728.28 320.281V299.475L1727.74 296.067V261.27C1727.74 253.258 1725.47 247.1 1720.93 242.795C1716.5 238.49 1709.87 236.338 1701.02 236.338C1694.92 236.338 1689.12 237.354 1683.62 239.387C1678.12 241.42 1673.46 244.11 1669.63 247.458L1663.89 237.952C1668.67 233.886 1674.41 230.777 1681.11 228.625C1687.81 226.353 1694.86 225.217 1702.27 225.217C1714.47 225.217 1723.86 228.266 1730.44 234.365C1737.13 240.344 1740.48 249.491 1740.48 261.808V320.281H1728.28ZM1695.82 321.178C1688.76 321.178 1682.6 320.042 1677.34 317.77C1672.2 315.379 1668.25 312.15 1665.5 308.085C1662.75 303.899 1661.38 299.116 1661.38 293.735C1661.38 288.832 1662.52 284.408 1664.79 280.462C1667.18 276.396 1671.01 273.168 1676.27 270.776C1681.65 268.265 1688.82 267.009 1697.79 267.009H1730.26V276.516H1698.15C1689.06 276.516 1682.72 278.13 1679.14 281.359C1675.67 284.587 1673.93 288.593 1673.93 293.376C1673.93 298.757 1676.03 303.062 1680.21 306.291C1684.4 309.519 1690.26 311.134 1697.79 311.134C1704.97 311.134 1711.12 309.519 1716.27 306.291C1721.53 302.943 1725.35 298.16 1727.74 291.941L1730.61 300.73C1728.22 306.949 1724.04 311.911 1718.06 315.618C1712.2 319.325 1704.79 321.178 1695.82 321.178ZM1769.69 320.281V226.114H1781.89V251.763L1780.63 247.279C1783.26 240.104 1787.69 234.664 1793.9 230.957C1800.12 227.13 1807.83 225.217 1817.04 225.217V237.593C1816.56 237.593 1816.09 237.593 1815.61 237.593C1815.13 237.474 1814.65 237.414 1814.17 237.414C1804.25 237.414 1796.47 240.463 1790.85 246.562C1785.23 252.541 1782.42 261.09 1782.42 272.211V320.281H1769.69ZM1844.94 295.888L1845.3 279.565L1903.95 226.114H1919.56L1878.13 265.754L1870.95 271.852L1844.94 295.888ZM1834.9 320.281V187.191H1847.63V320.281H1834.9ZM1907.9 320.281L1868.62 271.314L1876.87 261.449L1923.51 320.281H1907.9Z" fill="white"/>
</g>
<defs>
<clipPath id="clip0_13_966">
<rect width="2560" height="512" fill="white"/>
</clipPath>
<clipPath id="clip1_13_966">
<rect width="483" height="124.172" fill="white" transform="translate(76.1953 194)"/>
</clipPath>
</defs>
</svg>
