<svg width="2560" height="512" viewBox="0 0 2560 512" fill="none" xmlns="http://www.w3.org/2000/svg">
<g clip-path="url(#clip0_13_940)">
<rect width="2560" height="512" fill="#263443"/>
<circle cx="2338.5" cy="179.5" r="320" fill="#E5292D" stroke="white" stroke-width="25"/>
<circle cx="2515" cy="512" r="256.5" fill="#E5292D" stroke="white" stroke-width="25"/>
<circle cx="270.695" cy="255.5" r="409" fill="#E5292D" stroke="white" stroke-width="25"/>
<g clip-path="url(#clip1_13_940)">
<path d="M76.2763 219.778H94.8308V229.944C94.8308 229.944 110.549 218.144 123.513 218.144C137.125 218.144 149.927 225.315 160.298 236.933C169.747 227.31 179.338 217.872 197.893 217.872C219.04 217.872 231.842 233.212 231.842 233.212C238.123 240.249 244.319 250.64 244.319 262.803V315.902H225.603V262.984C225.603 260.338 221.39 236.843 197.893 236.843C175.287 236.843 170.021 258.332 170.021 263.438V315.993H151.385V261.986C151.385 257.35 144.741 236.843 123.513 236.843C102.285 236.843 96.5322 255.904 96.5322 260.806V316.628H76.1953L76.2763 219.778Z" fill="white"/>
<path d="M300.955 219.596C286.569 219.596 274.339 224.682 265.948 234.603C255.872 246.515 253.637 259.154 253.637 266.887C253.637 308.025 287.551 318.172 299.009 318.172C325.018 318.172 337.981 299.293 337.981 299.293L322.69 290.209C316.164 296.536 309.404 301.05 299.222 301.044C286.688 301.037 271.822 287.781 271.822 272.547H345.91C345.91 234.825 320.125 219.596 300.955 219.596ZM300.353 237.248C319.947 237.248 325.217 257.017 325.217 257.017H273.654C273.654 257.017 280.759 237.248 300.353 237.248Z" fill="white"/>
<path d="M408.984 315.588L404.098 297.385H387.563C380.662 297.385 374.363 290.768 374.363 284.394V238.386H403.612V219.234H373.309V194H356.254V283.973C356.254 302.763 370.557 315.595 383.161 315.592L408.984 315.588Z" fill="white"/>
<path d="M446.311 220.398H468.081L463.974 237.569H447.808C437.048 237.569 433.266 248.717 433.266 256.08V315.63H415.684V250.095C415.684 238.603 425.239 220.398 446.311 220.398Z" fill="white"/>
<path d="M510.11 313.024C535.134 313.024 555.42 292.574 555.42 267.348C555.42 242.122 535.134 221.672 510.11 221.672C485.087 221.672 464.801 242.122 464.801 267.348C464.801 292.574 485.087 313.024 510.11 313.024Z" stroke="white" stroke-width="7.58208" stroke-miterlimit="1.5" stroke-linecap="round" stroke-linejoin="round"/>
<path d="M510.109 298.615C527.239 298.615 541.125 284.616 541.125 267.348C541.125 250.08 527.239 236.082 510.109 236.082C492.98 236.082 479.094 250.08 479.094 267.348C479.094 284.616 492.98 298.615 510.109 298.615Z" stroke="white" stroke-width="7.58499" stroke-miterlimit="1.5" stroke-linecap="round" stroke-linejoin="round"/>
<path d="M510.11 313.024C535.134 313.024 555.42 292.574 555.42 267.348C555.42 242.122 535.134 221.672 510.11 221.672C485.087 221.672 464.801 242.122 464.801 267.348C464.801 292.574 485.087 313.024 510.11 313.024Z" stroke="white" stroke-width="7.58208" stroke-miterlimit="1.5" stroke-linecap="round" stroke-linejoin="round"/>
<path d="M510.109 298.615C527.239 298.615 541.125 284.616 541.125 267.348C541.125 250.08 527.239 236.082 510.109 236.082C492.98 236.082 479.094 250.08 479.094 267.348C479.094 284.616 492.98 298.615 510.109 298.615Z" stroke="white" stroke-width="7.58499" stroke-miterlimit="1.5" stroke-linecap="round" stroke-linejoin="round"/>
</g>
<path d="M772.286 250.866H838.652V262.167H772.286V250.866ZM773.721 308.802H849.235V320.281H760.448V194.725H846.544V206.204H773.721V308.802ZM929.974 320.281V299.475L929.435 296.067V261.27C929.435 253.258 927.163 247.1 922.619 242.795C918.195 238.49 911.559 236.338 902.71 236.338C896.611 236.338 890.812 237.354 885.311 239.387C879.811 241.42 875.147 244.11 871.321 247.458L865.581 237.952C870.364 233.886 876.104 230.777 882.8 228.625C889.496 226.353 896.551 225.217 903.965 225.217C916.162 225.217 925.549 228.266 932.126 234.365C938.822 240.344 942.17 249.491 942.17 261.808V320.281H929.974ZM897.508 321.178C890.453 321.178 884.295 320.042 879.033 317.77C873.891 315.379 869.945 312.15 867.195 308.085C864.445 303.899 863.07 299.116 863.07 293.735C863.07 288.832 864.206 284.408 866.478 280.462C868.869 276.396 872.696 273.168 877.957 270.776C883.338 268.265 890.513 267.009 899.481 267.009H931.947V276.516H899.84C890.752 276.516 884.414 278.13 880.827 281.359C877.359 284.587 875.625 288.593 875.625 293.376C875.625 298.757 877.718 303.062 881.903 306.291C886.088 309.519 891.948 311.134 899.481 311.134C906.656 311.134 912.814 309.519 917.956 306.291C923.217 302.943 927.044 298.16 929.435 291.941L932.305 300.73C929.914 306.949 925.729 311.911 919.75 315.618C913.89 319.325 906.476 321.178 897.508 321.178ZM996.67 321.178C988.897 321.178 981.543 320.102 974.608 317.95C967.672 315.678 962.232 312.868 958.285 309.519L964.025 299.475C967.852 302.345 972.754 304.856 978.733 307.008C984.712 309.041 990.99 310.058 997.567 310.058C1006.54 310.058 1012.99 308.682 1016.94 305.932C1020.88 303.062 1022.86 299.296 1022.86 294.632C1022.86 291.164 1021.72 288.474 1019.45 286.56C1017.3 284.528 1014.43 283.033 1010.84 282.076C1007.25 281 1003.25 280.103 998.822 279.386C994.398 278.668 989.974 277.831 985.549 276.875C981.244 275.918 977.298 274.543 973.711 272.749C970.124 270.836 967.194 268.265 964.922 265.036C962.77 261.808 961.693 257.503 961.693 252.122C961.693 246.98 963.128 242.376 965.998 238.311C968.868 234.245 973.053 231.076 978.554 228.804C984.174 226.413 990.99 225.217 999.002 225.217C1005.1 225.217 1011.2 226.054 1017.3 227.728C1023.4 229.283 1028.42 231.375 1032.36 234.006L1026.8 244.23C1022.62 241.36 1018.13 239.327 1013.35 238.131C1008.57 236.816 1003.78 236.158 999.002 236.158C990.512 236.158 984.234 237.653 980.168 240.643C976.222 243.512 974.249 247.219 974.249 251.763C974.249 255.351 975.325 258.161 977.478 260.194C979.75 262.226 982.679 263.841 986.267 265.036C989.974 266.113 993.98 267.009 998.284 267.727C1002.71 268.444 1007.07 269.341 1011.38 270.417C1015.8 271.374 1019.81 272.749 1023.4 274.543C1027.1 276.217 1030.03 278.668 1032.18 281.897C1034.46 285.006 1035.59 289.131 1035.59 294.273C1035.59 299.774 1034.04 304.557 1030.93 308.623C1027.94 312.569 1023.52 315.678 1017.66 317.95C1011.92 320.102 1004.92 321.178 996.67 321.178ZM1083.35 321.178C1074.51 321.178 1067.69 318.787 1062.91 314.004C1058.12 309.221 1055.73 302.464 1055.73 293.735V205.307H1068.47V293.018C1068.47 298.518 1069.84 302.763 1072.59 305.753C1075.46 308.742 1079.53 310.237 1084.79 310.237C1090.41 310.237 1095.07 308.623 1098.78 305.394L1103.26 314.542C1100.75 316.814 1097.7 318.488 1094.12 319.564C1090.65 320.64 1087.06 321.178 1083.35 321.178ZM1038.87 236.696V226.114H1097.17V236.696H1038.87ZM1165.32 320.281V194.725H1219.49C1233.48 194.725 1244.3 197.535 1251.95 203.155C1259.73 208.775 1263.61 216.727 1263.61 227.011C1263.61 233.827 1262 239.566 1258.77 244.23C1255.66 248.893 1251.36 252.421 1245.86 254.813C1240.47 257.204 1234.56 258.4 1228.1 258.4L1231.15 254.095C1239.16 254.095 1246.04 255.351 1251.77 257.862C1257.63 260.253 1262.18 263.9 1265.41 268.803C1268.64 273.586 1270.25 279.565 1270.25 286.74C1270.25 297.382 1266.3 305.633 1258.41 311.493C1250.64 317.352 1238.86 320.281 1223.08 320.281H1165.32ZM1178.59 309.34H1222.9C1233.9 309.34 1242.33 307.487 1248.19 303.78C1254.05 299.953 1256.98 293.915 1256.98 285.664C1256.98 277.532 1254.05 271.613 1248.19 267.906C1242.33 264.08 1233.9 262.167 1222.9 262.167H1177.16V251.225H1218.59C1228.64 251.225 1236.41 249.312 1241.91 245.485C1247.53 241.659 1250.34 235.979 1250.34 228.446C1250.34 220.793 1247.53 215.113 1241.91 211.406C1236.41 207.579 1228.64 205.666 1218.59 205.666H1178.59V309.34ZM1332.47 321.178C1322.67 321.178 1314.06 319.146 1306.64 315.08C1299.23 310.895 1293.43 305.215 1289.25 298.04C1285.06 290.746 1282.97 282.435 1282.97 273.108C1282.97 263.781 1284.94 255.53 1288.89 248.355C1292.95 241.181 1298.45 235.56 1305.39 231.495C1312.44 227.31 1320.34 225.217 1329.07 225.217C1337.91 225.217 1345.75 227.25 1352.56 231.315C1359.5 235.262 1364.94 240.882 1368.88 248.176C1372.83 255.351 1374.8 263.661 1374.8 273.108C1374.8 273.706 1374.74 274.364 1374.62 275.081C1374.62 275.679 1374.62 276.337 1374.62 277.054H1292.65V267.548H1367.81L1362.79 271.314C1362.79 264.498 1361.29 258.46 1358.3 253.198C1355.43 247.817 1351.49 243.632 1346.46 240.643C1341.44 237.653 1335.64 236.158 1329.07 236.158C1322.61 236.158 1316.81 237.653 1311.67 240.643C1306.52 243.632 1302.52 247.817 1299.65 253.198C1296.78 258.579 1295.34 264.737 1295.34 271.673V273.646C1295.34 280.821 1296.9 287.158 1300.01 292.659C1303.24 298.04 1307.66 302.285 1313.28 305.394C1319.02 308.383 1325.54 309.878 1332.83 309.878C1338.57 309.878 1343.89 308.862 1348.8 306.829C1353.82 304.796 1358.12 301.687 1361.71 297.502L1368.88 305.753C1364.7 310.775 1359.44 314.602 1353.1 317.232C1346.88 319.863 1340.01 321.178 1332.47 321.178ZM1395.34 320.281V226.114H1407.54V251.763L1406.29 247.279C1408.92 240.104 1413.34 234.664 1419.56 230.957C1425.78 227.13 1433.49 225.217 1442.7 225.217V237.593C1442.22 237.593 1441.74 237.593 1441.26 237.593C1440.78 237.474 1440.31 237.414 1439.83 237.414C1429.9 237.414 1422.13 240.463 1416.51 246.562C1410.89 252.541 1408.08 261.09 1408.08 272.211V320.281H1395.34ZM1460.55 320.281V226.114H1472.75V251.763L1471.5 247.279C1474.13 240.104 1478.55 234.664 1484.77 230.957C1490.99 227.13 1498.7 225.217 1507.91 225.217V237.593C1507.43 237.593 1506.95 237.593 1506.47 237.593C1505.99 237.474 1505.52 237.414 1505.04 237.414C1495.11 237.414 1487.34 240.463 1481.72 246.562C1476.1 252.541 1473.29 261.09 1473.29 272.211V320.281H1460.55ZM1525.76 320.281V226.114H1538.5V320.281H1525.76ZM1532.22 205.307C1529.59 205.307 1527.38 204.41 1525.58 202.617C1523.79 200.823 1522.89 198.671 1522.89 196.159C1522.89 193.648 1523.79 191.556 1525.58 189.882C1527.38 188.088 1529.59 187.191 1532.22 187.191C1534.85 187.191 1537.06 188.028 1538.86 189.702C1540.65 191.376 1541.55 193.469 1541.55 195.98C1541.55 198.611 1540.65 200.823 1538.86 202.617C1537.18 204.41 1534.97 205.307 1532.22 205.307ZM1568.55 320.281V187.191H1581.29V320.281H1568.55ZM1612.06 355.976C1607.63 355.976 1603.39 355.258 1599.32 353.823C1595.38 352.388 1591.97 350.236 1589.1 347.366L1595.02 337.859C1597.41 340.131 1599.98 341.865 1602.73 343.061C1605.6 344.376 1608.77 345.034 1612.24 345.034C1616.42 345.034 1620.01 343.838 1623 341.447C1626.11 339.175 1629.04 335.109 1631.79 329.25L1637.89 315.439L1639.32 313.466L1678.07 226.114H1690.62L1643.45 331.582C1640.82 337.68 1637.89 342.523 1634.66 346.11C1631.55 349.698 1628.14 352.209 1624.44 353.644C1620.73 355.198 1616.6 355.976 1612.06 355.976ZM1637.17 322.972L1593.76 226.114H1607.04L1645.42 312.569L1637.17 322.972Z" fill="white"/>
</g>
<defs>
<clipPath id="clip0_13_940">
<rect width="2560" height="512" fill="white"/>
</clipPath>
<clipPath id="clip1_13_940">
<rect width="483" height="124.172" fill="white" transform="translate(76.1953 194)"/>
</clipPath>
</defs>
</svg>
