<svg width="2560" height="512" viewBox="0 0 2560 512" fill="none" xmlns="http://www.w3.org/2000/svg">
<g clip-path="url(#clip0_12_1751)">
<rect width="2560" height="512" fill="white"/>
<line x1="0.158203" y1="468" x2="2195.16" y2="468" stroke="#EC7D33" stroke-width="30"/>
<line x1="2435.16" y1="468" x2="2560.16" y2="468" stroke="#EC7D33" stroke-width="30"/>
<g clip-path="url(#clip1_12_1751)">
<path fill-rule="evenodd" clip-rule="evenodd" d="M2260.01 482.938L2373.24 284.963H2353.49C2344 284.963 2335.24 290.046 2330.53 298.285C2305.12 342.701 2224.92 482.938 2224.92 482.938H2260.01Z" fill="#B2B2B2"/>
<path fill-rule="evenodd" clip-rule="evenodd" d="M2212.34 482.938L2325.56 284.963H2305.82C2296.33 284.963 2287.56 290.046 2282.85 298.285C2257.45 342.701 2177.25 482.938 2177.25 482.938H2212.34Z" fill="#EC7D33"/>
<path fill-rule="evenodd" clip-rule="evenodd" d="M2381.18 482.939L2335.5 403.483H2355.28C2364.75 403.483 2373.5 408.543 2378.22 416.752C2391.22 439.363 2416.28 482.939 2416.28 482.939H2381.18Z" fill="#B2B2B2"/>
<path fill-rule="evenodd" clip-rule="evenodd" d="M2429.52 482.939L2383.83 403.483H2403.62C2413.09 403.483 2421.83 408.543 2426.55 416.752C2439.55 439.363 2464.61 482.939 2464.61 482.939H2429.52Z" fill="#EC7D33"/>
</g>
<path d="M264.309 318V194.104H359.532V216.405H289.973V244.724H335.814V266.318H289.973V295.699H360.24V318H264.309ZM371.484 318V194.104L395.732 190.033V318H371.484ZM443.9 319.77C435.404 319.77 427.557 318.708 420.359 316.584C413.162 314.342 406.908 311.156 401.598 307.026L413.634 290.92C418.943 294.46 424.017 297.115 428.855 298.885C433.811 300.655 438.708 301.54 443.546 301.54C448.973 301.54 453.28 300.655 456.466 298.885C459.77 296.997 461.422 294.578 461.422 291.628C461.422 289.268 460.478 287.38 458.59 285.964C456.82 284.548 453.929 283.545 449.917 282.955L432.218 280.3C423.014 278.884 416.053 275.934 411.333 271.451C406.613 266.849 404.253 260.831 404.253 253.397C404.253 247.379 405.787 242.247 408.855 237.999C412.041 233.633 416.466 230.27 422.129 227.91C427.911 225.432 434.755 224.193 442.661 224.193C449.386 224.193 455.935 225.137 462.307 227.025C468.797 228.913 474.874 231.804 480.537 235.698L468.856 251.45C463.782 248.264 458.944 245.963 454.342 244.547C449.74 243.132 445.08 242.424 440.36 242.424C435.994 242.424 432.454 243.25 429.74 244.901C427.144 246.553 425.846 248.736 425.846 251.45C425.846 253.928 426.79 255.875 428.678 257.291C430.566 258.707 433.811 259.71 438.413 260.3L455.935 262.955C465.139 264.253 472.16 267.203 476.998 271.805C481.835 276.288 484.254 282.129 484.254 289.327C484.254 295.227 482.484 300.478 478.944 305.079C475.405 309.563 470.626 313.162 464.608 315.876C458.59 318.472 451.687 319.77 443.9 319.77ZM537.015 319.77C527.811 319.77 519.434 317.646 511.882 313.398C504.448 309.15 498.548 303.427 494.183 296.23C489.817 289.032 487.634 280.949 487.634 271.982C487.634 263.014 489.699 254.931 493.829 247.733C498.076 240.536 503.799 234.813 510.997 230.565C518.195 226.317 526.218 224.193 535.068 224.193C543.918 224.193 551.765 226.376 558.608 230.742C565.452 235.108 570.821 241.008 574.715 248.441C578.727 255.875 580.733 264.312 580.733 273.752V280.123H512.413C513.475 283.781 515.186 287.085 517.546 290.035C520.024 292.985 523.033 295.286 526.572 296.938C530.23 298.59 534.124 299.416 538.254 299.416C542.384 299.416 546.16 298.767 549.582 297.469C553.122 296.171 556.13 294.342 558.608 291.982L574.538 306.495C568.874 311.097 563.033 314.46 557.015 316.584C551.116 318.708 544.449 319.77 537.015 319.77ZM512.059 262.778H556.838C556.012 259.12 554.478 255.934 552.237 253.22C550.113 250.388 547.517 248.205 544.449 246.671C541.499 245.019 538.195 244.194 534.537 244.194C530.761 244.194 527.339 244.96 524.272 246.494C521.204 248.028 518.608 250.211 516.484 253.043C514.478 255.757 513.003 259.002 512.059 262.778ZM590.279 318V225.786H614.527V232.866C621.135 226.966 629.159 224.016 638.599 224.016C644.616 224.016 649.985 225.255 654.705 227.733C659.425 230.093 663.319 233.456 666.387 237.822C670.162 233.338 674.587 229.916 679.661 227.556C684.853 225.196 690.576 224.016 696.83 224.016C703.791 224.016 709.868 225.609 715.06 228.795C720.37 231.863 724.5 236.17 727.45 241.716C730.517 247.143 732.051 253.515 732.051 260.831V318H707.98V264.371C707.98 258.353 706.387 253.633 703.201 250.211C700.015 246.671 695.768 244.901 690.458 244.901C686.8 244.901 683.437 245.668 680.369 247.202C677.419 248.736 674.882 251.037 672.758 254.105C672.876 255.167 672.994 256.229 673.112 257.291C673.23 258.353 673.289 259.533 673.289 260.831V318H649.041V264.371C649.041 258.353 647.448 253.633 644.262 250.211C641.194 246.671 637.006 244.901 631.696 244.901C628.038 244.901 624.734 245.609 621.784 247.025C618.952 248.441 616.533 250.565 614.527 253.397V318H590.279ZM790.331 319.77C781.127 319.77 772.749 317.646 765.198 313.398C757.764 309.15 751.864 303.427 747.498 296.23C743.132 289.032 740.949 280.949 740.949 271.982C740.949 263.014 743.014 254.931 747.144 247.733C751.392 240.536 757.115 234.813 764.313 230.565C771.51 226.317 779.534 224.193 788.384 224.193C797.234 224.193 805.08 226.376 811.924 230.742C818.768 235.108 824.137 241.008 828.031 248.441C832.042 255.875 834.048 264.312 834.048 273.752V280.123H765.729C766.791 283.781 768.502 287.085 770.861 290.035C773.339 292.985 776.348 295.286 779.888 296.938C783.546 298.59 787.44 299.416 791.57 299.416C795.7 299.416 799.475 298.767 802.897 297.469C806.437 296.171 809.446 294.342 811.924 291.982L827.854 306.495C822.19 311.097 816.349 314.46 810.331 316.584C804.431 318.708 797.765 319.77 790.331 319.77ZM765.375 262.778H810.154C809.328 259.12 807.794 255.934 805.552 253.22C803.428 250.388 800.832 248.205 797.765 246.671C794.815 245.019 791.511 244.194 787.853 244.194C784.077 244.194 780.655 244.96 777.587 246.494C774.519 248.028 771.923 250.211 769.799 253.043C767.794 255.757 766.319 259.002 765.375 262.778ZM843.595 318V225.786H867.843V236.052C870.793 232.04 874.333 228.972 878.463 226.848C882.593 224.724 887.253 223.662 892.445 223.662C896.929 223.78 900.292 224.488 902.534 225.786V247.025C900.764 246.199 898.817 245.609 896.693 245.255C894.569 244.783 892.386 244.547 890.144 244.547C885.424 244.547 881.118 245.727 877.224 248.087C873.33 250.447 870.203 253.81 867.843 258.176V318H843.595ZM952.038 319.77C942.835 319.77 934.457 317.646 926.905 313.398C919.471 309.15 913.572 303.427 909.206 296.23C904.84 289.032 902.657 280.949 902.657 271.982C902.657 263.014 904.722 254.931 908.852 247.733C913.1 240.536 918.822 234.813 926.02 230.565C933.218 226.317 941.242 224.193 950.091 224.193C958.941 224.193 966.788 226.376 973.632 230.742C980.475 235.108 985.844 241.008 989.738 248.441C993.75 255.875 995.756 264.312 995.756 273.752V280.123H927.436C928.498 283.781 930.209 287.085 932.569 290.035C935.047 292.985 938.056 295.286 941.596 296.938C945.254 298.59 949.147 299.416 953.277 299.416C957.407 299.416 961.183 298.767 964.605 297.469C968.145 296.171 971.154 294.342 973.632 291.982L989.561 306.495C983.897 311.097 978.056 314.46 972.039 316.584C966.139 318.708 959.472 319.77 952.038 319.77ZM927.082 262.778H971.862C971.036 259.12 969.502 255.934 967.26 253.22C965.136 250.388 962.54 248.205 959.472 246.671C956.522 245.019 953.218 244.194 949.56 244.194C945.785 244.194 942.363 244.96 939.295 246.494C936.227 248.028 933.631 250.211 931.507 253.043C929.501 255.757 928.026 259.002 927.082 262.778ZM1079.14 319.77C1066.75 319.77 1056.25 316.643 1047.63 310.389C1039.02 304.135 1032.83 295.168 1029.05 283.486L1052.77 274.459C1055.36 282.011 1058.79 287.557 1063.03 291.097C1067.4 294.637 1072.77 296.407 1079.14 296.407C1086.81 296.407 1092.94 293.929 1097.55 288.973C1102.27 284.017 1104.63 277.409 1104.63 269.15V194.104H1130.29V269.858C1130.29 279.887 1128.17 288.678 1123.92 296.23C1119.67 303.663 1113.71 309.445 1106.04 313.575C1098.37 317.705 1089.4 319.77 1079.14 319.77ZM1179.43 319.77C1172.35 319.77 1166.04 318.236 1160.49 315.168C1155.06 311.982 1150.76 307.616 1147.57 302.071C1144.5 296.525 1142.97 290.153 1142.97 282.955V225.786H1167.22V279.415C1167.22 285.315 1168.93 290.035 1172.35 293.575C1175.89 297.115 1180.61 298.885 1186.51 298.885C1190.52 298.885 1194.12 298.118 1197.3 296.584C1200.61 294.932 1203.32 292.631 1205.45 289.681V225.786H1229.69V318H1205.45V310.566C1198.37 316.702 1189.69 319.77 1179.43 319.77ZM1243.28 318V225.786H1267.53V233.397C1274.49 227.143 1283.11 224.016 1293.37 224.016C1300.57 224.016 1306.88 225.609 1312.31 228.795C1317.86 231.863 1322.16 236.17 1325.23 241.716C1328.3 247.143 1329.83 253.515 1329.83 260.831V318H1305.59V264.371C1305.59 258.353 1303.87 253.633 1300.45 250.211C1297.03 246.671 1292.37 244.901 1286.47 244.901C1282.34 244.901 1278.68 245.727 1275.5 247.379C1272.31 248.913 1269.66 251.155 1267.53 254.105V318H1243.28ZM1386.96 319.77C1377.88 319.77 1369.68 317.705 1362.36 313.575C1355.04 309.327 1349.26 303.604 1345.01 296.407C1340.77 289.091 1338.64 280.949 1338.64 271.982C1338.64 262.896 1340.77 254.754 1345.01 247.556C1349.26 240.359 1355.04 234.636 1362.36 230.388C1369.68 226.14 1377.88 224.016 1386.96 224.016C1394.28 224.016 1401.24 225.432 1407.85 228.264C1414.57 231.096 1420.36 235.167 1425.19 240.477L1410.33 256.229C1406.9 252.453 1403.3 249.68 1399.53 247.91C1395.87 246.022 1391.86 245.078 1387.49 245.078C1382.77 245.078 1378.53 246.258 1374.75 248.618C1371.09 250.978 1368.14 254.164 1365.9 258.176C1363.78 262.188 1362.71 266.79 1362.71 271.982C1362.71 276.937 1363.78 281.48 1365.9 285.61C1368.14 289.622 1371.21 292.808 1375.1 295.168C1379 297.41 1383.3 298.531 1388.02 298.531C1392.15 298.531 1395.99 297.705 1399.53 296.053C1403.19 294.283 1406.67 291.687 1409.97 288.265L1424.49 303.486C1419.77 308.56 1414.1 312.572 1407.49 315.522C1400.89 318.354 1394.04 319.77 1386.96 319.77ZM1477.23 319.416C1466.96 319.416 1459.17 317.115 1453.86 312.513C1448.67 307.793 1446.08 300.95 1446.08 291.982V245.963H1427.14V225.786H1446.08V202.246L1470.33 196.759V225.786H1496.7V245.963H1470.33V287.026C1470.33 291.274 1471.27 294.342 1473.16 296.23C1475.04 298 1478.35 298.885 1483.07 298.885C1485.43 298.885 1487.55 298.767 1489.44 298.531C1491.45 298.177 1493.63 297.587 1495.99 296.761V316.761C1493.51 317.587 1490.38 318.236 1486.61 318.708C1482.95 319.18 1479.82 319.416 1477.23 319.416ZM1503.22 318V225.786H1527.46V318H1503.22ZM1515.25 214.813C1511.48 214.813 1508.23 213.456 1505.52 210.742C1502.8 208.028 1501.45 204.783 1501.45 201.007C1501.45 197.113 1502.8 193.868 1505.52 191.272C1508.23 188.558 1511.48 187.201 1515.25 187.201C1519.14 187.201 1522.39 188.558 1524.99 191.272C1527.7 193.868 1529.06 197.113 1529.06 201.007C1529.06 204.783 1527.7 208.028 1524.99 210.742C1522.39 213.456 1519.14 214.813 1515.25 214.813ZM1586.07 319.77C1576.87 319.77 1568.55 317.646 1561.12 313.398C1553.68 309.15 1547.78 303.427 1543.42 296.23C1539.05 289.032 1536.87 280.949 1536.87 271.982C1536.87 263.014 1538.99 254.931 1543.24 247.733C1547.61 240.418 1553.51 234.636 1560.94 230.388C1568.49 226.14 1576.87 224.016 1586.07 224.016C1595.28 224.016 1603.6 226.14 1611.03 230.388C1618.58 234.636 1624.48 240.418 1628.73 247.733C1633.1 254.931 1635.28 263.014 1635.28 271.982C1635.28 280.949 1633.1 289.032 1628.73 296.23C1624.48 303.427 1618.64 309.15 1611.21 313.398C1603.77 317.646 1595.4 319.77 1586.07 319.77ZM1586.07 298.708C1590.91 298.708 1595.22 297.528 1598.99 295.168C1602.89 292.808 1605.96 289.622 1608.2 285.61C1610.56 281.48 1611.74 276.937 1611.74 271.982C1611.74 266.908 1610.56 262.365 1608.2 258.353C1605.96 254.341 1602.89 251.155 1598.99 248.795C1595.22 246.317 1590.91 245.078 1586.07 245.078C1581.35 245.078 1577.05 246.317 1573.15 248.795C1569.26 251.155 1566.19 254.341 1563.95 258.353C1561.71 262.365 1560.59 266.908 1560.59 271.982C1560.59 276.937 1561.71 281.48 1563.95 285.61C1566.19 289.622 1569.26 292.808 1573.15 295.168C1577.05 297.528 1581.35 298.708 1586.07 298.708ZM1644.87 318V225.786H1669.12V233.397C1676.08 227.143 1684.7 224.016 1694.96 224.016C1702.16 224.016 1708.47 225.609 1713.9 228.795C1719.45 231.863 1723.75 236.17 1726.82 241.716C1729.89 247.143 1731.42 253.515 1731.42 260.831V318H1707.17V264.371C1707.17 258.353 1705.46 253.633 1702.04 250.211C1698.62 246.671 1693.96 244.901 1688.06 244.901C1683.93 244.901 1680.27 245.727 1677.09 247.379C1673.9 248.913 1671.25 251.155 1669.12 254.105V318H1644.87Z" fill="#2A2A2A"/>
<g clip-path="url(#clip2_12_1751)">
<path fill-rule="evenodd" clip-rule="evenodd" d="M134.261 288.468L81.2222 236.989L151.42 168.351L177.94 194.87L163.9 208.91L151.42 196.43L110.861 236.989L148.3 275.208L134.261 288.468Z" fill="#2A2A2A"/>
<path fill-rule="evenodd" clip-rule="evenodd" d="M135.821 235.429L149.86 221.389L202.119 273.648L131.921 342.286L105.401 315.767L119.441 301.727L131.921 314.207L172.48 272.868L135.821 235.429Z" fill="#2A2A2A"/>
</g>
</g>
<defs>
<clipPath id="clip0_12_1751">
<rect width="2560" height="512" fill="white"/>
</clipPath>
<clipPath id="clip1_12_1751">
<rect width="287.753" height="198.099" fill="white" transform="translate(2177.16 284.901)"/>
</clipPath>
<clipPath id="clip2_12_1751">
<rect width="121" height="174.13" fill="white" transform="translate(81.1582 168.256)"/>
</clipPath>
</defs>
</svg>
