<svg width="350" height="350" viewBox="0 0 350 350" fill="none" xmlns="http://www.w3.org/2000/svg">
<path d="M0 0H250C305.228 0 350 44.7715 350 100V350H100C44.7715 350 0 305.228 0 250V0Z" fill="#9B169B"/>
<path d="M289.749 283.661V82.2047C289.749 79.4433 287.511 77.2047 284.749 77.2047H284.441C283.195 77.2047 281.995 77.6695 281.074 78.508L181.088 169.567" stroke="white" stroke-width="10.8661"/>
<path d="M72.3145 66.3386C73.5527 66.3386 74.7471 66.7977 75.666 67.6276L184.873 166.267C185.922 167.215 186.521 168.563 186.521 169.977V278.662C186.521 281.423 184.283 283.662 181.521 283.662H106.837V232.953H77.8604V283.662H64.75C61.9887 283.662 59.7502 281.423 59.75 278.662V71.3386C59.75 68.5772 61.9886 66.3386 64.75 66.3386H72.3145ZM114.081 232.953V265.551H164.789V232.953H114.081ZM77.8604 182.244V218.465H110.459V182.244H77.8604ZM114.081 182.244V218.465H164.789V182.244H114.081Z" fill="white"/>
<path d="M146.68 113.425V138.78" stroke="white" stroke-width="7.24409"/>
</svg>
