<svg width="2560" height="512" viewBox="0 0 2560 512" fill="none" xmlns="http://www.w3.org/2000/svg">
<rect width="2560" height="512" fill="#040D1C"/>
<path d="M509.974 319V191.564H545.726L584.665 314.398H572.099L611.037 191.564H646.967V319H624.312V199.175H628.029L590.152 319H565.55L528.027 200.237H531.567V319H509.974ZM710.939 320.77C701.382 320.77 692.945 318.764 685.629 314.752C678.431 310.74 672.827 305.194 668.815 298.115C664.803 290.917 662.797 282.716 662.797 273.513C662.797 264.309 664.803 256.226 668.815 249.264C672.827 242.303 678.431 236.875 685.629 232.981C692.945 228.969 701.382 226.963 710.939 226.963C720.615 226.963 729.052 228.969 736.249 232.981C743.447 236.875 749.052 242.303 753.064 249.264C757.076 256.226 759.082 264.309 759.082 273.513C759.082 282.716 757.017 290.917 752.887 298.115C748.875 305.194 743.27 310.74 736.072 314.752C728.875 318.764 720.497 320.77 710.939 320.77ZM710.939 302.894C715.659 302.894 719.907 301.714 723.683 299.354C727.459 296.876 730.409 293.454 732.533 289.088C734.656 284.604 735.718 279.353 735.718 273.336C735.718 264.486 733.358 257.524 728.639 252.45C724.037 247.376 718.137 244.84 710.939 244.84C703.741 244.84 697.783 247.376 693.063 252.45C688.343 257.524 685.983 264.486 685.983 273.336C685.983 279.353 687.045 284.604 689.169 289.088C691.411 293.454 694.361 296.876 698.019 299.354C701.795 301.714 706.101 302.894 710.939 302.894ZM775.485 319V228.733H797.256V250.503H797.787V319H775.485ZM797.787 271.92L795.486 250.503C797.61 242.834 801.208 236.993 806.282 232.981C811.356 228.969 817.433 226.963 824.513 226.963C826.991 226.963 828.761 227.199 829.823 227.671V248.733C829.233 248.497 828.407 248.379 827.345 248.379C826.283 248.261 824.985 248.202 823.451 248.202C814.837 248.202 808.406 250.09 804.158 253.866C799.911 257.642 797.787 263.66 797.787 271.92ZM882.196 357.054C870.279 357.054 860.485 354.458 852.815 349.266C845.263 344.074 840.78 337.053 839.364 328.204H860.603C861.665 331.272 863.966 333.632 867.506 335.283C871.164 337.053 875.883 337.938 881.665 337.938C890.043 337.938 896.238 336.05 900.25 332.275C904.261 328.617 906.267 323.012 906.267 315.46V295.991L907.86 296.345C906.444 302.953 902.845 308.262 897.064 312.274C891.282 316.168 884.202 318.115 875.824 318.115C867.801 318.115 860.78 316.227 854.762 312.451C848.862 308.675 844.26 303.425 840.957 296.699C837.653 289.855 836.001 281.89 836.001 272.805C836.001 263.601 837.712 255.577 841.134 248.733C844.555 241.89 849.334 236.58 855.47 232.804C861.724 228.91 868.981 226.963 877.24 226.963C885.736 226.963 892.698 229.028 898.126 233.158C903.671 237.17 907.093 242.775 908.391 249.972L906.975 250.149V228.733H928.746V315.283C928.746 328.145 924.557 338.292 916.179 345.726C907.919 353.278 896.592 357.054 882.196 357.054ZM883.081 300.416C890.279 300.416 896.002 297.997 900.25 293.159C904.615 288.203 906.798 281.3 906.798 272.451C906.798 263.601 904.615 256.757 900.25 251.919C895.884 247.081 890.102 244.663 882.904 244.663C875.824 244.663 870.102 247.14 865.736 252.096C861.37 256.934 859.187 263.778 859.187 272.628C859.187 281.477 861.37 288.321 865.736 293.159C870.102 297.997 875.883 300.416 883.081 300.416ZM1008.76 319C1008.17 316.64 1007.7 314.044 1007.35 311.212C1007.11 308.38 1006.99 304.958 1006.99 300.947H1006.29V258.114C1006.29 253.394 1004.93 249.854 1002.21 247.494C999.619 245.017 995.607 243.778 990.179 243.778C984.869 243.778 980.621 244.781 977.435 246.786C974.368 248.674 972.48 251.447 971.772 255.105H950.355C951.299 246.727 955.311 239.943 962.391 234.751C969.471 229.559 978.969 226.963 990.887 226.963C1003.28 226.963 1012.66 229.795 1019.03 235.459C1025.4 241.005 1028.59 249.205 1028.59 260.061V300.947C1028.59 303.779 1028.76 306.669 1029.12 309.619C1029.59 312.569 1030.24 315.696 1031.06 319H1008.76ZM977.435 320.77C968.35 320.77 961.093 318.528 955.665 314.044C950.355 309.442 947.7 303.307 947.7 295.637C947.7 287.377 950.709 280.828 956.727 275.99C962.745 271.153 971.241 267.908 982.214 266.256L1010.36 262.008V276.167L985.931 279.884C980.621 280.71 976.61 282.185 973.896 284.309C971.3 286.433 970.002 289.383 970.002 293.159C970.002 296.581 971.241 299.236 973.719 301.124C976.197 302.894 979.618 303.779 983.984 303.779C990.356 303.779 995.666 302.186 999.914 299C1004.16 295.814 1006.29 291.92 1006.29 287.318L1008.76 300.947C1006.4 307.436 1002.51 312.392 997.082 315.814C991.772 319.118 985.223 320.77 977.435 320.77ZM1051.17 319V228.733H1072.94V249.972H1073.48V319H1051.17ZM1114.54 319V262.008C1114.54 256.462 1113.12 252.273 1110.29 249.441C1107.46 246.609 1103.33 245.194 1097.9 245.194C1093.18 245.194 1088.93 246.255 1085.16 248.379C1081.5 250.503 1078.61 253.453 1076.48 257.229C1074.48 261.005 1073.48 265.371 1073.48 270.327L1071.17 248.733C1074.24 242.126 1078.73 236.875 1084.63 232.981C1090.53 228.969 1097.61 226.963 1105.87 226.963C1115.66 226.963 1123.27 229.736 1128.7 235.282C1134.24 240.828 1137.02 248.202 1137.02 257.406V319H1114.54ZM1193.72 320.77C1181.21 320.77 1171.24 318.174 1163.8 312.982C1156.37 307.672 1152.3 300.357 1151.59 291.035H1171.95C1172.54 295.637 1174.72 299.118 1178.5 301.478C1182.27 303.838 1187.34 305.017 1193.72 305.017C1199.5 305.017 1203.81 304.133 1206.64 302.363C1209.59 300.475 1211.06 297.82 1211.06 294.398C1211.06 291.92 1210.24 289.914 1208.58 288.38C1206.93 286.728 1203.81 285.371 1199.2 284.309L1184.69 280.946C1174.78 278.822 1167.4 275.518 1162.57 271.035C1157.85 266.433 1155.49 260.71 1155.49 253.866C1155.49 245.488 1158.67 238.94 1165.04 234.22C1171.53 229.382 1180.44 226.963 1191.77 226.963C1202.98 226.963 1211.95 229.382 1218.67 234.22C1225.52 238.94 1229.29 245.488 1230 253.866H1209.65C1209.06 250.208 1207.17 247.435 1203.98 245.547C1200.91 243.66 1196.67 242.716 1191.24 242.716C1186.16 242.716 1182.33 243.542 1179.73 245.194C1177.14 246.727 1175.84 249.028 1175.84 252.096C1175.84 254.456 1176.84 256.462 1178.85 258.114C1180.86 259.648 1184.22 261.005 1188.94 262.185L1204.51 265.725C1213.36 267.731 1220.03 271.212 1224.51 276.167C1229.12 281.123 1231.42 286.964 1231.42 293.69C1231.42 302.304 1228.11 308.97 1221.5 313.69C1214.9 318.41 1205.63 320.77 1193.72 320.77ZM1287.02 320.77C1275.93 320.77 1267.73 318.174 1262.42 312.982C1257.23 307.672 1254.63 299.767 1254.63 289.265V208.202L1277.11 199.883V289.796C1277.11 294.162 1278.29 297.407 1280.65 299.531C1283.01 301.655 1286.73 302.717 1291.8 302.717C1293.81 302.717 1295.58 302.599 1297.11 302.363C1298.76 302.009 1300.3 301.596 1301.71 301.124V318.469C1300.3 319.177 1298.29 319.708 1295.69 320.062C1293.1 320.534 1290.21 320.77 1287.02 320.77ZM1237.29 246.255V228.733H1301.71V246.255H1237.29ZM1356.69 320.77C1347.13 320.77 1338.7 318.764 1331.38 314.752C1324.18 310.74 1318.58 305.194 1314.57 298.115C1310.55 290.917 1308.55 282.716 1308.55 273.513C1308.55 264.309 1310.55 256.226 1314.57 249.264C1318.58 242.303 1324.18 236.875 1331.38 232.981C1338.7 228.969 1347.13 226.963 1356.69 226.963C1366.37 226.963 1374.8 228.969 1382 232.981C1389.2 236.875 1394.8 242.303 1398.82 249.264C1402.83 256.226 1404.83 264.309 1404.83 273.513C1404.83 282.716 1402.77 290.917 1398.64 298.115C1394.63 305.194 1389.02 310.74 1381.82 314.752C1374.63 318.764 1366.25 320.77 1356.69 320.77ZM1356.69 302.894C1361.41 302.894 1365.66 301.714 1369.43 299.354C1373.21 296.876 1376.16 293.454 1378.28 289.088C1380.41 284.604 1381.47 279.353 1381.47 273.336C1381.47 264.486 1379.11 257.524 1374.39 252.45C1369.79 247.376 1363.89 244.84 1356.69 244.84C1349.49 244.84 1343.53 247.376 1338.81 252.45C1334.09 257.524 1331.73 264.486 1331.73 273.336C1331.73 279.353 1332.8 284.604 1334.92 289.088C1337.16 293.454 1340.11 296.876 1343.77 299.354C1347.55 301.714 1351.85 302.894 1356.69 302.894ZM1437.57 319L1409.96 228.733H1433.33L1449.61 296.522H1448.02L1468.02 228.733H1488.37L1508.73 296.522H1506.96L1523.06 228.733H1545.89L1518.28 319H1497.4L1477.04 251.919H1478.81L1458.46 319H1437.57ZM1560.55 319V228.733H1582.32V249.972H1582.85V319H1560.55ZM1623.91 319V262.008C1623.91 256.462 1622.5 252.273 1619.67 249.441C1616.83 246.609 1612.7 245.194 1607.28 245.194C1602.56 245.194 1598.31 246.255 1594.53 248.379C1590.88 250.503 1587.98 253.453 1585.86 257.229C1583.85 261.005 1582.85 265.371 1582.85 270.327L1580.55 248.733C1583.62 242.126 1588.1 236.875 1594 232.981C1599.9 228.969 1606.98 226.963 1615.24 226.963C1625.04 226.963 1632.65 229.736 1638.07 235.282C1643.62 240.828 1646.39 248.202 1646.39 257.406V319H1623.91Z" fill="white"/>
<path d="M56 81H306C361.228 81 406 125.772 406 181V431H156C100.772 431 56 386.228 56 331V81Z" fill="#9B169B"/>
<path d="M345.749 364.661V163.205C345.749 160.443 343.511 158.205 340.749 158.205H340.441C339.195 158.205 337.995 158.669 337.074 159.508L237.088 250.567" stroke="white" stroke-width="10.8661"/>
<path d="M128.314 147.339C129.553 147.339 130.747 147.798 131.666 148.628L240.873 247.267C241.922 248.215 242.521 249.563 242.521 250.977V359.662C242.521 362.423 240.283 364.662 237.521 364.662H162.837V313.953H133.86V364.662H120.75C117.989 364.662 115.75 362.423 115.75 359.662V152.339C115.75 149.577 117.989 147.339 120.75 147.339H128.314ZM170.081 313.953V346.551H220.789V313.953H170.081ZM133.86 263.244V299.465H166.459V263.244H133.86ZM170.081 263.244V299.465H220.789V263.244H170.081Z" fill="white"/>
<path d="M202.68 194.425V219.78" stroke="white" stroke-width="7.24409"/>
</svg>
