<svg width="2560" height="512" viewBox="0 0 2560 512" fill="none" xmlns="http://www.w3.org/2000/svg">
<g clip-path="url(#clip0_13_887)">
<rect width="2560" height="512" fill="#263443"/>
<circle cx="2417.5" cy="179.5" r="320" fill="#E5292D" stroke="white" stroke-width="25"/>
<circle cx="2515" cy="512" r="256.5" fill="#E5292D" stroke="white" stroke-width="25"/>
<circle cx="270.695" cy="255.5" r="409" fill="#E5292D" stroke="white" stroke-width="25"/>
<g clip-path="url(#clip1_13_887)">
<path d="M76.2763 78.7782H94.8308V88.9443C94.8308 88.9443 110.549 77.1443 123.513 77.1443C137.125 77.1443 149.927 84.315 160.298 95.9335C169.747 86.3103 179.338 76.8721 197.893 76.8721C219.04 76.8721 231.842 92.2119 231.842 92.2119C238.123 99.2488 244.319 109.64 244.319 121.803V174.902H225.603V121.984C225.603 119.338 221.39 95.8427 197.893 95.8427C175.287 95.8427 170.021 117.332 170.021 122.438V174.993H151.385V120.986C151.385 116.35 144.741 95.8427 123.513 95.8427C102.285 95.8427 96.5322 114.904 96.5322 119.806V175.628H76.1953L76.2763 78.7782Z" fill="white"/>
<path d="M300.955 78.5962C286.569 78.5962 274.339 83.6815 265.948 93.6026C255.872 105.515 253.637 118.154 253.637 125.887C253.637 167.025 287.551 177.172 299.009 177.172C325.018 177.172 337.981 158.293 337.981 158.293L322.69 149.209C316.164 155.536 309.404 160.05 299.222 160.044C286.688 160.037 271.822 146.781 271.822 131.547H345.91C345.91 93.8254 320.125 78.5962 300.955 78.5962ZM300.353 96.248C319.947 96.248 325.217 116.017 325.217 116.017H273.654C273.654 116.017 280.759 96.248 300.353 96.248Z" fill="white"/>
<path d="M408.984 174.588L404.098 156.385H387.563C380.662 156.385 374.363 149.768 374.363 143.394V97.3858H403.612V78.2337H373.309V53H356.254V142.973C356.254 161.763 370.557 174.595 383.161 174.592L408.984 174.588Z" fill="white"/>
<path d="M446.311 79.3979H468.081L463.974 96.569H447.808C437.048 96.569 433.266 107.717 433.266 115.08V174.63H415.684V109.095C415.684 97.6033 425.239 79.3979 446.311 79.3979Z" fill="white"/>
<path d="M510.11 172.024C535.134 172.024 555.42 151.574 555.42 126.348C555.42 101.122 535.134 80.6721 510.11 80.6721C485.087 80.6721 464.801 101.122 464.801 126.348C464.801 151.574 485.087 172.024 510.11 172.024Z" stroke="white" stroke-width="7.58208" stroke-miterlimit="1.5" stroke-linecap="round" stroke-linejoin="round"/>
<path d="M510.109 157.615C527.239 157.615 541.125 143.616 541.125 126.348C541.125 109.08 527.239 95.0818 510.109 95.0818C492.98 95.0818 479.094 109.08 479.094 126.348C479.094 143.616 492.98 157.615 510.109 157.615Z" stroke="white" stroke-width="7.58499" stroke-miterlimit="1.5" stroke-linecap="round" stroke-linejoin="round"/>
<path d="M510.11 172.024C535.134 172.024 555.42 151.574 555.42 126.348C555.42 101.122 535.134 80.6721 510.11 80.6721C485.087 80.6721 464.801 101.122 464.801 126.348C464.801 151.574 485.087 172.024 510.11 172.024Z" stroke="white" stroke-width="7.58208" stroke-miterlimit="1.5" stroke-linecap="round" stroke-linejoin="round"/>
<path d="M510.109 157.615C527.239 157.615 541.125 143.616 541.125 126.348C541.125 109.08 527.239 95.0818 510.109 95.0818C492.98 95.0818 479.094 109.08 479.094 126.348C479.094 143.616 492.98 157.615 510.109 157.615Z" stroke="white" stroke-width="7.58499" stroke-miterlimit="1.5" stroke-linecap="round" stroke-linejoin="round"/>
</g>
<g clip-path="url(#clip2_13_887)">
<path fill-rule="evenodd" clip-rule="evenodd" d="M110.397 421.83L76.6914 389.115L121.302 345.496L138.155 362.349L129.233 371.271L121.302 363.34L95.5271 389.115L119.32 413.403L110.397 421.83Z" fill="white"/>
<path fill-rule="evenodd" clip-rule="evenodd" d="M111.388 388.124L120.31 379.202L153.521 412.412L108.91 456.032L92.0566 439.179L100.979 430.256L108.91 438.187L134.685 411.916L111.388 388.124Z" fill="white"/>
<path d="M200.478 437.918C196.164 437.918 192.722 436.935 190.152 434.968C187.615 432.969 186.124 430.162 185.68 426.545H191.628C191.913 428.639 192.849 430.273 194.435 431.447C196.021 432.589 198.099 433.16 200.669 433.16C202.794 433.16 204.412 432.779 205.522 432.018C206.664 431.225 207.236 430.13 207.236 428.734C207.236 427.497 206.887 426.498 206.189 425.736C205.491 424.975 204.317 424.357 202.667 423.881L196.481 422.025C193.341 421.073 191.025 419.82 189.534 418.266C188.075 416.711 187.345 414.76 187.345 412.413C187.345 410.446 187.853 408.733 188.868 407.274C189.883 405.814 191.31 404.688 193.15 403.895C195.022 403.102 197.195 402.705 199.669 402.705C203.476 402.705 206.506 403.641 208.758 405.513C211.042 407.353 212.343 409.859 212.66 413.031H206.712C206.363 411.128 205.57 409.732 204.333 408.844C203.096 407.924 201.43 407.464 199.336 407.464C197.496 407.464 196.037 407.829 194.959 408.558C193.88 409.288 193.341 410.287 193.341 411.556C193.341 412.603 193.658 413.491 194.292 414.221C194.959 414.951 196.18 415.585 197.956 416.124L204.238 418.028C207.378 418.948 209.662 420.201 211.09 421.787C212.517 423.373 213.231 425.388 213.231 427.83C213.231 431.066 212.105 433.556 209.853 435.301C207.632 437.046 204.507 437.918 200.478 437.918ZM228.496 437.966C225.514 437.966 223.309 437.268 221.882 435.872C220.486 434.445 219.788 432.319 219.788 429.496V407.702L225.831 405.465V429.638C225.831 430.812 226.148 431.685 226.783 432.256C227.417 432.827 228.417 433.112 229.781 433.112C230.32 433.112 230.796 433.08 231.208 433.017C231.652 432.922 232.065 432.811 232.446 432.684V437.347C232.065 437.538 231.526 437.68 230.828 437.776C230.13 437.902 229.353 437.966 228.496 437.966ZM215.125 417.933V413.222H232.446V417.933H215.125ZM247.084 437.966C244.514 437.966 242.262 437.427 240.327 436.348C238.423 435.269 236.932 433.778 235.854 431.875C234.807 429.972 234.284 427.783 234.284 425.308C234.284 422.834 234.807 420.661 235.854 418.789C236.932 416.886 238.423 415.411 240.327 414.364C242.23 413.285 244.451 412.746 246.989 412.746C249.4 412.746 251.493 413.253 253.27 414.269C255.046 415.252 256.426 416.648 257.41 418.456C258.393 420.264 258.885 422.374 258.885 424.785C258.885 425.229 258.869 425.641 258.837 426.022C258.806 426.403 258.758 426.783 258.695 427.164H237.995V422.977H254.079L252.842 424.119C252.842 421.835 252.318 420.121 251.271 418.979C250.224 417.837 248.765 417.266 246.894 417.266C244.863 417.266 243.245 417.964 242.04 419.36C240.866 420.756 240.279 422.77 240.279 425.403C240.279 428.005 240.866 430.003 242.04 431.399C243.245 432.763 244.943 433.445 247.131 433.445C248.4 433.445 249.511 433.207 250.462 432.731C251.414 432.256 252.112 431.526 252.556 430.543H258.219C257.426 432.827 256.077 434.635 254.174 435.967C252.302 437.3 249.939 437.966 247.084 437.966ZM277.219 437.966C274.903 437.966 273.016 437.427 271.556 436.348C270.129 435.238 269.241 433.715 268.892 431.78L269.367 431.732V447.245H263.372V413.222H269.225V418.694L268.749 418.599C269.193 416.791 270.208 415.363 271.794 414.316C273.38 413.269 275.316 412.746 277.6 412.746C279.757 412.746 281.628 413.269 283.215 414.316C284.833 415.331 286.086 416.775 286.974 418.646C287.862 420.518 288.306 422.723 288.306 425.261C288.306 427.83 287.846 430.067 286.926 431.97C286.006 433.874 284.722 435.349 283.072 436.396C281.422 437.442 279.471 437.966 277.219 437.966ZM275.696 433.017C277.631 433.017 279.17 432.351 280.312 431.018C281.454 429.654 282.025 427.751 282.025 425.308C282.025 422.866 281.438 420.978 280.264 419.646C279.122 418.313 277.584 417.647 275.649 417.647C273.745 417.647 272.207 418.329 271.033 419.693C269.859 421.026 269.272 422.913 269.272 425.356C269.272 427.799 269.859 429.686 271.033 431.018C272.207 432.351 273.761 433.017 275.696 433.017ZM294.458 437.49V410.985C294.458 408.32 295.188 406.29 296.647 404.894C298.138 403.467 300.359 402.753 303.309 402.753C303.975 402.753 304.53 402.785 304.974 402.848C305.419 402.912 305.847 403.007 306.259 403.134V407.797C306.037 407.702 305.752 407.638 305.403 407.607C305.054 407.543 304.657 407.511 304.213 407.511C302.944 407.511 301.992 407.829 301.358 408.463C300.755 409.066 300.454 409.954 300.454 411.128V437.49H294.458ZM290.08 417.933V413.222H305.736V417.933H290.08ZM320.138 437.966C317.568 437.966 315.3 437.427 313.333 436.348C311.398 435.269 309.891 433.778 308.812 431.875C307.734 429.94 307.195 427.735 307.195 425.261C307.195 422.786 307.734 420.613 308.812 418.741C309.891 416.87 311.398 415.411 313.333 414.364C315.3 413.285 317.568 412.746 320.138 412.746C322.739 412.746 325.007 413.285 326.942 414.364C328.877 415.411 330.384 416.87 331.463 418.741C332.541 420.613 333.081 422.786 333.081 425.261C333.081 427.735 332.526 429.94 331.415 431.875C330.337 433.778 328.83 435.269 326.895 436.348C324.96 437.427 322.707 437.966 320.138 437.966ZM320.138 433.16C321.407 433.16 322.549 432.843 323.564 432.208C324.579 431.542 325.372 430.622 325.943 429.448C326.514 428.243 326.8 426.831 326.8 425.213C326.8 422.834 326.165 420.962 324.896 419.598C323.659 418.234 322.073 417.552 320.138 417.552C318.203 417.552 316.6 418.234 315.332 419.598C314.063 420.962 313.428 422.834 313.428 425.213C313.428 426.831 313.714 428.243 314.285 429.448C314.887 430.622 315.681 431.542 316.664 432.208C317.679 432.843 318.837 433.16 320.138 433.16ZM337.491 437.49V413.222H343.344V419.075H343.487V437.49H337.491ZM343.487 424.832L342.868 419.075C343.439 417.013 344.407 415.442 345.771 414.364C347.135 413.285 348.769 412.746 350.672 412.746C351.338 412.746 351.814 412.809 352.1 412.936V418.599C351.941 418.535 351.719 418.504 351.433 418.504C351.148 418.472 350.799 418.456 350.386 418.456C348.071 418.456 346.342 418.964 345.2 419.979C344.058 420.994 343.487 422.612 343.487 424.832ZM372.796 437.49V432.018L373.272 432.113C372.859 433.889 371.86 435.317 370.274 436.396C368.687 437.442 366.8 437.966 364.611 437.966C362.39 437.966 360.455 437.458 358.806 436.443C357.188 435.396 355.935 433.937 355.046 432.065C354.158 430.194 353.714 427.989 353.714 425.451C353.714 422.881 354.174 420.645 355.094 418.741C356.014 416.838 357.299 415.363 358.948 414.316C360.63 413.269 362.581 412.746 364.801 412.746C367.085 412.746 368.973 413.301 370.464 414.411C371.955 415.49 372.875 416.997 373.224 418.932L372.605 418.979V403.229H378.649V437.49H372.796ZM366.372 433.065C368.307 433.065 369.845 432.398 370.987 431.066C372.161 429.702 372.748 427.799 372.748 425.356C372.748 422.913 372.161 421.026 370.987 419.693C369.814 418.361 368.259 417.695 366.324 417.695C364.421 417.695 362.882 418.377 361.708 419.741C360.535 421.073 359.948 422.961 359.948 425.403C359.948 427.846 360.535 429.734 361.708 431.066C362.882 432.398 364.437 433.065 366.372 433.065Z" fill="white"/>
<path d="M195.474 390.853V365.157H185.68V362.302H208.52V365.157H198.726V390.853H195.474ZM208.529 390.853V370.629H211.503V375.784H211.702V390.853H208.529ZM211.702 380.305L211.186 375.507C211.662 373.789 212.508 372.48 213.724 371.581C214.94 370.682 216.341 370.233 217.927 370.233C218.588 370.233 219.038 370.286 219.276 370.391V373.445C219.143 373.392 218.958 373.366 218.72 373.366C218.482 373.339 218.192 373.326 217.848 373.326C215.839 373.326 214.306 373.934 213.248 375.15C212.217 376.34 211.702 378.058 211.702 380.305ZM235.23 390.853C235.125 390.404 235.045 389.888 234.993 389.307C234.966 388.725 234.953 387.985 234.953 387.086H234.755V377.41C234.755 375.877 234.398 374.753 233.684 374.04C232.997 373.299 231.873 372.929 230.313 372.929C228.78 372.929 227.551 373.247 226.626 373.881C225.727 374.489 225.224 375.361 225.119 376.498H222.065C222.197 374.542 223.017 373.009 224.524 371.898C226.031 370.788 228 370.233 230.432 370.233C232.944 370.233 234.808 370.828 236.024 372.017C237.24 373.207 237.848 374.991 237.848 377.371V387.086C237.848 387.667 237.887 388.276 237.967 388.91C238.046 389.518 238.152 390.166 238.284 390.853H235.23ZM228.291 391.25C226.203 391.25 224.537 390.747 223.295 389.743C222.079 388.712 221.47 387.311 221.47 385.539C221.47 383.768 222.079 382.393 223.295 381.415C224.511 380.437 226.282 379.75 228.608 379.353L235.667 378.164V380.781L229.084 381.812C227.604 382.05 226.48 382.446 225.713 383.001C224.947 383.557 224.564 384.363 224.564 385.42C224.564 386.451 224.907 387.231 225.595 387.76C226.308 388.289 227.353 388.553 228.727 388.553C230.498 388.553 231.939 388.157 233.05 387.363C234.186 386.544 234.755 385.486 234.755 384.191L235.27 387.007C234.847 388.355 234.014 389.399 232.772 390.139C231.556 390.879 230.062 391.25 228.291 391.25ZM243.962 390.853V370.629H246.937V375.388H247.135V390.853H243.962ZM258.436 390.853V377.609C258.436 376.075 258.053 374.925 257.286 374.159C256.52 373.392 255.383 373.009 253.876 373.009C252.554 373.009 251.378 373.299 250.347 373.881C249.342 374.463 248.549 375.269 247.968 376.3C247.412 377.331 247.135 378.534 247.135 379.908L246.619 375.11C247.307 373.603 248.351 372.414 249.752 371.541C251.18 370.669 252.792 370.233 254.59 370.233C256.705 370.233 258.397 370.841 259.666 372.057C260.961 373.247 261.609 374.82 261.609 376.776V390.853H258.436ZM274.483 391.25C271.998 391.25 270.016 390.681 268.535 389.544C267.055 388.381 266.209 386.742 265.997 384.627H269.051C269.236 385.923 269.804 386.914 270.756 387.601C271.708 388.289 272.977 388.632 274.563 388.632C275.964 388.632 277.061 388.368 277.854 387.839C278.647 387.311 279.044 386.557 279.044 385.579C279.044 384.892 278.819 384.297 278.37 383.795C277.92 383.266 277.021 382.83 275.673 382.486L272.421 381.653C270.571 381.177 269.183 380.45 268.258 379.472C267.333 378.468 266.87 377.278 266.87 375.903C266.87 374.159 267.518 372.784 268.813 371.779C270.108 370.748 271.866 370.233 274.087 370.233C276.281 370.233 278.066 370.762 279.44 371.819C280.815 372.876 281.595 374.344 281.78 376.221H278.726C278.541 375.137 278.039 374.304 277.22 373.722C276.4 373.141 275.316 372.85 273.968 372.85C272.673 372.85 271.668 373.101 270.954 373.603C270.24 374.079 269.884 374.767 269.884 375.665C269.884 376.353 270.135 376.948 270.637 377.45C271.166 377.952 272.038 378.375 273.254 378.719L276.427 379.591C278.304 380.094 279.718 380.86 280.67 381.891C281.621 382.922 282.097 384.165 282.097 385.619C282.097 387.39 281.423 388.778 280.075 389.782C278.726 390.761 276.863 391.25 274.483 391.25ZM296.359 391.21C294.456 391.21 292.856 390.747 291.561 389.822C290.265 388.897 289.38 387.588 288.904 385.896L289.538 385.817V398.982H286.366V370.629H289.34V375.348L288.904 375.229C289.406 373.67 290.358 372.453 291.759 371.581C293.16 370.682 294.786 370.233 296.637 370.233C298.434 370.233 299.994 370.669 301.316 371.541C302.664 372.414 303.708 373.63 304.448 375.19C305.189 376.749 305.559 378.573 305.559 380.662C305.559 382.777 305.175 384.627 304.409 386.213C303.642 387.8 302.571 389.029 301.197 389.901C299.822 390.774 298.209 391.21 296.359 391.21ZM295.883 388.434C297.892 388.434 299.465 387.747 300.602 386.372C301.739 384.971 302.307 383.068 302.307 380.662C302.307 378.283 301.739 376.419 300.602 375.071C299.465 373.696 297.892 373.009 295.883 373.009C293.874 373.009 292.288 373.709 291.125 375.11C289.961 376.485 289.38 378.375 289.38 380.781C289.38 383.134 289.961 384.997 291.125 386.372C292.288 387.747 293.874 388.434 295.883 388.434ZM318.821 391.25C316.838 391.25 315.093 390.787 313.587 389.862C312.08 388.936 310.903 387.681 310.057 386.095C309.238 384.482 308.828 382.671 308.828 380.662C308.828 378.626 309.251 376.829 310.097 375.269C310.943 373.709 312.106 372.48 313.587 371.581C315.093 370.682 316.838 370.233 318.821 370.233C320.83 370.233 322.575 370.682 324.055 371.581C325.562 372.48 326.725 373.709 327.545 375.269C328.391 376.829 328.814 378.626 328.814 380.662C328.814 382.671 328.391 384.482 327.545 386.095C326.725 387.681 325.562 388.936 324.055 389.862C322.575 390.787 320.83 391.25 318.821 391.25ZM318.821 388.553C320.196 388.553 321.385 388.223 322.39 387.562C323.394 386.874 324.174 385.936 324.729 384.746C325.285 383.557 325.562 382.182 325.562 380.622C325.562 378.296 324.941 376.432 323.698 375.031C322.482 373.63 320.856 372.929 318.821 372.929C316.812 372.929 315.186 373.63 313.943 375.031C312.701 376.432 312.08 378.296 312.08 380.622C312.08 382.182 312.357 383.557 312.912 384.746C313.468 385.936 314.247 386.874 315.252 387.562C316.283 388.223 317.473 388.553 318.821 388.553ZM333.572 390.853V370.629H336.546V375.784H336.744V390.853H333.572ZM336.744 380.305L336.228 375.507C336.704 373.789 337.55 372.48 338.766 371.581C339.982 370.682 341.383 370.233 342.97 370.233C343.631 370.233 344.08 370.286 344.318 370.391V373.445C344.186 373.392 344.001 373.366 343.763 373.366C343.525 373.339 343.234 373.326 342.89 373.326C340.881 373.326 339.348 373.934 338.29 375.15C337.259 376.34 336.744 378.058 336.744 380.305ZM356.996 391.21C354.749 391.21 353.11 390.708 352.079 389.703C351.074 388.672 350.572 387.192 350.572 385.262V365.911L353.744 364.721V385.222C353.744 386.359 354.035 387.192 354.617 387.72C355.198 388.249 356.15 388.513 357.472 388.513C358.001 388.513 358.45 388.487 358.82 388.434C359.217 388.355 359.534 388.262 359.772 388.157V390.853C359.508 390.959 359.124 391.038 358.622 391.091C358.146 391.17 357.604 391.21 356.996 391.21ZM346.408 373.326V370.629H359.772V373.326H346.408ZM373.458 390.853V367.774C373.458 365.924 373.987 364.483 375.045 363.452C376.129 362.421 377.768 361.905 379.962 361.905C380.49 361.905 380.9 361.932 381.191 361.985C381.508 362.038 381.773 362.104 381.984 362.183V364.681C381.799 364.628 381.535 364.576 381.191 364.523C380.874 364.47 380.53 364.443 380.16 364.443C378.944 364.443 378.045 364.747 377.464 365.355C376.908 365.963 376.631 366.823 376.631 367.933V390.853H373.458ZM369.295 373.326V370.629H381.548V373.326H369.295ZM393.444 391.25C391.461 391.25 389.716 390.787 388.209 389.862C386.702 388.936 385.526 387.681 384.68 386.095C383.86 384.482 383.451 382.671 383.451 380.662C383.451 378.626 383.874 376.829 384.72 375.269C385.566 373.709 386.729 372.48 388.209 371.581C389.716 370.682 391.461 370.233 393.444 370.233C395.453 370.233 397.197 370.682 398.678 371.581C400.185 372.48 401.348 373.709 402.167 375.269C403.013 376.829 403.436 378.626 403.436 380.662C403.436 382.671 403.013 384.482 402.167 386.095C401.348 387.681 400.185 388.936 398.678 389.862C397.197 390.787 395.453 391.25 393.444 391.25ZM393.444 388.553C394.818 388.553 396.008 388.223 397.012 387.562C398.017 386.874 398.797 385.936 399.352 384.746C399.907 383.557 400.185 382.182 400.185 380.622C400.185 378.296 399.564 376.432 398.321 375.031C397.105 373.63 395.479 372.929 393.444 372.929C391.434 372.929 389.809 373.63 388.566 375.031C387.324 376.432 386.702 378.296 386.702 380.622C386.702 382.182 386.98 383.557 387.535 384.746C388.09 385.936 388.87 386.874 389.875 387.562C390.906 388.223 392.095 388.553 393.444 388.553ZM408.194 390.853V370.629H411.168V375.784H411.367V390.853H408.194ZM411.367 380.305L410.851 375.507C411.327 373.789 412.173 372.48 413.389 371.581C414.605 370.682 416.006 370.233 417.592 370.233C418.253 370.233 418.703 370.286 418.941 370.391V373.445C418.808 373.392 418.623 373.366 418.385 373.366C418.147 373.339 417.857 373.326 417.513 373.326C415.504 373.326 413.971 373.934 412.913 375.15C411.882 376.34 411.367 378.058 411.367 380.305Z" fill="white"/>
</g>
<path d="M772.286 250.866H838.652V262.167H772.286V250.866ZM773.721 308.802H849.235V320.281H760.448V194.725H846.544V206.204H773.721V308.802ZM872.363 320.281V187.191H885.098V320.281H872.363ZM940.443 321.178C932.67 321.178 925.316 320.102 918.381 317.95C911.445 315.678 906.004 312.868 902.058 309.519L907.798 299.475C911.624 302.345 916.527 304.856 922.506 307.008C928.485 309.041 934.763 310.058 941.34 310.058C950.308 310.058 956.765 308.682 960.711 305.932C964.657 303.062 966.63 299.296 966.63 294.632C966.63 291.164 965.494 288.474 963.222 286.56C961.07 284.528 958.2 283.033 954.613 282.076C951.025 281 947.019 280.103 942.595 279.386C938.171 278.668 933.746 277.831 929.322 276.875C925.017 275.918 921.071 274.543 917.484 272.749C913.896 270.836 910.967 268.265 908.695 265.036C906.542 261.808 905.466 257.503 905.466 252.122C905.466 246.98 906.901 242.376 909.771 238.311C912.641 234.245 916.826 231.076 922.327 228.804C927.947 226.413 934.763 225.217 942.774 225.217C948.873 225.217 954.971 226.054 961.07 227.728C967.168 229.283 972.191 231.375 976.137 234.006L970.576 244.23C966.391 241.36 961.907 239.327 957.124 238.131C952.341 236.816 947.558 236.158 942.774 236.158C934.284 236.158 928.007 237.653 923.941 240.643C919.995 243.512 918.022 247.219 918.022 251.763C918.022 255.351 919.098 258.161 921.25 260.194C923.522 262.226 926.452 263.841 930.039 265.036C933.746 266.113 937.752 267.009 942.057 267.727C946.481 268.444 950.846 269.341 955.151 270.417C959.575 271.374 963.581 272.749 967.168 274.543C970.875 276.217 973.805 278.668 975.957 281.897C978.229 285.006 979.365 289.131 979.365 294.273C979.365 299.774 977.811 304.557 974.702 308.623C971.712 312.569 967.288 315.678 961.429 317.95C955.689 320.102 948.694 321.178 940.443 321.178ZM1037.35 321.178C1027.55 321.178 1018.94 319.146 1011.52 315.08C1004.11 310.895 998.309 305.215 994.124 298.04C989.939 290.746 987.846 282.435 987.846 273.108C987.846 263.781 989.819 255.53 993.765 248.355C997.831 241.181 1003.33 235.56 1010.27 231.495C1017.32 227.31 1025.21 225.217 1033.94 225.217C1042.79 225.217 1050.62 227.25 1057.44 231.315C1064.38 235.262 1069.82 240.882 1073.76 248.176C1077.71 255.351 1079.68 263.661 1079.68 273.108C1079.68 273.706 1079.62 274.364 1079.5 275.081C1079.5 275.679 1079.5 276.337 1079.5 277.054H997.532V267.548H1072.69L1067.66 271.314C1067.66 264.498 1066.17 258.46 1063.18 253.198C1060.31 247.817 1056.36 243.632 1051.34 240.643C1046.32 237.653 1040.52 236.158 1033.94 236.158C1027.49 236.158 1021.69 237.653 1016.54 240.643C1011.4 243.632 1007.4 247.817 1004.53 253.198C1001.66 258.579 1000.22 264.737 1000.22 271.673V273.646C1000.22 280.821 1001.78 287.158 1004.89 292.659C1008.11 298.04 1012.54 302.285 1018.16 305.394C1023.9 308.383 1030.42 309.878 1037.71 309.878C1043.45 309.878 1048.77 308.862 1053.67 306.829C1058.7 304.796 1063 301.687 1066.59 297.502L1073.76 305.753C1069.58 310.775 1064.32 314.602 1057.98 317.232C1051.76 319.863 1044.88 321.178 1037.35 321.178ZM1217.89 225.217C1225.54 225.217 1232.18 226.712 1237.8 229.701C1243.54 232.571 1247.96 236.995 1251.07 242.974C1254.3 248.953 1255.91 256.487 1255.91 265.575V320.281H1243.18V266.83C1243.18 256.905 1240.79 249.432 1236 244.409C1231.34 239.267 1224.7 236.696 1216.09 236.696C1209.64 236.696 1204.02 238.072 1199.23 240.822C1194.57 243.453 1190.92 247.339 1188.29 252.481C1185.78 257.503 1184.52 263.602 1184.52 270.776V320.281H1171.79V266.83C1171.79 256.905 1169.4 249.432 1164.62 244.409C1159.83 239.267 1153.14 236.696 1144.53 236.696C1138.19 236.696 1132.63 238.072 1127.84 240.822C1123.06 243.453 1119.35 247.339 1116.72 252.481C1114.21 257.503 1112.96 263.602 1112.96 270.776V320.281H1100.22V226.114H1112.42V251.584L1110.45 247.1C1113.32 240.284 1117.92 234.963 1124.26 231.136C1130.71 227.19 1138.31 225.217 1147.04 225.217C1156.24 225.217 1164.08 227.549 1170.53 232.212C1176.99 236.756 1181.18 243.632 1183.09 252.839L1178.07 250.866C1180.82 243.213 1185.66 237.055 1192.6 232.392C1199.65 227.609 1208.08 225.217 1217.89 225.217ZM1325.07 321.178C1315.26 321.178 1306.65 319.146 1299.24 315.08C1291.82 310.895 1286.03 305.215 1281.84 298.04C1277.65 290.746 1275.56 282.435 1275.56 273.108C1275.56 263.781 1277.54 255.53 1281.48 248.355C1285.55 241.181 1291.05 235.56 1297.98 231.495C1305.04 227.31 1312.93 225.217 1321.66 225.217C1330.51 225.217 1338.34 227.25 1345.16 231.315C1352.09 235.262 1357.53 240.882 1361.48 248.176C1365.42 255.351 1367.4 263.661 1367.4 273.108C1367.4 273.706 1367.34 274.364 1367.22 275.081C1367.22 275.679 1367.22 276.337 1367.22 277.054H1285.25V267.548H1360.4L1355.38 271.314C1355.38 264.498 1353.89 258.46 1350.9 253.198C1348.03 247.817 1344.08 243.632 1339.06 240.643C1334.04 237.653 1328.24 236.158 1321.66 236.158C1315.2 236.158 1309.4 237.653 1304.26 240.643C1299.12 243.632 1295.11 247.817 1292.24 253.198C1289.37 258.579 1287.94 264.737 1287.94 271.673V273.646C1287.94 280.821 1289.49 287.158 1292.6 292.659C1295.83 298.04 1300.25 302.285 1305.88 305.394C1311.61 308.383 1318.13 309.878 1325.43 309.878C1331.17 309.878 1336.49 308.862 1341.39 306.829C1346.41 304.796 1350.72 301.687 1354.3 297.502L1361.48 305.753C1357.29 310.775 1352.03 314.602 1345.69 317.232C1339.48 319.863 1332.6 321.178 1325.07 321.178ZM1387.94 320.281V226.114H1400.14V251.763L1398.88 247.279C1401.51 240.104 1405.93 234.664 1412.15 230.957C1418.37 227.13 1426.08 225.217 1435.29 225.217V237.593C1434.81 237.593 1434.33 237.593 1433.86 237.593C1433.38 237.474 1432.9 237.414 1432.42 237.414C1422.5 237.414 1414.72 240.463 1409.1 246.562C1403.48 252.541 1400.67 261.09 1400.67 272.211V320.281H1387.94ZM1492.27 321.178C1482.47 321.178 1473.86 319.146 1466.44 315.08C1459.03 310.895 1453.23 305.215 1449.04 298.04C1444.86 290.746 1442.77 282.435 1442.77 273.108C1442.77 263.781 1444.74 255.53 1448.68 248.355C1452.75 241.181 1458.25 235.56 1465.19 231.495C1472.24 227.31 1480.13 225.217 1488.86 225.217C1497.71 225.217 1505.54 227.25 1512.36 231.315C1519.3 235.262 1524.74 240.882 1528.68 248.176C1532.63 255.351 1534.6 263.661 1534.6 273.108C1534.6 273.706 1534.54 274.364 1534.42 275.081C1534.42 275.679 1534.42 276.337 1534.42 277.054H1452.45V267.548H1527.61L1522.58 271.314C1522.58 264.498 1521.09 258.46 1518.1 253.198C1515.23 247.817 1511.28 243.632 1506.26 240.643C1501.24 237.653 1495.44 236.158 1488.86 236.158C1482.41 236.158 1476.61 237.653 1471.46 240.643C1466.32 243.632 1462.32 247.817 1459.45 253.198C1456.58 258.579 1455.14 264.737 1455.14 271.673V273.646C1455.14 280.821 1456.7 287.158 1459.81 292.659C1463.03 298.04 1467.46 302.285 1473.08 305.394C1478.82 308.383 1485.34 309.878 1492.63 309.878C1498.37 309.878 1503.69 308.862 1508.59 306.829C1513.62 304.796 1517.92 301.687 1521.51 297.502L1528.68 305.753C1524.5 310.775 1519.24 314.602 1512.9 317.232C1506.68 319.863 1499.8 321.178 1492.27 321.178ZM1599.4 320.281V194.725H1646.39C1657.03 194.725 1666.18 196.458 1673.83 199.926C1681.49 203.274 1687.34 208.177 1691.41 214.634C1695.6 220.972 1697.69 228.685 1697.69 237.773C1697.69 246.621 1695.6 254.274 1691.41 260.732C1687.34 267.069 1681.49 271.972 1673.83 275.44C1666.18 278.907 1657.03 280.641 1646.39 280.641H1606.75L1612.67 274.364V320.281H1599.4ZM1612.67 275.44L1606.75 268.983H1646.03C1658.59 268.983 1668.09 266.292 1674.55 260.911C1681.13 255.41 1684.42 247.698 1684.42 237.773C1684.42 227.728 1681.13 219.956 1674.55 214.455C1668.09 208.954 1658.59 206.204 1646.03 206.204H1606.75L1612.67 199.926V275.44ZM1756.18 321.178C1747.09 321.178 1738.9 319.146 1731.6 315.08C1724.43 310.895 1718.75 305.215 1714.56 298.04C1710.38 290.746 1708.29 282.435 1708.29 273.108C1708.29 263.661 1710.38 255.351 1714.56 248.176C1718.75 241.001 1724.43 235.381 1731.6 231.315C1738.78 227.25 1746.97 225.217 1756.18 225.217C1765.5 225.217 1773.75 227.25 1780.93 231.315C1788.22 235.381 1793.9 241.001 1797.97 248.176C1802.15 255.351 1804.25 263.661 1804.25 273.108C1804.25 282.435 1802.15 290.746 1797.97 298.04C1793.9 305.215 1788.22 310.895 1780.93 315.08C1773.63 319.146 1765.38 321.178 1756.18 321.178ZM1756.18 309.878C1762.99 309.878 1769.03 308.383 1774.29 305.394C1779.55 302.285 1783.68 297.98 1786.67 292.48C1789.78 286.859 1791.33 280.402 1791.33 273.108C1791.33 265.694 1789.78 259.237 1786.67 253.736C1783.68 248.236 1779.55 243.991 1774.29 241.001C1769.03 237.892 1763.05 236.338 1756.36 236.338C1749.66 236.338 1743.68 237.892 1738.42 241.001C1733.16 243.991 1728.97 248.236 1725.86 253.736C1722.75 259.237 1721.2 265.694 1721.2 273.108C1721.2 280.402 1722.75 286.859 1725.86 292.48C1728.97 297.98 1733.16 302.285 1738.42 305.394C1743.68 308.383 1749.6 309.878 1756.18 309.878ZM1872.94 225.217C1880.59 225.217 1887.28 226.712 1893.02 229.701C1898.88 232.571 1903.43 236.995 1906.66 242.974C1910 248.953 1911.68 256.487 1911.68 265.575V320.281H1898.94V266.83C1898.94 256.905 1896.43 249.432 1891.41 244.409C1886.51 239.267 1879.57 236.696 1870.6 236.696C1863.91 236.696 1858.05 238.072 1853.03 240.822C1848.12 243.453 1844.3 247.339 1841.55 252.481C1838.92 257.503 1837.6 263.602 1837.6 270.776V320.281H1824.87V226.114H1837.06V251.943L1835.09 247.1C1838.08 240.284 1842.86 234.963 1849.44 231.136C1856.02 227.19 1863.85 225.217 1872.94 225.217ZM1978.18 321.178C1969.22 321.178 1961.14 319.146 1953.97 315.08C1946.92 311.014 1941.35 305.394 1937.29 298.219C1933.22 290.925 1931.19 282.555 1931.19 273.108C1931.19 263.542 1933.22 255.171 1937.29 247.997C1941.35 240.822 1946.92 235.262 1953.97 231.315C1961.14 227.25 1969.22 225.217 1978.18 225.217C1986.44 225.217 1993.79 227.07 2000.25 230.777C2006.82 234.484 2012.03 239.925 2015.85 247.1C2019.8 254.155 2021.77 262.824 2021.77 273.108C2021.77 283.272 2019.86 291.941 2016.03 299.116C2012.2 306.291 2007 311.791 2000.43 315.618C1993.97 319.325 1986.56 321.178 1978.18 321.178ZM1979.08 309.878C1985.78 309.878 1991.76 308.383 1997.02 305.394C2002.4 302.285 2006.58 297.98 2009.57 292.48C2012.68 286.859 2014.24 280.402 2014.24 273.108C2014.24 265.694 2012.68 259.237 2009.57 253.736C2006.58 248.236 2002.4 243.991 1997.02 241.001C1991.76 237.892 1985.78 236.338 1979.08 236.338C1972.5 236.338 1966.59 237.892 1961.32 241.001C1956.06 243.991 1951.88 248.236 1948.77 253.736C1945.66 259.237 1944.11 265.694 1944.11 273.108C1944.11 280.402 1945.66 286.859 1948.77 292.48C1951.88 297.98 1956.06 302.285 1961.32 305.394C1966.59 308.383 1972.5 309.878 1979.08 309.878ZM2014.6 320.281V291.941L2015.85 272.929L2014.06 253.916V187.191H2026.79V320.281H2014.6Z" fill="white"/>
</g>
<defs>
<clipPath id="clip0_13_887">
<rect width="2560" height="512" fill="white"/>
</clipPath>
<clipPath id="clip1_13_887">
<rect width="483" height="124.172" fill="white" transform="translate(76.1953 53)"/>
</clipPath>
<clipPath id="clip2_13_887">
<rect width="344" height="111.032" fill="white" transform="translate(76.1953 345)"/>
</clipPath>
</defs>
</svg>
