<svg width="2560" height="512" viewBox="0 0 2560 512" fill="none" xmlns="http://www.w3.org/2000/svg">
<g clip-path="url(#clip0_12_1887)">
<rect width="2560" height="512" fill="white"/>
<line y1="468" x2="2195" y2="468" stroke="#EC7D33" stroke-width="30"/>
<line x1="2435.16" y1="468" x2="2560.16" y2="468" stroke="#EC7D33" stroke-width="30"/>
<g clip-path="url(#clip1_12_1887)">
<path fill-rule="evenodd" clip-rule="evenodd" d="M2260.01 482.938L2373.24 284.963H2353.49C2344 284.963 2335.24 290.046 2330.53 298.285C2305.12 342.701 2224.92 482.938 2224.92 482.938H2260.01Z" fill="#B2B2B2"/>
<path fill-rule="evenodd" clip-rule="evenodd" d="M2212.34 482.938L2325.56 284.963H2305.82C2296.33 284.963 2287.56 290.046 2282.85 298.285C2257.45 342.701 2177.25 482.938 2177.25 482.938H2212.34Z" fill="#EC7D33"/>
<path fill-rule="evenodd" clip-rule="evenodd" d="M2381.18 482.939L2335.5 403.483H2355.28C2364.75 403.483 2373.5 408.543 2378.22 416.752C2391.22 439.363 2416.28 482.939 2416.28 482.939H2381.18Z" fill="#B2B2B2"/>
<path fill-rule="evenodd" clip-rule="evenodd" d="M2429.52 482.939L2383.83 403.483H2403.62C2413.09 403.483 2421.83 408.543 2426.55 416.752C2439.55 439.363 2464.61 482.939 2464.61 482.939H2429.52Z" fill="#EC7D33"/>
</g>
<path d="M80.4522 318L131.426 194.104H160.984L211.428 318H183.64L171.073 285.433H119.922L107.178 318H80.4522ZM127.887 264.902H163.285L145.586 219.237L127.887 264.902ZM215.042 318V225.786H239.29V318H215.042ZM227.078 214.813C223.302 214.813 220.057 213.456 217.343 210.742C214.629 208.028 213.272 204.783 213.272 201.007C213.272 197.113 214.629 193.868 217.343 191.272C220.057 188.558 223.302 187.201 227.078 187.201C230.972 187.201 234.217 188.558 236.813 191.272C239.526 193.868 240.883 197.113 240.883 201.007C240.883 204.783 239.526 208.028 236.813 210.742C234.217 213.456 230.972 214.813 227.078 214.813ZM252.944 318V225.786H277.192V236.052C280.142 232.04 283.682 228.972 287.812 226.848C291.942 224.724 296.602 223.662 301.794 223.662C306.278 223.78 309.641 224.488 311.883 225.786V247.025C310.113 246.199 308.166 245.609 306.042 245.255C303.918 244.783 301.735 244.547 299.493 244.547C294.773 244.547 290.467 245.727 286.573 248.087C282.679 250.447 279.552 253.81 277.192 258.176V318H252.944ZM319.884 354.107V225.786H343.778V233.397C351.329 227.497 360.061 224.547 369.973 224.547C378.705 224.547 386.61 226.671 393.69 230.919C400.77 235.167 406.375 240.89 410.504 248.087C414.752 255.167 416.876 263.132 416.876 271.982C416.876 280.831 414.752 288.855 410.504 296.053C406.257 303.133 400.534 308.796 393.336 313.044C386.138 317.174 378.115 319.239 369.265 319.239C364.663 319.239 360.238 318.649 355.99 317.469C351.742 316.171 347.79 314.342 344.132 311.982V354.107H319.884ZM366.079 298.708C371.153 298.708 375.696 297.528 379.708 295.168C383.837 292.808 387.082 289.622 389.442 285.61C391.802 281.598 392.982 277.055 392.982 271.982C392.982 266.908 391.802 262.365 389.442 258.353C387.082 254.223 383.837 251.037 379.708 248.795C375.696 246.435 371.153 245.255 366.079 245.255C361.595 245.255 357.465 246.022 353.689 247.556C350.032 248.972 346.846 251.155 344.132 254.105V290.035C346.728 292.749 349.914 294.873 353.689 296.407C357.583 297.941 361.713 298.708 366.079 298.708ZM471.189 319.77C461.985 319.77 453.666 317.646 446.232 313.398C438.799 309.15 432.899 303.427 428.533 296.23C424.167 289.032 421.984 280.949 421.984 271.982C421.984 263.014 424.108 254.931 428.356 247.733C432.722 240.418 438.622 234.636 446.055 230.388C453.607 226.14 461.985 224.016 471.189 224.016C480.392 224.016 488.711 226.14 496.145 230.388C503.696 234.636 509.596 240.418 513.844 247.733C518.21 254.931 520.393 263.014 520.393 271.982C520.393 280.949 518.21 289.032 513.844 296.23C509.596 303.427 503.755 309.15 496.322 313.398C488.888 317.646 480.51 319.77 471.189 319.77ZM471.189 298.708C476.026 298.708 480.333 297.528 484.109 295.168C488.003 292.808 491.071 289.622 493.313 285.61C495.673 281.48 496.853 276.937 496.853 271.982C496.853 266.908 495.673 262.365 493.313 258.353C491.071 254.341 488.003 251.155 484.109 248.795C480.333 246.317 476.026 245.078 471.189 245.078C466.469 245.078 462.162 246.317 458.268 248.795C454.374 251.155 451.306 254.341 449.064 258.353C446.822 262.365 445.701 266.908 445.701 271.982C445.701 276.937 446.822 281.48 449.064 285.61C451.306 289.622 454.374 292.808 458.268 295.168C462.162 297.528 466.469 298.708 471.189 298.708ZM529.988 318V225.786H554.236V236.052C557.186 232.04 560.726 228.972 564.856 226.848C568.986 224.724 573.646 223.662 578.838 223.662C583.322 223.78 586.685 224.488 588.927 225.786V247.025C587.157 246.199 585.21 245.609 583.086 245.255C580.962 244.783 578.779 244.547 576.537 244.547C571.817 244.547 567.511 245.727 563.617 248.087C559.723 250.447 556.596 253.81 554.236 258.176V318H529.988ZM640.645 319.416C630.379 319.416 622.592 317.115 617.282 312.513C612.09 307.793 609.494 300.95 609.494 291.982V245.963H590.556V225.786H609.494V202.246L633.742 196.759V225.786H660.114V245.963H633.742V287.026C633.742 291.274 634.686 294.342 636.574 296.23C638.462 298 641.766 298.885 646.486 298.885C648.846 298.885 650.97 298.767 652.858 298.531C654.864 298.177 657.047 297.587 659.406 296.761V316.761C656.929 317.587 653.802 318.236 650.026 318.708C646.368 319.18 643.241 319.416 640.645 319.416ZM759.585 319.77C750.381 319.77 741.768 318.177 733.744 314.991C725.72 311.687 718.699 307.144 712.682 301.363C706.782 295.581 702.121 288.855 698.699 281.185C695.395 273.398 693.743 265.02 693.743 256.052C693.743 246.966 695.395 238.589 698.699 230.919C702.121 223.131 706.841 216.346 712.859 210.565C718.876 204.783 725.838 200.299 733.744 197.113C741.768 193.809 750.381 192.157 759.585 192.157C766.429 192.157 773.037 193.101 779.408 194.989C785.78 196.877 791.68 199.532 797.108 202.954C802.654 206.376 807.373 210.506 811.267 215.343L793.922 232.512C789.438 226.966 784.246 222.777 778.346 219.945C772.565 217.113 766.311 215.697 759.585 215.697C754.039 215.697 748.847 216.759 744.01 218.883C739.172 220.889 734.983 223.721 731.443 227.379C727.903 230.919 725.13 235.167 723.124 240.123C721.118 244.96 720.115 250.27 720.115 256.052C720.115 261.716 721.118 267.026 723.124 271.982C725.13 276.819 727.962 281.067 731.62 284.725C735.278 288.265 739.526 291.038 744.364 293.044C749.319 295.05 754.688 296.053 760.47 296.053C766.96 296.053 773.037 294.696 778.7 291.982C784.364 289.268 789.379 285.374 793.745 280.3L810.559 296.938C806.665 301.658 802.005 305.728 796.577 309.15C791.149 312.572 785.249 315.227 778.877 317.115C772.624 318.885 766.193 319.77 759.585 319.77ZM861.202 319.77C851.998 319.77 843.62 317.646 836.069 313.398C828.635 309.15 822.735 303.427 818.369 296.23C814.003 289.032 811.82 280.949 811.82 271.982C811.82 263.014 813.885 254.931 818.015 247.733C822.263 240.536 827.986 234.813 835.184 230.565C842.381 226.317 850.405 224.193 859.255 224.193C868.104 224.193 875.951 226.376 882.795 230.742C889.639 235.108 895.008 241.008 898.901 248.441C902.913 255.875 904.919 264.312 904.919 273.752V280.123H836.6C837.662 283.781 839.372 287.085 841.732 290.035C844.21 292.985 847.219 295.286 850.759 296.938C854.417 298.59 858.311 299.416 862.441 299.416C866.571 299.416 870.346 298.767 873.768 297.469C877.308 296.171 880.317 294.342 882.795 291.982L898.724 306.495C893.061 311.097 887.22 314.46 881.202 316.584C875.302 318.708 868.635 319.77 861.202 319.77ZM836.246 262.778H881.025C880.199 259.12 878.665 255.934 876.423 253.22C874.299 250.388 871.703 248.205 868.635 246.671C865.686 245.019 862.382 244.194 858.724 244.194C854.948 244.194 851.526 244.96 848.458 246.494C845.39 248.028 842.794 250.211 840.67 253.043C838.664 255.757 837.19 259.002 836.246 262.778ZM914.466 318V225.786H938.714V233.397C945.676 227.143 954.289 224.016 964.555 224.016C971.753 224.016 978.066 225.609 983.493 228.795C989.039 231.863 993.346 236.17 996.414 241.716C999.482 247.143 1001.02 253.515 1001.02 260.831V318H976.768V264.371C976.768 258.353 975.057 253.633 971.635 250.211C968.213 246.671 963.552 244.901 957.652 244.901C953.522 244.901 949.865 245.727 946.679 247.379C943.493 248.913 940.838 251.155 938.714 254.105V318H914.466ZM1055.2 319.416C1044.93 319.416 1037.14 317.115 1031.83 312.513C1026.64 307.793 1024.05 300.95 1024.05 291.982V245.963H1005.11V225.786H1024.05V202.246L1048.3 196.759V225.786H1074.67V245.963H1048.3V287.026C1048.3 291.274 1049.24 294.342 1051.13 296.23C1053.02 298 1056.32 298.885 1061.04 298.885C1063.4 298.885 1065.52 298.767 1067.41 298.531C1069.42 298.177 1071.6 297.587 1073.96 296.761V316.761C1071.48 317.587 1068.35 318.236 1064.58 318.708C1060.92 319.18 1057.79 319.416 1055.2 319.416ZM1081.19 318V225.786H1105.43V236.052C1108.38 232.04 1111.92 228.972 1116.05 226.848C1120.18 224.724 1124.84 223.662 1130.04 223.662C1134.52 223.78 1137.88 224.488 1140.12 225.786V247.025C1138.35 246.199 1136.41 245.609 1134.28 245.255C1132.16 244.783 1129.98 244.547 1127.74 244.547C1123.02 244.547 1118.71 245.727 1114.81 248.087C1110.92 250.447 1107.79 253.81 1105.43 258.176V318H1081.19ZM1174.91 319.593C1168.31 319.593 1162.47 318.413 1157.39 316.053C1152.32 313.575 1148.36 310.212 1145.53 305.964C1142.7 301.717 1141.29 296.82 1141.29 291.274C1141.29 282.424 1144.59 275.58 1151.2 270.743C1157.92 265.787 1167.13 263.309 1178.81 263.309C1186.83 263.309 1194.38 264.548 1201.46 267.026V260.3C1201.46 254.99 1199.81 250.978 1196.51 248.264C1193.2 245.55 1188.37 244.194 1181.99 244.194C1178.1 244.194 1173.91 244.842 1169.43 246.14C1164.94 247.32 1159.75 249.208 1153.85 251.804L1145 233.928C1152.32 230.624 1159.28 228.146 1165.89 226.494C1172.61 224.842 1179.34 224.016 1186.06 224.016C1198.45 224.016 1208.07 227.025 1214.91 233.043C1221.88 238.943 1225.36 247.32 1225.36 258.176V318H1201.46V311.451C1197.69 314.283 1193.62 316.348 1189.25 317.646C1184.88 318.944 1180.11 319.593 1174.91 319.593ZM1164.29 290.743C1164.29 294.283 1165.83 297.115 1168.9 299.239C1171.96 301.245 1176.03 302.248 1181.11 302.248C1185.12 302.248 1188.84 301.776 1192.26 300.832C1195.68 299.77 1198.75 298.236 1201.46 296.23V282.778C1198.51 281.598 1195.45 280.713 1192.26 280.123C1189.07 279.533 1185.65 279.238 1181.99 279.238C1176.45 279.238 1172.08 280.3 1168.9 282.424C1165.83 284.43 1164.29 287.203 1164.29 290.743ZM1238.4 318V194.104L1262.65 190.033V318H1238.4Z" fill="#2A2A2A"/>
</g>
<defs>
<clipPath id="clip0_12_1887">
<rect width="2560" height="512" fill="white"/>
</clipPath>
<clipPath id="clip1_12_1887">
<rect width="287.753" height="198.099" fill="white" transform="translate(2177.16 284.901)"/>
</clipPath>
</defs>
</svg>
