<svg width="2560" height="512" viewBox="0 0 2560 512" fill="none" xmlns="http://www.w3.org/2000/svg">
<g clip-path="url(#clip0_13_992)">
<rect width="2560" height="512" fill="#263443"/>
<circle cx="2338.5" cy="179.5" r="320" fill="#E5292D" stroke="white" stroke-width="25"/>
<circle cx="2515" cy="512" r="256.5" fill="#E5292D" stroke="white" stroke-width="25"/>
<circle cx="270.695" cy="255.5" r="409" fill="#E5292D" stroke="white" stroke-width="25"/>
<g clip-path="url(#clip1_13_992)">
<path d="M76.2763 78.7782H94.8308V88.9443C94.8308 88.9443 110.549 77.1443 123.513 77.1443C137.125 77.1443 149.927 84.315 160.298 95.9335C169.747 86.3103 179.338 76.8721 197.893 76.8721C219.04 76.8721 231.842 92.2119 231.842 92.2119C238.123 99.2488 244.319 109.64 244.319 121.803V174.902H225.603V121.984C225.603 119.338 221.39 95.8427 197.893 95.8427C175.287 95.8427 170.021 117.332 170.021 122.438V174.993H151.385V120.986C151.385 116.35 144.741 95.8427 123.513 95.8427C102.285 95.8427 96.5322 114.904 96.5322 119.806V175.628H76.1953L76.2763 78.7782Z" fill="white"/>
<path d="M300.955 78.5962C286.569 78.5962 274.339 83.6815 265.948 93.6026C255.872 105.515 253.637 118.154 253.637 125.887C253.637 167.025 287.551 177.172 299.009 177.172C325.018 177.172 337.981 158.293 337.981 158.293L322.69 149.209C316.164 155.536 309.404 160.05 299.222 160.044C286.688 160.037 271.822 146.781 271.822 131.547H345.91C345.91 93.8254 320.125 78.5962 300.955 78.5962ZM300.353 96.248C319.947 96.248 325.217 116.017 325.217 116.017H273.654C273.654 116.017 280.759 96.248 300.353 96.248Z" fill="white"/>
<path d="M408.984 174.588L404.098 156.385H387.563C380.662 156.385 374.363 149.768 374.363 143.394V97.3858H403.612V78.2337H373.309V53H356.254V142.973C356.254 161.763 370.557 174.595 383.161 174.592L408.984 174.588Z" fill="white"/>
<path d="M446.311 79.3979H468.081L463.974 96.569H447.808C437.048 96.569 433.266 107.717 433.266 115.08V174.63H415.684V109.095C415.684 97.6033 425.239 79.3979 446.311 79.3979Z" fill="white"/>
<path d="M510.11 172.024C535.134 172.024 555.42 151.574 555.42 126.348C555.42 101.122 535.134 80.6721 510.11 80.6721C485.087 80.6721 464.801 101.122 464.801 126.348C464.801 151.574 485.087 172.024 510.11 172.024Z" stroke="white" stroke-width="7.58208" stroke-miterlimit="1.5" stroke-linecap="round" stroke-linejoin="round"/>
<path d="M510.109 157.615C527.239 157.615 541.125 143.616 541.125 126.348C541.125 109.08 527.239 95.0818 510.109 95.0818C492.98 95.0818 479.094 109.08 479.094 126.348C479.094 143.616 492.98 157.615 510.109 157.615Z" stroke="white" stroke-width="7.58499" stroke-miterlimit="1.5" stroke-linecap="round" stroke-linejoin="round"/>
<path d="M510.11 172.024C535.134 172.024 555.42 151.574 555.42 126.348C555.42 101.122 535.134 80.6721 510.11 80.6721C485.087 80.6721 464.801 101.122 464.801 126.348C464.801 151.574 485.087 172.024 510.11 172.024Z" stroke="white" stroke-width="7.58208" stroke-miterlimit="1.5" stroke-linecap="round" stroke-linejoin="round"/>
<path d="M510.109 157.615C527.239 157.615 541.125 143.616 541.125 126.348C541.125 109.08 527.239 95.0818 510.109 95.0818C492.98 95.0818 479.094 109.08 479.094 126.348C479.094 143.616 492.98 157.615 510.109 157.615Z" stroke="white" stroke-width="7.58499" stroke-miterlimit="1.5" stroke-linecap="round" stroke-linejoin="round"/>
</g>
<g clip-path="url(#clip2_13_992)">
<path fill-rule="evenodd" clip-rule="evenodd" d="M110.397 421.83L76.6914 389.115L121.302 345.496L138.155 362.349L129.233 371.271L121.302 363.34L95.5271 389.115L119.32 413.403L110.397 421.83Z" fill="white"/>
<path fill-rule="evenodd" clip-rule="evenodd" d="M111.386 388.124L120.308 379.202L153.519 412.412L108.908 456.032L92.0547 439.179L100.977 430.256L108.908 438.187L134.683 411.916L111.386 388.124Z" fill="white"/>
<path d="M200.48 437.918C196.166 437.918 192.724 436.935 190.154 434.968C187.617 432.969 186.126 430.162 185.681 426.545H191.63C191.915 428.639 192.851 430.273 194.437 431.447C196.023 432.589 198.101 433.16 200.671 433.16C202.796 433.16 204.414 432.779 205.524 432.018C206.666 431.225 207.237 430.13 207.237 428.734C207.237 427.497 206.889 426.498 206.191 425.736C205.493 424.975 204.319 424.357 202.669 423.881L196.483 422.025C193.343 421.073 191.027 419.82 189.536 418.266C188.077 416.711 187.347 414.76 187.347 412.413C187.347 410.446 187.855 408.733 188.87 407.274C189.885 405.814 191.312 404.688 193.152 403.895C195.024 403.102 197.197 402.705 199.671 402.705C203.478 402.705 206.508 403.641 208.76 405.513C211.044 407.353 212.345 409.859 212.662 413.031H206.714C206.365 411.128 205.572 409.732 204.335 408.844C203.098 407.924 201.432 407.464 199.338 407.464C197.498 407.464 196.039 407.829 194.961 408.558C193.882 409.288 193.343 410.287 193.343 411.556C193.343 412.603 193.66 413.491 194.294 414.221C194.961 414.951 196.182 415.585 197.958 416.124L204.24 418.028C207.38 418.948 209.664 420.201 211.092 421.787C212.519 423.373 213.233 425.388 213.233 427.83C213.233 431.066 212.107 433.556 209.855 435.301C207.634 437.046 204.509 437.918 200.48 437.918ZM228.498 437.966C225.516 437.966 223.311 437.268 221.884 435.872C220.488 434.445 219.79 432.319 219.79 429.496V407.702L225.833 405.465V429.638C225.833 430.812 226.15 431.685 226.785 432.256C227.419 432.827 228.419 433.112 229.783 433.112C230.322 433.112 230.798 433.08 231.21 433.017C231.654 432.922 232.067 432.811 232.447 432.684V437.347C232.067 437.538 231.528 437.68 230.83 437.776C230.132 437.902 229.354 437.966 228.498 437.966ZM215.127 417.933V413.222H232.447V417.933H215.127ZM247.086 437.966C244.516 437.966 242.264 437.427 240.329 436.348C238.425 435.269 236.934 433.778 235.856 431.875C234.809 429.972 234.285 427.783 234.285 425.308C234.285 422.834 234.809 420.661 235.856 418.789C236.934 416.886 238.425 415.411 240.329 414.364C242.232 413.285 244.453 412.746 246.991 412.746C249.402 412.746 251.495 413.253 253.272 414.269C255.048 415.252 256.428 416.648 257.412 418.456C258.395 420.264 258.887 422.374 258.887 424.785C258.887 425.229 258.871 425.641 258.839 426.022C258.808 426.403 258.76 426.783 258.697 427.164H237.997V422.977H254.081L252.844 424.119C252.844 421.835 252.32 420.121 251.273 418.979C250.226 417.837 248.767 417.266 246.895 417.266C244.865 417.266 243.247 417.964 242.042 419.36C240.868 420.756 240.281 422.77 240.281 425.403C240.281 428.005 240.868 430.003 242.042 431.399C243.247 432.763 244.945 433.445 247.133 433.445C248.402 433.445 249.513 433.207 250.464 432.731C251.416 432.256 252.114 431.526 252.558 430.543H258.221C257.428 432.827 256.079 434.635 254.176 435.967C252.304 437.3 249.941 437.966 247.086 437.966ZM277.221 437.966C274.905 437.966 273.018 437.427 271.558 436.348C270.131 435.238 269.242 433.715 268.894 431.78L269.369 431.732V447.245H263.374V413.222H269.227V418.694L268.751 418.599C269.195 416.791 270.21 415.363 271.796 414.316C273.382 413.269 275.317 412.746 277.602 412.746C279.759 412.746 281.63 413.269 283.217 414.316C284.835 415.331 286.088 416.775 286.976 418.646C287.864 420.518 288.308 422.723 288.308 425.261C288.308 427.83 287.848 430.067 286.928 431.97C286.008 433.874 284.723 435.349 283.074 436.396C281.424 437.442 279.473 437.966 277.221 437.966ZM275.698 433.017C277.633 433.017 279.172 432.351 280.314 431.018C281.456 429.654 282.027 427.751 282.027 425.308C282.027 422.866 281.44 420.978 280.266 419.646C279.124 418.313 277.586 417.647 275.651 417.647C273.747 417.647 272.209 418.329 271.035 419.693C269.861 421.026 269.274 422.913 269.274 425.356C269.274 427.799 269.861 429.686 271.035 431.018C272.209 432.351 273.763 433.017 275.698 433.017ZM294.46 437.49V410.985C294.46 408.32 295.19 406.29 296.649 404.894C298.14 403.467 300.361 402.753 303.311 402.753C303.977 402.753 304.532 402.785 304.976 402.848C305.42 402.912 305.849 403.007 306.261 403.134V407.797C306.039 407.702 305.754 407.638 305.405 407.607C305.056 407.543 304.659 407.511 304.215 407.511C302.946 407.511 301.994 407.829 301.36 408.463C300.757 409.066 300.456 409.954 300.456 411.128V437.49H294.46ZM290.082 417.933V413.222H305.738V417.933H290.082ZM320.14 437.966C317.57 437.966 315.302 437.427 313.335 436.348C311.4 435.269 309.893 433.778 308.814 431.875C307.736 429.94 307.196 427.735 307.196 425.261C307.196 422.786 307.736 420.613 308.814 418.741C309.893 416.87 311.4 415.411 313.335 414.364C315.302 413.285 317.57 412.746 320.14 412.746C322.741 412.746 325.009 413.285 326.944 414.364C328.879 415.411 330.386 416.87 331.465 418.741C332.543 420.613 333.083 422.786 333.083 425.261C333.083 427.735 332.528 429.94 331.417 431.875C330.339 433.778 328.832 435.269 326.897 436.348C324.962 437.427 322.709 437.966 320.14 437.966ZM320.14 433.16C321.409 433.16 322.551 432.843 323.566 432.208C324.581 431.542 325.374 430.622 325.945 429.448C326.516 428.243 326.802 426.831 326.802 425.213C326.802 422.834 326.167 420.962 324.898 419.598C323.661 418.234 322.075 417.552 320.14 417.552C318.204 417.552 316.602 418.234 315.334 419.598C314.065 420.962 313.43 422.834 313.43 425.213C313.43 426.831 313.716 428.243 314.287 429.448C314.889 430.622 315.682 431.542 316.666 432.208C317.681 432.843 318.839 433.16 320.14 433.16ZM337.493 437.49V413.222H343.346V419.075H343.489V437.49H337.493ZM343.489 424.832L342.87 419.075C343.441 417.013 344.409 415.442 345.773 414.364C347.137 413.285 348.771 412.746 350.674 412.746C351.34 412.746 351.816 412.809 352.101 412.936V418.599C351.943 418.535 351.721 418.504 351.435 418.504C351.15 418.472 350.801 418.456 350.388 418.456C348.073 418.456 346.344 418.964 345.202 419.979C344.06 420.994 343.489 422.612 343.489 424.832ZM372.798 437.49V432.018L373.273 432.113C372.861 433.889 371.862 435.317 370.276 436.396C368.689 437.442 366.802 437.966 364.613 437.966C362.392 437.966 360.457 437.458 358.808 436.443C357.19 435.396 355.937 433.937 355.048 432.065C354.16 430.194 353.716 427.989 353.716 425.451C353.716 422.881 354.176 420.645 355.096 418.741C356.016 416.838 357.301 415.363 358.95 414.316C360.632 413.269 362.583 412.746 364.803 412.746C367.087 412.746 368.975 413.301 370.466 414.411C371.957 415.49 372.877 416.997 373.226 418.932L372.607 418.979V403.229H378.651V437.49H372.798ZM366.374 433.065C368.309 433.065 369.847 432.398 370.989 431.066C372.163 429.702 372.75 427.799 372.75 425.356C372.75 422.913 372.163 421.026 370.989 419.693C369.816 418.361 368.261 417.695 366.326 417.695C364.423 417.695 362.884 418.377 361.71 419.741C360.537 421.073 359.95 422.961 359.95 425.403C359.95 427.846 360.537 429.734 361.71 431.066C362.884 432.398 364.439 433.065 366.374 433.065Z" fill="white"/>
<path d="M195.476 390.853V365.157H185.681V362.302H208.522V365.157H198.728V390.853H195.476ZM208.531 390.853V370.629H211.505V375.784H211.704V390.853H208.531ZM211.704 380.305L211.188 375.507C211.664 373.789 212.51 372.48 213.726 371.581C214.942 370.682 216.343 370.233 217.929 370.233C218.59 370.233 219.04 370.286 219.278 370.391V373.445C219.145 373.392 218.96 373.366 218.722 373.366C218.484 373.339 218.194 373.326 217.85 373.326C215.841 373.326 214.308 373.934 213.25 375.15C212.219 376.34 211.704 378.058 211.704 380.305ZM235.232 390.853C235.127 390.404 235.047 389.888 234.995 389.307C234.968 388.725 234.955 387.985 234.955 387.086H234.757V377.41C234.757 375.877 234.4 374.753 233.686 374.04C232.999 373.299 231.875 372.929 230.315 372.929C228.782 372.929 227.553 373.247 226.627 373.881C225.729 374.489 225.226 375.361 225.121 376.498H222.067C222.199 374.542 223.019 373.009 224.526 371.898C226.033 370.788 228.002 370.233 230.434 370.233C232.946 370.233 234.809 370.828 236.026 372.017C237.242 373.207 237.85 374.991 237.85 377.371V387.086C237.85 387.667 237.889 388.276 237.969 388.91C238.048 389.518 238.154 390.166 238.286 390.853H235.232ZM228.293 391.25C226.205 391.25 224.539 390.747 223.297 389.743C222.08 388.712 221.472 387.311 221.472 385.539C221.472 383.768 222.08 382.393 223.297 381.415C224.513 380.437 226.284 379.75 228.61 379.353L235.669 378.164V380.781L229.086 381.812C227.606 382.05 226.482 382.446 225.715 383.001C224.949 383.557 224.565 384.363 224.565 385.42C224.565 386.451 224.909 387.231 225.596 387.76C226.31 388.289 227.354 388.553 228.729 388.553C230.5 388.553 231.941 388.157 233.051 387.363C234.188 386.544 234.757 385.486 234.757 384.191L235.272 387.007C234.849 388.355 234.016 389.399 232.774 390.139C231.558 390.879 230.064 391.25 228.293 391.25ZM243.964 390.853V370.629H246.938V375.388H247.137V390.853H243.964ZM258.438 390.853V377.609C258.438 376.075 258.055 374.925 257.288 374.159C256.522 373.392 255.385 373.009 253.878 373.009C252.556 373.009 251.38 373.299 250.349 373.881C249.344 374.463 248.551 375.269 247.969 376.3C247.414 377.331 247.137 378.534 247.137 379.908L246.621 375.11C247.309 373.603 248.353 372.414 249.754 371.541C251.181 370.669 252.794 370.233 254.592 370.233C256.707 370.233 258.399 370.841 259.667 372.057C260.963 373.247 261.611 374.82 261.611 376.776V390.853H258.438ZM274.485 391.25C272 391.25 270.018 390.681 268.537 389.544C267.057 388.381 266.211 386.742 265.999 384.627H269.053C269.238 385.923 269.806 386.914 270.758 387.601C271.71 388.289 272.979 388.632 274.565 388.632C275.966 388.632 277.063 388.368 277.856 387.839C278.649 387.311 279.046 386.557 279.046 385.579C279.046 384.892 278.821 384.297 278.372 383.795C277.922 383.266 277.023 382.83 275.675 382.486L272.423 381.653C270.573 381.177 269.185 380.45 268.26 379.472C267.334 378.468 266.872 377.278 266.872 375.903C266.872 374.159 267.52 372.784 268.815 371.779C270.11 370.748 271.868 370.233 274.089 370.233C276.283 370.233 278.068 370.762 279.442 371.819C280.817 372.876 281.597 374.344 281.782 376.221H278.728C278.543 375.137 278.041 374.304 277.222 373.722C276.402 373.141 275.318 372.85 273.97 372.85C272.675 372.85 271.67 373.101 270.956 373.603C270.242 374.079 269.886 374.767 269.886 375.665C269.886 376.353 270.137 376.948 270.639 377.45C271.168 377.952 272.04 378.375 273.256 378.719L276.428 379.591C278.305 380.094 279.72 380.86 280.671 381.891C281.623 382.922 282.099 384.165 282.099 385.619C282.099 387.39 281.425 388.778 280.077 389.782C278.728 390.761 276.865 391.25 274.485 391.25ZM296.361 391.21C294.458 391.21 292.858 390.747 291.563 389.822C290.267 388.897 289.382 387.588 288.906 385.896L289.54 385.817V398.982H286.368V370.629H289.342V375.348L288.906 375.229C289.408 373.67 290.36 372.453 291.761 371.581C293.162 370.682 294.788 370.233 296.638 370.233C298.436 370.233 299.996 370.669 301.318 371.541C302.666 372.414 303.71 373.63 304.45 375.19C305.191 376.749 305.561 378.573 305.561 380.662C305.561 382.777 305.177 384.627 304.411 386.213C303.644 387.8 302.573 389.029 301.199 389.901C299.824 390.774 298.211 391.21 296.361 391.21ZM295.885 388.434C297.894 388.434 299.467 387.747 300.604 386.372C301.741 384.971 302.309 383.068 302.309 380.662C302.309 378.283 301.741 376.419 300.604 375.071C299.467 373.696 297.894 373.009 295.885 373.009C293.876 373.009 292.29 373.709 291.127 375.11C289.963 376.485 289.382 378.375 289.382 380.781C289.382 383.134 289.963 384.997 291.127 386.372C292.29 387.747 293.876 388.434 295.885 388.434ZM318.823 391.25C316.84 391.25 315.095 390.787 313.588 389.862C312.082 388.936 310.905 387.681 310.059 386.095C309.24 384.482 308.83 382.671 308.83 380.662C308.83 378.626 309.253 376.829 310.099 375.269C310.945 373.709 312.108 372.48 313.588 371.581C315.095 370.682 316.84 370.233 318.823 370.233C320.832 370.233 322.577 370.682 324.057 371.581C325.564 372.48 326.727 373.709 327.547 375.269C328.393 376.829 328.816 378.626 328.816 380.662C328.816 382.671 328.393 384.482 327.547 386.095C326.727 387.681 325.564 388.936 324.057 389.862C322.577 390.787 320.832 391.25 318.823 391.25ZM318.823 388.553C320.198 388.553 321.387 388.223 322.392 387.562C323.396 386.874 324.176 385.936 324.731 384.746C325.286 383.557 325.564 382.182 325.564 380.622C325.564 378.296 324.943 376.432 323.7 375.031C322.484 373.63 320.858 372.929 318.823 372.929C316.814 372.929 315.188 373.63 313.945 375.031C312.703 376.432 312.082 378.296 312.082 380.622C312.082 382.182 312.359 383.557 312.914 384.746C313.47 385.936 314.249 386.874 315.254 387.562C316.285 388.223 317.475 388.553 318.823 388.553ZM333.574 390.853V370.629H336.548V375.784H336.746V390.853H333.574ZM336.746 380.305L336.23 375.507C336.706 373.789 337.552 372.48 338.768 371.581C339.984 370.682 341.385 370.233 342.972 370.233C343.633 370.233 344.082 370.286 344.32 370.391V373.445C344.188 373.392 344.003 373.366 343.765 373.366C343.527 373.339 343.236 373.326 342.892 373.326C340.883 373.326 339.35 373.934 338.292 375.15C337.261 376.34 336.746 378.058 336.746 380.305ZM356.998 391.21C354.751 391.21 353.112 390.708 352.081 389.703C351.076 388.672 350.574 387.192 350.574 385.262V365.911L353.746 364.721V385.222C353.746 386.359 354.037 387.192 354.619 387.72C355.2 388.249 356.152 388.513 357.474 388.513C358.003 388.513 358.452 388.487 358.822 388.434C359.219 388.355 359.536 388.262 359.774 388.157V390.853C359.509 390.959 359.126 391.038 358.624 391.091C358.148 391.17 357.606 391.21 356.998 391.21ZM346.41 373.326V370.629H359.774V373.326H346.41ZM373.46 390.853V367.774C373.46 365.924 373.989 364.483 375.047 363.452C376.13 362.421 377.77 361.905 379.964 361.905C380.492 361.905 380.902 361.932 381.193 361.985C381.51 362.038 381.775 362.104 381.986 362.183V364.681C381.801 364.628 381.537 364.576 381.193 364.523C380.876 364.47 380.532 364.443 380.162 364.443C378.946 364.443 378.047 364.747 377.465 365.355C376.91 365.963 376.633 366.823 376.633 367.933V390.853H373.46ZM369.297 373.326V370.629H381.55V373.326H369.297ZM393.446 391.25C391.463 391.25 389.718 390.787 388.211 389.862C386.704 388.936 385.528 387.681 384.682 386.095C383.862 384.482 383.453 382.671 383.453 380.662C383.453 378.626 383.876 376.829 384.722 375.269C385.568 373.709 386.731 372.48 388.211 371.581C389.718 370.682 391.463 370.233 393.446 370.233C395.455 370.233 397.199 370.682 398.68 371.581C400.187 372.48 401.35 373.709 402.169 375.269C403.015 376.829 403.438 378.626 403.438 380.662C403.438 382.671 403.015 384.482 402.169 386.095C401.35 387.681 400.187 388.936 398.68 389.862C397.199 390.787 395.455 391.25 393.446 391.25ZM393.446 388.553C394.82 388.553 396.01 388.223 397.014 387.562C398.019 386.874 398.799 385.936 399.354 384.746C399.909 383.557 400.187 382.182 400.187 380.622C400.187 378.296 399.565 376.432 398.323 375.031C397.107 373.63 395.481 372.929 393.446 372.929C391.436 372.929 389.811 373.63 388.568 375.031C387.326 376.432 386.704 378.296 386.704 380.622C386.704 382.182 386.982 383.557 387.537 384.746C388.092 385.936 388.872 386.874 389.877 387.562C390.908 388.223 392.097 388.553 393.446 388.553ZM408.196 390.853V370.629H411.17V375.784H411.369V390.853H408.196ZM411.369 380.305L410.853 375.507C411.329 373.789 412.175 372.48 413.391 371.581C414.607 370.682 416.008 370.233 417.594 370.233C418.255 370.233 418.705 370.286 418.943 370.391V373.445C418.81 373.392 418.625 373.366 418.387 373.366C418.149 373.339 417.859 373.326 417.515 373.326C415.506 373.326 413.973 373.934 412.915 375.15C411.884 376.34 411.369 378.058 411.369 380.305Z" fill="white"/>
</g>
<path d="M740.359 320.281L797.756 194.725H810.85L868.247 320.281H854.257L801.523 202.437H806.904L754.17 320.281H740.359ZM762.959 286.74L766.905 275.978H839.907L843.854 286.74H762.959ZM929.016 225.217C936.669 225.217 943.366 226.712 949.106 229.701C954.965 232.571 959.509 236.995 962.737 242.974C966.086 248.953 967.76 256.487 967.76 265.575V320.281H955.025V266.83C955.025 256.905 952.514 249.432 947.491 244.409C942.589 239.267 935.653 236.696 926.685 236.696C919.988 236.696 914.129 238.072 909.107 240.822C904.204 243.453 900.378 247.339 897.627 252.481C894.996 257.503 893.681 263.602 893.681 270.776V320.281H880.946V226.114H893.143V251.943L891.17 247.1C894.159 240.284 898.943 234.963 905.519 231.136C912.096 227.19 919.929 225.217 929.016 225.217ZM1036.96 355.976C1028.35 355.976 1020.1 354.72 1012.2 352.209C1004.31 349.698 997.914 346.11 993.011 341.447L999.468 331.761C1003.89 335.707 1009.33 338.816 1015.79 341.088C1022.37 343.48 1029.3 344.675 1036.6 344.675C1048.56 344.675 1057.34 341.865 1062.96 336.245C1068.58 330.745 1071.39 322.135 1071.39 310.416V286.919L1073.19 270.776L1071.93 254.633V226.114H1084.13V308.802C1084.13 325.065 1080.12 336.963 1072.11 344.496C1064.22 352.149 1052.5 355.976 1036.96 355.976ZM1034.62 316.694C1025.66 316.694 1017.58 314.781 1010.41 310.954C1003.24 307.008 997.555 301.568 993.37 294.632C989.304 287.696 987.271 279.745 987.271 270.776C987.271 261.808 989.304 253.916 993.37 247.1C997.555 240.164 1003.24 234.783 1010.41 230.957C1017.58 227.13 1025.66 225.217 1034.62 225.217C1042.99 225.217 1050.53 226.951 1057.22 230.419C1063.92 233.886 1069.24 239.028 1073.19 245.844C1077.13 252.66 1079.11 260.971 1079.11 270.776C1079.11 280.582 1077.13 288.892 1073.19 295.708C1069.24 302.524 1063.92 307.726 1057.22 311.313C1050.53 314.9 1042.99 316.694 1034.62 316.694ZM1035.88 305.394C1042.82 305.394 1048.97 303.959 1054.35 301.089C1059.74 298.1 1063.98 294.034 1067.09 288.892C1070.2 283.631 1071.75 277.592 1071.75 270.776C1071.75 263.96 1070.2 257.981 1067.09 252.839C1063.98 247.698 1059.74 243.692 1054.35 240.822C1048.97 237.832 1042.82 236.338 1035.88 236.338C1029.06 236.338 1022.91 237.832 1017.41 240.822C1012.02 243.692 1007.78 247.698 1004.67 252.839C1001.68 257.981 1000.19 263.96 1000.19 270.776C1000.19 277.592 1001.68 283.631 1004.67 288.892C1007.78 294.034 1012.02 298.1 1017.41 301.089C1022.91 303.959 1029.06 305.394 1035.88 305.394ZM1154.19 321.178C1144.38 321.178 1135.77 319.146 1128.36 315.08C1120.94 310.895 1115.14 305.215 1110.96 298.04C1106.77 290.746 1104.68 282.435 1104.68 273.108C1104.68 263.781 1106.65 255.53 1110.6 248.355C1114.66 241.181 1120.17 235.56 1127.1 231.495C1134.16 227.31 1142.05 225.217 1150.78 225.217C1159.63 225.217 1167.46 227.25 1174.27 231.315C1181.21 235.262 1186.65 240.882 1190.6 248.176C1194.54 255.351 1196.52 263.661 1196.52 273.108C1196.52 273.706 1196.46 274.364 1196.34 275.081C1196.34 275.679 1196.34 276.337 1196.34 277.054H1114.37V267.548H1189.52L1184.5 271.314C1184.5 264.498 1183 258.46 1180.01 253.198C1177.14 247.817 1173.2 243.632 1168.18 240.643C1163.15 237.653 1157.35 236.158 1150.78 236.158C1144.32 236.158 1138.52 237.653 1133.38 240.643C1128.24 243.632 1124.23 247.817 1121.36 253.198C1118.49 258.579 1117.06 264.737 1117.06 271.673V273.646C1117.06 280.821 1118.61 287.158 1121.72 292.659C1124.95 298.04 1129.37 302.285 1134.99 305.394C1140.73 308.383 1147.25 309.878 1154.54 309.878C1160.28 309.878 1165.6 308.862 1170.51 306.829C1175.53 304.796 1179.83 301.687 1183.42 297.502L1190.6 305.753C1186.41 310.775 1181.15 314.602 1174.81 317.232C1168.59 319.863 1161.72 321.178 1154.19 321.178ZM1217.06 320.281V187.191H1229.79V320.281H1217.06ZM1304.1 320.281V194.725H1351.09C1361.73 194.725 1370.88 196.458 1378.54 199.926C1386.19 203.274 1392.05 208.177 1396.11 214.634C1400.3 220.972 1402.39 228.685 1402.39 237.773C1402.39 246.621 1400.3 254.274 1396.11 260.732C1392.05 267.069 1386.19 271.972 1378.54 275.44C1370.88 278.907 1361.73 280.641 1351.09 280.641H1311.45L1317.37 274.364V320.281H1304.1ZM1317.37 275.44L1311.45 268.983H1350.73C1363.29 268.983 1372.8 266.292 1379.25 260.911C1385.83 255.41 1389.12 247.698 1389.12 237.773C1389.12 227.728 1385.83 219.956 1379.25 214.455C1372.8 208.954 1363.29 206.204 1350.73 206.204H1311.45L1317.37 199.926V275.44ZM1481.16 320.281V299.475L1480.62 296.067V261.27C1480.62 253.258 1478.35 247.1 1473.8 242.795C1469.38 238.49 1462.74 236.338 1453.89 236.338C1447.79 236.338 1441.99 237.354 1436.49 239.387C1430.99 241.42 1426.33 244.11 1422.5 247.458L1416.76 237.952C1421.55 233.886 1427.29 230.777 1433.98 228.625C1440.68 226.353 1447.73 225.217 1455.15 225.217C1467.34 225.217 1476.73 228.266 1483.31 234.365C1490 240.344 1493.35 249.491 1493.35 261.808V320.281H1481.16ZM1448.69 321.178C1441.64 321.178 1435.48 320.042 1430.22 317.77C1425.07 315.379 1421.13 312.15 1418.38 308.085C1415.63 303.899 1414.25 299.116 1414.25 293.735C1414.25 288.832 1415.39 284.408 1417.66 280.462C1420.05 276.396 1423.88 273.168 1429.14 270.776C1434.52 268.265 1441.7 267.009 1450.66 267.009H1483.13V276.516H1451.02C1441.93 276.516 1435.6 278.13 1432.01 281.359C1428.54 284.587 1426.81 288.593 1426.81 293.376C1426.81 298.757 1428.9 303.062 1433.09 306.291C1437.27 309.519 1443.13 311.134 1450.66 311.134C1457.84 311.134 1464 309.519 1469.14 306.291C1474.4 302.943 1478.23 298.16 1480.62 291.941L1483.49 300.73C1481.1 306.949 1476.91 311.911 1470.93 315.618C1465.07 319.325 1457.66 321.178 1448.69 321.178ZM1547.85 321.178C1540.08 321.178 1532.73 320.102 1525.79 317.95C1518.85 315.678 1513.41 312.868 1509.47 309.519L1515.21 299.475C1519.03 302.345 1523.94 304.856 1529.92 307.008C1535.89 309.041 1542.17 310.058 1548.75 310.058C1557.72 310.058 1564.17 308.682 1568.12 305.932C1572.07 303.062 1574.04 299.296 1574.04 294.632C1574.04 291.164 1572.9 288.474 1570.63 286.56C1568.48 284.528 1565.61 283.033 1562.02 282.076C1558.44 281 1554.43 280.103 1550 279.386C1545.58 278.668 1541.16 277.831 1536.73 276.875C1532.43 275.918 1528.48 274.543 1524.89 272.749C1521.31 270.836 1518.38 268.265 1516.1 265.036C1513.95 261.808 1512.88 257.503 1512.88 252.122C1512.88 246.98 1514.31 242.376 1517.18 238.311C1520.05 234.245 1524.24 231.076 1529.74 228.804C1535.36 226.413 1542.17 225.217 1550.18 225.217C1556.28 225.217 1562.38 226.054 1568.48 227.728C1574.58 229.283 1579.6 231.375 1583.55 234.006L1577.99 244.23C1573.8 241.36 1569.32 239.327 1564.53 238.131C1559.75 236.816 1554.97 236.158 1550.18 236.158C1541.69 236.158 1535.42 237.653 1531.35 240.643C1527.4 243.512 1525.43 247.219 1525.43 251.763C1525.43 255.351 1526.51 258.161 1528.66 260.194C1530.93 262.226 1533.86 263.841 1537.45 265.036C1541.16 266.113 1545.16 267.009 1549.47 267.727C1553.89 268.444 1558.26 269.341 1562.56 270.417C1566.98 271.374 1570.99 272.749 1574.58 274.543C1578.29 276.217 1581.21 278.668 1583.37 281.897C1585.64 285.006 1586.78 289.131 1586.78 294.273C1586.78 299.774 1585.22 304.557 1582.11 308.623C1579.12 312.569 1574.7 315.678 1568.84 317.95C1563.1 320.102 1556.1 321.178 1547.85 321.178ZM1630.05 321.178C1622.28 321.178 1614.93 320.102 1607.99 317.95C1601.06 315.678 1595.61 312.868 1591.67 309.519L1597.41 299.475C1601.23 302.345 1606.14 304.856 1612.12 307.008C1618.1 309.041 1624.37 310.058 1630.95 310.058C1639.92 310.058 1646.38 308.682 1650.32 305.932C1654.27 303.062 1656.24 299.296 1656.24 294.632C1656.24 291.164 1655.1 288.474 1652.83 286.56C1650.68 284.528 1647.81 283.033 1644.22 282.076C1640.64 281 1636.63 280.103 1632.21 279.386C1627.78 278.668 1623.36 277.831 1618.93 276.875C1614.63 275.918 1610.68 274.543 1607.09 272.749C1603.51 270.836 1600.58 268.265 1598.3 265.036C1596.15 261.808 1595.08 257.503 1595.08 252.122C1595.08 246.98 1596.51 242.376 1599.38 238.311C1602.25 234.245 1606.44 231.076 1611.94 228.804C1617.56 226.413 1624.37 225.217 1632.38 225.217C1638.48 225.217 1644.58 226.054 1650.68 227.728C1656.78 229.283 1661.8 231.375 1665.75 234.006L1660.19 244.23C1656 241.36 1651.52 239.327 1646.73 238.131C1641.95 236.816 1637.17 236.158 1632.38 236.158C1623.89 236.158 1617.62 237.653 1613.55 240.643C1609.61 243.512 1607.63 247.219 1607.63 251.763C1607.63 255.351 1608.71 258.161 1610.86 260.194C1613.13 262.226 1616.06 263.841 1619.65 265.036C1623.36 266.113 1627.36 267.009 1631.67 267.727C1636.09 268.444 1640.46 269.341 1644.76 270.417C1649.19 271.374 1653.19 272.749 1656.78 274.543C1660.49 276.217 1663.42 278.668 1665.57 281.897C1667.84 285.006 1668.98 289.131 1668.98 294.273C1668.98 299.774 1667.42 304.557 1664.31 308.623C1661.32 312.569 1656.9 315.678 1651.04 317.95C1645.3 320.102 1638.3 321.178 1630.05 321.178Z" fill="white"/>
</g>
<defs>
<clipPath id="clip0_13_992">
<rect width="2560" height="512" fill="white"/>
</clipPath>
<clipPath id="clip1_13_992">
<rect width="483" height="124.172" fill="white" transform="translate(76.1953 53)"/>
</clipPath>
<clipPath id="clip2_13_992">
<rect width="344" height="111.032" fill="white" transform="translate(76.1953 345)"/>
</clipPath>
</defs>
</svg>
