<svg width="2560" height="512" viewBox="0 0 2560 512" fill="none" xmlns="http://www.w3.org/2000/svg">
<g clip-path="url(#clip0_12_1941)">
<rect width="2560" height="512" fill="#1F1B36"/>
<g clip-path="url(#clip1_12_1941)">
<path d="M1569.61 0H475.56V145.9H1569.61V0Z" fill="#E4E5F1"/>
<path d="M1569.61 365.173H475.56V511.073H1569.61V365.173Z" fill="#FF0080"/>
</g>
<g clip-path="url(#clip2_12_1941)">
<path d="M2559.61 0H1465.56V145.9H2559.61V0Z" fill="#E4E5F1"/>
<path d="M2559.61 365.173H1465.56V511.073H2559.61V365.173Z" fill="#E4E5F1"/>
<path fill-rule="evenodd" clip-rule="evenodd" d="M1587.81 511.073H1465.56V365.173H1587.81C1784.12 365.173 1873.15 282.393 1962.41 201.484C2074.67 99.7282 2187.09 0.00313453 2431.09 0H2559.62V145.9H2431.09C2237.28 145.906 2149.57 228.761 2060.4 309.588C1948.22 411.266 1834.52 511.073 1587.81 511.073Z" fill="#FF0080"/>
</g>
<g clip-path="url(#clip3_12_1941)">
<path d="M1094.61 -1H0.560059V144.9H1094.61V-1Z" fill="#E4E5F1"/>
<path d="M1094.61 364.173H0.560059V510.073H1094.61V364.173Z" fill="#FF0080"/>
</g>
<path d="M97.4901 301V211.4H111.058V288.84H155.218V301H97.4901ZM196.64 302.536C190.496 302.536 185.077 301.171 180.384 298.44C175.691 295.624 172.021 291.741 169.376 286.792C166.731 281.843 165.408 276.083 165.408 269.512C165.408 262.856 166.688 257.011 169.248 251.976C171.893 246.941 175.563 243.016 180.256 240.2C185.035 237.384 190.539 235.976 196.768 235.976C202.912 235.976 208.203 237.384 212.64 240.2C217.077 242.931 220.491 246.6 222.88 251.208C225.355 255.816 226.592 260.893 226.592 266.44C226.592 267.293 226.592 268.232 226.592 269.256C226.592 270.195 226.549 271.261 226.464 272.456H178.72C179.147 278.344 181.067 282.824 184.48 285.896C187.893 288.883 191.904 290.376 196.512 290.376C200.523 290.376 203.68 289.565 205.984 287.944C208.373 286.237 210.123 283.933 211.232 281.032H224.928C223.392 287.091 220.192 292.211 215.328 296.392C210.464 300.488 204.235 302.536 196.64 302.536ZM196.64 247.752C192.459 247.752 188.747 249.032 185.504 251.592C182.261 254.067 180.171 257.565 179.232 262.088H213.024C212.683 257.821 211.019 254.365 208.032 251.72C205.045 249.075 201.248 247.752 196.64 247.752ZM264.942 227.784C261.955 227.784 259.438 226.845 257.39 224.968C255.427 223.005 254.446 220.616 254.446 217.8C254.446 214.984 255.427 212.637 257.39 210.76C259.438 208.883 261.955 207.944 264.942 207.944C268.014 207.944 270.531 208.883 272.494 210.76C274.542 212.637 275.566 214.984 275.566 217.8C275.566 220.616 274.542 223.005 272.494 224.968C270.531 226.845 268.014 227.784 264.942 227.784ZM239.47 301V289.224H259.438V253.512C259.438 250.696 258.073 249.288 255.342 249.288H241.262V237.512H257.774C263.065 237.512 266.905 238.749 269.294 241.224C271.769 243.613 273.006 247.453 273.006 252.744V289.224H292.974V301H239.47ZM335.164 282.696C331.239 282.696 327.612 282.056 324.284 280.776L321.084 284.616C320.06 285.896 319.761 287.133 320.188 288.328C320.7 289.437 321.852 289.992 323.644 289.992H340.412C347.836 289.992 353.809 291.571 358.332 294.728C362.94 297.8 365.244 302.536 365.244 308.936C365.244 312.947 364.22 316.573 362.172 319.816C360.209 323.144 357.009 325.789 352.572 327.752C348.22 329.715 342.46 330.696 335.292 330.696C326.247 330.696 318.951 328.989 313.404 325.576C307.943 322.248 305.212 317.213 305.212 310.472C305.212 308.083 305.767 305.864 306.876 303.816C308.071 301.853 309.607 300.061 311.484 298.44C309.18 296.733 307.772 294.344 307.26 291.272C306.833 288.115 307.772 285.085 310.076 282.184L315.708 275.016C311.697 270.749 309.692 265.501 309.692 259.272C309.692 255.091 310.673 251.251 312.636 247.752C314.684 244.168 317.585 241.309 321.34 239.176C325.18 237.043 329.788 235.976 335.164 235.976C338.663 235.976 341.905 236.488 344.892 237.512H368.828V246.472L357.692 247.112V248.264C359.484 251.592 360.38 255.261 360.38 259.272C360.38 263.453 359.356 267.336 357.308 270.92C355.345 274.504 352.487 277.363 348.732 279.496C344.977 281.629 340.455 282.696 335.164 282.696ZM335.164 271.816C338.919 271.816 341.991 270.707 344.38 268.488C346.855 266.269 348.092 263.197 348.092 259.272C348.092 255.517 346.855 252.531 344.38 250.312C341.991 248.093 338.919 246.984 335.164 246.984C331.324 246.984 328.167 248.093 325.692 250.312C323.303 252.531 322.108 255.517 322.108 259.272C322.108 263.197 323.303 266.269 325.692 268.488C328.167 270.707 331.324 271.816 335.164 271.816ZM318.012 309.448C318.012 312.861 319.633 315.379 322.876 317C326.204 318.621 330.343 319.432 335.292 319.432C340.583 319.432 344.764 318.536 347.836 316.744C350.908 314.952 352.444 312.435 352.444 309.192C352.444 306.461 351.335 304.285 349.116 302.664C346.897 301.128 343.143 300.36 337.852 300.36H322.876C319.633 302.92 318.012 305.949 318.012 309.448ZM377.866 301V208.84H391.434V246.984C393.141 243.827 395.871 241.224 399.626 239.176C403.381 237.043 407.605 235.976 412.298 235.976C420.149 235.976 426.122 238.365 430.218 243.144C434.314 247.837 436.362 254.621 436.362 263.496V301H422.794V265.416C422.794 260.125 421.514 256.029 418.954 253.128C416.394 250.227 412.853 248.776 408.33 248.776C403.637 248.776 399.626 250.355 396.298 253.512C393.055 256.669 391.434 261.235 391.434 267.208V301H377.866ZM484.184 301C477.955 301 473.005 299.507 469.336 296.52C465.667 293.448 463.832 288.029 463.832 280.264V249.032H447.832V237.512H457.304C461.656 237.512 464.216 235.379 464.984 231.112L466.904 220.872H477.4V237.512H502.488V249.032H477.4V280.008C477.4 283.336 478.125 285.683 479.576 287.048C481.112 288.328 483.715 288.968 487.384 288.968H502.232V301H484.184ZM547.622 302.536C541.563 302.536 536.145 301.171 531.366 298.44C526.587 295.709 522.833 291.869 520.102 286.92C517.371 281.885 516.006 275.997 516.006 269.256C516.006 262.515 517.371 256.669 520.102 251.72C522.833 246.685 526.587 242.803 531.366 240.072C536.145 237.341 541.606 235.976 547.75 235.976C553.894 235.976 559.313 237.341 564.006 240.072C568.785 242.803 572.497 246.685 575.142 251.72C577.873 256.669 579.238 262.515 579.238 269.256C579.238 275.997 577.873 281.885 575.142 286.92C572.411 291.869 568.657 295.709 563.878 298.44C559.185 301.171 553.766 302.536 547.622 302.536ZM547.622 289.608C550.865 289.608 553.851 288.883 556.582 287.432C559.313 285.981 561.489 283.763 563.11 280.776C564.817 277.704 565.67 273.864 565.67 269.256C565.67 264.563 564.817 260.723 563.11 257.736C561.489 254.749 559.313 252.531 556.582 251.08C553.937 249.629 550.993 248.904 547.75 248.904C544.507 248.904 541.521 249.629 538.79 251.08C536.059 252.531 533.841 254.749 532.134 257.736C530.513 260.723 529.702 264.563 529.702 269.256C529.702 276.253 531.451 281.416 534.95 284.744C538.534 287.987 542.758 289.608 547.622 289.608ZM589.556 301V237.512H601.332L602.484 246.984H603.124C604.831 243.912 607.476 241.309 611.06 239.176C614.644 237.043 618.783 235.976 623.476 235.976C631.241 235.976 637.087 238.323 641.012 243.016C644.937 247.709 646.9 254.621 646.9 263.752V301H633.332V265.416C633.332 260.125 632.223 256.029 630.004 253.128C627.785 250.227 624.287 248.776 619.508 248.776C614.815 248.776 610.889 250.355 607.732 253.512C604.66 256.669 603.124 261.235 603.124 267.208V301H589.556ZM759.568 302.536C753.253 302.536 747.707 301.384 742.928 299.08C738.235 296.776 734.523 293.491 731.792 289.224C729.147 284.957 727.781 279.88 727.696 273.992H742.032C742.117 278.515 743.653 282.397 746.64 285.64C749.712 288.797 753.979 290.376 759.44 290.376C764.475 290.376 768.4 289.224 771.216 286.92C774.032 284.531 775.44 281.459 775.44 277.704C775.44 274.547 774.587 271.944 772.88 269.896C771.259 267.763 768.699 265.885 765.2 264.264C761.701 262.557 757.179 260.808 751.632 259.016C744.208 256.627 738.747 253.341 735.248 249.16C731.749 244.893 730 239.688 730 233.544C730 226.461 732.56 220.744 737.68 216.392C742.8 212.04 749.84 209.864 758.8 209.864C767.504 209.864 774.501 212.125 779.792 216.648C785.083 221.085 787.813 227.272 787.984 235.208H773.52C773.52 233.075 772.923 231.027 771.728 229.064C770.533 227.016 768.827 225.352 766.608 224.072C764.389 222.707 761.659 222.024 758.416 222.024C754.405 221.939 751.035 222.92 748.304 224.968C745.573 226.931 744.208 229.619 744.208 233.032C744.208 237.213 745.872 240.499 749.2 242.888C752.528 245.192 757.947 247.581 765.456 250.056C770.149 251.592 774.288 253.469 777.872 255.688C781.541 257.821 784.4 260.595 786.448 264.008C788.581 267.336 789.648 271.603 789.648 276.808C789.648 281.587 788.453 285.939 786.064 289.864C783.675 293.704 780.219 296.776 775.696 299.08C771.259 301.384 765.883 302.536 759.568 302.536ZM835.934 301C829.705 301 824.755 299.507 821.086 296.52C817.417 293.448 815.582 288.029 815.582 280.264V249.032H799.582V237.512H809.054C813.406 237.512 815.966 235.379 816.734 231.112L818.654 220.872H829.15V237.512H854.238V249.032H829.15V280.008C829.15 283.336 829.875 285.683 831.326 287.048C832.862 288.328 835.465 288.968 839.134 288.968H853.982V301H835.934ZM900.14 302.536C893.996 302.536 888.577 301.171 883.884 298.44C879.191 295.624 875.521 291.741 872.876 286.792C870.231 281.843 868.908 276.083 868.908 269.512C868.908 262.856 870.188 257.011 872.748 251.976C875.393 246.941 879.063 243.016 883.756 240.2C888.535 237.384 894.039 235.976 900.268 235.976C906.412 235.976 911.703 237.384 916.14 240.2C920.577 242.931 923.991 246.6 926.38 251.208C928.855 255.816 930.092 260.893 930.092 266.44C930.092 267.293 930.092 268.232 930.092 269.256C930.092 270.195 930.049 271.261 929.964 272.456H882.22C882.647 278.344 884.567 282.824 887.98 285.896C891.393 288.883 895.404 290.376 900.012 290.376C904.023 290.376 907.18 289.565 909.484 287.944C911.873 286.237 913.623 283.933 914.732 281.032H928.428C926.892 287.091 923.692 292.211 918.828 296.392C913.964 300.488 907.735 302.536 900.14 302.536ZM900.14 247.752C895.959 247.752 892.247 249.032 889.004 251.592C885.761 254.067 883.671 257.565 882.732 262.088H916.524C916.183 257.821 914.519 254.365 911.532 251.72C908.545 249.075 904.748 247.752 900.14 247.752ZM940.154 329.16V237.512H951.93L952.954 247.24H953.722C955.429 244.083 957.989 241.437 961.402 239.304C964.901 237.085 969.039 235.976 973.818 235.976C978.767 235.976 983.29 237.256 987.386 239.816C991.482 242.291 994.725 246.003 997.114 250.952C999.589 255.816 1000.83 261.917 1000.83 269.256C1000.83 276.509 999.546 282.611 996.986 287.56C994.511 292.509 991.141 296.264 986.874 298.824C982.607 301.299 977.829 302.536 972.538 302.536C967.845 302.536 963.919 301.597 960.762 299.72C957.605 297.843 955.258 295.709 953.722 293.32V329.16H940.154ZM970.234 289.608C975.013 289.608 978.981 287.901 982.138 284.488C985.381 281.075 987.002 275.955 987.002 269.128C987.002 262.301 985.381 257.224 982.138 253.896C978.981 250.568 975.013 248.904 970.234 248.904C965.37 248.904 961.317 250.611 958.074 254.024C954.917 257.352 953.338 262.429 953.338 269.256C953.338 275.997 954.917 281.075 958.074 284.488C961.317 287.901 965.37 289.608 970.234 289.608ZM1010.5 329.16V317.256H1020.87C1023.86 317.256 1025.99 316.616 1027.27 315.336C1028.64 314.141 1029.32 312.093 1029.32 309.192V249.032H1013.19V237.512H1029.32V228.68C1029.32 221.597 1031.07 216.52 1034.57 213.448C1038.07 210.376 1043.06 208.84 1049.54 208.84H1065.03V220.744H1051.21C1048.22 220.744 1046.09 221.341 1044.81 222.536C1043.53 223.731 1042.89 225.821 1042.89 228.808V237.512H1065.03V249.032H1042.89V309.32C1042.89 316.403 1041.14 321.48 1037.64 324.552C1034.14 327.624 1029.11 329.16 1022.54 329.16H1010.5ZM1110.42 302.536C1104.36 302.536 1098.94 301.171 1094.17 298.44C1089.39 295.709 1085.63 291.869 1082.9 286.92C1080.17 281.885 1078.81 275.997 1078.81 269.256C1078.81 262.515 1080.17 256.669 1082.9 251.72C1085.63 246.685 1089.39 242.803 1094.17 240.072C1098.94 237.341 1104.41 235.976 1110.55 235.976C1116.69 235.976 1122.11 237.341 1126.81 240.072C1131.58 242.803 1135.3 246.685 1137.94 251.72C1140.67 256.669 1142.04 262.515 1142.04 269.256C1142.04 275.997 1140.67 281.885 1137.94 286.92C1135.21 291.869 1131.46 295.709 1126.68 298.44C1121.98 301.171 1116.57 302.536 1110.42 302.536ZM1110.42 289.608C1113.66 289.608 1116.65 288.883 1119.38 287.432C1122.11 285.981 1124.29 283.763 1125.91 280.776C1127.62 277.704 1128.47 273.864 1128.47 269.256C1128.47 264.563 1127.62 260.723 1125.91 257.736C1124.29 254.749 1122.11 252.531 1119.38 251.08C1116.74 249.629 1113.79 248.904 1110.55 248.904C1107.31 248.904 1104.32 249.629 1101.59 251.08C1098.86 252.531 1096.64 254.749 1094.93 257.736C1093.31 260.723 1092.5 264.563 1092.5 269.256C1092.5 276.253 1094.25 281.416 1097.75 284.744C1101.33 287.987 1105.56 289.608 1110.42 289.608ZM1152.23 301V289.224H1167.72V253.512C1167.72 250.696 1166.35 249.288 1163.62 249.288H1153.51V237.512H1168.74C1172.24 237.512 1175.1 238.536 1177.32 240.584C1179.53 242.547 1180.64 245.32 1180.64 248.904V250.44H1181.28C1182.22 245.661 1184.23 242.077 1187.3 239.688C1190.46 237.213 1195.02 235.976 1201 235.976H1210.85V250.312H1197.03C1191.99 250.312 1188.11 252.061 1185.38 255.56C1182.65 259.059 1181.28 263.24 1181.28 268.104V289.224H1201V301H1152.23ZM1247.67 302.536C1242.38 302.536 1237.64 301.299 1233.46 298.824C1229.28 296.264 1225.95 292.509 1223.47 287.56C1221.08 282.611 1219.89 276.509 1219.89 269.256C1219.89 262.003 1221.13 255.901 1223.6 250.952C1226.08 246.003 1229.4 242.291 1233.59 239.816C1237.85 237.256 1242.59 235.976 1247.79 235.976C1252.66 235.976 1256.67 236.915 1259.83 238.792C1262.98 240.584 1265.33 242.888 1266.87 245.704V208.84H1280.43V301H1268.79L1267.63 291.656H1266.87C1265.16 294.984 1262.73 297.629 1259.57 299.592C1256.5 301.555 1252.53 302.536 1247.67 302.536ZM1250.48 289.608C1255.35 289.608 1259.36 287.901 1262.51 284.488C1265.76 281.075 1267.38 275.997 1267.38 269.256C1267.38 262.429 1265.76 257.352 1262.51 254.024C1259.36 250.611 1255.35 248.904 1250.48 248.904C1245.62 248.904 1241.56 250.611 1238.32 254.024C1235.16 257.437 1233.59 262.557 1233.59 269.384C1233.59 276.125 1235.16 281.203 1238.32 284.616C1241.56 287.944 1245.62 289.608 1250.48 289.608ZM1363.02 301V211.4H1392.33C1399.33 211.4 1405.09 212.595 1409.61 214.984C1414.22 217.373 1417.64 220.616 1419.85 224.712C1422.16 228.723 1423.31 233.288 1423.31 238.408C1423.31 244.211 1421.82 249.373 1418.83 253.896C1415.93 258.333 1411.45 261.576 1405.39 263.624L1424.21 301H1408.46L1391.31 265.544H1376.59V301H1363.02ZM1376.59 253.256H1391.57C1397.71 253.256 1402.19 251.891 1405.01 249.16C1407.91 246.429 1409.36 242.845 1409.36 238.408C1409.36 233.885 1407.95 230.301 1405.13 227.656C1402.32 224.925 1397.75 223.56 1391.44 223.56H1376.59V253.256ZM1462.17 302.536C1456.11 302.536 1450.69 301.171 1445.92 298.44C1441.14 295.709 1437.38 291.869 1434.65 286.92C1431.92 281.885 1430.56 275.997 1430.56 269.256C1430.56 262.515 1431.92 256.669 1434.65 251.72C1437.38 246.685 1441.14 242.803 1445.92 240.072C1450.69 237.341 1456.16 235.976 1462.3 235.976C1468.44 235.976 1473.86 237.341 1478.56 240.072C1483.33 242.803 1487.05 246.685 1489.69 251.72C1492.42 256.669 1493.79 262.515 1493.79 269.256C1493.79 275.997 1492.42 281.885 1489.69 286.92C1486.96 291.869 1483.21 295.709 1478.43 298.44C1473.73 301.171 1468.32 302.536 1462.17 302.536ZM1462.17 289.608C1465.41 289.608 1468.4 288.883 1471.13 287.432C1473.86 285.981 1476.04 283.763 1477.66 280.776C1479.37 277.704 1480.22 273.864 1480.22 269.256C1480.22 264.563 1479.37 260.723 1477.66 257.736C1476.04 254.749 1473.86 252.531 1471.13 251.08C1468.49 249.629 1465.54 248.904 1462.3 248.904C1459.06 248.904 1456.07 249.629 1453.34 251.08C1450.61 252.531 1448.39 254.749 1446.68 257.736C1445.06 260.723 1444.25 264.563 1444.25 269.256C1444.25 276.253 1446 281.416 1449.5 284.744C1453.08 287.987 1457.31 289.608 1462.17 289.608ZM1526.76 302.536C1521.73 302.536 1517.5 301.683 1514.09 299.976C1510.68 298.184 1508.12 295.837 1506.41 292.936C1504.7 289.949 1503.85 286.707 1503.85 283.208C1503.85 276.979 1506.11 272.115 1510.63 268.616C1515.24 265.117 1521.73 263.368 1530.09 263.368H1546.47V261.96C1546.47 252.403 1542.04 247.624 1533.16 247.624C1529.49 247.624 1526.38 248.435 1523.82 250.056C1521.34 251.592 1519.68 254.109 1518.83 257.608H1505.26C1505.94 250.952 1508.8 245.704 1513.83 241.864C1518.95 237.939 1525.4 235.976 1533.16 235.976C1542.55 235.976 1549.38 238.28 1553.64 242.888C1557.91 247.496 1560.04 253.853 1560.04 261.96V301H1548.52L1547.37 291.656H1546.47C1544.6 294.643 1542.25 297.203 1539.43 299.336C1536.62 301.469 1532.39 302.536 1526.76 302.536ZM1529.32 291.144C1534.87 291.144 1539.01 289.48 1541.74 286.152C1544.55 282.739 1546.09 278.429 1546.35 273.224H1531.5C1526.63 273.224 1523.18 274.035 1521.13 275.656C1519.17 277.192 1518.19 279.368 1518.19 282.184C1518.19 285 1519.17 287.219 1521.13 288.84C1523.18 290.376 1525.91 291.144 1529.32 291.144ZM1599.42 302.536C1594.13 302.536 1589.39 301.299 1585.21 298.824C1581.03 296.264 1577.7 292.509 1575.22 287.56C1572.83 282.611 1571.64 276.509 1571.64 269.256C1571.64 262.003 1572.88 255.901 1575.35 250.952C1577.83 246.003 1581.15 242.291 1585.34 239.816C1589.6 237.256 1594.34 235.976 1599.54 235.976C1604.41 235.976 1608.42 236.915 1611.58 238.792C1614.73 240.584 1617.08 242.888 1618.62 245.704V208.84H1632.18V301H1620.54L1619.38 291.656H1618.62C1616.91 294.984 1614.48 297.629 1611.32 299.592C1608.25 301.555 1604.28 302.536 1599.42 302.536ZM1602.23 289.608C1607.1 289.608 1611.11 287.901 1614.26 284.488C1617.51 281.075 1619.13 275.997 1619.13 269.256C1619.13 262.429 1617.51 257.352 1614.26 254.024C1611.11 250.611 1607.1 248.904 1602.23 248.904C1597.37 248.904 1593.31 250.611 1590.07 254.024C1586.91 257.437 1585.34 262.557 1585.34 269.384C1585.34 276.125 1586.91 281.203 1590.07 284.616C1593.31 287.944 1597.37 289.608 1602.23 289.608Z" fill="#E4E5F1"/>
</g>
<defs>
<clipPath id="clip0_12_1941">
<rect width="2560" height="512" fill="white"/>
</clipPath>
<clipPath id="clip1_12_1941">
<rect width="1095.4" height="512.055" fill="white" transform="translate(475.122)"/>
</clipPath>
<clipPath id="clip2_12_1941">
<rect width="1095.4" height="512.055" fill="white" transform="translate(1465.12)"/>
</clipPath>
<clipPath id="clip3_12_1941">
<rect width="1095.4" height="512.055" fill="white" transform="translate(0.12207 -1)"/>
</clipPath>
</defs>
</svg>
