<svg width="2560" height="512" viewBox="0 0 2560 512" fill="none" xmlns="http://www.w3.org/2000/svg">
<g clip-path="url(#clip0_13_1123)">
<rect width="2560" height="512" fill="#263443"/>
<circle cx="2338.5" cy="179.5" r="320" fill="#E5292D" stroke="white" stroke-width="25"/>
<circle cx="2515" cy="512" r="256.5" fill="#E5292D" stroke="white" stroke-width="25"/>
<circle cx="270.695" cy="255.5" r="409" fill="#E5292D" stroke="white" stroke-width="25"/>
<g clip-path="url(#clip1_13_1123)">
<path d="M76.2763 78.7782H94.8308V88.9443C94.8308 88.9443 110.549 77.1443 123.513 77.1443C137.125 77.1443 149.927 84.315 160.298 95.9335C169.747 86.3103 179.338 76.8721 197.893 76.8721C219.04 76.8721 231.842 92.2119 231.842 92.2119C238.123 99.2488 244.319 109.64 244.319 121.803V174.902H225.603V121.984C225.603 119.338 221.39 95.8427 197.893 95.8427C175.287 95.8427 170.021 117.332 170.021 122.438V174.993H151.385V120.986C151.385 116.35 144.741 95.8427 123.513 95.8427C102.285 95.8427 96.5322 114.904 96.5322 119.806V175.628H76.1953L76.2763 78.7782Z" fill="white"/>
<path d="M300.955 78.5962C286.569 78.5962 274.339 83.6815 265.948 93.6026C255.872 105.515 253.637 118.154 253.637 125.887C253.637 167.025 287.551 177.172 299.009 177.172C325.018 177.172 337.981 158.293 337.981 158.293L322.69 149.209C316.164 155.536 309.404 160.05 299.222 160.044C286.688 160.037 271.822 146.781 271.822 131.547H345.91C345.91 93.8254 320.125 78.5962 300.955 78.5962ZM300.353 96.248C319.947 96.248 325.217 116.017 325.217 116.017H273.654C273.654 116.017 280.759 96.248 300.353 96.248Z" fill="white"/>
<path d="M408.984 174.588L404.098 156.385H387.563C380.662 156.385 374.363 149.768 374.363 143.394V97.3858H403.612V78.2337H373.309V53H356.254V142.973C356.254 161.763 370.557 174.595 383.161 174.592L408.984 174.588Z" fill="white"/>
<path d="M446.311 79.3979H468.081L463.974 96.569H447.808C437.048 96.569 433.266 107.717 433.266 115.08V174.63H415.684V109.095C415.684 97.6033 425.239 79.3979 446.311 79.3979Z" fill="white"/>
<path d="M510.11 172.024C535.134 172.024 555.42 151.574 555.42 126.348C555.42 101.122 535.134 80.6721 510.11 80.6721C485.087 80.6721 464.801 101.122 464.801 126.348C464.801 151.574 485.087 172.024 510.11 172.024Z" stroke="white" stroke-width="7.58208" stroke-miterlimit="1.5" stroke-linecap="round" stroke-linejoin="round"/>
<path d="M510.109 157.615C527.239 157.615 541.125 143.616 541.125 126.348C541.125 109.08 527.239 95.0818 510.109 95.0818C492.98 95.0818 479.094 109.08 479.094 126.348C479.094 143.616 492.98 157.615 510.109 157.615Z" stroke="white" stroke-width="7.58499" stroke-miterlimit="1.5" stroke-linecap="round" stroke-linejoin="round"/>
<path d="M510.11 172.024C535.134 172.024 555.42 151.574 555.42 126.348C555.42 101.122 535.134 80.6721 510.11 80.6721C485.087 80.6721 464.801 101.122 464.801 126.348C464.801 151.574 485.087 172.024 510.11 172.024Z" stroke="white" stroke-width="7.58208" stroke-miterlimit="1.5" stroke-linecap="round" stroke-linejoin="round"/>
<path d="M510.109 157.615C527.239 157.615 541.125 143.616 541.125 126.348C541.125 109.08 527.239 95.0818 510.109 95.0818C492.98 95.0818 479.094 109.08 479.094 126.348C479.094 143.616 492.98 157.615 510.109 157.615Z" stroke="white" stroke-width="7.58499" stroke-miterlimit="1.5" stroke-linecap="round" stroke-linejoin="round"/>
</g>
<g clip-path="url(#clip2_13_1123)">
<path fill-rule="evenodd" clip-rule="evenodd" d="M110.397 421.83L76.6914 389.115L121.302 345.496L138.155 362.349L129.233 371.271L121.302 363.34L95.5271 389.115L119.32 413.403L110.397 421.83Z" fill="white"/>
<path fill-rule="evenodd" clip-rule="evenodd" d="M111.386 388.124L120.308 379.202L153.519 412.412L108.908 456.032L92.0547 439.179L100.977 430.256L108.908 438.187L134.683 411.916L111.386 388.124Z" fill="white"/>
<path d="M200.48 437.918C196.166 437.918 192.724 436.935 190.154 434.968C187.617 432.969 186.126 430.162 185.681 426.545H191.63C191.915 428.639 192.851 430.273 194.437 431.447C196.023 432.589 198.101 433.16 200.671 433.16C202.796 433.16 204.414 432.779 205.524 432.018C206.666 431.225 207.237 430.13 207.237 428.734C207.237 427.497 206.889 426.498 206.191 425.736C205.493 424.975 204.319 424.357 202.669 423.881L196.483 422.025C193.343 421.073 191.027 419.82 189.536 418.266C188.077 416.711 187.347 414.76 187.347 412.413C187.347 410.446 187.855 408.733 188.87 407.274C189.885 405.814 191.312 404.688 193.152 403.895C195.024 403.102 197.197 402.705 199.671 402.705C203.478 402.705 206.508 403.641 208.76 405.513C211.044 407.353 212.345 409.859 212.662 413.031H206.714C206.365 411.128 205.572 409.732 204.335 408.844C203.098 407.924 201.432 407.464 199.338 407.464C197.498 407.464 196.039 407.829 194.961 408.558C193.882 409.288 193.343 410.287 193.343 411.556C193.343 412.603 193.66 413.491 194.294 414.221C194.961 414.951 196.182 415.585 197.958 416.124L204.24 418.028C207.38 418.948 209.664 420.201 211.092 421.787C212.519 423.373 213.233 425.388 213.233 427.83C213.233 431.066 212.107 433.556 209.855 435.301C207.634 437.046 204.509 437.918 200.48 437.918ZM228.498 437.966C225.516 437.966 223.311 437.268 221.884 435.872C220.488 434.445 219.79 432.319 219.79 429.496V407.702L225.833 405.465V429.638C225.833 430.812 226.15 431.685 226.785 432.256C227.419 432.827 228.419 433.112 229.783 433.112C230.322 433.112 230.798 433.08 231.21 433.017C231.654 432.922 232.067 432.811 232.447 432.684V437.347C232.067 437.538 231.528 437.68 230.83 437.776C230.132 437.902 229.354 437.966 228.498 437.966ZM215.127 417.933V413.222H232.447V417.933H215.127ZM247.086 437.966C244.516 437.966 242.264 437.427 240.329 436.348C238.425 435.269 236.934 433.778 235.856 431.875C234.809 429.972 234.285 427.783 234.285 425.308C234.285 422.834 234.809 420.661 235.856 418.789C236.934 416.886 238.425 415.411 240.329 414.364C242.232 413.285 244.453 412.746 246.991 412.746C249.402 412.746 251.495 413.253 253.272 414.269C255.048 415.252 256.428 416.648 257.412 418.456C258.395 420.264 258.887 422.374 258.887 424.785C258.887 425.229 258.871 425.641 258.839 426.022C258.808 426.403 258.76 426.783 258.697 427.164H237.997V422.977H254.081L252.844 424.119C252.844 421.835 252.32 420.121 251.273 418.979C250.226 417.837 248.767 417.266 246.895 417.266C244.865 417.266 243.247 417.964 242.042 419.36C240.868 420.756 240.281 422.77 240.281 425.403C240.281 428.005 240.868 430.003 242.042 431.399C243.247 432.763 244.945 433.445 247.133 433.445C248.402 433.445 249.513 433.207 250.464 432.731C251.416 432.256 252.114 431.526 252.558 430.543H258.221C257.428 432.827 256.079 434.635 254.176 435.967C252.304 437.3 249.941 437.966 247.086 437.966ZM277.221 437.966C274.905 437.966 273.018 437.427 271.558 436.348C270.131 435.238 269.242 433.715 268.894 431.78L269.369 431.732V447.245H263.374V413.222H269.227V418.694L268.751 418.599C269.195 416.791 270.21 415.363 271.796 414.316C273.382 413.269 275.317 412.746 277.602 412.746C279.759 412.746 281.63 413.269 283.217 414.316C284.835 415.331 286.088 416.775 286.976 418.646C287.864 420.518 288.308 422.723 288.308 425.261C288.308 427.83 287.848 430.067 286.928 431.97C286.008 433.874 284.723 435.349 283.074 436.396C281.424 437.442 279.473 437.966 277.221 437.966ZM275.698 433.017C277.633 433.017 279.172 432.351 280.314 431.018C281.456 429.654 282.027 427.751 282.027 425.308C282.027 422.866 281.44 420.978 280.266 419.646C279.124 418.313 277.586 417.647 275.651 417.647C273.747 417.647 272.209 418.329 271.035 419.693C269.861 421.026 269.274 422.913 269.274 425.356C269.274 427.799 269.861 429.686 271.035 431.018C272.209 432.351 273.763 433.017 275.698 433.017ZM294.46 437.49V410.985C294.46 408.32 295.19 406.29 296.649 404.894C298.14 403.467 300.361 402.753 303.311 402.753C303.977 402.753 304.532 402.785 304.976 402.848C305.42 402.912 305.849 403.007 306.261 403.134V407.797C306.039 407.702 305.754 407.638 305.405 407.607C305.056 407.543 304.659 407.511 304.215 407.511C302.946 407.511 301.994 407.829 301.36 408.463C300.757 409.066 300.456 409.954 300.456 411.128V437.49H294.46ZM290.082 417.933V413.222H305.738V417.933H290.082ZM320.14 437.966C317.57 437.966 315.302 437.427 313.335 436.348C311.4 435.269 309.893 433.778 308.814 431.875C307.736 429.94 307.196 427.735 307.196 425.261C307.196 422.786 307.736 420.613 308.814 418.741C309.893 416.87 311.4 415.411 313.335 414.364C315.302 413.285 317.57 412.746 320.14 412.746C322.741 412.746 325.009 413.285 326.944 414.364C328.879 415.411 330.386 416.87 331.465 418.741C332.543 420.613 333.083 422.786 333.083 425.261C333.083 427.735 332.528 429.94 331.417 431.875C330.339 433.778 328.832 435.269 326.897 436.348C324.962 437.427 322.709 437.966 320.14 437.966ZM320.14 433.16C321.409 433.16 322.551 432.843 323.566 432.208C324.581 431.542 325.374 430.622 325.945 429.448C326.516 428.243 326.802 426.831 326.802 425.213C326.802 422.834 326.167 420.962 324.898 419.598C323.661 418.234 322.075 417.552 320.14 417.552C318.204 417.552 316.602 418.234 315.334 419.598C314.065 420.962 313.43 422.834 313.43 425.213C313.43 426.831 313.716 428.243 314.287 429.448C314.889 430.622 315.682 431.542 316.666 432.208C317.681 432.843 318.839 433.16 320.14 433.16ZM337.493 437.49V413.222H343.346V419.075H343.489V437.49H337.493ZM343.489 424.832L342.87 419.075C343.441 417.013 344.409 415.442 345.773 414.364C347.137 413.285 348.771 412.746 350.674 412.746C351.34 412.746 351.816 412.809 352.101 412.936V418.599C351.943 418.535 351.721 418.504 351.435 418.504C351.15 418.472 350.801 418.456 350.388 418.456C348.073 418.456 346.344 418.964 345.202 419.979C344.06 420.994 343.489 422.612 343.489 424.832ZM372.798 437.49V432.018L373.273 432.113C372.861 433.889 371.862 435.317 370.276 436.396C368.689 437.442 366.802 437.966 364.613 437.966C362.392 437.966 360.457 437.458 358.808 436.443C357.19 435.396 355.937 433.937 355.048 432.065C354.16 430.194 353.716 427.989 353.716 425.451C353.716 422.881 354.176 420.645 355.096 418.741C356.016 416.838 357.301 415.363 358.95 414.316C360.632 413.269 362.583 412.746 364.803 412.746C367.087 412.746 368.975 413.301 370.466 414.411C371.957 415.49 372.877 416.997 373.226 418.932L372.607 418.979V403.229H378.651V437.49H372.798ZM366.374 433.065C368.309 433.065 369.847 432.398 370.989 431.066C372.163 429.702 372.75 427.799 372.75 425.356C372.75 422.913 372.163 421.026 370.989 419.693C369.816 418.361 368.261 417.695 366.326 417.695C364.423 417.695 362.884 418.377 361.71 419.741C360.537 421.073 359.95 422.961 359.95 425.403C359.95 427.846 360.537 429.734 361.71 431.066C362.884 432.398 364.439 433.065 366.374 433.065Z" fill="white"/>
<path d="M195.476 390.853V365.157H185.681V362.302H208.522V365.157H198.728V390.853H195.476ZM208.531 390.853V370.629H211.505V375.784H211.704V390.853H208.531ZM211.704 380.305L211.188 375.507C211.664 373.789 212.51 372.48 213.726 371.581C214.942 370.682 216.343 370.233 217.929 370.233C218.59 370.233 219.04 370.286 219.278 370.391V373.445C219.145 373.392 218.96 373.366 218.722 373.366C218.484 373.339 218.194 373.326 217.85 373.326C215.841 373.326 214.308 373.934 213.25 375.15C212.219 376.34 211.704 378.058 211.704 380.305ZM235.232 390.853C235.127 390.404 235.047 389.888 234.995 389.307C234.968 388.725 234.955 387.985 234.955 387.086H234.757V377.41C234.757 375.877 234.4 374.753 233.686 374.04C232.999 373.299 231.875 372.929 230.315 372.929C228.782 372.929 227.553 373.247 226.627 373.881C225.729 374.489 225.226 375.361 225.121 376.498H222.067C222.199 374.542 223.019 373.009 224.526 371.898C226.033 370.788 228.002 370.233 230.434 370.233C232.946 370.233 234.809 370.828 236.026 372.017C237.242 373.207 237.85 374.991 237.85 377.371V387.086C237.85 387.667 237.889 388.276 237.969 388.91C238.048 389.518 238.154 390.166 238.286 390.853H235.232ZM228.293 391.25C226.205 391.25 224.539 390.747 223.297 389.743C222.08 388.712 221.472 387.311 221.472 385.539C221.472 383.768 222.08 382.393 223.297 381.415C224.513 380.437 226.284 379.75 228.61 379.353L235.669 378.164V380.781L229.086 381.812C227.606 382.05 226.482 382.446 225.715 383.001C224.949 383.557 224.565 384.363 224.565 385.42C224.565 386.451 224.909 387.231 225.596 387.76C226.31 388.289 227.354 388.553 228.729 388.553C230.5 388.553 231.941 388.157 233.051 387.363C234.188 386.544 234.757 385.486 234.757 384.191L235.272 387.007C234.849 388.355 234.016 389.399 232.774 390.139C231.558 390.879 230.064 391.25 228.293 391.25ZM243.964 390.853V370.629H246.938V375.388H247.137V390.853H243.964ZM258.438 390.853V377.609C258.438 376.075 258.055 374.925 257.288 374.159C256.522 373.392 255.385 373.009 253.878 373.009C252.556 373.009 251.38 373.299 250.349 373.881C249.344 374.463 248.551 375.269 247.969 376.3C247.414 377.331 247.137 378.534 247.137 379.908L246.621 375.11C247.309 373.603 248.353 372.414 249.754 371.541C251.181 370.669 252.794 370.233 254.592 370.233C256.707 370.233 258.399 370.841 259.667 372.057C260.963 373.247 261.611 374.82 261.611 376.776V390.853H258.438ZM274.485 391.25C272 391.25 270.018 390.681 268.537 389.544C267.057 388.381 266.211 386.742 265.999 384.627H269.053C269.238 385.923 269.806 386.914 270.758 387.601C271.71 388.289 272.979 388.632 274.565 388.632C275.966 388.632 277.063 388.368 277.856 387.839C278.649 387.311 279.046 386.557 279.046 385.579C279.046 384.892 278.821 384.297 278.372 383.795C277.922 383.266 277.023 382.83 275.675 382.486L272.423 381.653C270.573 381.177 269.185 380.45 268.26 379.472C267.334 378.468 266.872 377.278 266.872 375.903C266.872 374.159 267.52 372.784 268.815 371.779C270.11 370.748 271.868 370.233 274.089 370.233C276.283 370.233 278.068 370.762 279.442 371.819C280.817 372.876 281.597 374.344 281.782 376.221H278.728C278.543 375.137 278.041 374.304 277.222 373.722C276.402 373.141 275.318 372.85 273.97 372.85C272.675 372.85 271.67 373.101 270.956 373.603C270.242 374.079 269.886 374.767 269.886 375.665C269.886 376.353 270.137 376.948 270.639 377.45C271.168 377.952 272.04 378.375 273.256 378.719L276.428 379.591C278.305 380.094 279.72 380.86 280.671 381.891C281.623 382.922 282.099 384.165 282.099 385.619C282.099 387.39 281.425 388.778 280.077 389.782C278.728 390.761 276.865 391.25 274.485 391.25ZM296.361 391.21C294.458 391.21 292.858 390.747 291.563 389.822C290.267 388.897 289.382 387.588 288.906 385.896L289.54 385.817V398.982H286.368V370.629H289.342V375.348L288.906 375.229C289.408 373.67 290.36 372.453 291.761 371.581C293.162 370.682 294.788 370.233 296.638 370.233C298.436 370.233 299.996 370.669 301.318 371.541C302.666 372.414 303.71 373.63 304.45 375.19C305.191 376.749 305.561 378.573 305.561 380.662C305.561 382.777 305.177 384.627 304.411 386.213C303.644 387.8 302.573 389.029 301.199 389.901C299.824 390.774 298.211 391.21 296.361 391.21ZM295.885 388.434C297.894 388.434 299.467 387.747 300.604 386.372C301.741 384.971 302.309 383.068 302.309 380.662C302.309 378.283 301.741 376.419 300.604 375.071C299.467 373.696 297.894 373.009 295.885 373.009C293.876 373.009 292.29 373.709 291.127 375.11C289.963 376.485 289.382 378.375 289.382 380.781C289.382 383.134 289.963 384.997 291.127 386.372C292.29 387.747 293.876 388.434 295.885 388.434ZM318.823 391.25C316.84 391.25 315.095 390.787 313.588 389.862C312.082 388.936 310.905 387.681 310.059 386.095C309.24 384.482 308.83 382.671 308.83 380.662C308.83 378.626 309.253 376.829 310.099 375.269C310.945 373.709 312.108 372.48 313.588 371.581C315.095 370.682 316.84 370.233 318.823 370.233C320.832 370.233 322.577 370.682 324.057 371.581C325.564 372.48 326.727 373.709 327.547 375.269C328.393 376.829 328.816 378.626 328.816 380.662C328.816 382.671 328.393 384.482 327.547 386.095C326.727 387.681 325.564 388.936 324.057 389.862C322.577 390.787 320.832 391.25 318.823 391.25ZM318.823 388.553C320.198 388.553 321.387 388.223 322.392 387.562C323.396 386.874 324.176 385.936 324.731 384.746C325.286 383.557 325.564 382.182 325.564 380.622C325.564 378.296 324.943 376.432 323.7 375.031C322.484 373.63 320.858 372.929 318.823 372.929C316.814 372.929 315.188 373.63 313.945 375.031C312.703 376.432 312.082 378.296 312.082 380.622C312.082 382.182 312.359 383.557 312.914 384.746C313.47 385.936 314.249 386.874 315.254 387.562C316.285 388.223 317.475 388.553 318.823 388.553ZM333.574 390.853V370.629H336.548V375.784H336.746V390.853H333.574ZM336.746 380.305L336.23 375.507C336.706 373.789 337.552 372.48 338.768 371.581C339.984 370.682 341.385 370.233 342.972 370.233C343.633 370.233 344.082 370.286 344.32 370.391V373.445C344.188 373.392 344.003 373.366 343.765 373.366C343.527 373.339 343.236 373.326 342.892 373.326C340.883 373.326 339.35 373.934 338.292 375.15C337.261 376.34 336.746 378.058 336.746 380.305ZM356.998 391.21C354.751 391.21 353.112 390.708 352.081 389.703C351.076 388.672 350.574 387.192 350.574 385.262V365.911L353.746 364.721V385.222C353.746 386.359 354.037 387.192 354.619 387.72C355.2 388.249 356.152 388.513 357.474 388.513C358.003 388.513 358.452 388.487 358.822 388.434C359.219 388.355 359.536 388.262 359.774 388.157V390.853C359.509 390.959 359.126 391.038 358.624 391.091C358.148 391.17 357.606 391.21 356.998 391.21ZM346.41 373.326V370.629H359.774V373.326H346.41ZM373.46 390.853V367.774C373.46 365.924 373.989 364.483 375.047 363.452C376.13 362.421 377.77 361.905 379.964 361.905C380.492 361.905 380.902 361.932 381.193 361.985C381.51 362.038 381.775 362.104 381.986 362.183V364.681C381.801 364.628 381.537 364.576 381.193 364.523C380.876 364.47 380.532 364.443 380.162 364.443C378.946 364.443 378.047 364.747 377.465 365.355C376.91 365.963 376.633 366.823 376.633 367.933V390.853H373.46ZM369.297 373.326V370.629H381.55V373.326H369.297ZM393.446 391.25C391.463 391.25 389.718 390.787 388.211 389.862C386.704 388.936 385.528 387.681 384.682 386.095C383.862 384.482 383.453 382.671 383.453 380.662C383.453 378.626 383.876 376.829 384.722 375.269C385.568 373.709 386.731 372.48 388.211 371.581C389.718 370.682 391.463 370.233 393.446 370.233C395.455 370.233 397.199 370.682 398.68 371.581C400.187 372.48 401.35 373.709 402.169 375.269C403.015 376.829 403.438 378.626 403.438 380.662C403.438 382.671 403.015 384.482 402.169 386.095C401.35 387.681 400.187 388.936 398.68 389.862C397.199 390.787 395.455 391.25 393.446 391.25ZM393.446 388.553C394.82 388.553 396.01 388.223 397.014 387.562C398.019 386.874 398.799 385.936 399.354 384.746C399.909 383.557 400.187 382.182 400.187 380.622C400.187 378.296 399.565 376.432 398.323 375.031C397.107 373.63 395.481 372.929 393.446 372.929C391.436 372.929 389.811 373.63 388.568 375.031C387.326 376.432 386.704 378.296 386.704 380.622C386.704 382.182 386.982 383.557 387.537 384.746C388.092 385.936 388.872 386.874 389.877 387.562C390.908 388.223 392.097 388.553 393.446 388.553ZM408.196 390.853V370.629H411.17V375.784H411.369V390.853H408.196ZM411.369 380.305L410.853 375.507C411.329 373.789 412.175 372.48 413.391 371.581C414.607 370.682 416.008 370.233 417.594 370.233C418.255 370.233 418.705 370.286 418.943 370.391V373.445C418.81 373.392 418.625 373.366 418.387 373.366C418.149 373.339 417.859 373.326 417.515 373.326C415.506 373.326 413.973 373.934 412.915 375.15C411.884 376.34 411.369 378.058 411.369 380.305Z" fill="white"/>
</g>
<path d="M814.975 321.358C805.529 321.358 796.8 319.803 788.788 316.694C780.776 313.466 773.841 308.981 767.981 303.242C762.122 297.502 757.518 290.746 754.17 282.973C750.941 275.201 749.327 266.711 749.327 257.503C749.327 248.296 750.941 239.805 754.17 232.033C757.518 224.26 762.122 217.504 767.981 211.764C773.96 206.025 780.955 201.6 788.967 198.491C796.979 195.263 805.708 193.648 815.155 193.648C824.243 193.648 832.793 195.203 840.804 198.312C848.816 201.301 855.572 205.845 861.073 211.944L852.643 220.374C847.501 215.113 841.821 211.346 835.603 209.074C829.385 206.682 822.688 205.487 815.514 205.487C807.98 205.487 800.985 206.802 794.528 209.433C788.07 211.944 782.45 215.591 777.667 220.374C772.884 225.038 769.117 230.538 766.367 236.876C763.736 243.094 762.421 249.97 762.421 257.503C762.421 265.036 763.736 271.972 766.367 278.31C769.117 284.528 772.884 290.028 777.667 294.811C782.45 299.475 788.07 303.122 794.528 305.753C800.985 308.264 807.98 309.519 815.514 309.519C822.688 309.519 829.385 308.324 835.603 305.932C841.821 303.541 847.501 299.714 852.643 294.453L861.073 302.883C855.572 308.981 848.816 313.585 840.804 316.694C832.793 319.803 824.183 321.358 814.975 321.358ZM915.477 321.178C906.389 321.178 898.198 319.146 890.904 315.08C883.729 310.895 878.049 305.215 873.864 298.04C869.679 290.746 867.586 282.435 867.586 273.108C867.586 263.661 869.679 255.351 873.864 248.176C878.049 241.001 883.729 235.381 890.904 231.315C898.078 227.25 906.27 225.217 915.477 225.217C924.804 225.217 933.055 227.25 940.23 231.315C947.524 235.381 953.204 241.001 957.27 248.176C961.455 255.351 963.547 263.661 963.547 273.108C963.547 282.435 961.455 290.746 957.27 298.04C953.204 305.215 947.524 310.895 940.23 315.08C932.935 319.146 924.685 321.178 915.477 321.178ZM915.477 309.878C922.293 309.878 928.332 308.383 933.593 305.394C938.855 302.285 942.98 297.98 945.969 292.48C949.078 286.859 950.633 280.402 950.633 273.108C950.633 265.694 949.078 259.237 945.969 253.736C942.98 248.236 938.855 243.991 933.593 241.001C928.332 237.892 922.353 236.338 915.656 236.338C908.96 236.338 902.981 237.892 897.72 241.001C892.458 243.991 888.273 248.236 885.164 253.736C882.055 259.237 880.5 265.694 880.5 273.108C880.5 280.402 882.055 286.859 885.164 292.48C888.273 297.98 892.458 302.285 897.72 305.394C902.981 308.383 908.9 309.878 915.477 309.878ZM966.489 320.281L1006.31 268.624L1006.13 274.902L968.282 226.114H982.632L1013.66 266.471L1008.28 266.292L1039.31 226.114H1053.3L1015.1 275.44L1015.28 268.624L1055.45 320.281H1040.93L1008.1 277.233L1013.12 277.951L980.838 320.281H966.489ZM1071.27 320.281V187.191H1084.01V320.281H1071.27ZM1114.78 355.976C1110.35 355.976 1106.11 355.258 1102.04 353.823C1098.1 352.388 1094.69 350.236 1091.82 347.366L1097.74 337.859C1100.13 340.131 1102.7 341.865 1105.45 343.061C1108.32 344.376 1111.49 345.034 1114.96 345.034C1119.14 345.034 1122.73 343.838 1125.72 341.447C1128.83 339.175 1131.76 335.109 1134.51 329.25L1140.61 315.439L1142.04 313.466L1180.78 226.114H1193.34L1146.17 331.582C1143.54 337.68 1140.61 342.523 1137.38 346.11C1134.27 349.698 1130.86 352.209 1127.15 353.644C1123.45 355.198 1119.32 355.976 1114.78 355.976ZM1139.89 322.972L1096.48 226.114H1109.76L1148.14 312.569L1139.89 322.972Z" fill="white"/>
</g>
<defs>
<clipPath id="clip0_13_1123">
<rect width="2560" height="512" fill="white"/>
</clipPath>
<clipPath id="clip1_13_1123">
<rect width="483" height="124.172" fill="white" transform="translate(76.1953 53)"/>
</clipPath>
<clipPath id="clip2_13_1123">
<rect width="344" height="111.032" fill="white" transform="translate(76.1953 345)"/>
</clipPath>
</defs>
</svg>
