<svg width="2560" height="512" viewBox="0 0 2560 512" fill="none" xmlns="http://www.w3.org/2000/svg">
<rect width="2560" height="512" fill="#34495E"/>
<path d="M2105 512L2217 0H2560V512H2105Z" fill="#2A2A2A"/>
<path d="M173.457 193.865H192.042L207.617 236.521L223.37 193.865H241.954L220.361 249.795L239.122 295.991L278.238 193.334H300.008L248.503 319H231.334L207.794 262.716L184.077 319H166.732L115.403 193.334H136.997L176.289 295.991L195.051 249.795L173.457 193.865ZM386.519 319H367.05V267.141C367.05 258.763 365.516 252.509 362.448 248.379C359.38 244.25 355.073 242.185 349.528 242.185C346.106 242.185 342.566 243.129 338.908 245.017C335.25 246.904 332.005 249.5 329.173 252.804C326.341 255.99 324.276 259.707 322.979 263.955V319H303.509V189.794H322.979V245.017C326.518 238.763 331.356 233.866 337.492 230.326C343.628 226.668 350.236 224.839 357.315 224.839C363.097 224.839 367.876 225.842 371.652 227.848C375.428 229.854 378.378 232.627 380.502 236.167C382.743 239.589 384.277 243.601 385.103 248.202C386.047 252.686 386.519 257.465 386.519 262.539V319ZM400.268 319V226.432H419.738V319H400.268ZM400.268 211.211V189.794H419.738V211.211H400.268ZM485.789 314.221C484.138 315.047 482.073 315.932 479.595 316.876C477.117 317.82 474.285 318.646 471.099 319.354C468.031 320.062 464.845 320.416 461.541 320.416C457.529 320.416 453.813 319.708 450.391 318.292C446.969 316.876 444.196 314.634 442.072 311.566C440.066 308.38 439.063 304.309 439.063 299.354V241.477H426.85V226.432H439.063V195.989H458.532V226.432H478.71V241.477H458.532V293.159C458.768 296.345 459.771 298.705 461.541 300.239C463.429 301.773 465.73 302.54 468.444 302.54C471.158 302.54 473.754 302.068 476.232 301.124C478.71 300.18 480.539 299.413 481.719 298.823L485.789 314.221ZM573.435 319H553.965V267.141C553.965 258.527 552.549 252.214 549.718 248.202C547.004 244.191 542.933 242.185 537.505 242.185C533.729 242.185 529.953 243.129 526.177 245.017C522.519 246.904 519.216 249.5 516.266 252.804C513.316 255.99 511.192 259.707 509.894 263.955V319H490.425V226.432H508.124V245.017C510.484 240.887 513.552 237.347 517.328 234.397C521.221 231.329 525.587 228.969 530.425 227.317C535.263 225.665 540.396 224.839 545.824 224.839C551.369 224.839 555.912 225.842 559.452 227.848C563.11 229.854 565.942 232.627 567.948 236.167C570.072 239.589 571.488 243.601 572.196 248.202C573.022 252.686 573.435 257.465 573.435 262.539V319ZM629.131 320.77C621.933 320.77 615.385 319.531 609.485 317.053C603.703 314.457 598.688 310.976 594.44 306.61C590.192 302.127 586.889 297.053 584.529 291.389C582.287 285.607 581.166 279.471 581.166 272.982C581.166 264.25 583.172 256.285 587.184 249.087C591.195 241.772 596.8 235.931 603.998 231.565C611.196 227.081 619.632 224.839 629.308 224.839C638.984 224.839 647.302 227.081 654.264 231.565C661.344 235.931 666.831 241.713 670.725 248.91C674.619 256.108 676.565 263.837 676.565 272.097C676.565 273.513 676.506 274.869 676.389 276.167C676.271 277.347 676.153 278.35 676.035 279.176H601.874C602.228 284.604 603.703 289.383 606.299 293.513C609.013 297.525 612.435 300.711 616.565 303.071C620.694 305.312 625.119 306.433 629.839 306.433C635.031 306.433 639.928 305.135 644.53 302.54C649.249 299.944 652.435 296.522 654.087 292.274L670.725 297.053C668.719 301.537 665.651 305.607 661.521 309.265C657.509 312.805 652.73 315.637 647.184 317.761C641.639 319.767 635.621 320.77 629.131 320.77ZM601.343 266.256H657.273C656.919 260.946 655.385 256.285 652.671 252.273C650.075 248.143 646.713 244.958 642.583 242.716C638.571 240.356 634.087 239.176 629.131 239.176C624.293 239.176 619.809 240.356 615.68 242.716C611.668 244.958 608.364 248.143 605.768 252.273C603.172 256.285 601.697 260.946 601.343 266.256ZM684.017 340.77C685.787 341.006 687.498 341.242 689.15 341.478C690.92 341.832 692.336 342.009 693.398 342.009C695.404 342.009 697.115 341.36 698.531 340.062C700.065 338.882 701.599 336.64 703.133 333.337C704.667 330.033 706.554 325.254 708.796 319L670.743 226.432H691.097L719.416 299.177L744.549 226.432H763.311L721.363 340.416C720.065 343.838 718.177 346.965 715.699 349.797C713.221 352.747 710.153 355.048 706.495 356.7C702.838 358.352 698.531 359.178 693.575 359.178C692.159 359.178 690.684 359.06 689.15 358.824C687.616 358.588 685.905 358.234 684.017 357.762V340.77ZM852.795 319.885C844.535 319.885 836.806 318.174 829.609 314.752C822.411 311.33 816.098 306.61 810.67 300.593C805.36 294.575 801.172 287.731 798.104 280.061C795.154 272.392 793.679 264.25 793.679 255.636C793.679 247.022 795.154 238.94 798.104 231.388C801.172 223.836 805.36 217.11 810.67 211.211C816.098 205.311 822.411 200.709 829.609 197.405C836.924 194.101 844.889 192.449 853.503 192.449C865.42 192.449 875.45 194.986 883.592 200.06C891.852 205.016 898.046 211.624 902.176 219.883L886.955 230.857C883.651 224.013 878.931 218.88 872.795 215.459C866.777 212.037 860.17 210.326 852.972 210.326C847.072 210.326 841.703 211.565 836.865 214.043C832.028 216.52 827.839 219.942 824.299 224.308C820.877 228.556 818.281 233.453 816.511 238.999C814.741 244.427 813.856 250.149 813.856 256.167C813.856 262.539 814.859 268.498 816.865 274.044C818.871 279.589 821.703 284.486 825.361 288.734C829.019 292.864 833.326 296.109 838.281 298.469C843.237 300.829 848.606 302.009 854.388 302.009C861.232 302.009 867.721 300.298 873.857 296.876C880.111 293.336 885.952 288.085 891.38 281.123V301.301C880.406 313.69 867.544 319.885 852.795 319.885ZM889.433 270.15H863.061V255.459H906.07V319H889.433V270.15ZM969.39 243.247C961.838 243.365 955.112 245.076 949.212 248.379C943.43 251.683 939.301 256.344 936.823 262.362V319H917.353V226.432H935.407V247.14C938.593 240.769 942.781 235.695 947.973 231.919C953.165 228.025 958.652 225.901 964.434 225.547C965.614 225.547 966.558 225.547 967.266 225.547C968.092 225.547 968.8 225.606 969.39 225.724V243.247ZM1014.92 320.77C1007.72 320.77 1001.18 319.531 995.276 317.053C989.495 314.457 984.48 310.976 980.232 306.61C975.984 302.127 972.68 297.053 970.32 291.389C968.078 285.607 966.957 279.471 966.957 272.982C966.957 264.25 968.963 256.285 972.975 249.087C976.987 241.772 982.592 235.931 989.79 231.565C996.987 227.081 1005.42 224.839 1015.1 224.839C1024.78 224.839 1033.09 227.081 1040.06 231.565C1047.14 235.931 1052.62 241.713 1056.52 248.91C1060.41 256.108 1062.36 263.837 1062.36 272.097C1062.36 273.513 1062.3 274.869 1062.18 276.167C1062.06 277.347 1061.94 278.35 1061.83 279.176H987.666C988.02 284.604 989.495 289.383 992.09 293.513C994.804 297.525 998.226 300.711 1002.36 303.071C1006.49 305.312 1010.91 306.433 1015.63 306.433C1020.82 306.433 1025.72 305.135 1030.32 302.54C1035.04 299.944 1038.23 296.522 1039.88 292.274L1056.52 297.053C1054.51 301.537 1051.44 305.607 1047.31 309.265C1043.3 312.805 1038.52 315.637 1032.98 317.761C1027.43 319.767 1021.41 320.77 1014.92 320.77ZM987.135 266.256H1043.06C1042.71 260.946 1041.18 256.285 1038.46 252.273C1035.87 248.143 1032.5 244.958 1028.37 242.716C1024.36 240.356 1019.88 239.176 1014.92 239.176C1010.08 239.176 1005.6 240.356 1001.47 242.716C997.459 244.958 994.155 248.143 991.559 252.273C988.964 256.285 987.489 260.946 987.135 266.256ZM1111.34 320.77C1104.14 320.77 1097.59 319.531 1091.69 317.053C1085.91 314.457 1080.89 310.976 1076.65 306.61C1072.4 302.127 1069.09 297.053 1066.73 291.389C1064.49 285.607 1063.37 279.471 1063.37 272.982C1063.37 264.25 1065.38 256.285 1069.39 249.087C1073.4 241.772 1079.01 235.931 1086.2 231.565C1093.4 227.081 1101.84 224.839 1111.51 224.839C1121.19 224.839 1129.51 227.081 1136.47 231.565C1143.55 235.931 1149.04 241.713 1152.93 248.91C1156.82 256.108 1158.77 263.837 1158.77 272.097C1158.77 273.513 1158.71 274.869 1158.59 276.167C1158.48 277.347 1158.36 278.35 1158.24 279.176H1084.08C1084.43 284.604 1085.91 289.383 1088.5 293.513C1091.22 297.525 1094.64 300.711 1098.77 303.071C1102.9 305.312 1107.32 306.433 1112.04 306.433C1117.24 306.433 1122.13 305.135 1126.73 302.54C1131.45 299.944 1134.64 296.522 1136.29 292.274L1152.93 297.053C1150.92 301.537 1147.86 305.607 1143.73 309.265C1139.71 312.805 1134.94 315.637 1129.39 317.761C1123.84 319.767 1117.83 320.77 1111.34 320.77ZM1083.55 266.256H1139.48C1139.12 260.946 1137.59 256.285 1134.88 252.273C1132.28 248.143 1128.92 244.958 1124.79 242.716C1120.78 240.356 1116.29 239.176 1111.34 239.176C1106.5 239.176 1102.01 240.356 1097.88 242.716C1093.87 244.958 1090.57 248.143 1087.97 252.273C1085.38 256.285 1083.9 260.946 1083.55 266.256ZM1248.81 319H1229.34V267.141C1229.34 258.527 1227.93 252.214 1225.09 248.202C1222.38 244.191 1218.31 242.185 1212.88 242.185C1209.11 242.185 1205.33 243.129 1201.55 245.017C1197.9 246.904 1194.59 249.5 1191.64 252.804C1188.69 255.99 1186.57 259.707 1185.27 263.955V319H1165.8V226.432H1183.5V245.017C1185.86 240.887 1188.93 237.347 1192.7 234.397C1196.6 231.329 1200.96 228.969 1205.8 227.317C1210.64 225.665 1215.77 224.839 1221.2 224.839C1226.75 224.839 1231.29 225.842 1234.83 227.848C1238.49 229.854 1241.32 232.627 1243.33 236.167C1245.45 239.589 1246.86 243.601 1247.57 248.202C1248.4 252.686 1248.81 257.465 1248.81 262.539V319Z" fill="white"/>
<g clip-path="url(#clip0_12_1678)">
<path d="M2429.02 192.193H2454.52L2401.08 319.233H2378.25L2355.42 261.907L2332.58 319.233H2309.75L2256.07 192.193H2281.57L2322.38 293.242L2340.36 246.361L2318.49 192.436H2341.08L2355.42 232.03L2369.5 192.436H2392.09L2370.48 246.361L2388.45 293.242L2429.02 192.193Z" fill="#B2BBC8"/>
</g>
<defs>
<clipPath id="clip0_12_1678">
<rect width="198.602" height="127.246" fill="white" transform="translate(2256 192.177)"/>
</clipPath>
</defs>
</svg>
