<svg width="2560" height="512" viewBox="0 0 2560 512" fill="none" xmlns="http://www.w3.org/2000/svg">
<g clip-path="url(#clip0_22_1382)">
<rect width="2560" height="512" fill="white"/>
<line y1="468" x2="2195" y2="468" stroke="#EC7D33" stroke-width="30"/>
<line x1="2435.16" y1="468" x2="2560.16" y2="468" stroke="#EC7D33" stroke-width="30"/>
<g clip-path="url(#clip1_22_1382)">
<path fill-rule="evenodd" clip-rule="evenodd" d="M2260.01 482.939L2373.24 284.963H2353.49C2344 284.963 2335.24 290.047 2330.52 298.285C2305.12 342.702 2224.92 482.939 2224.92 482.939H2260.01Z" fill="#B2B2B2"/>
<path fill-rule="evenodd" clip-rule="evenodd" d="M2212.34 482.939L2325.56 284.963H2305.82C2296.33 284.963 2287.56 290.047 2282.85 298.285C2257.45 342.702 2177.25 482.939 2177.25 482.939H2212.34Z" fill="#EC7D33"/>
<path fill-rule="evenodd" clip-rule="evenodd" d="M2381.18 482.939L2335.5 403.483H2355.28C2364.75 403.483 2373.5 408.543 2378.22 416.752C2391.22 439.363 2416.28 482.939 2416.28 482.939H2381.18Z" fill="#B2B2B2"/>
<path fill-rule="evenodd" clip-rule="evenodd" d="M2429.52 482.939L2383.83 403.483H2403.62C2413.09 403.483 2421.83 408.543 2426.55 416.752C2439.55 439.363 2464.61 482.939 2464.61 482.939H2429.52Z" fill="#EC7D33"/>
</g>
<path d="M126.117 318V216.759H84.346V194.104H193.374V216.759H151.781V318H126.117ZM225.088 319.77C215.884 319.77 207.507 317.646 199.955 313.398C192.521 309.15 186.621 303.427 182.256 296.23C177.89 289.032 175.707 280.949 175.707 271.982C175.707 263.014 177.772 254.931 181.902 247.733C186.149 240.536 191.872 234.813 199.07 230.565C206.268 226.317 214.291 224.193 223.141 224.193C231.991 224.193 239.838 226.376 246.681 230.742C253.525 235.108 258.894 241.008 262.788 248.441C266.8 255.875 268.806 264.312 268.806 273.752V280.123H200.486C201.548 283.781 203.259 287.085 205.619 290.035C208.097 292.985 211.106 295.286 214.645 296.938C218.303 298.59 222.197 299.416 226.327 299.416C230.457 299.416 234.233 298.767 237.655 297.469C241.195 296.171 244.203 294.342 246.681 291.982L262.611 306.495C256.947 311.097 251.106 314.46 245.088 316.584C239.189 318.708 232.522 319.77 225.088 319.77ZM200.132 262.778H244.911C244.085 259.12 242.551 255.934 240.31 253.22C238.186 250.388 235.59 248.205 232.522 246.671C229.572 245.019 226.268 244.194 222.61 244.194C218.834 244.194 215.412 244.96 212.345 246.494C209.277 248.028 206.681 250.211 204.557 253.043C202.551 255.757 201.076 259.002 200.132 262.778ZM278.352 318V225.786H302.6V236.052C305.55 232.04 309.09 228.972 313.22 226.848C317.35 224.724 322.011 223.662 327.203 223.662C331.686 223.78 335.049 224.488 337.291 225.786V247.025C335.521 246.199 333.574 245.609 331.45 245.255C329.326 244.783 327.144 244.547 324.902 244.547C320.182 244.547 315.875 245.727 311.981 248.087C308.087 250.447 304.96 253.81 302.6 258.176V318H278.352ZM345.292 318V225.786H369.54V232.866C376.148 226.966 384.172 224.016 393.611 224.016C399.629 224.016 404.998 225.255 409.718 227.733C414.438 230.093 418.331 233.456 421.399 237.822C425.175 233.338 429.6 229.916 434.674 227.556C439.866 225.196 445.588 224.016 451.842 224.016C458.804 224.016 464.881 225.609 470.073 228.795C475.382 231.863 479.512 236.17 482.462 241.716C485.53 247.143 487.064 253.515 487.064 260.831V318H462.993V264.371C462.993 258.353 461.4 253.633 458.214 250.211C455.028 246.671 450.78 244.901 445.47 244.901C441.813 244.901 438.45 245.668 435.382 247.202C432.432 248.736 429.895 251.037 427.771 254.105C427.889 255.167 428.007 256.229 428.125 257.291C428.243 258.353 428.302 259.533 428.302 260.831V318H404.054V264.371C404.054 258.353 402.461 253.633 399.275 250.211C396.207 246.671 392.018 244.901 386.708 244.901C383.051 244.901 379.747 245.609 376.797 247.025C373.965 248.441 371.546 250.565 369.54 253.397V318H345.292ZM500.21 318V225.786H524.458V318H500.21ZM512.246 214.813C508.47 214.813 505.225 213.456 502.511 210.742C499.797 208.028 498.44 204.783 498.44 201.007C498.44 197.113 499.797 193.868 502.511 191.272C505.225 188.558 508.47 187.201 512.246 187.201C516.139 187.201 519.384 188.558 521.98 191.272C524.694 193.868 526.051 197.113 526.051 201.007C526.051 204.783 524.694 208.028 521.98 210.742C519.384 213.456 516.139 214.813 512.246 214.813ZM538.112 318V225.786H562.36V233.397C569.322 227.143 577.935 224.016 588.201 224.016C595.399 224.016 601.711 225.609 607.139 228.795C612.685 231.863 616.992 236.17 620.06 241.716C623.128 247.143 624.662 253.515 624.662 260.831V318H600.413V264.371C600.413 258.353 598.703 253.633 595.281 250.211C591.859 246.671 587.198 244.901 581.298 244.901C577.168 244.901 573.51 245.727 570.325 247.379C567.139 248.913 564.484 251.155 562.36 254.105V318H538.112ZM667.1 319.593C660.492 319.593 654.652 318.413 649.578 316.053C644.504 313.575 640.551 310.212 637.719 305.964C634.887 301.717 633.471 296.82 633.471 291.274C633.471 282.424 636.775 275.58 643.383 270.743C650.109 265.787 659.312 263.309 670.994 263.309C679.018 263.309 686.569 264.548 693.649 267.026V260.3C693.649 254.99 691.997 250.978 688.693 248.264C685.389 245.55 680.552 244.194 674.18 244.194C670.286 244.194 666.097 244.842 661.613 246.14C657.129 247.32 651.938 249.208 646.038 251.804L637.188 233.928C644.504 230.624 651.466 228.146 658.073 226.494C664.799 224.842 671.525 224.016 678.251 224.016C690.64 224.016 700.257 227.025 707.101 233.043C714.063 238.943 717.543 247.32 717.543 258.176V318H693.649V311.451C689.873 314.283 685.802 316.348 681.437 317.646C677.071 318.944 672.292 319.593 667.1 319.593ZM656.48 290.743C656.48 294.283 658.014 297.115 661.082 299.239C664.15 301.245 668.221 302.248 673.295 302.248C677.307 302.248 681.024 301.776 684.446 300.832C687.867 299.77 690.935 298.236 693.649 296.23V282.778C690.699 281.598 687.631 280.713 684.446 280.123C681.26 279.533 677.838 279.238 674.18 279.238C668.634 279.238 664.268 280.3 661.082 282.424C658.014 284.43 656.48 287.203 656.48 290.743ZM730.586 318V194.104L754.834 190.033V318H730.586ZM842.147 319.947C832.589 319.947 823.681 318.295 815.421 314.991C807.279 311.569 800.436 306.79 794.89 300.655L810.465 286.141C815.185 291.215 819.846 294.755 824.448 296.761C829.168 298.649 834.949 299.593 841.793 299.593C846.749 299.593 851.056 298.885 854.714 297.469C858.49 295.935 861.381 293.811 863.386 291.097C865.51 288.383 866.572 285.256 866.572 281.716C866.572 278.412 865.746 275.58 864.094 273.221C862.442 270.861 860.201 269.032 857.369 267.734C854.537 266.318 851.174 265.61 847.28 265.61H831.705V246.494H845.156C850.702 246.494 855.068 245.078 858.254 242.247C861.44 239.297 863.032 235.285 863.032 230.211C863.032 226.907 862.088 223.957 860.201 221.361C858.313 218.647 855.717 216.523 852.413 214.989C849.227 213.456 845.569 212.689 841.439 212.689C835.303 212.689 829.994 213.751 825.51 215.874C821.144 217.998 816.542 221.774 811.704 227.202L795.952 212.689C801.734 206.199 808.636 201.184 816.66 197.644C824.802 193.986 833.356 192.157 842.324 192.157C850.938 192.157 858.549 193.691 865.156 196.759C871.764 199.709 876.956 203.839 880.732 209.149C884.508 214.459 886.396 220.535 886.396 227.379C886.396 233.987 884.213 239.887 879.847 245.078C875.481 250.152 869.817 253.692 862.855 255.698C871.115 257.35 877.664 260.654 882.502 265.61C887.458 270.566 889.936 276.524 889.936 283.486C889.936 290.448 887.871 296.702 883.741 302.248C879.611 307.793 873.947 312.159 866.749 315.345C859.67 318.413 851.469 319.947 842.147 319.947Z" fill="#2A2A2A"/>
</g>
<defs>
<clipPath id="clip0_22_1382">
<rect width="2560" height="512" fill="white"/>
</clipPath>
<clipPath id="clip1_22_1382">
<rect width="287.753" height="198.099" fill="white" transform="translate(2177.16 284.9)"/>
</clipPath>
</defs>
</svg>
