<svg width="2560" height="512" viewBox="0 0 2560 512" fill="none" xmlns="http://www.w3.org/2000/svg">
<rect width="2560" height="512" fill="#34495E"/>
<path d="M2105 512L2217 0H2560V512H2105Z" fill="#2A2A2A"/>
<path d="M165.141 193.334H183.902L232.752 319H211.867L198.592 284.84H150.096L136.999 319H115.936L165.141 193.334ZM194.699 270.15L174.521 215.105L153.636 270.15H194.699ZM236.966 319V226.432H256.435V319H236.966ZM236.966 211.211V189.794H256.435V211.211H236.966ZM323.018 243.247C315.466 243.365 308.74 245.076 302.84 248.379C297.059 251.683 292.929 256.344 290.451 262.362V319H270.982V226.432H289.035V247.14C292.221 240.769 296.41 235.695 301.602 231.919C306.793 228.025 312.28 225.901 318.062 225.547C319.242 225.547 320.186 225.547 320.894 225.547C321.72 225.547 322.428 225.606 323.018 225.724V243.247ZM380.899 320.77C373.465 320.77 366.916 319 361.253 315.46C355.589 311.92 351.105 307.318 347.801 301.655V356.7H328.332V226.432H345.5V243.07C349.04 237.524 353.642 233.099 359.306 229.795C364.97 226.491 371.282 224.839 378.244 224.839C384.616 224.839 390.457 226.137 395.766 228.733C401.076 231.211 405.678 234.692 409.572 239.176C413.466 243.66 416.475 248.792 418.599 254.574C420.841 260.238 421.962 266.256 421.962 272.628C421.962 281.477 420.192 289.56 416.652 296.876C413.23 304.192 408.392 310.032 402.138 314.398C396.002 318.646 388.923 320.77 380.899 320.77ZM374.527 304.133C378.657 304.133 382.374 303.248 385.678 301.478C389.1 299.708 391.991 297.348 394.351 294.398C396.828 291.448 398.716 288.085 400.014 284.309C401.312 280.533 401.961 276.639 401.961 272.628C401.961 268.38 401.253 264.368 399.837 260.592C398.421 256.816 396.356 253.512 393.643 250.68C391.047 247.848 387.979 245.606 384.439 243.955C381.017 242.303 377.241 241.477 373.111 241.477C370.633 241.477 368.037 241.949 365.324 242.893C362.61 243.837 360.073 245.135 357.713 246.786C355.353 248.438 353.288 250.385 351.518 252.627C349.748 254.869 348.509 257.229 347.801 259.707V283.955C349.453 287.731 351.636 291.153 354.35 294.221C357.064 297.171 360.191 299.59 363.731 301.478C367.27 303.248 370.869 304.133 374.527 304.133ZM472.215 320.77C464.9 320.77 458.351 319.531 452.569 317.053C446.787 314.457 441.772 310.917 437.525 306.433C433.395 301.95 430.209 296.876 427.967 291.212C425.725 285.43 424.604 279.294 424.604 272.805C424.604 266.315 425.725 260.179 427.967 254.397C430.209 248.615 433.395 243.542 437.525 239.176C441.772 234.692 446.787 231.211 452.569 228.733C458.469 226.137 465.018 224.839 472.215 224.839C479.413 224.839 485.903 226.137 491.685 228.733C497.585 231.211 502.599 234.692 506.729 239.176C510.977 243.542 514.222 248.615 516.464 254.397C518.706 260.179 519.827 266.315 519.827 272.805C519.827 279.294 518.706 285.43 516.464 291.212C514.222 296.876 510.977 301.95 506.729 306.433C502.599 310.917 497.585 314.457 491.685 317.053C485.903 319.531 479.413 320.77 472.215 320.77ZM444.604 272.982C444.604 278.881 445.843 284.191 448.321 288.911C450.799 293.631 454.103 297.348 458.233 300.062C462.363 302.776 467.024 304.133 472.215 304.133C477.289 304.133 481.891 302.776 486.021 300.062C490.269 297.23 493.632 293.454 496.11 288.734C498.588 283.896 499.827 278.586 499.827 272.805C499.827 266.905 498.588 261.595 496.11 256.875C493.632 252.155 490.269 248.438 486.021 245.724C481.891 242.893 477.289 241.477 472.215 241.477C467.024 241.477 462.363 242.893 458.233 245.724C454.103 248.556 450.799 252.332 448.321 257.052C445.843 261.654 444.604 266.964 444.604 272.982ZM580.281 243.247C572.73 243.365 566.004 245.076 560.104 248.379C554.322 251.683 550.192 256.344 547.714 262.362V319H528.245V226.432H546.298V247.14C549.484 240.769 553.673 235.695 558.865 231.919C564.057 228.025 569.544 225.901 575.326 225.547C576.505 225.547 577.449 225.547 578.157 225.547C578.983 225.547 579.691 225.606 580.281 225.724V243.247ZM637.101 314.221C635.449 315.047 633.384 315.932 630.906 316.876C628.428 317.82 625.596 318.646 622.41 319.354C619.342 320.062 616.156 320.416 612.852 320.416C608.841 320.416 605.124 319.708 601.702 318.292C598.28 316.876 595.507 314.634 593.383 311.566C591.377 308.38 590.374 304.309 590.374 299.354V241.477H578.162V226.432H590.374V195.989H609.843V226.432H630.021V241.477H609.843V293.159C610.079 296.345 611.082 298.705 612.852 300.239C614.74 301.773 617.041 302.54 619.755 302.54C622.469 302.54 625.065 302.068 627.543 301.124C630.021 300.18 631.85 299.413 633.03 298.823L637.101 314.221ZM717.474 193.865H736.058L751.634 236.521L767.386 193.865H785.97L764.377 249.795L783.139 295.991L822.254 193.334H844.025L792.519 319H775.351L751.811 262.716L728.093 319H710.748L659.42 193.334H681.013L720.306 295.991L739.067 249.795L717.474 193.865ZM877.201 320.77C870.003 320.77 863.455 319.531 857.555 317.053C851.773 314.457 846.758 310.976 842.51 306.61C838.263 302.127 834.959 297.053 832.599 291.389C830.357 285.607 829.236 279.471 829.236 272.982C829.236 264.25 831.242 256.285 835.254 249.087C839.265 241.772 844.87 235.931 852.068 231.565C859.266 227.081 867.703 224.839 877.378 224.839C887.054 224.839 895.373 227.081 902.334 231.565C909.414 235.931 914.901 241.713 918.795 248.91C922.689 256.108 924.636 263.837 924.636 272.097C924.636 273.513 924.577 274.869 924.459 276.167C924.341 277.347 924.223 278.35 924.105 279.176H849.944C850.298 284.604 851.773 289.383 854.369 293.513C857.083 297.525 860.505 300.711 864.635 303.071C868.764 305.312 873.189 306.433 877.909 306.433C883.101 306.433 887.998 305.135 892.6 302.54C897.32 299.944 900.505 296.522 902.157 292.274L918.795 297.053C916.789 301.537 913.721 305.607 909.591 309.265C905.579 312.805 900.8 315.637 895.255 317.761C889.709 319.767 883.691 320.77 877.201 320.77ZM849.413 266.256H905.343C904.989 260.946 903.455 256.285 900.741 252.273C898.145 248.143 894.783 244.958 890.653 242.716C886.641 240.356 882.157 239.176 877.201 239.176C872.363 239.176 867.88 240.356 863.75 242.716C859.738 244.958 856.434 248.143 853.838 252.273C851.242 256.285 849.767 260.946 849.413 266.256ZM964.588 320.77C956.8 320.77 949.425 319.531 942.464 317.053C935.502 314.457 929.543 310.622 924.587 305.548L931.844 292.451C937.154 297.171 942.464 300.593 947.773 302.717C953.201 304.84 958.57 305.902 963.88 305.902C969.308 305.902 973.733 304.899 977.154 302.894C980.576 300.77 982.287 297.702 982.287 293.69C982.287 290.74 981.402 288.557 979.632 287.141C977.862 285.725 975.266 284.486 971.845 283.424C968.541 282.362 964.529 281.182 959.809 279.884C953.201 277.878 947.655 275.813 943.172 273.69C938.688 271.448 935.325 268.734 933.083 265.548C930.841 262.362 929.72 258.291 929.72 253.335C929.72 247.317 931.254 242.185 934.322 237.937C937.39 233.689 941.638 230.444 947.065 228.202C952.611 225.96 958.983 224.839 966.181 224.839C972.907 224.839 979.101 225.901 984.765 228.025C990.547 230.031 995.621 233.217 999.987 237.583L991.668 250.503C987.538 246.727 983.29 243.955 978.924 242.185C974.676 240.415 970.075 239.53 965.119 239.53C962.287 239.53 959.573 239.884 956.977 240.592C954.381 241.182 952.198 242.362 950.428 244.132C948.776 245.783 947.95 248.143 947.95 251.211C947.95 253.689 948.658 255.695 950.074 257.229C951.49 258.763 953.614 260.061 956.446 261.123C959.278 262.185 962.759 263.365 966.889 264.663C974.087 266.787 980.222 268.911 985.296 271.035C990.37 273.041 994.264 275.695 996.978 278.999C999.81 282.185 1001.23 286.61 1001.23 292.274C1001.23 301.242 997.863 308.262 991.137 313.336C984.529 318.292 975.679 320.77 964.588 320.77ZM1061.09 314.221C1059.44 315.047 1057.37 315.932 1054.9 316.876C1052.42 317.82 1049.59 318.646 1046.4 319.354C1043.33 320.062 1040.15 320.416 1036.84 320.416C1032.83 320.416 1029.11 319.708 1025.69 318.292C1022.27 316.876 1019.5 314.634 1017.37 311.566C1015.37 308.38 1014.36 304.309 1014.36 299.354V241.477H1002.15V226.432H1014.36V195.989H1033.83V226.432H1054.01V241.477H1033.83V293.159C1034.07 296.345 1035.07 298.705 1036.84 300.239C1038.73 301.773 1041.03 302.54 1043.75 302.54C1046.46 302.54 1049.06 302.068 1051.53 301.124C1054.01 300.18 1055.84 299.413 1057.02 298.823L1061.09 314.221Z" fill="white"/>
<g clip-path="url(#clip0_22_1411)">
<path d="M2429.02 192.193H2454.52L2401.08 319.233H2378.25L2355.42 261.907L2332.58 319.233H2309.75L2256.07 192.193H2281.57L2322.38 293.242L2340.36 246.361L2318.49 192.436H2341.08L2355.42 232.03L2369.5 192.436H2392.09L2370.48 246.361L2388.45 293.242L2429.02 192.193Z" fill="#B2BBC8"/>
</g>
<defs>
<clipPath id="clip0_22_1411">
<rect width="198.602" height="127.246" fill="white" transform="translate(2256 192.177)"/>
</clipPath>
</defs>
</svg>
