<svg width="2560" height="512" viewBox="0 0 2560 512" fill="none" xmlns="http://www.w3.org/2000/svg">
<rect width="2560" height="512" fill="#34495E"/>
<path d="M2105 512L2217 0H2560V512H2105Z" fill="#2A2A2A"/>
<path d="M234.52 319V229.441L197.529 297.407H185.847L148.678 229.441V319H128.855V193.334H150.094L191.688 270.15L233.281 193.334H254.521V319H234.52ZM311.571 320.77C304.255 320.77 297.706 319.531 291.924 317.053C286.143 314.457 281.128 310.917 276.88 306.433C272.75 301.95 269.564 296.876 267.322 291.212C265.08 285.43 263.959 279.294 263.959 272.805C263.959 266.315 265.08 260.179 267.322 254.397C269.564 248.615 272.75 243.542 276.88 239.176C281.128 234.692 286.143 231.211 291.924 228.733C297.824 226.137 304.373 224.839 311.571 224.839C318.768 224.839 325.258 226.137 331.04 228.733C336.94 231.211 341.955 234.692 346.085 239.176C350.332 243.542 353.577 248.615 355.819 254.397C358.061 260.179 359.182 266.315 359.182 272.805C359.182 279.294 358.061 285.43 355.819 291.212C353.577 296.876 350.332 301.95 346.085 306.433C341.955 310.917 336.94 314.457 331.04 317.053C325.258 319.531 318.768 320.77 311.571 320.77ZM283.96 272.982C283.96 278.881 285.199 284.191 287.677 288.911C290.154 293.631 293.458 297.348 297.588 300.062C301.718 302.776 306.379 304.133 311.571 304.133C316.645 304.133 321.246 302.776 325.376 300.062C329.624 297.23 332.987 293.454 335.465 288.734C337.943 283.896 339.182 278.586 339.182 272.805C339.182 266.905 337.943 261.595 335.465 256.875C332.987 252.155 329.624 248.438 325.376 245.724C321.246 242.893 316.645 241.477 311.571 241.477C306.379 241.477 301.718 242.893 297.588 245.724C293.458 248.556 290.154 252.332 287.677 257.052C285.199 261.654 283.96 266.964 283.96 272.982ZM419.637 243.247C412.085 243.365 405.359 245.076 399.459 248.379C393.677 251.683 389.548 256.344 387.07 262.362V319H367.6V226.432H385.654V247.14C388.84 240.769 393.029 235.695 398.22 231.919C403.412 228.025 408.899 225.901 414.681 225.547C415.861 225.547 416.805 225.547 417.513 225.547C418.339 225.547 419.047 225.606 419.637 225.724V243.247ZM460.206 319.885C453.952 319.885 448.229 318.646 443.037 316.168C437.845 313.572 433.361 310.091 429.586 305.725C425.928 301.36 423.037 296.345 420.913 290.681C418.907 285.017 417.904 279.058 417.904 272.805C417.904 266.197 418.966 260.002 421.09 254.22C423.214 248.438 426.164 243.365 429.94 238.999C433.833 234.515 438.376 231.034 443.568 228.556C448.76 226.078 454.542 224.839 460.914 224.839C468.347 224.839 474.837 226.609 480.383 230.149C486.047 233.689 490.708 238.291 494.365 243.955V226.432H511.534V316.345C511.534 325.313 509.351 332.924 504.985 339.177C500.737 345.431 494.896 350.21 487.463 353.514C480.029 356.818 471.651 358.47 462.329 358.47C452.064 358.47 443.568 356.7 436.842 353.16C430.117 349.62 424.394 344.782 419.674 338.646L430.648 328.381C434.187 333.337 438.73 337.112 444.276 339.708C449.94 342.304 455.958 343.602 462.329 343.602C467.639 343.602 472.536 342.599 477.02 340.593C481.622 338.705 485.28 335.696 487.994 331.567C490.708 327.555 492.064 322.481 492.064 316.345V302.186C488.761 307.731 484.218 312.097 478.436 315.283C472.654 318.351 466.577 319.885 460.206 319.885ZM466.577 304.133C469.527 304.133 472.359 303.661 475.073 302.717C477.787 301.655 480.265 300.298 482.507 298.646C484.867 296.876 486.873 294.929 488.525 292.805C490.177 290.563 491.357 288.203 492.064 285.725V261.477C490.531 257.465 488.348 253.984 485.516 251.034C482.684 247.966 479.498 245.606 475.958 243.955C472.418 242.303 468.819 241.477 465.161 241.477C460.914 241.477 457.079 242.421 453.657 244.309C450.353 246.078 447.521 248.497 445.161 251.565C442.801 254.515 440.972 257.878 439.674 261.654C438.376 265.43 437.727 269.324 437.727 273.336C437.727 277.583 438.435 281.536 439.851 285.194C441.385 288.852 443.45 292.156 446.046 295.106C448.642 297.938 451.71 300.18 455.25 301.832C458.79 303.366 462.565 304.133 466.577 304.133ZM519.305 291.92C519.305 286.02 520.957 280.887 524.261 276.521C527.683 272.038 532.344 268.616 538.243 266.256C544.143 263.778 550.987 262.539 558.775 262.539C562.904 262.539 567.093 262.834 571.341 263.424C575.707 264.014 579.542 264.958 582.846 266.256V260.415C582.846 253.925 580.899 248.851 577.005 245.194C573.111 241.536 567.506 239.707 560.191 239.707C554.999 239.707 550.102 240.651 545.5 242.539C540.898 244.309 536.001 246.845 530.81 250.149L524.261 237.052C530.397 232.922 536.532 229.854 542.668 227.848C548.922 225.842 555.471 224.839 562.314 224.839C574.704 224.839 584.439 228.143 591.519 234.751C598.716 241.241 602.315 250.503 602.315 262.539V297.053C602.315 299.295 602.669 300.888 603.377 301.832C604.203 302.776 605.56 303.307 607.448 303.425V319C605.678 319.354 604.085 319.59 602.669 319.708C601.253 319.826 600.073 319.885 599.129 319.885C594.999 319.885 591.872 318.882 589.749 316.876C587.625 314.87 586.386 312.51 586.032 309.796L585.501 304.486C581.489 309.678 576.356 313.69 570.102 316.522C563.848 319.354 557.536 320.77 551.164 320.77C545.028 320.77 539.541 319.531 534.703 317.053C529.866 314.457 526.09 310.976 523.376 306.61C520.662 302.245 519.305 297.348 519.305 291.92ZM578.244 297.584C579.66 296.05 580.781 294.516 581.607 292.982C582.433 291.448 582.846 290.091 582.846 288.911V278.291C579.542 276.993 576.061 276.049 572.403 275.459C568.745 274.752 565.146 274.398 561.607 274.398C554.527 274.398 548.745 275.813 544.261 278.645C539.895 281.477 537.712 285.371 537.712 290.327C537.712 293.041 538.42 295.637 539.836 298.115C541.37 300.593 543.494 302.599 546.208 304.133C549.04 305.666 552.521 306.433 556.651 306.433C560.899 306.433 564.969 305.607 568.863 303.956C572.757 302.304 575.884 300.18 578.244 297.584ZM700.096 319H680.627V267.141C680.627 258.527 679.211 252.214 676.379 248.202C673.665 244.191 669.594 242.185 664.166 242.185C660.39 242.185 656.614 243.129 652.839 245.017C649.181 246.904 645.877 249.5 642.927 252.804C639.977 255.99 637.853 259.707 636.555 263.955V319H617.086V226.432H634.785V245.017C637.145 240.887 640.213 237.347 643.989 234.397C647.883 231.329 652.249 228.969 657.086 227.317C661.924 225.665 667.057 224.839 672.485 224.839C678.031 224.839 682.574 225.842 686.113 227.848C689.771 229.854 692.603 232.627 694.609 236.167C696.733 239.589 698.149 243.601 698.857 248.202C699.683 252.686 700.096 257.465 700.096 262.539V319ZM746.766 320.77C738.978 320.77 731.603 319.531 724.642 317.053C717.68 314.457 711.721 310.622 706.765 305.548L714.022 292.451C719.332 297.171 724.642 300.593 729.951 302.717C735.379 304.84 740.748 305.902 746.058 305.902C751.486 305.902 755.91 304.899 759.332 302.894C762.754 300.77 764.465 297.702 764.465 293.69C764.465 290.74 763.58 288.557 761.81 287.141C760.04 285.725 757.444 284.486 754.023 283.424C750.719 282.362 746.707 281.182 741.987 279.884C735.379 277.878 729.833 275.813 725.349 273.69C720.866 271.448 717.503 268.734 715.261 265.548C713.019 262.362 711.898 258.291 711.898 253.335C711.898 247.317 713.432 242.185 716.5 237.937C719.568 233.689 723.816 230.444 729.243 228.202C734.789 225.96 741.161 224.839 748.359 224.839C755.084 224.839 761.279 225.901 766.943 228.025C772.725 230.031 777.799 233.217 782.165 237.583L773.846 250.503C769.716 246.727 765.468 243.955 761.102 242.185C756.854 240.415 752.253 239.53 747.297 239.53C744.465 239.53 741.751 239.884 739.155 240.592C736.559 241.182 734.376 242.362 732.606 244.132C730.954 245.783 730.128 248.143 730.128 251.211C730.128 253.689 730.836 255.695 732.252 257.229C733.668 258.763 735.792 260.061 738.624 261.123C741.456 262.185 744.937 263.365 749.067 264.663C756.264 266.787 762.4 268.911 767.474 271.035C772.548 273.041 776.442 275.695 779.156 278.999C781.988 282.185 783.404 286.61 783.404 292.274C783.404 301.242 780.041 308.262 773.315 313.336C766.707 318.292 757.857 320.77 746.766 320.77ZM843.269 314.221C841.617 315.047 839.552 315.932 837.074 316.876C834.596 317.82 831.764 318.646 828.578 319.354C825.511 320.062 822.325 320.416 819.021 320.416C815.009 320.416 811.292 319.708 807.87 318.292C804.448 316.876 801.675 314.634 799.551 311.566C797.545 308.38 796.543 304.309 796.543 299.354V241.477H784.33V226.432H796.543V195.989H816.012V226.432H836.189V241.477H816.012V293.159C816.248 296.345 817.251 298.705 819.021 300.239C820.909 301.773 823.21 302.54 825.924 302.54C828.637 302.54 831.233 302.068 833.711 301.124C836.189 300.18 838.018 299.413 839.198 298.823L843.269 314.221ZM888.288 320.77C880.972 320.77 874.423 319.531 868.641 317.053C862.86 314.457 857.845 310.917 853.597 306.433C849.467 301.95 846.281 296.876 844.039 291.212C841.797 285.43 840.676 279.294 840.676 272.805C840.676 266.315 841.797 260.179 844.039 254.397C846.281 248.615 849.467 243.542 853.597 239.176C857.845 234.692 862.86 231.211 868.641 228.733C874.541 226.137 881.09 224.839 888.288 224.839C895.485 224.839 901.975 226.137 907.757 228.733C913.657 231.211 918.672 234.692 922.801 239.176C927.049 243.542 930.294 248.615 932.536 254.397C934.778 260.179 935.899 266.315 935.899 272.805C935.899 279.294 934.778 285.43 932.536 291.212C930.294 296.876 927.049 301.95 922.801 306.433C918.672 310.917 913.657 314.457 907.757 317.053C901.975 319.531 895.485 320.77 888.288 320.77ZM860.677 272.982C860.677 278.881 861.916 284.191 864.393 288.911C866.871 293.631 870.175 297.348 874.305 300.062C878.435 302.776 883.096 304.133 888.288 304.133C893.361 304.133 897.963 302.776 902.093 300.062C906.341 297.23 909.704 293.454 912.182 288.734C914.66 283.896 915.899 278.586 915.899 272.805C915.899 266.905 914.66 261.595 912.182 256.875C909.704 252.155 906.341 248.438 902.093 245.724C897.963 242.893 893.361 241.477 888.288 241.477C883.096 241.477 878.435 242.893 874.305 245.724C870.175 248.556 866.871 252.332 864.393 257.052C861.916 261.654 860.677 266.964 860.677 272.982ZM1056.61 226.432H1075.19L1036.25 319H1019.61L1002.98 277.229L986.34 319H969.702L930.586 226.432H949.171L978.906 300.062L992.003 265.902L976.074 226.609H992.534L1002.98 255.459L1013.24 226.609H1029.7L1013.95 265.902L1027.05 300.062L1056.61 226.432ZM1162.29 319H1142.82V267.141C1142.82 258.527 1141.4 252.214 1138.57 248.202C1135.85 244.191 1131.78 242.185 1126.36 242.185C1122.58 242.185 1118.8 243.129 1115.03 245.017C1111.37 246.904 1108.07 249.5 1105.12 252.804C1102.17 255.99 1100.04 259.707 1098.74 263.955V319H1079.28V226.432H1096.97V245.017C1099.33 240.887 1102.4 237.347 1106.18 234.397C1110.07 231.329 1114.44 228.969 1119.28 227.317C1124.11 225.665 1129.25 224.839 1134.67 224.839C1140.22 224.839 1144.76 225.842 1148.3 227.848C1151.96 229.854 1154.79 232.627 1156.8 236.167C1158.92 239.589 1160.34 243.601 1161.05 248.202C1161.87 252.686 1162.29 257.465 1162.29 262.539V319ZM1213.39 319V193.334H1257.99C1271.56 193.334 1282.89 196.166 1291.98 201.83C1301.06 207.376 1307.85 214.928 1312.33 224.485C1316.93 233.925 1319.23 244.427 1319.23 255.99C1319.23 268.734 1316.7 279.825 1311.62 289.265C1306.67 298.705 1299.59 306.02 1290.38 311.212C1281.18 316.404 1270.38 319 1257.99 319H1213.39ZM1299.06 255.99C1299.06 247.14 1297.41 239.353 1294.1 232.627C1290.92 225.783 1286.25 220.473 1280.12 216.697C1274.1 212.804 1266.73 210.857 1257.99 210.857H1233.22V301.478H1257.99C1266.84 301.478 1274.28 299.472 1280.3 295.46C1286.43 291.448 1291.09 286.02 1294.28 279.176C1297.46 272.333 1299.06 264.604 1299.06 255.99ZM1370.35 320.77C1363.04 320.77 1356.49 319.531 1350.71 317.053C1344.93 314.457 1339.91 310.917 1335.66 306.433C1331.53 301.95 1328.35 296.876 1326.11 291.212C1323.86 285.43 1322.74 279.294 1322.74 272.805C1322.74 266.315 1323.86 260.179 1326.11 254.397C1328.35 248.615 1331.53 243.542 1335.66 239.176C1339.91 234.692 1344.93 231.211 1350.71 228.733C1356.61 226.137 1363.16 224.839 1370.35 224.839C1377.55 224.839 1384.04 226.137 1389.82 228.733C1395.72 231.211 1400.74 234.692 1404.87 239.176C1409.12 243.542 1412.36 248.615 1414.6 254.397C1416.84 260.179 1417.97 266.315 1417.97 272.805C1417.97 279.294 1416.84 285.43 1414.6 291.212C1412.36 296.876 1409.12 301.95 1404.87 306.433C1400.74 310.917 1395.72 314.457 1389.82 317.053C1384.04 319.531 1377.55 320.77 1370.35 320.77ZM1342.74 272.982C1342.74 278.881 1343.98 284.191 1346.46 288.911C1348.94 293.631 1352.24 297.348 1356.37 300.062C1360.5 302.776 1365.16 304.133 1370.35 304.133C1375.43 304.133 1380.03 302.776 1384.16 300.062C1388.41 297.23 1391.77 293.454 1394.25 288.734C1396.73 283.896 1397.97 278.586 1397.97 272.805C1397.97 266.905 1396.73 261.595 1394.25 256.875C1391.77 252.155 1388.41 248.438 1384.16 245.724C1380.03 242.893 1375.43 241.477 1370.35 241.477C1365.16 241.477 1360.5 242.893 1356.37 245.724C1352.24 248.556 1348.94 252.332 1346.46 257.052C1343.98 261.654 1342.74 266.964 1342.74 272.982ZM1468.33 320.77C1461.13 320.77 1454.59 319.531 1448.69 317.053C1442.9 314.457 1437.89 310.917 1433.64 306.433C1429.39 301.95 1426.09 296.817 1423.73 291.035C1421.49 285.253 1420.37 279.117 1420.37 272.628C1420.37 263.896 1422.31 255.931 1426.21 248.733C1430.22 241.536 1435.76 235.754 1442.84 231.388C1450.04 227.022 1458.54 224.839 1468.33 224.839C1477.77 224.839 1485.97 226.963 1492.93 231.211C1500.01 235.341 1505.21 240.887 1508.51 247.848L1489.57 253.866C1487.45 249.972 1484.44 246.963 1480.54 244.84C1476.77 242.598 1472.58 241.477 1467.98 241.477C1462.79 241.477 1458.07 242.834 1453.82 245.547C1449.69 248.143 1446.38 251.801 1443.91 256.521C1441.55 261.123 1440.37 266.492 1440.37 272.628C1440.37 278.527 1441.61 283.896 1444.08 288.734C1446.56 293.454 1449.87 297.23 1454 300.062C1458.24 302.776 1462.96 304.133 1468.15 304.133C1471.34 304.133 1474.41 303.602 1477.36 302.54C1480.43 301.36 1483.08 299.826 1485.32 297.938C1487.56 295.932 1489.16 293.749 1490.1 291.389L1509.22 297.053C1507.21 301.655 1504.2 305.725 1500.19 309.265C1496.3 312.805 1491.64 315.637 1486.21 317.761C1480.9 319.767 1474.94 320.77 1468.33 320.77ZM1580.83 319L1551.09 276.344L1535.87 290.858V319H1516.4V189.794H1535.87V271.212L1578.7 226.609H1599.59L1563.66 265.371L1601.54 319H1580.83ZM1637.09 320.77C1629.31 320.77 1621.93 319.531 1614.97 317.053C1608.01 314.457 1602.05 310.622 1597.09 305.548L1604.35 292.451C1609.66 297.171 1614.97 300.593 1620.28 302.717C1625.71 304.84 1631.08 305.902 1636.39 305.902C1641.81 305.902 1646.24 304.899 1649.66 302.894C1653.08 300.77 1654.79 297.702 1654.79 293.69C1654.79 290.74 1653.91 288.557 1652.14 287.141C1650.37 285.725 1647.77 284.486 1644.35 283.424C1641.05 282.362 1637.03 281.182 1632.32 279.884C1625.71 277.878 1620.16 275.813 1615.68 273.69C1611.19 271.448 1607.83 268.734 1605.59 265.548C1603.35 262.362 1602.23 258.291 1602.23 253.335C1602.23 247.317 1603.76 242.185 1606.83 237.937C1609.9 233.689 1614.14 230.444 1619.57 228.202C1625.12 225.96 1631.49 224.839 1638.69 224.839C1645.41 224.839 1651.61 225.901 1657.27 228.025C1663.05 230.031 1668.13 233.217 1672.49 237.583L1664.17 250.503C1660.04 246.727 1655.8 243.955 1651.43 242.185C1647.18 240.415 1642.58 239.53 1637.62 239.53C1634.79 239.53 1632.08 239.884 1629.48 240.592C1626.89 241.182 1624.7 242.362 1622.93 244.132C1621.28 245.783 1620.46 248.143 1620.46 251.211C1620.46 253.689 1621.16 255.695 1622.58 257.229C1624 258.763 1626.12 260.061 1628.95 261.123C1631.78 262.185 1635.27 263.365 1639.39 264.663C1646.59 266.787 1652.73 268.911 1657.8 271.035C1662.88 273.041 1666.77 275.695 1669.48 278.999C1672.32 282.185 1673.73 286.61 1673.73 292.274C1673.73 301.242 1670.37 308.262 1663.64 313.336C1657.04 318.292 1648.19 320.77 1637.09 320.77Z" fill="white"/>
<g clip-path="url(#clip0_12_1673)">
<path d="M2429.02 192.193H2454.52L2401.08 319.233H2378.25L2355.42 261.907L2332.58 319.233H2309.75L2256.07 192.193H2281.57L2322.38 293.242L2340.36 246.361L2318.49 192.436H2341.08L2355.42 232.03L2369.5 192.436H2392.09L2370.48 246.361L2388.45 293.242L2429.02 192.193Z" fill="#B2BBC8"/>
</g>
<defs>
<clipPath id="clip0_12_1673">
<rect width="198.602" height="127.246" fill="white" transform="translate(2256 192.177)"/>
</clipPath>
</defs>
</svg>
