<svg width="350" height="350" viewBox="0 0 350 350" fill="none" xmlns="http://www.w3.org/2000/svg">
<path d="M0 0H250C305.228 0 350 44.7715 350 100V350H100C44.7715 350 0 305.228 0 250V0Z" fill="#0783D8"/>
<path d="M64.0508 108.471L68.999 104.605C101.415 79.28 147.259 80.5839 178.184 107.711V107.711C209.875 135.51 257.085 136.108 289.47 109.12L290.249 108.471" stroke="white" stroke-width="19.0083" stroke-linecap="round"/>
<path d="M62.1504 175L67.0986 171.134C99.5149 145.809 145.359 147.113 176.283 174.24V174.24C207.975 202.039 255.185 202.637 287.57 175.649L288.349 175" stroke="white" stroke-width="19.0083" stroke-linecap="round"/>
<path d="M60.25 241.529L65.1982 237.663C97.6145 212.338 143.459 213.642 174.383 240.768V240.768C206.074 268.568 253.284 269.166 285.669 242.178L286.448 241.529" stroke="white" stroke-width="19.0083" stroke-linecap="round"/>
</svg>
