<svg width="2560" height="512" viewBox="0 0 2560 512" fill="none" xmlns="http://www.w3.org/2000/svg">
<rect width="2560" height="512" fill="#040D1C"/>
<path d="M509.974 319V191.564H532.983V319H509.974ZM520.947 319V300.77H595.639V319H520.947ZM615.085 319V191.564H637.386V319H615.085ZM666.725 355.284L690.089 302.894L694.159 296.168L719.647 228.733H743.364L689.381 355.284H666.725ZM686.726 318.115L650.088 228.733H674.336L704.956 309.796L686.726 318.115ZM755.954 319V228.733H777.724V249.972H778.255V319H755.954ZM819.318 319V262.008C819.318 256.462 817.902 252.273 815.07 249.441C812.238 246.609 808.108 245.194 802.68 245.194C797.96 245.194 793.713 246.255 789.937 248.379C786.279 250.503 783.388 253.453 781.264 257.229C779.258 261.005 778.255 265.371 778.255 270.327L775.954 248.733C779.022 242.126 783.506 236.875 789.406 232.981C795.305 228.969 802.385 226.963 810.645 226.963C820.439 226.963 828.049 229.736 833.477 235.282C839.023 240.828 841.796 248.202 841.796 257.406V319H819.318ZM857.241 280.238V261.477H920.782V280.238H857.241ZM996.034 320.77C987.42 320.77 980.34 318.764 974.794 314.752C969.367 310.622 966.004 304.958 964.706 297.761L966.299 297.584V319H944.528V191.564H966.83V249.087L965.237 248.733C966.771 242.008 970.37 236.698 976.033 232.804C981.815 228.91 988.954 226.963 997.45 226.963C1005.47 226.963 1012.44 228.91 1018.33 232.804C1024.35 236.58 1029.01 241.949 1032.32 248.91C1035.62 255.872 1037.27 264.073 1037.27 273.513C1037.27 283.07 1035.56 291.389 1032.14 298.469C1028.72 305.548 1023.94 311.035 1017.8 314.929C1011.67 318.823 1004.41 320.77 996.034 320.77ZM990.37 302.363C997.568 302.363 1003.29 299.885 1007.54 294.929C1011.79 289.855 1013.91 282.775 1013.91 273.69C1013.91 264.604 1011.73 257.583 1007.36 252.627C1003.11 247.671 997.391 245.194 990.193 245.194C983.113 245.194 977.39 247.73 973.024 252.804C968.659 257.76 966.476 264.781 966.476 273.867C966.476 282.952 968.659 289.973 973.024 294.929C977.39 299.885 983.172 302.363 990.37 302.363ZM1057.7 355.284L1081.07 302.894L1085.14 296.168L1110.62 228.733H1134.34L1080.36 355.284H1057.7ZM1077.7 318.115L1041.06 228.733H1065.31L1095.93 309.796L1077.7 318.115ZM1136.56 280.238V261.477H1200.1V280.238H1136.56ZM1254.35 320.77C1243.26 320.77 1235.06 318.174 1229.75 312.982C1224.56 307.672 1221.96 299.767 1221.96 289.265V208.202L1244.44 199.883V289.796C1244.44 294.162 1245.62 297.407 1247.98 299.531C1250.34 301.655 1254.06 302.717 1259.13 302.717C1261.14 302.717 1262.91 302.599 1264.44 302.363C1266.09 302.009 1267.63 301.596 1269.04 301.124V318.469C1267.63 319.177 1265.62 319.708 1263.03 320.062C1260.43 320.534 1257.54 320.77 1254.35 320.77ZM1204.62 246.255V228.733H1269.04V246.255H1204.62ZM1285.73 319V191.564H1308.03V319H1285.73ZM1349.09 319V262.008C1349.09 256.462 1347.67 252.273 1344.84 249.441C1342.01 246.609 1337.88 245.194 1332.45 245.194C1327.73 245.194 1323.48 246.255 1319.71 248.379C1316.05 250.503 1313.16 253.453 1311.04 257.229C1309.03 261.005 1308.03 265.371 1308.03 270.327L1305.73 248.733C1308.79 242.126 1313.28 236.875 1319.18 232.981C1325.08 228.969 1332.16 226.963 1340.42 226.963C1350.21 226.963 1357.82 229.736 1363.25 235.282C1368.8 240.828 1371.57 248.202 1371.57 257.406V319H1349.09ZM1434.63 320.77C1425.07 320.77 1416.7 318.764 1409.5 314.752C1402.42 310.74 1396.87 305.194 1392.86 298.115C1388.97 291.035 1387.02 282.893 1387.02 273.69C1387.02 264.486 1388.97 256.403 1392.86 249.441C1396.87 242.362 1402.42 236.875 1409.5 232.981C1416.58 228.969 1424.84 226.963 1434.28 226.963C1443.25 226.963 1451.03 228.851 1457.64 232.627C1464.25 236.285 1469.38 241.477 1473.04 248.202C1476.7 254.928 1478.53 262.775 1478.53 271.743C1478.53 273.395 1478.47 274.928 1478.35 276.344C1478.23 277.76 1478.05 279.176 1477.82 280.592H1400.83V265.017H1460.65L1456.05 269.265C1456.05 260.769 1454.1 254.397 1450.21 250.149C1446.31 245.901 1440.89 243.778 1433.92 243.778C1426.37 243.778 1420.35 246.373 1415.87 251.565C1411.5 256.757 1409.32 264.25 1409.32 274.044C1409.32 283.719 1411.5 291.153 1415.87 296.345C1420.35 301.419 1426.67 303.956 1434.81 303.956C1439.53 303.956 1443.66 303.071 1447.2 301.301C1450.74 299.531 1453.33 296.817 1454.99 293.159H1476.05C1473.1 301.655 1468.08 308.38 1461 313.336C1454.04 318.292 1445.25 320.77 1434.63 320.77ZM1491.76 280.238V261.477H1555.3V280.238H1491.76ZM1619.94 320.593C1603.89 320.593 1591.09 316.935 1581.53 309.619C1572.09 302.186 1566.54 291.743 1564.89 278.291H1587.02C1588.08 286.079 1591.56 292.156 1597.46 296.522C1603.36 300.77 1611.09 302.894 1620.64 302.894C1628.55 302.894 1634.57 301.478 1638.7 298.646C1642.95 295.696 1645.07 291.625 1645.07 286.433C1645.07 281.831 1643.77 278.114 1641.18 275.282C1638.58 272.451 1634.21 270.15 1628.08 268.38L1605.07 261.477C1593.39 257.937 1584.77 253.276 1579.23 247.494C1573.8 241.713 1571.09 234.456 1571.09 225.724C1571.09 218.408 1572.97 212.037 1576.75 206.609C1580.53 201.181 1585.84 196.992 1592.68 194.042C1599.64 191.092 1607.72 189.617 1616.93 189.617C1631.09 189.617 1642.36 193.098 1650.73 200.06C1659.23 206.904 1664.07 216.225 1665.25 228.025H1643.12C1641.82 220.945 1638.87 215.754 1634.27 212.45C1629.67 209.028 1623.48 207.317 1615.69 207.317C1608.84 207.317 1603.42 208.674 1599.4 211.388C1595.39 214.102 1593.39 217.818 1593.39 222.538C1593.39 226.432 1594.57 229.736 1596.93 232.45C1599.4 235.164 1603.95 237.524 1610.56 239.53L1633.92 246.609C1645.6 250.031 1654.1 254.692 1659.41 260.592C1664.72 266.492 1667.37 273.985 1667.37 283.07C1667.37 295.106 1663.18 304.368 1654.8 310.858C1646.54 317.348 1634.92 320.593 1619.94 320.593ZM1724.32 320.77C1714.76 320.77 1706.39 318.764 1699.19 314.752C1692.11 310.74 1686.56 305.194 1682.55 298.115C1678.66 291.035 1676.71 282.893 1676.71 273.69C1676.71 264.486 1678.66 256.403 1682.55 249.441C1686.56 242.362 1692.11 236.875 1699.19 232.981C1706.27 228.969 1714.53 226.963 1723.97 226.963C1732.93 226.963 1740.72 228.851 1747.33 232.627C1753.94 236.285 1759.07 241.477 1762.73 248.202C1766.39 254.928 1768.22 262.775 1768.22 271.743C1768.22 273.395 1768.16 274.928 1768.04 276.344C1767.92 277.76 1767.74 279.176 1767.51 280.592H1690.52V265.017H1750.34L1745.74 269.265C1745.74 260.769 1743.79 254.397 1739.9 250.149C1736 245.901 1730.57 243.778 1723.61 243.778C1716.06 243.778 1710.04 246.373 1705.56 251.565C1701.19 256.757 1699.01 264.25 1699.01 274.044C1699.01 283.719 1701.19 291.153 1705.56 296.345C1710.04 301.419 1716.36 303.956 1724.5 303.956C1729.22 303.956 1733.35 303.071 1736.89 301.301C1740.43 299.531 1743.02 296.817 1744.68 293.159H1765.74C1762.79 301.655 1757.77 308.38 1750.69 313.336C1743.73 318.292 1734.94 320.77 1724.32 320.77ZM1839.81 319C1839.22 316.64 1838.74 314.044 1838.39 311.212C1838.15 308.38 1838.04 304.958 1838.04 300.947H1837.33V258.114C1837.33 253.394 1835.97 249.854 1833.26 247.494C1830.66 245.017 1826.65 243.778 1821.22 243.778C1815.91 243.778 1811.66 244.781 1808.48 246.786C1805.41 248.674 1803.52 251.447 1802.81 255.105H1781.4C1782.34 246.727 1786.35 239.943 1793.43 234.751C1800.51 229.559 1810.01 226.963 1821.93 226.963C1834.32 226.963 1843.7 229.795 1850.07 235.459C1856.44 241.005 1859.63 249.205 1859.63 260.061V300.947C1859.63 303.779 1859.81 306.669 1860.16 309.619C1860.63 312.569 1861.28 315.696 1862.11 319H1839.81ZM1808.48 320.77C1799.39 320.77 1792.14 318.528 1786.71 314.044C1781.4 309.442 1778.74 303.307 1778.74 295.637C1778.74 287.377 1781.75 280.828 1787.77 275.99C1793.79 271.153 1802.28 267.908 1813.26 266.256L1841.4 262.008V276.167L1816.97 279.884C1811.66 280.71 1807.65 282.185 1804.94 284.309C1802.34 286.433 1801.04 289.383 1801.04 293.159C1801.04 296.581 1802.28 299.236 1804.76 301.124C1807.24 302.894 1810.66 303.779 1815.03 303.779C1821.4 303.779 1826.71 302.186 1830.96 299C1835.2 295.814 1837.33 291.92 1837.33 287.318L1839.81 300.947C1837.45 307.436 1833.55 312.392 1828.12 315.814C1822.81 319.118 1816.27 320.77 1808.48 320.77Z" fill="white"/>
<path d="M56 81H306C361.228 81 406 125.772 406 181V431H156C100.772 431 56 386.228 56 331V81Z" fill="#0783D8"/>
<path d="M120.051 189.471L124.999 185.605C157.415 160.28 203.259 161.584 234.184 188.711V188.711C265.875 216.51 313.085 217.108 345.47 190.12L346.249 189.471" stroke="white" stroke-width="19.0083" stroke-linecap="round"/>
<path d="M118.15 256L123.099 252.134C155.515 226.809 201.359 228.113 232.283 255.24V255.24C263.975 283.039 311.185 283.637 343.57 256.649L344.349 256" stroke="white" stroke-width="19.0083" stroke-linecap="round"/>
<path d="M116.25 322.529L121.198 318.663C153.615 293.338 199.459 294.642 230.383 321.768V321.768C262.074 349.568 309.284 350.166 341.669 323.178L342.448 322.529" stroke="white" stroke-width="19.0083" stroke-linecap="round"/>
</svg>
