<svg width="2560" height="512" viewBox="0 0 2560 512" fill="none" xmlns="http://www.w3.org/2000/svg">
<g clip-path="url(#clip0_12_1870)">
<rect width="2560" height="512" fill="white"/>
<line y1="468" x2="2195" y2="468" stroke="#EC7D33" stroke-width="30"/>
<line x1="2435.16" y1="468" x2="2560.16" y2="468" stroke="#EC7D33" stroke-width="30"/>
<g clip-path="url(#clip1_12_1870)">
<path fill-rule="evenodd" clip-rule="evenodd" d="M2260.01 482.938L2373.24 284.963H2353.49C2344 284.963 2335.24 290.046 2330.53 298.285C2305.12 342.701 2224.92 482.938 2224.92 482.938H2260.01Z" fill="#B2B2B2"/>
<path fill-rule="evenodd" clip-rule="evenodd" d="M2212.34 482.938L2325.56 284.963H2305.82C2296.33 284.963 2287.56 290.046 2282.85 298.285C2257.45 342.701 2177.25 482.938 2177.25 482.938H2212.34Z" fill="#EC7D33"/>
<path fill-rule="evenodd" clip-rule="evenodd" d="M2381.18 482.939L2335.5 403.483H2355.28C2364.75 403.483 2373.5 408.543 2378.22 416.752C2391.22 439.363 2416.28 482.939 2416.28 482.939H2381.18Z" fill="#B2B2B2"/>
<path fill-rule="evenodd" clip-rule="evenodd" d="M2429.52 482.939L2383.83 403.483H2403.62C2413.09 403.483 2421.83 408.543 2426.55 416.752C2439.55 439.363 2464.61 482.939 2464.61 482.939H2429.52Z" fill="#EC7D33"/>
</g>
<path d="M80.4522 318L131.426 194.104H160.984L211.428 318H183.64L171.073 285.433H119.922L107.178 318H80.4522ZM127.887 264.902H163.285L145.586 219.237L127.887 264.902ZM215.042 318V225.786H239.29V318H215.042ZM227.078 214.813C223.302 214.813 220.057 213.456 217.343 210.742C214.629 208.028 213.272 204.783 213.272 201.007C213.272 197.113 214.629 193.868 217.343 191.272C220.057 188.558 223.302 187.201 227.078 187.201C230.972 187.201 234.217 188.558 236.813 191.272C239.526 193.868 240.883 197.113 240.883 201.007C240.883 204.783 239.526 208.028 236.813 210.742C234.217 213.456 230.972 214.813 227.078 214.813ZM252.944 318V225.786H277.192V236.052C280.142 232.04 283.682 228.972 287.812 226.848C291.942 224.724 296.602 223.662 301.794 223.662C306.278 223.78 309.641 224.488 311.883 225.786V247.025C310.113 246.199 308.166 245.609 306.042 245.255C303.918 244.783 301.735 244.547 299.493 244.547C294.773 244.547 290.467 245.727 286.573 248.087C282.679 250.447 279.552 253.81 277.192 258.176V318H252.944ZM319.884 354.107V225.786H343.778V233.397C351.329 227.497 360.061 224.547 369.973 224.547C378.705 224.547 386.61 226.671 393.69 230.919C400.77 235.167 406.375 240.89 410.504 248.087C414.752 255.167 416.876 263.132 416.876 271.982C416.876 280.831 414.752 288.855 410.504 296.053C406.257 303.133 400.534 308.796 393.336 313.044C386.138 317.174 378.115 319.239 369.265 319.239C364.663 319.239 360.238 318.649 355.99 317.469C351.742 316.171 347.79 314.342 344.132 311.982V354.107H319.884ZM366.079 298.708C371.153 298.708 375.696 297.528 379.708 295.168C383.837 292.808 387.082 289.622 389.442 285.61C391.802 281.598 392.982 277.055 392.982 271.982C392.982 266.908 391.802 262.365 389.442 258.353C387.082 254.223 383.837 251.037 379.708 248.795C375.696 246.435 371.153 245.255 366.079 245.255C361.595 245.255 357.465 246.022 353.689 247.556C350.032 248.972 346.846 251.155 344.132 254.105V290.035C346.728 292.749 349.914 294.873 353.689 296.407C357.583 297.941 361.713 298.708 366.079 298.708ZM471.189 319.77C461.985 319.77 453.666 317.646 446.232 313.398C438.799 309.15 432.899 303.427 428.533 296.23C424.167 289.032 421.984 280.949 421.984 271.982C421.984 263.014 424.108 254.931 428.356 247.733C432.722 240.418 438.622 234.636 446.055 230.388C453.607 226.14 461.985 224.016 471.189 224.016C480.392 224.016 488.711 226.14 496.145 230.388C503.696 234.636 509.596 240.418 513.844 247.733C518.21 254.931 520.393 263.014 520.393 271.982C520.393 280.949 518.21 289.032 513.844 296.23C509.596 303.427 503.755 309.15 496.322 313.398C488.888 317.646 480.51 319.77 471.189 319.77ZM471.189 298.708C476.026 298.708 480.333 297.528 484.109 295.168C488.003 292.808 491.071 289.622 493.313 285.61C495.673 281.48 496.853 276.937 496.853 271.982C496.853 266.908 495.673 262.365 493.313 258.353C491.071 254.341 488.003 251.155 484.109 248.795C480.333 246.317 476.026 245.078 471.189 245.078C466.469 245.078 462.162 246.317 458.268 248.795C454.374 251.155 451.306 254.341 449.064 258.353C446.822 262.365 445.701 266.908 445.701 271.982C445.701 276.937 446.822 281.48 449.064 285.61C451.306 289.622 454.374 292.808 458.268 295.168C462.162 297.528 466.469 298.708 471.189 298.708ZM529.988 318V225.786H554.236V236.052C557.186 232.04 560.726 228.972 564.856 226.848C568.986 224.724 573.646 223.662 578.838 223.662C583.322 223.78 586.685 224.488 588.927 225.786V247.025C587.157 246.199 585.21 245.609 583.086 245.255C580.962 244.783 578.779 244.547 576.537 244.547C571.817 244.547 567.511 245.727 563.617 248.087C559.723 250.447 556.596 253.81 554.236 258.176V318H529.988ZM640.645 319.416C630.379 319.416 622.592 317.115 617.282 312.513C612.09 307.793 609.494 300.95 609.494 291.982V245.963H590.556V225.786H609.494V202.246L633.742 196.759V225.786H660.114V245.963H633.742V287.026C633.742 291.274 634.686 294.342 636.574 296.23C638.462 298 641.766 298.885 646.486 298.885C648.846 298.885 650.97 298.767 652.858 298.531C654.864 298.177 657.047 297.587 659.406 296.761V316.761C656.929 317.587 653.802 318.236 650.026 318.708C646.368 319.18 643.241 319.416 640.645 319.416ZM698.522 318V194.104H760.647C768.789 194.104 775.927 195.756 782.063 199.06C788.317 202.364 793.214 206.966 796.754 212.866C800.294 218.647 802.064 225.373 802.064 233.043C802.064 240.359 800.294 246.907 796.754 252.689C793.214 258.471 788.317 263.014 782.063 266.318C775.809 269.622 768.671 271.274 760.647 271.274H724.186V318H698.522ZM724.186 250.034H757.815C763.361 250.034 767.786 248.5 771.09 245.432C774.512 242.365 776.222 238.294 776.222 233.22C776.222 228.028 774.512 223.898 771.09 220.83C767.786 217.762 763.361 216.228 757.815 216.228H724.186V250.034ZM838.017 319.593C831.409 319.593 825.568 318.413 820.494 316.053C815.421 313.575 811.468 310.212 808.636 305.964C805.804 301.717 804.388 296.82 804.388 291.274C804.388 282.424 807.692 275.58 814.3 270.743C821.025 265.787 830.229 263.309 841.911 263.309C849.934 263.309 857.486 264.548 864.566 267.026V260.3C864.566 254.99 862.914 250.978 859.61 248.264C856.306 245.55 851.468 244.194 845.097 244.194C841.203 244.194 837.014 244.842 832.53 246.14C828.046 247.32 822.854 249.208 816.955 251.804L808.105 233.928C815.421 230.624 822.382 228.146 828.99 226.494C835.716 224.842 842.442 224.016 849.167 224.016C861.557 224.016 871.174 227.025 878.018 233.043C884.979 238.943 888.46 247.32 888.46 258.176V318H864.566V311.451C860.79 314.283 856.719 316.348 852.353 317.646C847.988 318.944 843.209 319.593 838.017 319.593ZM827.397 290.743C827.397 294.283 828.931 297.115 831.999 299.239C835.067 301.245 839.138 302.248 844.212 302.248C848.224 302.248 851.94 301.776 855.362 300.832C858.784 299.77 861.852 298.236 864.566 296.23V282.778C861.616 281.598 858.548 280.713 855.362 280.123C852.176 279.533 848.755 279.238 845.097 279.238C839.551 279.238 835.185 280.3 831.999 282.424C828.931 284.43 827.397 287.203 827.397 290.743ZM901.502 318V225.786H925.751V236.052C928.7 232.04 932.24 228.972 936.37 226.848C940.5 224.724 945.161 223.662 950.353 223.662C954.837 223.78 958.199 224.488 960.441 225.786V247.025C958.671 246.199 956.725 245.609 954.601 245.255C952.477 244.783 950.294 244.547 948.052 244.547C943.332 244.547 939.025 245.727 935.131 248.087C931.237 250.447 928.11 253.81 925.751 258.176V318H901.502ZM968.442 318V194.104L992.69 190.033V264.548L1032.51 225.786H1059.95L1016.41 268.088L1062.6 318H1031.63L992.69 275.875V318H968.442ZM1081.94 318L1056.63 225.786H1079.64L1094.86 285.256L1113.27 225.786H1133.62L1151.85 285.433L1167.08 225.786H1189.73L1164.24 318H1141.06L1123.18 259.061L1105.31 318H1081.94ZM1223.66 319.593C1217.05 319.593 1211.21 318.413 1206.13 316.053C1201.06 313.575 1197.11 310.212 1194.28 305.964C1191.44 301.717 1190.03 296.82 1190.03 291.274C1190.03 282.424 1193.33 275.58 1199.94 270.743C1206.66 265.787 1215.87 263.309 1227.55 263.309C1235.57 263.309 1243.13 264.548 1250.21 267.026V260.3C1250.21 254.99 1248.55 250.978 1245.25 248.264C1241.95 245.55 1237.11 244.194 1230.74 244.194C1226.84 244.194 1222.65 244.842 1218.17 246.14C1213.69 247.32 1208.49 249.208 1202.59 251.804L1193.74 233.928C1201.06 230.624 1208.02 228.146 1214.63 226.494C1221.36 224.842 1228.08 224.016 1234.81 224.016C1247.2 224.016 1256.81 227.025 1263.66 233.043C1270.62 238.943 1274.1 247.32 1274.1 258.176V318H1250.21V311.451C1246.43 314.283 1242.36 316.348 1237.99 317.646C1233.63 318.944 1228.85 319.593 1223.66 319.593ZM1213.04 290.743C1213.04 294.283 1214.57 297.115 1217.64 299.239C1220.71 301.245 1224.78 302.248 1229.85 302.248C1233.86 302.248 1237.58 301.776 1241 300.832C1244.42 299.77 1247.49 298.236 1250.21 296.23V282.778C1247.26 281.598 1244.19 280.713 1241 280.123C1237.82 279.533 1234.39 279.238 1230.74 279.238C1225.19 279.238 1220.82 280.3 1217.64 282.424C1214.57 284.43 1213.04 287.203 1213.04 290.743ZM1294.44 356.054C1292.32 356.054 1290.25 355.936 1288.25 355.7C1286.36 355.582 1284.76 355.405 1283.47 355.169V334.283C1285.83 334.755 1288.66 334.991 1291.96 334.991C1300.81 334.991 1306.95 330.803 1310.37 322.425L1311.79 318.885L1275.86 225.786H1302.58L1325.59 288.619L1351.61 225.786H1377.8L1335.33 325.434C1332.14 332.867 1328.66 338.826 1324.88 343.31C1321.11 347.794 1316.74 351.039 1311.79 353.045C1306.95 355.051 1301.17 356.054 1294.44 356.054Z" fill="#2A2A2A"/>
</g>
<defs>
<clipPath id="clip0_12_1870">
<rect width="2560" height="512" fill="white"/>
</clipPath>
<clipPath id="clip1_12_1870">
<rect width="287.753" height="198.099" fill="white" transform="translate(2177.16 284.901)"/>
</clipPath>
</defs>
</svg>
