<svg width="3544" height="508" viewBox="0 0 3544 508" fill="none" xmlns="http://www.w3.org/2000/svg">
<g clip-path="url(#clip0_12_518)">
<path fill-rule="evenodd" clip-rule="evenodd" d="M155.579 350.699L0.847046 200.517L205.64 0.275454L283.006 77.6416L242.048 118.6L205.64 82.1926L87.3152 200.517L196.538 312.016L155.579 350.699Z" fill="white"/>
<path fill-rule="evenodd" clip-rule="evenodd" d="M160.13 195.966L201.089 155.008L353.546 307.465L148.753 507.707L71.3866 430.341L112.345 389.382L148.753 425.79L267.078 305.189L160.13 195.966Z" fill="white"/>
<path d="M578.421 359.048V167.178H505.285V145.859H675.836V167.178H602.701V359.048H578.421ZM675.904 359.048V208.039H698.111V246.532H699.591V359.048H675.904ZM699.591 280.287L695.742 244.459C699.295 231.628 705.612 221.857 714.692 215.145C723.772 208.434 734.235 205.078 746.078 205.078C751.013 205.078 754.369 205.473 756.146 206.262V229.062C755.159 228.667 753.777 228.47 752 228.47C750.224 228.272 748.052 228.174 745.486 228.174C730.484 228.174 719.035 232.714 711.139 241.794C703.441 250.677 699.591 263.508 699.591 280.287ZM875.281 359.048C874.491 355.692 873.899 351.843 873.504 347.5C873.307 343.158 873.208 337.631 873.208 330.919H871.727V258.672C871.727 247.222 869.062 238.833 863.733 233.503C858.6 227.976 850.211 225.213 838.565 225.213C827.116 225.213 817.937 227.581 811.028 232.319C804.316 236.859 800.566 243.373 799.776 251.861H776.977C777.964 237.254 784.083 225.805 795.334 217.514C806.586 209.223 821.292 205.078 839.453 205.078C858.206 205.078 872.122 209.52 881.202 218.402C890.283 227.285 894.823 240.61 894.823 258.375V330.919C894.823 335.262 895.119 339.802 895.711 344.539C896.303 349.08 897.093 353.916 898.08 359.048H875.281ZM823.464 362.009C807.869 362.009 795.433 358.259 786.156 350.757C777.075 343.059 772.535 332.597 772.535 319.371C772.535 306.146 777.075 295.881 786.156 288.577C795.236 281.274 808.461 276.141 825.832 273.18L878.538 264.297V283.84L829.386 291.538C818.331 293.315 809.942 296.276 804.217 300.421C798.493 304.566 795.631 310.587 795.631 318.483C795.631 326.181 798.197 332.005 803.329 335.953C808.659 339.901 816.456 341.875 826.721 341.875C839.946 341.875 850.705 338.914 858.995 332.992C867.483 326.872 871.727 318.976 871.727 309.304L875.577 330.327C872.418 340.394 866.2 348.191 856.923 353.718C847.842 359.246 836.689 362.009 823.464 362.009ZM940.482 359.048V208.039H962.689V243.571H964.17V359.048H940.482ZM1048.56 359.048V260.152C1048.56 248.703 1045.69 240.116 1039.97 234.392C1034.25 228.667 1025.76 225.805 1014.51 225.805C1004.64 225.805 995.852 227.976 988.153 232.319C980.652 236.662 974.73 242.682 970.388 250.381C966.242 258.079 964.17 267.061 964.17 277.326L960.32 241.498C965.453 230.246 973.25 221.363 983.712 214.849C994.371 208.335 1006.41 205.078 1019.84 205.078C1035.63 205.078 1048.26 209.618 1057.74 218.698C1067.41 227.581 1072.24 239.327 1072.24 253.934V359.048H1048.56ZM1168.38 362.009C1149.83 362.009 1135.02 357.765 1123.97 349.277C1112.91 340.592 1106.6 328.353 1105.02 312.561H1127.82C1129.2 322.234 1133.44 329.636 1140.55 334.768C1147.65 339.901 1157.13 342.467 1168.97 342.467C1179.44 342.467 1187.63 340.493 1193.55 336.545C1199.47 332.597 1202.43 326.971 1202.43 319.667C1202.43 314.535 1200.75 310.094 1197.4 306.343C1194.04 302.395 1187.33 299.138 1177.26 296.572L1152.98 290.354C1139.17 286.801 1128.8 281.372 1121.89 274.069C1114.99 266.567 1111.53 257.685 1111.53 247.42C1111.53 234.392 1116.37 224.127 1126.04 216.626C1135.71 208.927 1148.84 205.078 1165.42 205.078C1181.8 205.078 1195.13 209.026 1205.39 216.922C1215.66 224.818 1221.48 235.773 1222.86 249.789H1200.06C1198.68 241.695 1194.93 235.477 1188.81 231.135C1182.69 226.792 1174.6 224.62 1164.53 224.62C1154.86 224.62 1147.36 226.496 1142.03 230.246C1136.7 233.799 1134.03 238.932 1134.03 245.643C1134.03 250.776 1135.91 255.217 1139.66 258.968C1143.61 262.718 1150.12 265.877 1159.2 268.443L1182.89 274.957C1196.91 278.707 1207.47 284.432 1214.57 292.13C1221.68 299.829 1225.23 309.107 1225.23 319.963C1225.23 333.189 1220.2 343.552 1210.13 351.054C1200.06 358.357 1186.15 362.009 1168.38 362.009ZM1331.72 361.713C1317.51 361.713 1305.57 358.259 1295.9 351.35C1286.22 344.441 1279.61 334.67 1276.06 322.036L1280.8 321.444V419.748H1257.11V208.039H1279.32V243.274L1276.06 242.386C1279.81 230.74 1286.92 221.659 1297.38 215.145C1307.84 208.434 1319.98 205.078 1333.8 205.078C1347.22 205.078 1358.87 208.335 1368.74 214.849C1378.8 221.363 1386.6 230.444 1392.13 242.09C1397.66 253.737 1400.42 267.357 1400.42 282.951C1400.42 298.743 1397.56 312.561 1391.83 324.405C1386.11 336.249 1378.11 345.428 1367.85 351.942C1357.58 358.456 1345.54 361.713 1331.72 361.713ZM1328.17 340.986C1343.17 340.986 1354.92 335.854 1363.41 325.589C1371.9 315.127 1376.14 300.915 1376.14 282.951C1376.14 265.186 1371.9 251.269 1363.41 241.202C1354.92 230.937 1343.17 225.805 1328.17 225.805C1313.17 225.805 1301.33 231.036 1292.64 241.498C1283.95 251.763 1279.61 265.877 1279.61 283.84C1279.61 301.408 1283.95 315.325 1292.64 325.589C1301.33 335.854 1313.17 340.986 1328.17 340.986ZM1499.45 362.009C1484.64 362.009 1471.61 358.555 1460.36 351.646C1449.11 344.737 1440.33 335.36 1434.01 323.517C1427.89 311.475 1424.83 297.954 1424.83 282.951C1424.83 267.752 1427.99 254.329 1434.31 242.682C1440.62 231.036 1449.31 221.857 1460.36 215.145C1471.61 208.434 1484.64 205.078 1499.45 205.078C1514.45 205.078 1527.48 208.434 1538.53 215.145C1549.78 221.857 1558.47 231.036 1564.59 242.682C1570.91 254.329 1574.06 267.752 1574.06 282.951C1574.06 297.954 1570.91 311.475 1564.59 323.517C1558.47 335.36 1549.78 344.737 1538.53 351.646C1527.48 358.555 1514.45 362.009 1499.45 362.009ZM1499.45 341.875C1509.71 341.875 1518.59 339.407 1526.1 334.472C1533.6 329.34 1539.42 322.332 1543.57 313.449C1547.71 304.566 1549.78 294.302 1549.78 282.655C1549.78 265.284 1545.14 251.368 1535.87 240.906C1526.79 230.444 1514.65 225.213 1499.45 225.213C1484.44 225.213 1472.3 230.444 1463.03 240.906C1453.75 251.368 1449.11 265.284 1449.11 282.655C1449.11 294.302 1451.18 304.566 1455.33 313.449C1459.47 322.332 1465.3 329.34 1472.8 334.472C1480.5 339.407 1489.38 341.875 1499.45 341.875ZM1609.59 359.048V208.039H1631.8V246.532H1633.28V359.048H1609.59ZM1633.28 280.287L1629.43 244.459C1632.98 231.628 1639.3 221.857 1648.38 215.145C1657.46 208.434 1667.92 205.078 1679.77 205.078C1684.7 205.078 1688.06 205.473 1689.83 206.262V229.062C1688.85 228.667 1687.46 228.47 1685.69 228.47C1683.91 228.272 1681.74 228.174 1679.17 228.174C1664.17 228.174 1652.72 232.714 1644.83 241.794C1637.13 250.677 1633.28 263.508 1633.28 280.287ZM1784.5 361.713C1767.72 361.713 1755.48 357.963 1747.78 350.461C1740.28 342.763 1736.53 331.709 1736.53 317.299V172.804L1760.22 163.921V317.003C1760.22 325.491 1762.39 331.709 1766.73 335.657C1771.08 339.605 1778.18 341.578 1788.05 341.578C1792 341.578 1795.36 341.381 1798.12 340.986C1801.08 340.394 1803.45 339.703 1805.23 338.914V359.048C1803.25 359.838 1800.39 360.43 1796.64 360.825C1793.09 361.417 1789.04 361.713 1784.5 361.713ZM1705.44 228.174V208.039H1805.23V228.174H1705.44ZM1907.42 359.048V186.72C1907.42 172.902 1911.37 162.144 1919.27 154.446C1927.36 146.747 1939.6 142.898 1955.98 142.898C1959.93 142.898 1962.99 143.095 1965.16 143.49C1967.53 143.885 1969.51 144.378 1971.08 144.97V163.625C1969.7 163.23 1967.73 162.835 1965.16 162.44C1962.79 162.045 1960.23 161.848 1957.46 161.848C1948.38 161.848 1941.67 164.118 1937.33 168.658C1933.18 173.198 1931.11 179.614 1931.11 187.904V359.048H1907.42ZM1876.33 228.174V208.039H1967.83V228.174H1876.33ZM2056.65 362.009C2041.85 362.009 2028.82 358.555 2017.57 351.646C2006.32 344.737 1997.53 335.36 1991.21 323.517C1985.1 311.475 1982.04 297.954 1982.04 282.951C1982.04 267.752 1985.19 254.329 1991.51 242.682C1997.83 231.036 2006.51 221.857 2017.57 215.145C2028.82 208.434 2041.85 205.078 2056.65 205.078C2071.65 205.078 2084.68 208.434 2095.74 215.145C2106.99 221.857 2115.67 231.036 2121.79 242.682C2128.11 254.329 2131.27 267.752 2131.27 282.951C2131.27 297.954 2128.11 311.475 2121.79 323.517C2115.67 335.36 2106.99 344.737 2095.74 351.646C2084.68 358.555 2071.65 362.009 2056.65 362.009ZM2056.65 341.875C2066.92 341.875 2075.8 339.407 2083.3 334.472C2090.8 329.34 2096.62 322.332 2100.77 313.449C2104.92 304.566 2106.99 294.302 2106.99 282.655C2106.99 265.284 2102.35 251.368 2093.07 240.906C2083.99 230.444 2071.85 225.213 2056.65 225.213C2041.65 225.213 2029.51 230.444 2020.23 240.906C2010.95 251.368 2006.32 265.284 2006.32 282.655C2006.32 294.302 2008.39 304.566 2012.53 313.449C2016.68 322.332 2022.5 329.34 2030 334.472C2037.7 339.407 2046.58 341.875 2056.65 341.875ZM2166.8 359.048V208.039H2189V246.532H2190.48V359.048H2166.8ZM2190.48 280.287L2186.63 244.459C2190.19 231.628 2196.5 221.857 2205.58 215.145C2214.66 208.434 2225.13 205.078 2236.97 205.078C2241.9 205.078 2245.26 205.473 2247.04 206.262V229.062C2246.05 228.667 2244.67 228.47 2242.89 228.47C2241.12 228.272 2238.94 228.174 2236.38 228.174C2221.38 228.174 2209.93 232.714 2202.03 241.794C2194.33 250.677 2190.48 263.508 2190.48 280.287ZM2414.39 361.713C2387.54 361.713 2366.13 355.594 2350.14 343.355C2334.34 330.919 2325.07 313.449 2322.3 290.946H2359.32C2361.09 303.974 2366.92 314.14 2376.79 321.444C2386.66 328.55 2399.58 332.103 2415.57 332.103C2428.8 332.103 2438.87 329.735 2445.78 324.997C2452.88 320.062 2456.44 313.252 2456.44 304.566C2456.44 296.868 2454.26 290.65 2449.92 285.912C2445.58 281.175 2438.27 277.326 2428.01 274.365L2389.52 262.817C2369.98 256.895 2355.57 249.098 2346.29 239.425C2337.21 229.753 2332.67 217.613 2332.67 203.005C2332.67 190.767 2335.83 180.107 2342.14 171.027C2348.46 161.947 2357.34 154.939 2368.79 150.004C2380.44 145.069 2393.96 142.602 2409.36 142.602C2433.04 142.602 2451.9 148.425 2465.91 160.071C2480.12 171.52 2488.22 187.115 2490.19 206.855H2453.18C2451.01 195.011 2446.07 186.325 2438.37 180.798C2430.67 175.074 2420.31 172.211 2407.28 172.211C2395.83 172.211 2386.75 174.481 2380.04 179.022C2373.33 183.562 2369.98 189.78 2369.98 197.676C2369.98 204.19 2371.95 209.717 2375.9 214.257C2380.04 218.797 2387.64 222.745 2398.7 226.101L2437.78 237.945C2457.32 243.669 2471.54 251.466 2480.42 261.336C2489.3 271.206 2493.74 283.741 2493.74 298.941C2493.74 319.075 2486.74 334.571 2472.72 345.428C2458.9 356.285 2439.46 361.713 2414.39 361.713ZM2588.73 362.009C2570.17 362.009 2556.45 357.666 2547.57 348.981C2538.88 340.098 2534.54 326.872 2534.54 309.304V173.692L2572.15 159.775V310.192C2572.15 317.496 2574.12 322.924 2578.07 326.478C2582.02 330.031 2588.23 331.807 2596.72 331.807C2600.08 331.807 2603.04 331.61 2605.61 331.215C2608.37 330.623 2610.94 329.932 2613.3 329.142V358.16C2610.94 359.344 2607.58 360.233 2603.24 360.825C2598.89 361.614 2594.06 362.009 2588.73 362.009ZM2505.52 237.353V208.039H2613.3V237.353H2505.52ZM2704.39 362.009C2688.4 362.009 2674.39 358.653 2662.34 351.942C2650.5 345.23 2641.22 335.953 2634.51 324.109C2628 312.265 2624.74 298.645 2624.74 283.248C2624.74 267.85 2628 254.329 2634.51 242.682C2641.22 230.838 2650.5 221.659 2662.34 215.145C2674.19 208.434 2688.01 205.078 2703.8 205.078C2718.8 205.078 2731.83 208.236 2742.88 214.553C2753.94 220.672 2762.52 229.358 2768.64 240.61C2774.76 251.861 2777.82 264.988 2777.82 279.99C2777.82 282.754 2777.72 285.32 2777.53 287.689C2777.33 290.058 2777.03 292.426 2776.64 294.795H2647.84V268.739H2747.92L2740.22 275.845C2740.22 261.632 2736.96 250.973 2730.45 243.867C2723.93 236.76 2714.85 233.207 2703.21 233.207C2690.57 233.207 2680.51 237.55 2673 246.235C2665.7 254.921 2662.05 267.456 2662.05 283.84C2662.05 300.026 2665.7 312.462 2673 321.148C2680.51 329.636 2691.07 333.88 2704.69 333.88C2712.58 333.88 2719.49 332.4 2725.41 329.439C2731.34 326.478 2735.68 321.937 2738.44 315.818H2773.68C2768.74 330.031 2760.35 341.282 2748.51 349.573C2736.86 357.864 2722.16 362.009 2704.39 362.009ZM2891.91 362.009C2877.5 362.009 2865.75 358.653 2856.67 351.942C2847.79 345.033 2842.26 335.558 2840.09 323.517L2843.05 323.221V419.748H2805.74V208.039H2842.16V242.09L2839.2 241.498C2841.96 230.246 2848.28 221.363 2858.15 214.849C2868.02 208.335 2880.06 205.078 2894.27 205.078C2907.7 205.078 2919.34 208.335 2929.21 214.849C2939.28 221.166 2947.08 230.148 2952.6 241.794C2958.13 253.44 2960.9 267.16 2960.9 282.951C2960.9 298.941 2958.03 312.857 2952.31 324.701C2946.58 336.545 2938.59 345.724 2928.32 352.238C2918.06 358.752 2905.92 362.009 2891.91 362.009ZM2882.43 331.215C2894.47 331.215 2904.05 327.07 2911.15 318.779C2918.26 310.291 2921.81 298.447 2921.81 283.248C2921.81 268.048 2918.16 256.303 2910.86 248.012C2903.75 239.721 2894.18 235.576 2882.13 235.576C2870.29 235.576 2860.72 239.82 2853.41 248.308C2846.11 256.599 2842.46 268.344 2842.46 283.544C2842.46 298.743 2846.11 310.488 2853.41 318.779C2860.72 327.07 2870.39 331.215 2882.43 331.215ZM2999.18 359.048V194.122C2999.18 177.541 3003.72 164.908 3012.8 156.222C3022.07 147.339 3035.89 142.898 3054.25 142.898C3058.39 142.898 3061.85 143.095 3064.61 143.49C3067.38 143.885 3070.04 144.477 3072.61 145.267V174.284C3071.23 173.692 3069.45 173.297 3067.28 173.1C3065.11 172.705 3062.64 172.507 3059.87 172.507C3051.98 172.507 3046.06 174.481 3042.11 178.429C3038.36 182.18 3036.48 187.707 3036.48 195.011V359.048H2999.18ZM2971.93 237.353V208.039H3069.35V237.353H2971.93ZM3158.97 362.009C3142.98 362.009 3128.86 358.653 3116.62 351.942C3104.58 345.23 3095.21 335.953 3088.49 324.109C3081.78 312.068 3078.43 298.348 3078.43 282.951C3078.43 267.554 3081.78 254.033 3088.49 242.386C3095.21 230.74 3104.58 221.659 3116.62 215.145C3128.86 208.434 3142.98 205.078 3158.97 205.078C3175.15 205.078 3189.27 208.434 3201.31 215.145C3213.35 221.659 3222.72 230.74 3229.44 242.386C3236.15 254.033 3239.5 267.554 3239.5 282.951C3239.5 298.348 3236.05 312.068 3229.14 324.109C3222.43 335.953 3213.05 345.23 3201.01 351.942C3188.97 358.653 3174.95 362.009 3158.97 362.009ZM3158.97 332.103C3166.86 332.103 3173.97 330.129 3180.28 326.181C3186.6 322.036 3191.54 316.312 3195.09 309.008C3198.64 301.507 3200.42 292.723 3200.42 282.655C3200.42 267.851 3196.47 256.204 3188.58 247.716C3180.88 239.228 3171.01 234.984 3158.97 234.984C3146.92 234.984 3136.96 239.228 3129.06 247.716C3121.16 256.204 3117.22 267.851 3117.22 282.655C3117.22 292.723 3118.99 301.507 3122.55 309.008C3126.3 316.312 3131.23 322.036 3137.35 326.181C3143.67 330.129 3150.87 332.103 3158.97 332.103ZM3266.95 359.048V208.039H3303.37V244.459H3304.25V359.048H3266.95ZM3304.25 280.287L3300.4 244.459C3303.96 231.628 3309.98 221.857 3318.47 215.145C3326.95 208.434 3337.12 205.078 3348.96 205.078C3353.11 205.078 3356.07 205.473 3357.85 206.262V241.498C3356.86 241.103 3355.48 240.906 3353.7 240.906C3351.93 240.708 3349.75 240.61 3347.19 240.61C3332.78 240.61 3322.02 243.768 3314.91 250.085C3307.81 256.401 3304.25 266.469 3304.25 280.287ZM3486.63 359.048V324.997L3489.59 325.589C3487.02 336.644 3480.81 345.526 3470.94 352.238C3461.07 358.752 3449.32 362.009 3435.7 362.009C3421.88 362.009 3409.84 358.851 3399.58 352.534C3389.51 346.02 3381.71 336.94 3376.18 325.293C3370.66 313.647 3367.89 299.928 3367.89 284.136C3367.89 268.147 3370.76 254.23 3376.48 242.386C3382.21 230.542 3390.2 221.363 3400.46 214.849C3410.93 208.335 3423.07 205.078 3436.88 205.078C3451.1 205.078 3462.84 208.533 3472.12 215.441C3481.4 222.153 3487.12 231.529 3489.29 243.571L3485.44 243.867V145.859H3523.05V359.048H3486.63ZM3446.66 331.511C3458.7 331.511 3468.27 327.366 3475.38 319.075C3482.68 310.587 3486.33 298.743 3486.33 283.544C3486.33 268.344 3482.68 256.599 3475.38 248.308C3468.07 240.017 3458.4 235.872 3446.36 235.872C3434.52 235.872 3424.94 240.116 3417.64 248.604C3410.33 256.895 3406.68 268.64 3406.68 283.84C3406.68 299.039 3410.33 310.784 3417.64 319.075C3424.94 327.366 3434.61 331.511 3446.66 331.511Z" fill="white"/>
</g>
<defs>
<clipPath id="clip0_12_518">
<rect width="3543.34" height="508" fill="white" transform="translate(0.285767)"/>
</clipPath>
</defs>
</svg>
