<svg width="1587" height="512" viewBox="0 0 1587 512" fill="none" xmlns="http://www.w3.org/2000/svg">
<path fill-rule="evenodd" clip-rule="evenodd" d="M157.714 354.286L2.28574 203.429L208 2.2857L285.714 80L244.571 121.143L208 84.5714L89.1429 203.429L198.857 315.429L157.714 354.286Z" fill="white"/>
<path fill-rule="evenodd" clip-rule="evenodd" d="M162.286 198.857L203.428 157.714L356.571 310.857L150.857 512L73.1427 434.286L114.286 393.143L150.857 429.714L269.714 308.571L162.286 198.857Z" fill="white"/>
<path d="M573.111 429.689C553.216 429.689 537.344 425.154 525.495 416.085C513.792 406.869 506.917 393.922 504.869 377.246H532.297C533.614 386.901 537.929 394.434 545.244 399.847C552.558 405.113 562.14 407.746 573.989 407.746C583.79 407.746 591.25 405.991 596.37 402.48C601.637 398.823 604.27 393.776 604.27 387.339C604.27 381.634 602.661 377.026 599.442 373.515C596.224 370.005 590.812 367.152 583.205 364.958L554.679 356.4C540.197 352.011 529.518 346.233 522.642 339.065C515.913 331.897 512.549 322.901 512.549 312.075C512.549 303.006 514.889 295.106 519.57 288.377C524.252 281.648 530.834 276.455 539.319 272.798C547.95 269.141 557.97 267.312 569.381 267.312C586.935 267.312 600.905 271.627 611.292 280.258C621.824 288.743 627.822 300.299 629.285 314.928H601.856C600.247 306.151 596.59 299.714 590.885 295.618C585.18 291.376 577.5 289.255 567.845 289.255C559.36 289.255 552.631 290.937 547.657 294.302C542.684 297.666 540.197 302.274 540.197 308.126C540.197 312.953 541.66 317.049 544.585 320.414C547.657 323.778 553.289 326.704 561.481 329.191L590.446 337.968C604.928 342.21 615.461 347.989 622.044 355.303C628.626 362.617 631.918 371.906 631.918 383.17C631.918 398.091 626.725 409.575 616.338 417.621C606.098 425.666 591.689 429.689 573.111 429.689ZM702.308 429.909C688.557 429.909 678.39 426.69 671.808 420.254C665.371 413.671 662.153 403.87 662.153 390.85V290.352L690.02 280.039V391.509C690.02 396.921 691.483 400.944 694.409 403.577C697.334 406.21 701.942 407.527 708.233 407.527C710.72 407.527 712.914 407.381 714.816 407.088C716.864 406.649 718.765 406.137 720.521 405.552V427.056C718.765 427.934 716.278 428.592 713.06 429.031C709.842 429.616 706.258 429.909 702.308 429.909ZM640.649 337.529V315.806H720.521V337.529H640.649ZM788.022 429.909C776.173 429.909 765.787 427.422 756.864 422.448C748.086 417.474 741.211 410.599 736.237 401.822C731.41 393.045 728.996 382.951 728.996 371.541C728.996 360.13 731.41 350.11 736.237 341.479C741.211 332.702 748.086 325.899 756.864 321.072C765.641 316.098 775.881 313.611 787.584 313.611C798.701 313.611 808.356 315.952 816.548 320.633C824.74 325.168 831.104 331.605 835.638 339.943C840.173 348.281 842.441 358.009 842.441 369.127C842.441 371.175 842.368 373.077 842.221 374.832C842.075 376.587 841.856 378.343 841.563 380.098H746.112V360.789H820.278L814.573 366.055C814.573 355.522 812.16 347.623 807.332 342.357C802.505 337.09 795.776 334.457 787.145 334.457C777.782 334.457 770.322 337.675 764.763 344.112C759.35 350.549 756.644 359.838 756.644 371.979C756.644 383.975 759.35 393.191 764.763 399.627C770.322 405.918 778.148 409.063 788.242 409.063C794.093 409.063 799.213 407.966 803.602 405.771C807.99 403.577 811.209 400.213 813.257 395.678H839.369C835.712 406.21 829.494 414.549 820.717 420.693C812.086 426.837 801.188 429.909 788.022 429.909ZM926.984 429.909C916.305 429.909 907.601 427.422 900.872 422.448C894.289 417.328 890.193 410.306 888.584 401.383L890.778 401.163V472.697H863.13V315.806H890.12V341.04L887.926 340.601C889.974 332.263 894.655 325.68 901.969 320.853C909.284 316.025 918.207 313.611 928.74 313.611C938.687 313.611 947.318 316.025 954.632 320.853C962.093 325.534 967.871 332.19 971.967 340.821C976.063 349.451 978.111 359.618 978.111 371.321C978.111 383.17 975.99 393.483 971.748 402.261C967.505 411.038 961.581 417.84 953.974 422.667C946.367 427.495 937.37 429.909 926.984 429.909ZM919.962 407.088C928.886 407.088 935.981 404.016 941.247 397.872C946.513 391.582 949.146 382.805 949.146 371.541C949.146 360.277 946.44 351.573 941.028 345.429C935.761 339.285 928.666 336.213 919.743 336.213C910.966 336.213 903.871 339.358 898.458 345.648C893.046 351.792 890.34 360.496 890.34 371.76C890.34 383.024 893.046 391.728 898.458 397.872C903.871 404.016 911.039 407.088 919.962 407.088ZM1006.48 427.714V305.493C1006.48 293.205 1009.84 283.842 1016.57 277.406C1023.45 270.823 1033.69 267.531 1047.29 267.531C1050.36 267.531 1052.92 267.678 1054.97 267.97C1057.02 268.263 1059 268.702 1060.9 269.287V290.791C1059.87 290.352 1058.56 290.059 1056.95 289.913C1055.34 289.621 1053.51 289.474 1051.46 289.474C1045.61 289.474 1041.22 290.937 1038.3 293.863C1035.52 296.642 1034.13 300.738 1034.13 306.151V427.714H1006.48ZM986.292 337.529V315.806H1058.48V337.529H986.292ZM1124.89 429.909C1113.05 429.909 1102.59 427.422 1093.52 422.448C1084.59 417.474 1077.64 410.599 1072.67 401.822C1067.7 392.898 1065.21 382.731 1065.21 371.321C1065.21 359.911 1067.7 349.89 1072.67 341.259C1077.64 332.629 1084.59 325.899 1093.52 321.072C1102.59 316.098 1113.05 313.611 1124.89 313.611C1136.89 313.611 1147.35 316.098 1156.27 321.072C1165.2 325.899 1172.15 332.629 1177.12 341.259C1182.09 349.89 1184.58 359.911 1184.58 371.321C1184.58 382.731 1182.02 392.898 1176.9 401.822C1171.93 410.599 1164.98 417.474 1156.05 422.448C1147.13 427.422 1136.74 429.909 1124.89 429.909ZM1124.89 407.746C1130.75 407.746 1136.01 406.283 1140.69 403.358C1145.37 400.286 1149.03 396.043 1151.67 390.631C1154.3 385.072 1155.61 378.562 1155.61 371.102C1155.61 360.13 1152.69 351.499 1146.84 345.209C1141.13 338.919 1133.82 335.774 1124.89 335.774C1115.97 335.774 1108.58 338.919 1102.73 345.209C1096.88 351.499 1093.96 360.13 1093.96 371.102C1093.96 378.562 1095.27 385.072 1097.91 390.631C1100.68 396.043 1104.34 400.286 1108.88 403.358C1113.56 406.283 1118.9 407.746 1124.89 407.746ZM1204.92 427.714V315.806H1231.91V342.795H1232.56V427.714H1204.92ZM1232.56 369.346L1229.71 342.795C1232.34 333.287 1236.81 326.046 1243.1 321.072C1249.39 316.098 1256.92 313.611 1265.7 313.611C1268.77 313.611 1270.96 313.904 1272.28 314.489V340.601C1271.55 340.309 1270.53 340.162 1269.21 340.162C1267.89 340.016 1266.28 339.943 1264.38 339.943C1253.7 339.943 1245.73 342.283 1240.46 346.965C1235.2 351.646 1232.56 359.106 1232.56 369.346ZM1367.72 427.714V402.48L1369.91 402.919C1368.01 411.111 1363.4 417.694 1356.09 422.667C1348.77 427.495 1340.07 429.909 1329.98 429.909C1319.74 429.909 1310.81 427.568 1303.2 422.887C1295.74 418.059 1289.97 411.33 1285.87 402.699C1281.77 394.069 1279.73 383.902 1279.73 372.199C1279.73 360.35 1281.85 350.037 1286.09 341.259C1290.33 332.482 1296.26 325.68 1303.86 320.853C1311.62 316.025 1320.61 313.611 1330.85 313.611C1341.39 313.611 1350.09 316.171 1356.96 321.291C1363.84 326.265 1368.08 333.214 1369.69 342.137L1366.84 342.357V269.726H1394.71V427.714H1367.72ZM1338.09 407.307C1347.02 407.307 1354.11 404.235 1359.38 398.091C1364.79 391.801 1367.5 383.024 1367.5 371.76C1367.5 360.496 1364.79 351.792 1359.38 345.648C1353.97 339.504 1346.8 336.432 1337.87 336.432C1329.1 336.432 1322 339.577 1316.59 345.867C1311.18 352.011 1308.47 360.715 1308.47 371.979C1308.47 383.243 1311.18 391.947 1316.59 398.091C1322 404.235 1329.17 407.307 1338.09 407.307Z" fill="white"/>
<path d="M550.034 209.714V91.2228H504.869V78.0571H610.194V91.2228H565.029V209.714H550.034ZM610.236 209.714V116.457H623.95V140.229H624.864V209.714H610.236ZM624.864 161.074L622.487 138.949C624.681 131.025 628.582 124.99 634.19 120.846C639.798 116.701 646.259 114.629 653.573 114.629C656.621 114.629 658.693 114.872 659.79 115.36V129.44C659.181 129.196 658.327 129.074 657.23 129.074C656.133 128.952 654.792 128.891 653.207 128.891C643.942 128.891 636.872 131.695 631.996 137.303C627.241 142.789 624.864 150.712 624.864 161.074ZM733.363 209.714C732.875 207.642 732.51 205.265 732.266 202.583C732.144 199.901 732.083 196.488 732.083 192.343H731.169V147.726C731.169 140.655 729.523 135.474 726.231 132.183C723.062 128.77 717.881 127.063 710.689 127.063C703.618 127.063 697.95 128.526 693.683 131.451C689.538 134.255 687.222 138.278 686.734 143.52H672.654C673.264 134.499 677.043 127.429 683.991 122.309C690.94 117.189 700.022 114.629 711.237 114.629C722.818 114.629 731.412 117.371 737.02 122.857C742.628 128.343 745.431 136.571 745.431 147.543V192.343C745.431 195.025 745.614 197.829 745.98 200.754C746.346 203.558 746.833 206.545 747.443 209.714H733.363ZM701.363 211.543C691.732 211.543 684.052 209.227 678.323 204.594C672.715 199.84 669.911 193.379 669.911 185.211C669.911 177.044 672.715 170.705 678.323 166.194C683.931 161.684 692.098 158.514 702.826 156.686L735.374 151.2V163.269L705.02 168.023C698.193 169.12 693.012 170.949 689.477 173.509C685.942 176.069 684.174 179.787 684.174 184.663C684.174 189.417 685.759 193.013 688.929 195.451C692.22 197.89 697.035 199.109 703.374 199.109C711.542 199.109 718.186 197.28 723.306 193.623C728.548 189.844 731.169 184.968 731.169 178.994L733.546 191.977C731.595 198.194 727.755 203.01 722.026 206.423C716.418 209.836 709.531 211.543 701.363 211.543ZM773.629 209.714V116.457H787.343V138.4H788.257V209.714H773.629ZM840.371 209.714V148.64C840.371 141.57 838.604 136.267 835.069 132.731C831.533 129.196 826.291 127.429 819.343 127.429C813.248 127.429 807.823 128.77 803.069 131.451C798.436 134.133 794.779 137.851 792.097 142.606C789.537 147.36 788.257 152.907 788.257 159.246L785.88 137.12C789.05 130.171 793.865 124.686 800.326 120.663C806.909 116.64 814.345 114.629 822.634 114.629C832.387 114.629 840.189 117.432 846.04 123.04C852.013 128.526 855 135.779 855 144.8V209.714H840.371ZM914.37 211.543C902.911 211.543 893.768 208.922 886.941 203.68C880.115 198.316 876.214 190.758 875.239 181.006H889.319C890.172 186.979 892.793 191.55 897.181 194.72C901.57 197.89 907.421 199.474 914.736 199.474C921.197 199.474 926.256 198.255 929.913 195.817C933.57 193.379 935.399 189.905 935.399 185.394C935.399 182.225 934.362 179.482 932.29 177.166C930.218 174.728 926.073 172.716 919.856 171.131L904.861 167.291C896.328 165.097 889.928 161.745 885.661 157.234C881.395 152.602 879.261 147.116 879.261 140.777C879.261 132.731 882.248 126.392 888.221 121.76C894.195 117.006 902.301 114.629 912.541 114.629C922.66 114.629 930.888 117.067 937.227 121.943C943.566 126.819 947.162 133.585 948.016 142.24H933.936C933.082 137.242 930.766 133.402 926.987 130.72C923.208 128.038 918.21 126.697 911.993 126.697C906.02 126.697 901.387 127.855 898.096 130.171C894.804 132.366 893.159 135.535 893.159 139.68C893.159 142.85 894.317 145.592 896.633 147.909C899.071 150.225 903.094 152.175 908.701 153.76L923.33 157.783C931.985 160.099 938.507 163.634 942.896 168.389C947.284 173.143 949.479 178.872 949.479 185.577C949.479 193.745 946.37 200.145 940.153 204.777C933.936 209.288 925.341 211.543 914.37 211.543ZM1015.24 211.36C1006.47 211.36 999.092 209.227 993.119 204.96C987.145 200.693 983.061 194.659 980.867 186.857L983.793 186.491V247.2H969.164V116.457H982.879V138.217L980.867 137.669C983.183 130.476 987.572 124.869 994.033 120.846C1000.49 116.701 1007.99 114.629 1016.52 114.629C1024.81 114.629 1032.01 116.64 1038.1 120.663C1044.32 124.686 1049.13 130.293 1052.55 137.486C1055.96 144.678 1057.67 153.09 1057.67 162.72C1057.67 172.472 1055.9 181.006 1052.36 188.32C1048.83 195.634 1043.89 201.303 1037.55 205.326C1031.21 209.349 1023.78 211.36 1015.24 211.36ZM1013.05 198.56C1022.31 198.56 1029.57 195.39 1034.81 189.051C1040.05 182.59 1042.67 173.813 1042.67 162.72C1042.67 151.749 1040.05 143.154 1034.81 136.937C1029.57 130.598 1022.31 127.429 1013.05 127.429C1003.79 127.429 996.471 130.659 991.107 137.12C985.743 143.459 983.061 152.175 983.061 163.269C983.061 174.118 985.743 182.712 991.107 189.051C996.471 195.39 1003.79 198.56 1013.05 198.56ZM1118.82 211.543C1109.68 211.543 1101.63 209.41 1094.69 205.143C1087.74 200.876 1082.31 195.086 1078.41 187.771C1074.63 180.335 1072.74 171.985 1072.74 162.72C1072.74 153.333 1074.69 145.044 1078.59 137.851C1082.5 130.659 1087.86 124.99 1094.69 120.846C1101.63 116.701 1109.68 114.629 1118.82 114.629C1128.09 114.629 1136.13 116.701 1142.96 120.846C1149.91 124.99 1155.27 130.659 1159.05 137.851C1162.95 145.044 1164.9 153.333 1164.9 162.72C1164.9 171.985 1162.95 180.335 1159.05 187.771C1155.27 195.086 1149.91 200.876 1142.96 205.143C1136.13 209.41 1128.09 211.543 1118.82 211.543ZM1118.82 199.109C1125.16 199.109 1130.65 197.585 1135.28 194.537C1139.91 191.368 1143.51 187.04 1146.07 181.554C1148.63 176.069 1149.91 169.73 1149.91 162.537C1149.91 151.81 1147.04 143.215 1141.31 136.754C1135.71 130.293 1128.21 127.063 1118.82 127.063C1109.56 127.063 1102.06 130.293 1096.33 136.754C1090.6 143.215 1087.74 151.81 1087.74 162.537C1087.74 169.73 1089.02 176.069 1091.58 181.554C1094.14 187.04 1097.73 191.368 1102.37 194.537C1107.12 197.585 1112.61 199.109 1118.82 199.109ZM1186.84 209.714V116.457H1200.56V140.229H1201.47V209.714H1186.84ZM1201.47 161.074L1199.09 138.949C1201.29 131.025 1205.19 124.99 1210.8 120.846C1216.4 116.701 1222.87 114.629 1230.18 114.629C1233.23 114.629 1235.3 114.872 1236.4 115.36V129.44C1235.79 129.196 1234.93 129.074 1233.84 129.074C1232.74 128.952 1231.4 128.891 1229.81 128.891C1220.55 128.891 1213.48 131.695 1208.6 137.303C1203.85 142.789 1201.47 150.712 1201.47 161.074ZM1294.86 211.36C1284.5 211.36 1276.94 209.044 1272.19 204.411C1267.55 199.657 1265.24 192.83 1265.24 183.931V94.6971L1279.87 89.2114V183.749C1279.87 188.99 1281.21 192.83 1283.89 195.269C1286.57 197.707 1290.96 198.926 1297.05 198.926C1299.49 198.926 1301.56 198.804 1303.27 198.56C1305.1 198.194 1306.56 197.768 1307.66 197.28V209.714C1306.44 210.202 1304.67 210.568 1302.36 210.811C1300.16 211.177 1297.66 211.36 1294.86 211.36ZM1246.04 128.891V116.457H1307.66V128.891H1246.04ZM1370.77 209.714V103.291C1370.77 94.7581 1373.21 88.1143 1378.09 83.36C1383.09 78.6057 1390.64 76.2286 1400.76 76.2286C1403.2 76.2286 1405.09 76.3505 1406.43 76.5943C1407.89 76.8381 1409.11 77.1428 1410.09 77.5085V89.0285C1409.23 88.7847 1408.01 88.5409 1406.43 88.2971C1404.97 88.0533 1403.38 87.9314 1401.68 87.9314C1396.07 87.9314 1391.92 89.3333 1389.24 92.1371C1386.68 94.9409 1385.4 98.9028 1385.4 104.023V209.714H1370.77ZM1351.57 128.891V116.457H1408.08V128.891H1351.57ZM1462.93 211.543C1453.79 211.543 1445.74 209.41 1438.79 205.143C1431.84 200.876 1426.42 195.086 1422.52 187.771C1418.74 180.335 1416.85 171.985 1416.85 162.72C1416.85 153.333 1418.8 145.044 1422.7 137.851C1426.6 130.659 1431.97 124.99 1438.79 120.846C1445.74 116.701 1453.79 114.629 1462.93 114.629C1472.19 114.629 1480.24 116.701 1487.07 120.846C1494.02 124.99 1499.38 130.659 1503.16 137.851C1507.06 145.044 1509.01 153.333 1509.01 162.72C1509.01 171.985 1507.06 180.335 1503.16 187.771C1499.38 195.086 1494.02 200.876 1487.07 205.143C1480.24 209.41 1472.19 211.543 1462.93 211.543ZM1462.93 199.109C1469.27 199.109 1474.75 197.585 1479.39 194.537C1484.02 191.368 1487.62 187.04 1490.18 181.554C1492.74 176.069 1494.02 169.73 1494.02 162.537C1494.02 151.81 1491.15 143.215 1485.42 136.754C1479.81 130.293 1472.32 127.063 1462.93 127.063C1453.67 127.063 1446.17 130.293 1440.44 136.754C1434.71 143.215 1431.84 151.81 1431.84 162.537C1431.84 169.73 1433.12 176.069 1435.68 181.554C1438.24 187.04 1441.84 191.368 1446.47 194.537C1451.23 197.585 1456.71 199.109 1462.93 199.109ZM1530.95 209.714V116.457H1544.66V140.229H1545.58V209.714H1530.95ZM1545.58 161.074L1543.2 138.949C1545.4 131.025 1549.3 124.99 1554.9 120.846C1560.51 116.701 1566.97 114.629 1574.29 114.629C1577.33 114.629 1579.41 114.872 1580.5 115.36V129.44C1579.89 129.196 1579.04 129.074 1577.94 129.074C1576.85 128.952 1575.51 128.891 1573.92 128.891C1564.66 128.891 1557.59 131.695 1552.71 137.303C1547.96 142.789 1545.58 150.712 1545.58 161.074Z" fill="white"/>
</svg>
