<svg width="2560" height="512" viewBox="0 0 2560 512" fill="none" xmlns="http://www.w3.org/2000/svg">
<rect width="2560" height="512" fill="#34495E"/>
<path d="M2105 512L2217 0H2560V512H2105Z" fill="#2A2A2A"/>
<path d="M165.141 193.334H183.902L232.752 319H211.867L198.592 284.84H150.096L136.999 319H115.936L165.141 193.334ZM194.699 270.15L174.521 215.105L153.636 270.15H194.699ZM268.504 320.77C260.716 320.77 253.341 319.531 246.379 317.053C239.418 314.457 233.459 310.622 228.503 305.548L235.76 292.451C241.07 297.171 246.379 300.593 251.689 302.717C257.117 304.84 262.486 305.902 267.796 305.902C273.223 305.902 277.648 304.899 281.07 302.894C284.492 300.77 286.203 297.702 286.203 293.69C286.203 290.74 285.318 288.557 283.548 287.141C281.778 285.725 279.182 284.486 275.76 283.424C272.457 282.362 268.445 281.182 263.725 279.884C257.117 277.878 251.571 275.813 247.087 273.69C242.604 271.448 239.241 268.734 236.999 265.548C234.757 262.362 233.636 258.291 233.636 253.335C233.636 247.317 235.17 242.185 238.238 237.937C241.306 233.689 245.553 230.444 250.981 228.202C256.527 225.96 262.899 224.839 270.097 224.839C276.822 224.839 283.017 225.901 288.681 228.025C294.463 230.031 299.537 233.217 303.902 237.583L295.584 250.503C291.454 246.727 287.206 243.955 282.84 242.185C278.592 240.415 273.99 239.53 269.035 239.53C266.203 239.53 263.489 239.884 260.893 240.592C258.297 241.182 256.114 242.362 254.344 244.132C252.692 245.783 251.866 248.143 251.866 251.211C251.866 253.689 252.574 255.695 253.99 257.229C255.406 258.763 257.53 260.061 260.362 261.123C263.194 262.185 266.675 263.365 270.805 264.663C278.002 266.787 284.138 268.911 289.212 271.035C294.286 273.041 298.18 275.695 300.894 278.999C303.725 282.185 305.141 286.61 305.141 292.274C305.141 301.242 301.779 308.262 295.053 313.336C288.445 318.292 279.595 320.77 268.504 320.77ZM396.685 319H377.215V267.141C377.215 258.763 375.681 252.509 372.613 248.379C369.546 244.25 365.239 242.185 359.693 242.185C356.271 242.185 352.731 243.129 349.073 245.017C345.415 246.904 342.17 249.5 339.339 252.804C336.507 255.99 334.442 259.707 333.144 263.955V319H313.674V189.794H333.144V245.017C336.684 238.763 341.522 233.866 347.657 230.326C353.793 226.668 360.401 224.839 367.481 224.839C373.262 224.839 378.041 225.842 381.817 227.848C385.593 229.854 388.543 232.627 390.667 236.167C392.909 239.589 394.443 243.601 395.269 248.202C396.213 252.686 396.685 257.465 396.685 262.539V319ZM410.61 189.794H430.08V292.274C430.08 296.994 430.788 300.003 432.204 301.301C433.62 302.599 435.39 303.248 437.514 303.248C439.873 303.248 442.056 303.012 444.062 302.54C446.186 302.068 448.015 301.478 449.549 300.77L452.381 316.168C449.549 317.348 446.186 318.351 442.292 319.177C438.399 320.003 434.918 320.416 431.85 320.416C425.242 320.416 420.05 318.587 416.274 314.929C412.498 311.153 410.61 305.961 410.61 299.354V189.794ZM448.094 291.92C448.094 286.02 449.746 280.887 453.05 276.521C456.472 272.038 461.133 268.616 467.033 266.256C472.933 263.778 479.776 262.539 487.564 262.539C491.694 262.539 495.883 262.834 500.131 263.424C504.497 264.014 508.331 264.958 511.635 266.256V260.415C511.635 253.925 509.688 248.851 505.795 245.194C501.901 241.536 496.296 239.707 488.98 239.707C483.788 239.707 478.891 240.651 474.29 242.539C469.688 244.309 464.791 246.845 459.599 250.149L453.05 237.052C459.186 232.922 465.322 229.854 471.458 227.848C477.711 225.842 484.26 224.839 491.104 224.839C503.494 224.839 513.228 228.143 520.308 234.751C527.506 241.241 531.105 250.503 531.105 262.539V297.053C531.105 299.295 531.459 300.888 532.167 301.832C532.993 302.776 534.35 303.307 536.237 303.425V319C534.468 319.354 532.875 319.59 531.459 319.708C530.043 319.826 528.863 319.885 527.919 319.885C523.789 319.885 520.662 318.882 518.538 316.876C516.414 314.87 515.175 312.51 514.821 309.796L514.29 304.486C510.278 309.678 505.146 313.69 498.892 316.522C492.638 319.354 486.325 320.77 479.953 320.77C473.818 320.77 468.331 319.531 463.493 317.053C458.655 314.457 454.879 310.976 452.165 306.61C449.451 302.245 448.094 297.348 448.094 291.92ZM507.033 297.584C508.449 296.05 509.57 294.516 510.396 292.982C511.222 291.448 511.635 290.091 511.635 288.911V278.291C508.331 276.993 504.851 276.049 501.193 275.459C497.535 274.752 493.936 274.398 490.396 274.398C483.316 274.398 477.534 275.813 473.051 278.645C468.685 281.477 466.502 285.371 466.502 290.327C466.502 293.041 467.21 295.637 468.626 298.115C470.16 300.593 472.284 302.599 474.998 304.133C477.829 305.666 481.31 306.433 485.44 306.433C489.688 306.433 493.759 305.607 497.653 303.956C501.547 302.304 504.674 300.18 507.033 297.584ZM628.886 319H609.416V267.141C609.416 258.527 608 252.214 605.168 248.202C602.454 244.191 598.384 242.185 592.956 242.185C589.18 242.185 585.404 243.129 581.628 245.017C577.97 246.904 574.666 249.5 571.716 252.804C568.767 255.99 566.643 259.707 565.345 263.955V319H545.875V226.432H563.575V245.017C565.935 240.887 569.003 237.347 572.778 234.397C576.672 231.329 581.038 228.969 585.876 227.317C590.714 225.665 595.847 224.839 601.274 224.839C606.82 224.839 611.363 225.842 614.903 227.848C618.561 229.854 621.393 232.627 623.399 236.167C625.523 239.589 626.939 243.601 627.647 248.202C628.473 252.686 628.886 257.465 628.886 262.539V319ZM679.993 319V193.334H732.737C738.401 193.334 743.592 194.514 748.312 196.874C753.032 199.234 757.162 202.361 760.702 206.255C764.242 210.149 766.956 214.515 768.844 219.352C770.732 224.19 771.675 229.146 771.675 234.22C771.675 241.182 770.083 247.848 766.897 254.22C763.829 260.474 759.404 265.548 753.622 269.442C747.958 273.336 741.351 275.282 733.799 275.282H699.816V319H679.993ZM699.816 257.76H732.56C736.336 257.76 739.64 256.757 742.471 254.751C745.303 252.627 747.486 249.795 749.02 246.255C750.672 242.716 751.498 238.704 751.498 234.22C751.498 229.618 750.554 225.547 748.666 222.007C746.778 218.467 744.3 215.754 741.233 213.866C738.283 211.86 735.038 210.857 731.498 210.857H699.816V257.76ZM771.178 291.92C771.178 286.02 772.83 280.887 776.133 276.521C779.555 272.038 784.216 268.616 790.116 266.256C796.016 263.778 802.86 262.539 810.647 262.539C814.777 262.539 818.966 262.834 823.214 263.424C827.58 264.014 831.415 264.958 834.718 266.256V260.415C834.718 253.925 832.772 248.851 828.878 245.194C824.984 241.536 819.379 239.707 812.063 239.707C806.871 239.707 801.975 240.651 797.373 242.539C792.771 244.309 787.874 246.845 782.682 250.149L776.133 237.052C782.269 232.922 788.405 229.854 794.541 227.848C800.795 225.842 807.343 224.839 814.187 224.839C826.577 224.839 836.311 228.143 843.391 234.751C850.589 241.241 854.188 250.503 854.188 262.539V297.053C854.188 299.295 854.542 300.888 855.25 301.832C856.076 302.776 857.433 303.307 859.321 303.425V319C857.551 319.354 855.958 319.59 854.542 319.708C853.126 319.826 851.946 319.885 851.002 319.885C846.872 319.885 843.745 318.882 841.621 316.876C839.497 314.87 838.258 312.51 837.904 309.796L837.373 304.486C833.362 309.678 828.229 313.69 821.975 316.522C815.721 319.354 809.408 320.77 803.037 320.77C796.901 320.77 791.414 319.531 786.576 317.053C781.738 314.457 777.962 310.976 775.248 306.61C772.535 302.245 771.178 297.348 771.178 291.92ZM830.117 297.584C831.533 296.05 832.654 294.516 833.48 292.982C834.305 291.448 834.718 290.091 834.718 288.911V278.291C831.415 276.993 827.934 276.049 824.276 275.459C820.618 274.752 817.019 274.398 813.479 274.398C806.399 274.398 800.618 275.813 796.134 278.645C791.768 281.477 789.585 285.371 789.585 290.327C789.585 293.041 790.293 295.637 791.709 298.115C793.243 300.593 795.367 302.599 798.081 304.133C800.913 305.666 804.394 306.433 808.523 306.433C812.771 306.433 816.842 305.607 820.736 303.956C824.63 302.304 827.757 300.18 830.117 297.584ZM920.995 243.247C913.443 243.365 906.717 245.076 900.817 248.379C895.036 251.683 890.906 256.344 888.428 262.362V319H868.959V226.432H887.012V247.14C890.198 240.769 894.387 235.695 899.578 231.919C904.77 228.025 910.257 225.901 916.039 225.547C917.219 225.547 918.163 225.547 918.871 225.547C919.697 225.547 920.405 225.606 920.995 225.724V243.247ZM990.735 319L961 276.344L945.778 290.858V319H926.309V189.794H945.778V271.212L988.611 226.609H1009.5L973.566 265.371L1011.44 319H990.735Z" fill="white"/>
<a href="https://scr.fandom.com/wiki/Ashlan_Park">
<rect fill="black" fill-opacity="0" y="-40.7086" width="896.923" height="207.791"/>
</a>
<g clip-path="url(#clip0_22_1452)">
<path d="M2429.02 192.193H2454.52L2401.08 319.233H2378.25L2355.42 261.907L2332.58 319.233H2309.75L2256.07 192.193H2281.57L2322.38 293.242L2340.36 246.361L2318.49 192.436H2341.08L2355.42 232.03L2369.5 192.436H2392.09L2370.48 246.361L2388.45 293.242L2429.02 192.193Z" fill="#B2BBC8"/>
</g>
<defs>
<clipPath id="clip0_22_1452">
<rect width="198.602" height="127.246" fill="white" transform="translate(2256 192.177)"/>
</clipPath>
</defs>
</svg>
