<svg width="2560" height="512" viewBox="0 0 2560 512" fill="none" xmlns="http://www.w3.org/2000/svg">
<g clip-path="url(#clip0_13_702)">
<rect width="2560" height="512" fill="#263443"/>
<circle cx="2578.5" cy="179.5" r="320" fill="#E5292D" stroke="white" stroke-width="25"/>
<circle cx="2515" cy="512" r="256.5" fill="#E5292D" stroke="white" stroke-width="25"/>
<circle cx="270.695" cy="255.5" r="409" fill="#E5292D" stroke="white" stroke-width="25"/>
<g clip-path="url(#clip1_13_702)">
<path d="M76.2763 78.7782H94.8308V88.9443C94.8308 88.9443 110.549 77.1443 123.513 77.1443C137.125 77.1443 149.927 84.315 160.298 95.9335C169.747 86.3103 179.338 76.8721 197.893 76.8721C219.04 76.8721 231.842 92.2119 231.842 92.2119C238.123 99.2488 244.319 109.64 244.319 121.803V174.902H225.603V121.984C225.603 119.338 221.39 95.8427 197.893 95.8427C175.287 95.8427 170.021 117.332 170.021 122.438V174.993H151.385V120.986C151.385 116.35 144.741 95.8427 123.513 95.8427C102.285 95.8427 96.5322 114.904 96.5322 119.806V175.628H76.1953L76.2763 78.7782Z" fill="white"/>
<path d="M300.956 78.5962C286.57 78.5962 274.34 83.6815 265.949 93.6026C255.873 105.515 253.638 118.154 253.638 125.887C253.638 167.025 287.552 177.172 299.01 177.172C325.019 177.172 337.982 158.293 337.982 158.293L322.691 149.209C316.165 155.536 309.405 160.05 299.223 160.044C286.689 160.037 271.823 146.781 271.823 131.547H345.911C345.911 93.8254 320.126 78.5962 300.956 78.5962ZM300.354 96.248C319.948 96.248 325.218 116.017 325.218 116.017H273.655C273.655 116.017 280.76 96.248 300.354 96.248Z" fill="white"/>
<path d="M408.984 174.588L404.098 156.385H387.563C380.662 156.385 374.363 149.768 374.363 143.394V97.3858H403.612V78.2337H373.309V53H356.254V142.973C356.254 161.763 370.557 174.595 383.161 174.592L408.984 174.588Z" fill="white"/>
<path d="M446.311 79.3979H468.082L463.975 96.569H447.809C437.049 96.569 433.267 107.717 433.267 115.08V174.63H415.685V109.095C415.685 97.6033 425.24 79.3979 446.311 79.3979Z" fill="white"/>
<path d="M510.11 172.024C535.134 172.024 555.42 151.574 555.42 126.348C555.42 101.122 535.134 80.6721 510.11 80.6721C485.087 80.6721 464.801 101.122 464.801 126.348C464.801 151.574 485.087 172.024 510.11 172.024Z" stroke="white" stroke-width="7.58208" stroke-miterlimit="1.5" stroke-linecap="round" stroke-linejoin="round"/>
<path d="M510.11 157.615C527.24 157.615 541.126 143.616 541.126 126.348C541.126 109.08 527.24 95.0818 510.11 95.0818C492.981 95.0818 479.095 109.08 479.095 126.348C479.095 143.616 492.981 157.615 510.11 157.615Z" stroke="white" stroke-width="7.58499" stroke-miterlimit="1.5" stroke-linecap="round" stroke-linejoin="round"/>
<path d="M510.11 172.024C535.134 172.024 555.42 151.574 555.42 126.348C555.42 101.122 535.134 80.6721 510.11 80.6721C485.087 80.6721 464.801 101.122 464.801 126.348C464.801 151.574 485.087 172.024 510.11 172.024Z" stroke="white" stroke-width="7.58208" stroke-miterlimit="1.5" stroke-linecap="round" stroke-linejoin="round"/>
<path d="M510.11 157.615C527.24 157.615 541.126 143.616 541.126 126.348C541.126 109.08 527.24 95.0818 510.11 95.0818C492.981 95.0818 479.095 109.08 479.095 126.348C479.095 143.616 492.981 157.615 510.11 157.615Z" stroke="white" stroke-width="7.58499" stroke-miterlimit="1.5" stroke-linecap="round" stroke-linejoin="round"/>
</g>
<g clip-path="url(#clip2_13_702)">
<path fill-rule="evenodd" clip-rule="evenodd" d="M110.397 421.83L76.6914 389.115L121.302 345.496L138.155 362.349L129.233 371.271L121.302 363.34L95.5271 389.115L119.32 413.403L110.397 421.83Z" fill="white"/>
<path fill-rule="evenodd" clip-rule="evenodd" d="M111.389 388.124L120.311 379.202L153.522 412.412L108.911 456.032L92.0576 439.179L100.98 430.256L108.911 438.187L134.686 411.916L111.389 388.124Z" fill="white"/>
<path d="M200.479 437.918C196.165 437.918 192.723 436.935 190.153 434.968C187.616 432.969 186.125 430.162 185.68 426.545H191.629C191.914 428.639 192.85 430.273 194.436 431.447C196.022 432.589 198.1 433.16 200.67 433.16C202.795 433.16 204.413 432.779 205.523 432.018C206.665 431.225 207.236 430.13 207.236 428.734C207.236 427.497 206.888 426.498 206.19 425.736C205.492 424.975 204.318 424.357 202.668 423.881L196.482 422.025C193.342 421.073 191.026 419.82 189.535 418.266C188.076 416.711 187.346 414.76 187.346 412.413C187.346 410.446 187.854 408.733 188.869 407.274C189.884 405.814 191.311 404.688 193.151 403.895C195.023 403.102 197.196 402.705 199.67 402.705C203.477 402.705 206.507 403.641 208.759 405.513C211.043 407.353 212.344 409.859 212.661 413.031H206.713C206.364 411.128 205.571 409.732 204.334 408.844C203.097 407.924 201.431 407.464 199.337 407.464C197.497 407.464 196.038 407.829 194.96 408.558C193.881 409.288 193.342 410.287 193.342 411.556C193.342 412.603 193.659 413.491 194.293 414.221C194.96 414.951 196.181 415.585 197.957 416.124L204.239 418.028C207.379 418.948 209.663 420.201 211.091 421.787C212.518 423.373 213.232 425.388 213.232 427.83C213.232 431.066 212.106 433.556 209.854 435.301C207.633 437.046 204.508 437.918 200.479 437.918ZM228.497 437.966C225.515 437.966 223.31 437.268 221.883 435.872C220.487 434.445 219.789 432.319 219.789 429.496V407.702L225.832 405.465V429.638C225.832 430.812 226.149 431.685 226.784 432.256C227.418 432.827 228.418 433.112 229.782 433.112C230.321 433.112 230.797 433.08 231.209 433.017C231.653 432.922 232.066 432.811 232.447 432.684V437.347C232.066 437.538 231.527 437.68 230.829 437.776C230.131 437.902 229.353 437.966 228.497 437.966ZM215.126 417.933V413.222H232.447V417.933H215.126ZM247.085 437.966C244.515 437.966 242.263 437.427 240.328 436.348C238.424 435.269 236.933 433.778 235.855 431.875C234.808 429.972 234.284 427.783 234.284 425.308C234.284 422.834 234.808 420.661 235.855 418.789C236.933 416.886 238.424 415.411 240.328 414.364C242.231 413.285 244.452 412.746 246.99 412.746C249.401 412.746 251.494 413.253 253.271 414.269C255.047 415.252 256.427 416.648 257.411 418.456C258.394 420.264 258.886 422.374 258.886 424.785C258.886 425.229 258.87 425.641 258.838 426.022C258.807 426.403 258.759 426.783 258.696 427.164H237.996V422.977H254.08L252.843 424.119C252.843 421.835 252.319 420.121 251.272 418.979C250.225 417.837 248.766 417.266 246.895 417.266C244.864 417.266 243.246 417.964 242.041 419.36C240.867 420.756 240.28 422.77 240.28 425.403C240.28 428.005 240.867 430.003 242.041 431.399C243.246 432.763 244.944 433.445 247.132 433.445C248.401 433.445 249.512 433.207 250.463 432.731C251.415 432.256 252.113 431.526 252.557 430.543H258.22C257.427 432.827 256.078 434.635 254.175 435.967C252.303 437.3 249.94 437.966 247.085 437.966ZM277.22 437.966C274.904 437.966 273.017 437.427 271.557 436.348C270.13 435.238 269.242 433.715 268.893 431.78L269.368 431.732V447.245H263.373V413.222H269.226V418.694L268.75 418.599C269.194 416.791 270.209 415.363 271.795 414.316C273.381 413.269 275.317 412.746 277.601 412.746C279.758 412.746 281.629 413.269 283.216 414.316C284.834 415.331 286.087 416.775 286.975 418.646C287.863 420.518 288.307 422.723 288.307 425.261C288.307 427.83 287.847 430.067 286.927 431.97C286.007 433.874 284.722 435.349 283.073 436.396C281.423 437.442 279.472 437.966 277.22 437.966ZM275.697 433.017C277.632 433.017 279.171 432.351 280.313 431.018C281.455 429.654 282.026 427.751 282.026 425.308C282.026 422.866 281.439 420.978 280.265 419.646C279.123 418.313 277.585 417.647 275.65 417.647C273.746 417.647 272.208 418.329 271.034 419.693C269.86 421.026 269.273 422.913 269.273 425.356C269.273 427.799 269.86 429.686 271.034 431.018C272.208 432.351 273.762 433.017 275.697 433.017ZM294.459 437.49V410.985C294.459 408.32 295.189 406.29 296.648 404.894C298.139 403.467 300.36 402.753 303.31 402.753C303.976 402.753 304.531 402.785 304.975 402.848C305.419 402.912 305.848 403.007 306.26 403.134V407.797C306.038 407.702 305.753 407.638 305.404 407.607C305.055 407.543 304.658 407.511 304.214 407.511C302.945 407.511 301.993 407.829 301.359 408.463C300.756 409.066 300.455 409.954 300.455 411.128V437.49H294.459ZM290.081 417.933V413.222H305.737V417.933H290.081ZM320.139 437.966C317.569 437.966 315.301 437.427 313.334 436.348C311.399 435.269 309.892 433.778 308.813 431.875C307.735 429.94 307.196 427.735 307.196 425.261C307.196 422.786 307.735 420.613 308.813 418.741C309.892 416.87 311.399 415.411 313.334 414.364C315.301 413.285 317.569 412.746 320.139 412.746C322.74 412.746 325.008 413.285 326.943 414.364C328.878 415.411 330.385 416.87 331.464 418.741C332.542 420.613 333.082 422.786 333.082 425.261C333.082 427.735 332.527 429.94 331.416 431.875C330.338 433.778 328.831 435.269 326.896 436.348C324.961 437.427 322.708 437.966 320.139 437.966ZM320.139 433.16C321.408 433.16 322.55 432.843 323.565 432.208C324.58 431.542 325.373 430.622 325.944 429.448C326.515 428.243 326.801 426.831 326.801 425.213C326.801 422.834 326.166 420.962 324.897 419.598C323.66 418.234 322.074 417.552 320.139 417.552C318.204 417.552 316.601 418.234 315.333 419.598C314.064 420.962 313.429 422.834 313.429 425.213C313.429 426.831 313.715 428.243 314.286 429.448C314.888 430.622 315.681 431.542 316.665 432.208C317.68 432.843 318.838 433.16 320.139 433.16ZM337.492 437.49V413.222H343.345V419.075H343.488V437.49H337.492ZM343.488 424.832L342.869 419.075C343.44 417.013 344.408 415.442 345.772 414.364C347.136 413.285 348.77 412.746 350.673 412.746C351.339 412.746 351.815 412.809 352.101 412.936V418.599C351.942 418.535 351.72 418.504 351.434 418.504C351.149 418.472 350.8 418.456 350.387 418.456C348.072 418.456 346.343 418.964 345.201 419.979C344.059 420.994 343.488 422.612 343.488 424.832ZM372.797 437.49V432.018L373.272 432.113C372.86 433.889 371.861 435.317 370.275 436.396C368.688 437.442 366.801 437.966 364.612 437.966C362.391 437.966 360.456 437.458 358.807 436.443C357.189 435.396 355.936 433.937 355.047 432.065C354.159 430.194 353.715 427.989 353.715 425.451C353.715 422.881 354.175 420.645 355.095 418.741C356.015 416.838 357.3 415.363 358.949 414.316C360.631 413.269 362.582 412.746 364.802 412.746C367.086 412.746 368.974 413.301 370.465 414.411C371.956 415.49 372.876 416.997 373.225 418.932L372.606 418.979V403.229H378.65V437.49H372.797ZM366.373 433.065C368.308 433.065 369.846 432.398 370.988 431.066C372.162 429.702 372.749 427.799 372.749 425.356C372.749 422.913 372.162 421.026 370.988 419.693C369.815 418.361 368.26 417.695 366.325 417.695C364.422 417.695 362.883 418.377 361.709 419.741C360.536 421.073 359.949 422.961 359.949 425.403C359.949 427.846 360.536 429.734 361.709 431.066C362.883 432.398 364.438 433.065 366.373 433.065Z" fill="white"/>
<path d="M195.475 390.853V365.157H185.68V362.302H208.521V365.157H198.727V390.853H195.475ZM208.53 390.853V370.629H211.504V375.784H211.703V390.853H208.53ZM211.703 380.305L211.187 375.507C211.663 373.789 212.509 372.48 213.725 371.581C214.941 370.682 216.342 370.233 217.928 370.233C218.589 370.233 219.039 370.286 219.277 370.391V373.445C219.144 373.392 218.959 373.366 218.721 373.366C218.483 373.339 218.193 373.326 217.849 373.326C215.84 373.326 214.307 373.934 213.249 375.15C212.218 376.34 211.703 378.058 211.703 380.305ZM235.231 390.853C235.126 390.404 235.046 389.888 234.994 389.307C234.967 388.725 234.954 387.985 234.954 387.086H234.756V377.41C234.756 375.877 234.399 374.753 233.685 374.04C232.998 373.299 231.874 372.929 230.314 372.929C228.781 372.929 227.552 373.247 226.627 373.881C225.728 374.489 225.225 375.361 225.12 376.498H222.066C222.198 374.542 223.018 373.009 224.525 371.898C226.032 370.788 228.001 370.233 230.433 370.233C232.945 370.233 234.808 370.828 236.025 372.017C237.241 373.207 237.849 374.991 237.849 377.371V387.086C237.849 387.667 237.888 388.276 237.968 388.91C238.047 389.518 238.153 390.166 238.285 390.853H235.231ZM228.292 391.25C226.204 391.25 224.538 390.747 223.296 389.743C222.08 388.712 221.471 387.311 221.471 385.539C221.471 383.768 222.08 382.393 223.296 381.415C224.512 380.437 226.283 379.75 228.609 379.353L235.668 378.164V380.781L229.085 381.812C227.605 382.05 226.481 382.446 225.714 383.001C224.948 383.557 224.564 384.363 224.564 385.42C224.564 386.451 224.908 387.231 225.596 387.76C226.309 388.289 227.354 388.553 228.728 388.553C230.499 388.553 231.94 388.157 233.05 387.363C234.187 386.544 234.756 385.486 234.756 384.191L235.271 387.007C234.848 388.355 234.015 389.399 232.773 390.139C231.557 390.879 230.063 391.25 228.292 391.25ZM243.963 390.853V370.629H246.938V375.388H247.136V390.853H243.963ZM258.437 390.853V377.609C258.437 376.075 258.054 374.925 257.287 374.159C256.521 373.392 255.384 373.009 253.877 373.009C252.555 373.009 251.379 373.299 250.348 373.881C249.343 374.463 248.55 375.269 247.969 376.3C247.413 377.331 247.136 378.534 247.136 379.908L246.62 375.11C247.308 373.603 248.352 372.414 249.753 371.541C251.181 370.669 252.793 370.233 254.591 370.233C256.706 370.233 258.398 370.841 259.667 372.057C260.962 373.247 261.61 374.82 261.61 376.776V390.853H258.437ZM274.484 391.25C271.999 391.25 270.017 390.681 268.536 389.544C267.056 388.381 266.21 386.742 265.998 384.627H269.052C269.237 385.923 269.805 386.914 270.757 387.601C271.709 388.289 272.978 388.632 274.564 388.632C275.965 388.632 277.062 388.368 277.855 387.839C278.648 387.311 279.045 386.557 279.045 385.579C279.045 384.892 278.82 384.297 278.371 383.795C277.921 383.266 277.022 382.83 275.674 382.486L272.422 381.653C270.572 381.177 269.184 380.45 268.259 379.472C267.333 378.468 266.871 377.278 266.871 375.903C266.871 374.159 267.519 372.784 268.814 371.779C270.109 370.748 271.867 370.233 274.088 370.233C276.282 370.233 278.067 370.762 279.441 371.819C280.816 372.876 281.596 374.344 281.781 376.221H278.727C278.542 375.137 278.04 374.304 277.221 373.722C276.401 373.141 275.317 372.85 273.969 372.85C272.674 372.85 271.669 373.101 270.955 373.603C270.241 374.079 269.885 374.767 269.885 375.665C269.885 376.353 270.136 376.948 270.638 377.45C271.167 377.952 272.039 378.375 273.255 378.719L276.428 379.591C278.304 380.094 279.719 380.86 280.671 381.891C281.622 382.922 282.098 384.165 282.098 385.619C282.098 387.39 281.424 388.778 280.076 389.782C278.727 390.761 276.864 391.25 274.484 391.25ZM296.36 391.21C294.457 391.21 292.857 390.747 291.562 389.822C290.266 388.897 289.381 387.588 288.905 385.896L289.539 385.817V398.982H286.367V370.629H289.341V375.348L288.905 375.229C289.407 373.67 290.359 372.453 291.76 371.581C293.161 370.682 294.787 370.233 296.638 370.233C298.435 370.233 299.995 370.669 301.317 371.541C302.665 372.414 303.709 373.63 304.449 375.19C305.19 376.749 305.56 378.573 305.56 380.662C305.56 382.777 305.176 384.627 304.41 386.213C303.643 387.8 302.572 389.029 301.198 389.901C299.823 390.774 298.21 391.21 296.36 391.21ZM295.884 388.434C297.893 388.434 299.466 387.747 300.603 386.372C301.74 384.971 302.308 383.068 302.308 380.662C302.308 378.283 301.74 376.419 300.603 375.071C299.466 373.696 297.893 373.009 295.884 373.009C293.875 373.009 292.289 373.709 291.126 375.11C289.962 376.485 289.381 378.375 289.381 380.781C289.381 383.134 289.962 384.997 291.126 386.372C292.289 387.747 293.875 388.434 295.884 388.434ZM318.822 391.25C316.839 391.25 315.094 390.787 313.588 389.862C312.081 388.936 310.904 387.681 310.058 386.095C309.239 384.482 308.829 382.671 308.829 380.662C308.829 378.626 309.252 376.829 310.098 375.269C310.944 373.709 312.107 372.48 313.588 371.581C315.094 370.682 316.839 370.233 318.822 370.233C320.831 370.233 322.576 370.682 324.056 371.581C325.563 372.48 326.726 373.709 327.546 375.269C328.392 376.829 328.815 378.626 328.815 380.662C328.815 382.671 328.392 384.482 327.546 386.095C326.726 387.681 325.563 388.936 324.056 389.862C322.576 390.787 320.831 391.25 318.822 391.25ZM318.822 388.553C320.197 388.553 321.386 388.223 322.391 387.562C323.395 386.874 324.175 385.936 324.73 384.746C325.285 383.557 325.563 382.182 325.563 380.622C325.563 378.296 324.942 376.432 323.699 375.031C322.483 373.63 320.857 372.929 318.822 372.929C316.813 372.929 315.187 373.63 313.944 375.031C312.702 376.432 312.081 378.296 312.081 380.622C312.081 382.182 312.358 383.557 312.913 384.746C313.469 385.936 314.248 386.874 315.253 387.562C316.284 388.223 317.474 388.553 318.822 388.553ZM333.573 390.853V370.629H336.547V375.784H336.745V390.853H333.573ZM336.745 380.305L336.229 375.507C336.705 373.789 337.551 372.48 338.767 371.581C339.983 370.682 341.384 370.233 342.971 370.233C343.632 370.233 344.081 370.286 344.319 370.391V373.445C344.187 373.392 344.002 373.366 343.764 373.366C343.526 373.339 343.235 373.326 342.891 373.326C340.882 373.326 339.349 373.934 338.291 375.15C337.26 376.34 336.745 378.058 336.745 380.305ZM356.997 391.21C354.75 391.21 353.111 390.708 352.08 389.703C351.075 388.672 350.573 387.192 350.573 385.262V365.911L353.745 364.721V385.222C353.745 386.359 354.036 387.192 354.618 387.72C355.199 388.249 356.151 388.513 357.473 388.513C358.002 388.513 358.451 388.487 358.821 388.434C359.218 388.355 359.535 388.262 359.773 388.157V390.853C359.508 390.959 359.125 391.038 358.623 391.091C358.147 391.17 357.605 391.21 356.997 391.21ZM346.409 373.326V370.629H359.773V373.326H346.409ZM373.459 390.853V367.774C373.459 365.924 373.988 364.483 375.046 363.452C376.129 362.421 377.769 361.905 379.963 361.905C380.491 361.905 380.901 361.932 381.192 361.985C381.509 362.038 381.774 362.104 381.985 362.183V364.681C381.8 364.628 381.536 364.576 381.192 364.523C380.875 364.47 380.531 364.443 380.161 364.443C378.945 364.443 378.046 364.747 377.465 365.355C376.909 365.963 376.632 366.823 376.632 367.933V390.853H373.459ZM369.296 373.326V370.629H381.549V373.326H369.296ZM393.445 391.25C391.462 391.25 389.717 390.787 388.21 389.862C386.703 388.936 385.527 387.681 384.681 386.095C383.861 384.482 383.452 382.671 383.452 380.662C383.452 378.626 383.875 376.829 384.721 375.269C385.567 373.709 386.73 372.48 388.21 371.581C389.717 370.682 391.462 370.233 393.445 370.233C395.454 370.233 397.198 370.682 398.679 371.581C400.186 372.48 401.349 373.709 402.168 375.269C403.014 376.829 403.437 378.626 403.437 380.662C403.437 382.671 403.014 384.482 402.168 386.095C401.349 387.681 400.186 388.936 398.679 389.862C397.198 390.787 395.454 391.25 393.445 391.25ZM393.445 388.553C394.819 388.553 396.009 388.223 397.013 387.562C398.018 386.874 398.798 385.936 399.353 384.746C399.908 383.557 400.186 382.182 400.186 380.622C400.186 378.296 399.564 376.432 398.322 375.031C397.106 373.63 395.48 372.929 393.445 372.929C391.435 372.929 389.81 373.63 388.567 375.031C387.325 376.432 386.703 378.296 386.703 380.622C386.703 382.182 386.981 383.557 387.536 384.746C388.091 385.936 388.871 386.874 389.876 387.562C390.907 388.223 392.096 388.553 393.445 388.553ZM408.195 390.853V370.629H411.169V375.784H411.368V390.853H408.195ZM411.368 380.305L410.852 375.507C411.328 373.789 412.174 372.48 413.39 371.581C414.606 370.682 416.007 370.233 417.593 370.233C418.254 370.233 418.704 370.286 418.942 370.391V373.445C418.809 373.392 418.624 373.366 418.386 373.366C418.148 373.339 417.858 373.326 417.514 373.326C415.505 373.326 413.972 373.934 412.914 375.15C411.883 376.34 411.368 378.058 411.368 380.305Z" fill="white"/>
</g>
<path d="M772.286 255.53H838.652V267.009H772.286V255.53ZM773.721 320.281H760.448V194.725H846.544V206.204H773.721V320.281ZM865.882 320.281V226.114H878.617V320.281H865.882ZM872.339 205.307C869.709 205.307 867.496 204.41 865.703 202.617C863.909 200.823 863.012 198.671 863.012 196.159C863.012 193.648 863.909 191.556 865.703 189.882C867.496 188.088 869.709 187.191 872.339 187.191C874.97 187.191 877.182 188.028 878.976 189.702C880.77 191.376 881.666 193.469 881.666 195.98C881.666 198.611 880.77 200.823 878.976 202.617C877.302 204.41 875.09 205.307 872.339 205.307ZM956.741 225.217C964.394 225.217 971.091 226.712 976.83 229.701C982.69 232.571 987.234 236.995 990.462 242.974C993.81 248.953 995.485 256.487 995.485 265.575V320.281H982.749V266.83C982.749 256.905 980.238 249.432 975.216 244.409C970.313 239.267 963.378 236.696 954.409 236.696C947.713 236.696 941.854 238.072 936.832 240.822C931.929 243.453 928.102 247.339 925.352 252.481C922.721 257.503 921.406 263.602 921.406 270.776V320.281H908.671V226.114H920.868V251.943L918.895 247.1C921.884 240.284 926.667 234.963 933.244 231.136C939.821 227.19 947.653 225.217 956.741 225.217ZM1083.51 320.281V299.475L1082.98 296.067V261.27C1082.98 253.258 1080.7 247.1 1076.16 242.795C1071.74 238.49 1065.1 236.338 1056.25 236.338C1050.15 236.338 1044.35 237.354 1038.85 239.387C1033.35 241.42 1028.69 244.11 1024.86 247.458L1019.12 237.952C1023.9 233.886 1029.64 230.777 1036.34 228.625C1043.04 226.353 1050.09 225.217 1057.51 225.217C1069.7 225.217 1079.09 228.266 1085.67 234.365C1092.36 240.344 1095.71 249.491 1095.71 261.808V320.281H1083.51ZM1051.05 321.178C1043.99 321.178 1037.84 320.042 1032.57 317.77C1027.43 315.379 1023.49 312.15 1020.74 308.085C1017.99 303.899 1016.61 299.116 1016.61 293.735C1016.61 288.832 1017.75 284.408 1020.02 280.462C1022.41 276.396 1026.24 273.168 1031.5 270.776C1036.88 268.265 1044.05 267.009 1053.02 267.009H1085.49V276.516H1053.38C1044.29 276.516 1037.96 278.13 1034.37 281.359C1030.9 284.587 1029.17 288.593 1029.17 293.376C1029.17 298.757 1031.26 303.062 1035.44 306.291C1039.63 309.519 1045.49 311.134 1053.02 311.134C1060.2 311.134 1066.36 309.519 1071.5 306.291C1076.76 302.943 1080.58 298.16 1082.98 291.941L1085.85 300.73C1083.45 306.949 1079.27 311.911 1073.29 315.618C1067.43 319.325 1060.02 321.178 1051.05 321.178ZM1172.99 225.217C1180.64 225.217 1187.34 226.712 1193.08 229.701C1198.94 232.571 1203.48 236.995 1206.71 242.974C1210.06 248.953 1211.73 256.487 1211.73 265.575V320.281H1199V266.83C1199 256.905 1196.49 249.432 1191.47 244.409C1186.56 239.267 1179.63 236.696 1170.66 236.696C1163.96 236.696 1158.1 238.072 1153.08 240.822C1148.18 243.453 1144.35 247.339 1141.6 252.481C1138.97 257.503 1137.66 263.602 1137.66 270.776V320.281H1124.92V226.114H1137.12V251.943L1135.14 247.1C1138.13 240.284 1142.92 234.963 1149.49 231.136C1156.07 227.19 1163.9 225.217 1172.99 225.217ZM1279.85 321.178C1270.53 321.178 1262.16 319.146 1254.74 315.08C1247.45 310.895 1241.71 305.215 1237.52 298.04C1233.34 290.746 1231.25 282.435 1231.25 273.108C1231.25 263.661 1233.34 255.351 1237.52 248.176C1241.71 241.001 1247.45 235.381 1254.74 231.315C1262.16 227.25 1270.53 225.217 1279.85 225.217C1287.87 225.217 1295.1 226.771 1301.56 229.88C1308.01 232.99 1313.1 237.653 1316.8 243.871L1307.3 250.328C1304.07 245.545 1300.06 242.018 1295.28 239.746C1290.5 237.474 1285.29 236.338 1279.67 236.338C1272.98 236.338 1266.94 237.892 1261.56 241.001C1256.18 243.991 1251.93 248.236 1248.82 253.736C1245.71 259.237 1244.16 265.694 1244.16 273.108C1244.16 280.522 1245.71 286.979 1248.82 292.48C1251.93 297.98 1256.18 302.285 1261.56 305.394C1266.94 308.383 1272.98 309.878 1279.67 309.878C1285.29 309.878 1290.5 308.742 1295.28 306.47C1300.06 304.198 1304.07 300.73 1307.3 296.067L1316.8 302.524C1313.1 308.623 1308.01 313.286 1301.56 316.515C1295.1 319.624 1287.87 321.178 1279.85 321.178ZM1335.04 320.281V226.114H1347.77V320.281H1335.04ZM1341.5 205.307C1338.87 205.307 1336.65 204.41 1334.86 202.617C1333.07 200.823 1332.17 198.671 1332.17 196.159C1332.17 193.648 1333.07 191.556 1334.86 189.882C1336.65 188.088 1338.87 187.191 1341.5 187.191C1344.13 187.191 1346.34 188.028 1348.13 189.702C1349.93 191.376 1350.82 193.469 1350.82 195.98C1350.82 198.611 1349.93 200.823 1348.13 202.617C1346.46 204.41 1344.25 205.307 1341.5 205.307ZM1436.84 320.281V299.475L1436.3 296.067V261.27C1436.3 253.258 1434.03 247.1 1429.49 242.795C1425.06 238.49 1418.42 236.338 1409.58 236.338C1403.48 236.338 1397.68 237.354 1392.18 239.387C1386.68 241.42 1382.01 244.11 1378.19 247.458L1372.45 237.952C1377.23 233.886 1382.97 230.777 1389.67 228.625C1396.36 226.353 1403.42 225.217 1410.83 225.217C1423.03 225.217 1432.42 228.266 1438.99 234.365C1445.69 240.344 1449.04 249.491 1449.04 261.808V320.281H1436.84ZM1404.37 321.178C1397.32 321.178 1391.16 320.042 1385.9 317.77C1380.76 315.379 1376.81 312.15 1374.06 308.085C1371.31 303.899 1369.94 299.116 1369.94 293.735C1369.94 288.832 1371.07 284.408 1373.34 280.462C1375.74 276.396 1379.56 273.168 1384.82 270.776C1390.2 268.265 1397.38 267.009 1406.35 267.009H1438.81V276.516H1406.71C1397.62 276.516 1391.28 278.13 1387.69 281.359C1384.23 284.587 1382.49 288.593 1382.49 293.376C1382.49 298.757 1384.58 303.062 1388.77 306.291C1392.95 309.519 1398.81 311.134 1406.35 311.134C1413.52 311.134 1419.68 309.519 1424.82 306.291C1430.08 302.943 1433.91 298.16 1436.3 291.941L1439.17 300.73C1436.78 306.949 1432.59 311.911 1426.62 315.618C1420.76 319.325 1413.34 321.178 1404.37 321.178ZM1478.25 320.281V187.191H1490.98V320.281H1478.25ZM1620.17 321.358C1610.73 321.358 1601.94 319.803 1593.81 316.694C1585.8 313.466 1578.8 308.981 1572.82 303.242C1566.96 297.382 1562.36 290.626 1559.01 282.973C1555.78 275.201 1554.17 266.711 1554.17 257.503C1554.17 248.296 1555.78 239.865 1559.01 232.212C1562.36 224.44 1566.96 217.684 1572.82 211.944C1578.8 206.084 1585.8 201.6 1593.81 198.491C1601.82 195.263 1610.61 193.648 1620.17 193.648C1629.62 193.648 1638.35 195.263 1646.36 198.491C1654.37 201.6 1661.31 206.025 1667.17 211.764C1673.15 217.504 1677.75 224.26 1680.98 232.033C1684.33 239.805 1686 248.296 1686 257.503C1686 266.711 1684.33 275.201 1680.98 282.973C1677.75 290.746 1673.15 297.502 1667.17 303.242C1661.31 308.981 1654.37 313.466 1646.36 316.694C1638.35 319.803 1629.62 321.358 1620.17 321.358ZM1661.25 345.214C1657.42 345.214 1653.72 344.735 1650.13 343.779C1646.54 342.822 1642.89 341.267 1639.19 339.115C1635.6 337.082 1631.89 334.392 1628.07 331.044C1624.24 327.695 1620.05 323.63 1615.51 318.847L1630.04 315.259C1633.75 319.684 1637.33 323.331 1640.8 326.201C1644.39 329.07 1647.86 331.163 1651.2 332.478C1654.67 333.913 1658.08 334.631 1661.43 334.631C1670.76 334.631 1678.71 330.804 1685.28 323.151L1691.74 330.864C1683.85 340.43 1673.68 345.214 1661.25 345.214ZM1620.17 309.519C1627.71 309.519 1634.64 308.264 1640.98 305.753C1647.44 303.122 1653 299.415 1657.66 294.632C1662.44 289.849 1666.15 284.348 1668.78 278.13C1671.41 271.793 1672.73 264.917 1672.73 257.503C1672.73 249.97 1671.41 243.094 1668.78 236.876C1666.15 230.538 1662.44 225.038 1657.66 220.374C1653 215.591 1647.44 211.944 1640.98 209.433C1634.64 206.802 1627.71 205.487 1620.17 205.487C1612.64 205.487 1605.65 206.802 1599.19 209.433C1592.73 211.944 1587.11 215.591 1582.33 220.374C1577.66 225.038 1573.96 230.538 1571.21 236.876C1568.58 243.094 1567.26 249.97 1567.26 257.503C1567.26 264.917 1568.58 271.793 1571.21 278.13C1573.96 284.348 1577.66 289.849 1582.33 294.632C1587.11 299.415 1592.73 303.122 1599.19 305.753C1605.65 308.264 1612.64 309.519 1620.17 309.519ZM1746.6 321.178C1738.59 321.178 1731.6 319.684 1725.62 316.694C1719.64 313.705 1714.98 309.221 1711.63 303.242C1708.4 297.263 1706.78 289.789 1706.78 280.821V226.114H1719.52V279.386C1719.52 289.43 1721.97 297.024 1726.87 302.165C1731.9 307.188 1738.89 309.699 1747.86 309.699C1754.44 309.699 1760.12 308.383 1764.9 305.753C1769.8 303.002 1773.51 299.056 1776.02 293.915C1778.65 288.773 1779.97 282.614 1779.97 275.44V226.114H1792.7V320.281H1780.5V294.453L1782.48 299.116C1779.49 306.052 1774.82 311.493 1768.49 315.439C1762.27 319.265 1754.97 321.178 1746.6 321.178ZM1881.82 320.281V299.475L1881.29 296.067V261.27C1881.29 253.258 1879.01 247.1 1874.47 242.795C1870.05 238.49 1863.41 236.338 1854.56 236.338C1848.46 236.338 1842.66 237.354 1837.16 239.387C1831.66 241.42 1827 244.11 1823.17 247.458L1817.43 237.952C1822.21 233.886 1827.95 230.777 1834.65 228.625C1841.35 226.353 1848.4 225.217 1855.82 225.217C1868.01 225.217 1877.4 228.266 1883.98 234.365C1890.67 240.344 1894.02 249.491 1894.02 261.808V320.281H1881.82ZM1849.36 321.178C1842.3 321.178 1836.15 320.042 1830.88 317.77C1825.74 315.379 1821.8 312.15 1819.05 308.085C1816.3 303.899 1814.92 299.116 1814.92 293.735C1814.92 288.832 1816.06 284.408 1818.33 280.462C1820.72 276.396 1824.55 273.168 1829.81 270.776C1835.19 268.265 1842.36 267.009 1851.33 267.009H1883.8V276.516H1851.69C1842.6 276.516 1836.26 278.13 1832.68 281.359C1829.21 284.587 1827.48 288.593 1827.48 293.376C1827.48 298.757 1829.57 303.062 1833.75 306.291C1837.94 309.519 1843.8 311.134 1851.33 311.134C1858.51 311.134 1864.66 309.519 1869.81 306.291C1875.07 302.943 1878.89 298.16 1881.29 291.941L1884.16 300.73C1881.76 306.949 1877.58 311.911 1871.6 315.618C1865.74 319.325 1858.33 321.178 1849.36 321.178ZM1923.23 320.281V226.114H1935.43V251.763L1934.17 247.279C1936.8 240.104 1941.23 234.664 1947.44 230.957C1953.66 227.13 1961.38 225.217 1970.58 225.217V237.593C1970.1 237.593 1969.63 237.593 1969.15 237.593C1968.67 237.474 1968.19 237.414 1967.71 237.414C1957.79 237.414 1950.02 240.463 1944.4 246.562C1938.77 252.541 1935.96 261.09 1935.96 272.211V320.281H1923.23ZM2022.24 321.178C2013.39 321.178 2006.58 318.787 2001.8 314.004C1997.01 309.221 1994.62 302.464 1994.62 293.735V205.307H2007.36V293.018C2007.36 298.518 2008.73 302.763 2011.48 305.753C2014.35 308.742 2018.42 310.237 2023.68 310.237C2029.3 310.237 2033.96 308.623 2037.67 305.394L2042.15 314.542C2039.64 316.814 2036.59 318.488 2033.01 319.564C2029.54 320.64 2025.95 321.178 2022.24 321.178ZM1977.76 236.696V226.114H2036.05V236.696H1977.76ZM2096.63 321.178C2086.82 321.178 2078.21 319.146 2070.8 315.08C2063.38 310.895 2057.58 305.215 2053.4 298.04C2049.21 290.746 2047.12 282.435 2047.12 273.108C2047.12 263.781 2049.09 255.53 2053.04 248.355C2057.11 241.181 2062.61 235.56 2069.54 231.495C2076.6 227.31 2084.49 225.217 2093.22 225.217C2102.07 225.217 2109.9 227.25 2116.71 231.315C2123.65 235.262 2129.09 240.882 2133.04 248.176C2136.98 255.351 2138.96 263.661 2138.96 273.108C2138.96 273.706 2138.9 274.364 2138.78 275.081C2138.78 275.679 2138.78 276.337 2138.78 277.054H2056.81V267.548H2131.96L2126.94 271.314C2126.94 264.498 2125.44 258.46 2122.45 253.198C2119.58 247.817 2115.64 243.632 2110.62 240.643C2105.59 237.653 2099.79 236.158 2093.22 236.158C2086.76 236.158 2080.96 237.653 2075.82 240.643C2070.68 243.632 2066.67 247.817 2063.8 253.198C2060.93 258.579 2059.5 264.737 2059.5 271.673V273.646C2059.5 280.821 2061.05 287.158 2064.16 292.659C2067.39 298.04 2071.81 302.285 2077.43 305.394C2083.17 308.383 2089.69 309.878 2096.98 309.878C2102.72 309.878 2108.05 308.862 2112.95 306.829C2117.97 304.796 2122.28 301.687 2125.86 297.502L2133.04 305.753C2128.85 310.775 2123.59 314.602 2117.25 317.232C2111.03 319.863 2104.16 321.178 2096.63 321.178ZM2159.5 320.281V226.114H2171.69V251.763L2170.44 247.279C2173.07 240.104 2177.49 234.664 2183.71 230.957C2189.93 227.13 2197.64 225.217 2206.85 225.217V237.593C2206.37 237.593 2205.89 237.593 2205.41 237.593C2204.94 237.474 2204.46 237.414 2203.98 237.414C2194.05 237.414 2186.28 240.463 2180.66 246.562C2175.04 252.541 2172.23 261.09 2172.23 272.211V320.281H2159.5Z" fill="white"/>
</g>
<defs>
<clipPath id="clip0_13_702">
<rect width="2560" height="512" fill="white"/>
</clipPath>
<clipPath id="clip1_13_702">
<rect width="483" height="124.172" fill="white" transform="translate(76.1953 53)"/>
</clipPath>
<clipPath id="clip2_13_702">
<rect width="344" height="111.032" fill="white" transform="translate(76.1953 345)"/>
</clipPath>
</defs>
</svg>
