<svg width="350" height="350" viewBox="0 0 350 350" fill="none" xmlns="http://www.w3.org/2000/svg">
<path d="M0 0H250C305.228 0 350 44.7715 350 100V350H100C44.7715 350 0 305.228 0 250V0Z" fill="#9F040B"/>
<path d="M60 188.826V252.715H74.375V233.549C74.375 217.67 87.2468 204.799 103.125 204.799C118.121 204.799 130.278 216.955 130.278 231.951V233.549V252.715H146.25V233.549C146.25 217.67 159.122 204.799 175 204.799C189.996 204.799 202.153 216.955 202.153 231.951V233.549V252.715H219.722V233.549V231.951C219.722 216.955 231.879 204.799 246.875 204.799H248.472C264.35 204.799 277.222 217.67 277.222 233.549V252.715H290V188.826H60Z" fill="white"/>
<path d="M60 124.938L86.6892 99.731C87.865 98.6206 89.6852 98.564 90.9276 99.5994L115.455 120.039C116.64 121.026 118.36 121.026 119.545 120.039L144.205 99.4889C145.39 98.5017 147.11 98.5017 148.295 99.4889L172.955 120.039C174.14 121.026 175.86 121.026 177.045 120.039L201.705 99.4889C202.89 98.5017 204.61 98.5017 205.795 99.4889L230.509 120.084C231.67 121.051 233.348 121.073 234.534 120.137L260.754 99.4373C261.966 98.4804 263.689 98.5275 264.847 99.5492L290 121.743" stroke="white" stroke-width="6.38889" stroke-linecap="round"/>
</svg>
