<svg width="2560" height="512" viewBox="0 0 2560 512" fill="none" xmlns="http://www.w3.org/2000/svg">
<rect width="2560" height="512" fill="url(#paint0_linear_12_673)"/>
<path d="M559.355 320.593C543.307 320.593 530.505 316.935 520.947 309.619C511.508 302.186 505.962 291.743 504.31 278.291H526.434C527.496 286.079 530.977 292.156 536.877 296.522C542.777 300.77 550.505 302.894 560.063 302.894C567.969 302.894 573.986 301.478 578.116 298.646C582.364 295.696 584.488 291.625 584.488 286.433C584.488 281.831 583.19 278.114 580.594 275.282C577.998 272.451 573.632 270.15 567.497 268.38L544.487 261.477C532.806 257.937 524.192 253.276 518.646 247.494C513.219 241.713 510.505 234.456 510.505 225.724C510.505 218.408 512.393 212.037 516.168 206.609C519.944 201.181 525.254 196.992 532.098 194.042C539.06 191.092 547.142 189.617 556.346 189.617C570.506 189.617 581.774 193.098 590.152 200.06C598.648 206.904 603.485 216.225 604.665 228.025H582.541C581.243 220.945 578.293 215.754 573.691 212.45C569.09 209.028 562.895 207.317 555.107 207.317C548.263 207.317 542.836 208.674 538.824 211.388C534.812 214.102 532.806 217.818 532.806 222.538C532.806 226.432 533.986 229.736 536.346 232.45C538.824 235.164 543.366 237.524 549.974 239.53L573.337 246.609C585.019 250.031 593.515 254.692 598.825 260.592C604.134 266.492 606.789 273.985 606.789 283.07C606.789 295.106 602.6 304.368 594.223 310.858C585.963 317.348 574.34 320.593 559.355 320.593ZM663.567 320.77C652.475 320.77 644.275 318.174 638.965 312.982C633.773 307.672 631.177 299.767 631.177 289.265V208.202L653.655 199.883V289.796C653.655 294.162 654.835 297.407 657.195 299.531C659.555 301.655 663.272 302.717 668.346 302.717C670.352 302.717 672.122 302.599 673.656 302.363C675.308 302.009 676.842 301.596 678.258 301.124V318.469C676.842 319.177 674.836 319.708 672.24 320.062C669.644 320.534 666.753 320.77 663.567 320.77ZM613.832 246.255V228.733H678.258V246.255H613.832ZM732.705 320.77C723.148 320.77 714.77 318.764 707.572 314.752C700.492 310.74 694.947 305.194 690.935 298.115C687.041 291.035 685.094 282.893 685.094 273.69C685.094 264.486 687.041 256.403 690.935 249.441C694.947 242.362 700.492 236.875 707.572 232.981C714.652 228.969 722.912 226.963 732.351 226.963C741.319 226.963 749.107 228.851 755.715 232.627C762.322 236.285 767.455 241.477 771.113 248.202C774.771 254.928 776.6 262.775 776.6 271.743C776.6 273.395 776.541 274.928 776.423 276.344C776.305 277.76 776.128 279.176 775.892 280.592H698.899V265.017H758.723L754.122 269.265C754.122 260.769 752.175 254.397 748.281 250.149C744.387 245.901 738.959 243.778 731.997 243.778C724.446 243.778 718.428 246.373 713.944 251.565C709.578 256.757 707.395 264.25 707.395 274.044C707.395 283.719 709.578 291.153 713.944 296.345C718.428 301.419 724.741 303.956 732.882 303.956C737.602 303.956 741.732 303.071 745.272 301.301C748.812 299.531 751.408 296.817 753.06 293.159H774.122C771.172 301.655 766.157 308.38 759.077 313.336C752.116 318.292 743.325 320.77 732.705 320.77ZM844.794 320.77C836.18 320.77 829.159 318.764 823.731 314.752C818.422 310.622 815.118 304.958 813.82 297.761L815.59 297.584V355.284H793.288V228.733H815.059V249.087L813.289 248.733C814.941 242.008 818.717 236.698 824.616 232.804C830.516 228.91 837.714 226.963 846.21 226.963C854.233 226.963 861.195 228.91 867.095 232.804C873.113 236.58 877.774 241.949 881.077 248.91C884.381 255.872 886.033 264.073 886.033 273.513C886.033 283.07 884.322 291.389 880.9 298.469C877.479 305.548 872.7 311.035 866.564 314.929C860.428 318.823 853.171 320.77 844.794 320.77ZM839.13 302.363C846.328 302.363 852.05 299.885 856.298 294.929C860.546 289.855 862.67 282.775 862.67 273.69C862.67 264.604 860.487 257.583 856.121 252.627C851.873 247.671 846.151 245.194 838.953 245.194C831.873 245.194 826.15 247.73 821.785 252.804C817.419 257.76 815.236 264.781 815.236 273.867C815.236 282.952 817.419 289.973 821.785 294.929C826.15 299.885 831.932 302.363 839.13 302.363ZM908.915 319V220.414C908.915 210.503 911.629 202.951 917.057 197.759C922.603 192.449 930.863 189.794 941.836 189.794C944.314 189.794 946.379 189.912 948.031 190.148C949.683 190.384 951.276 190.738 952.81 191.21V208.556C951.984 208.202 950.922 207.966 949.624 207.848C948.326 207.612 946.851 207.494 945.199 207.494C940.479 207.494 936.939 208.674 934.579 211.034C932.338 213.276 931.217 216.579 931.217 220.945V319H908.915ZM892.632 246.255V228.733H950.863V246.255H892.632ZM1004.43 320.77C994.874 320.77 986.437 318.764 979.121 314.752C971.923 310.74 966.319 305.194 962.307 298.115C958.295 290.917 956.289 282.716 956.289 273.513C956.289 264.309 958.295 256.226 962.307 249.264C966.319 242.303 971.923 236.875 979.121 232.981C986.437 228.969 994.874 226.963 1004.43 226.963C1014.11 226.963 1022.54 228.969 1029.74 232.981C1036.94 236.875 1042.54 242.303 1046.56 249.264C1050.57 256.226 1052.57 264.309 1052.57 273.513C1052.57 282.716 1050.51 290.917 1046.38 298.115C1042.37 305.194 1036.76 310.74 1029.56 314.752C1022.37 318.764 1013.99 320.77 1004.43 320.77ZM1004.43 302.894C1009.15 302.894 1013.4 301.714 1017.17 299.354C1020.95 296.876 1023.9 293.454 1026.02 289.088C1028.15 284.604 1029.21 279.353 1029.21 273.336C1029.21 264.486 1026.85 257.524 1022.13 252.45C1017.53 247.376 1011.63 244.84 1004.43 244.84C997.233 244.84 991.275 247.376 986.555 252.45C981.835 257.524 979.475 264.486 979.475 273.336C979.475 279.353 980.537 284.604 982.661 289.088C984.903 293.454 987.853 296.876 991.511 299.354C995.287 301.714 999.593 302.894 1004.43 302.894ZM1068.98 319V228.733H1090.75V250.503H1091.28V319H1068.98ZM1091.28 271.92L1088.98 250.503C1091.1 242.834 1094.7 236.993 1099.77 232.981C1104.85 228.969 1110.92 226.963 1118 226.963C1120.48 226.963 1122.25 227.199 1123.31 227.671V248.733C1122.72 248.497 1121.9 248.379 1120.84 248.379C1119.77 248.261 1118.48 248.202 1116.94 248.202C1108.33 248.202 1101.9 250.09 1097.65 253.866C1093.4 257.642 1091.28 263.66 1091.28 271.92ZM1200.29 319V298.646L1202.06 299C1200.53 305.607 1196.81 310.917 1190.91 314.929C1185.01 318.823 1177.99 320.77 1169.85 320.77C1161.59 320.77 1154.39 318.882 1148.26 315.106C1142.24 311.212 1137.58 305.784 1134.28 298.823C1130.97 291.861 1129.32 283.66 1129.32 274.221C1129.32 264.663 1131.03 256.344 1134.45 249.264C1137.87 242.185 1142.65 236.698 1148.79 232.804C1155.04 228.91 1162.3 226.963 1170.56 226.963C1179.06 226.963 1186.08 229.028 1191.62 233.158C1197.17 237.17 1200.59 242.775 1201.89 249.972L1199.59 250.149V191.564H1222.06V319H1200.29ZM1176.4 302.54C1183.6 302.54 1189.32 300.062 1193.57 295.106C1197.93 290.032 1200.12 282.952 1200.12 273.867C1200.12 264.781 1197.93 257.76 1193.57 252.804C1189.2 247.848 1183.42 245.37 1176.22 245.37C1169.14 245.37 1163.42 247.907 1159.05 252.981C1154.69 257.937 1152.51 264.958 1152.51 274.044C1152.51 283.129 1154.69 290.15 1159.05 295.106C1163.42 300.062 1169.2 302.54 1176.4 302.54ZM1337.37 320.77C1328.28 320.77 1319.9 319.177 1312.23 315.991C1304.68 312.687 1298.08 308.085 1292.41 302.186C1286.75 296.286 1282.38 289.324 1279.31 281.3C1276.25 273.277 1274.71 264.486 1274.71 254.928C1274.71 245.37 1276.25 236.639 1279.31 228.733C1282.38 220.827 1286.69 213.984 1292.23 208.202C1297.9 202.302 1304.51 197.759 1312.06 194.573C1319.73 191.387 1328.16 189.794 1337.37 189.794C1347.52 189.794 1356.66 191.8 1364.8 195.812C1372.94 199.824 1379.61 205.488 1384.8 212.804C1390.11 220.001 1393.36 228.497 1394.54 238.291H1371.88C1370.47 228.733 1366.63 221.417 1360.38 216.343C1354.12 211.152 1346.51 208.556 1337.54 208.556C1329.64 208.556 1322.74 210.444 1316.84 214.22C1310.94 217.995 1306.34 223.364 1303.03 230.326C1299.73 237.17 1298.08 245.312 1298.08 254.751C1298.08 264.427 1299.73 272.805 1303.03 279.884C1306.34 286.846 1311 292.274 1317.01 296.168C1323.03 300.062 1329.93 302.009 1337.72 302.009C1346.45 302.009 1353.95 299.472 1360.2 294.398C1366.45 289.206 1370.41 281.89 1372.06 272.451H1394.89C1393.48 282.126 1390.11 290.622 1384.8 297.938C1379.61 305.253 1372.94 310.917 1364.8 314.929C1356.66 318.823 1347.52 320.77 1337.37 320.77ZM1452.43 320.77C1442.88 320.77 1434.5 318.764 1427.3 314.752C1420.22 310.74 1414.68 305.194 1410.66 298.115C1406.77 291.035 1404.82 282.893 1404.82 273.69C1404.82 264.486 1406.77 256.403 1410.66 249.441C1414.68 242.362 1420.22 236.875 1427.3 232.981C1434.38 228.969 1442.64 226.963 1452.08 226.963C1461.05 226.963 1468.84 228.851 1475.44 232.627C1482.05 236.285 1487.18 241.477 1490.84 248.202C1494.5 254.928 1496.33 262.775 1496.33 271.743C1496.33 273.395 1496.27 274.928 1496.15 276.344C1496.03 277.76 1495.86 279.176 1495.62 280.592H1418.63V265.017H1478.45L1473.85 269.265C1473.85 260.769 1471.9 254.397 1468.01 250.149C1464.12 245.901 1458.69 243.778 1451.73 243.778C1444.18 243.778 1438.16 246.373 1433.67 251.565C1429.31 256.757 1427.12 264.25 1427.12 274.044C1427.12 283.719 1429.31 291.153 1433.67 296.345C1438.16 301.419 1444.47 303.956 1452.61 303.956C1457.33 303.956 1461.46 303.071 1465 301.301C1468.54 299.531 1471.14 296.817 1472.79 293.159H1493.85C1490.9 301.655 1485.89 308.38 1478.81 313.336C1471.85 318.292 1463.05 320.77 1452.43 320.77ZM1513.02 319V228.733H1534.79V249.972H1535.32V319H1513.02ZM1576.38 319V262.008C1576.38 256.462 1574.97 252.273 1572.13 249.441C1569.3 246.609 1565.17 245.194 1559.74 245.194C1555.02 245.194 1550.78 246.255 1547 248.379C1543.34 250.503 1540.45 253.453 1538.33 257.229C1536.32 261.005 1535.32 265.371 1535.32 270.327L1533.02 248.733C1536.09 242.126 1540.57 236.875 1546.47 232.981C1552.37 228.969 1559.45 226.963 1567.71 226.963C1577.5 226.963 1585.11 229.736 1590.54 235.282C1596.09 240.828 1598.86 248.202 1598.86 257.406V319H1576.38ZM1658.64 320.77C1647.55 320.77 1639.35 318.174 1634.04 312.982C1628.85 307.672 1626.25 299.767 1626.25 289.265V208.202L1648.73 199.883V289.796C1648.73 294.162 1649.91 297.407 1652.27 299.531C1654.63 301.655 1658.34 302.717 1663.42 302.717C1665.42 302.717 1667.19 302.599 1668.73 302.363C1670.38 302.009 1671.91 301.596 1673.33 301.124V318.469C1671.91 319.177 1669.91 319.708 1667.31 320.062C1664.72 320.534 1661.83 320.77 1658.64 320.77ZM1608.9 246.255V228.733H1673.33V246.255H1608.9ZM1690.01 319V228.733H1711.78V250.503H1712.31V319H1690.01ZM1712.31 271.92L1710.01 250.503C1712.14 242.834 1715.74 236.993 1720.81 232.981C1725.88 228.969 1731.96 226.963 1739.04 226.963C1741.52 226.963 1743.29 227.199 1744.35 227.671V248.733C1743.76 248.497 1742.93 248.379 1741.87 248.379C1740.81 248.261 1739.51 248.202 1737.98 248.202C1729.36 248.202 1722.93 250.09 1718.68 253.866C1714.44 257.642 1712.31 263.66 1712.31 271.92ZM1812.15 319C1811.56 316.64 1811.09 314.044 1810.73 311.212C1810.5 308.38 1810.38 304.958 1810.38 300.947H1809.67V258.114C1809.67 253.394 1808.32 249.854 1805.6 247.494C1803.01 245.017 1798.99 243.778 1793.57 243.778C1788.26 243.778 1784.01 244.781 1780.82 246.786C1777.75 248.674 1775.87 251.447 1775.16 255.105H1753.74C1754.69 246.727 1758.7 239.943 1765.78 234.751C1772.86 229.559 1782.36 226.963 1794.27 226.963C1806.66 226.963 1816.04 229.795 1822.42 235.459C1828.79 241.005 1831.97 249.205 1831.97 260.061V300.947C1831.97 303.779 1832.15 306.669 1832.5 309.619C1832.98 312.569 1833.63 315.696 1834.45 319H1812.15ZM1780.82 320.77C1771.74 320.77 1764.48 318.528 1759.05 314.044C1753.74 309.442 1751.09 303.307 1751.09 295.637C1751.09 287.377 1754.1 280.828 1760.11 275.99C1766.13 271.153 1774.63 267.908 1785.6 266.256L1813.74 262.008V276.167L1789.32 279.884C1784.01 280.71 1780 282.185 1777.28 284.309C1774.69 286.433 1773.39 289.383 1773.39 293.159C1773.39 296.581 1774.63 299.236 1777.11 301.124C1779.58 302.894 1783.01 303.779 1787.37 303.779C1793.74 303.779 1799.05 302.186 1803.3 299C1807.55 295.814 1809.67 291.92 1809.67 287.318L1812.15 300.947C1809.79 307.436 1805.9 312.392 1800.47 315.814C1795.16 319.118 1788.61 320.77 1780.82 320.77ZM1854.56 319V191.564H1876.86V319H1854.56Z" fill="white"/>
<path d="M56 81H306C361.228 81 406 125.772 406 181V431H156C100.772 431 56 386.228 56 331V81Z" fill="#9F040B"/>
<path d="M116 269.826V333.715H130.375V314.549C130.375 298.67 143.247 285.799 159.125 285.799C174.121 285.799 186.278 297.955 186.278 312.951V314.549V333.715H202.25V314.549C202.25 298.67 215.122 285.799 231 285.799C245.996 285.799 258.153 297.955 258.153 312.951V314.549V333.715H275.722V314.549V312.951C275.722 297.955 287.879 285.799 302.875 285.799H304.472C320.35 285.799 333.222 298.67 333.222 314.549V333.715H346V269.826H116Z" fill="white"/>
<path d="M116 205.938L142.689 180.731C143.865 179.621 145.685 179.564 146.928 180.599L171.455 201.039C172.64 202.026 174.36 202.026 175.545 201.039L200.205 180.489C201.39 179.502 203.11 179.502 204.295 180.489L228.955 201.039C230.14 202.026 231.86 202.026 233.045 201.039L257.705 180.489C258.89 179.502 260.61 179.502 261.795 180.489L286.509 201.084C287.67 202.051 289.348 202.073 290.534 201.137L316.754 180.437C317.966 179.48 319.689 179.528 320.847 180.549L346 202.743" stroke="white" stroke-width="6.38889" stroke-linecap="round"/>
<g clip-path="url(#clip0_12_673)">
<path fill-rule="evenodd" clip-rule="evenodd" d="M2112.74 430.504L2068.65 387.709L2127.01 330.648L2149.05 352.695L2137.38 364.366L2127.01 353.991L2093.29 387.709L2124.41 419.481L2112.74 430.504Z" fill="white"/>
<path fill-rule="evenodd" clip-rule="evenodd" d="M2114.04 386.412L2125.71 374.741L2169.15 418.184L2110.8 475.245L2088.75 453.199L2100.42 441.527L2110.8 451.902L2144.51 417.536L2114.04 386.412Z" fill="white"/>
<path d="M2230.58 452.073C2224.94 452.073 2220.43 450.787 2217.07 448.214C2213.75 445.599 2211.8 441.927 2211.22 437.196H2219C2219.38 439.935 2220.6 442.072 2222.68 443.607C2224.75 445.101 2227.47 445.848 2230.83 445.848C2233.61 445.848 2235.73 445.35 2237.18 444.354C2238.67 443.317 2239.42 441.885 2239.42 440.059C2239.42 438.441 2238.96 437.134 2238.05 436.138C2237.14 435.142 2235.6 434.333 2233.44 433.71L2225.35 431.282C2221.24 430.037 2218.21 428.398 2216.26 426.365C2214.36 424.331 2213.4 421.779 2213.4 418.708C2213.4 416.135 2214.06 413.895 2215.39 411.986C2216.72 410.077 2218.59 408.603 2220.99 407.566C2223.44 406.529 2226.29 406.01 2229.52 406.01C2234.5 406.01 2238.47 407.234 2241.41 409.682C2244.4 412.089 2246.1 415.368 2246.52 419.518H2238.74C2238.28 417.028 2237.24 415.202 2235.62 414.04C2234 412.836 2231.83 412.235 2229.09 412.235C2226.68 412.235 2224.77 412.712 2223.36 413.666C2221.95 414.621 2221.24 415.928 2221.24 417.588C2221.24 418.957 2221.66 420.119 2222.49 421.074C2223.36 422.028 2224.96 422.858 2227.28 423.564L2235.5 426.054C2239.61 427.257 2242.59 428.896 2244.46 430.971C2246.33 433.046 2247.26 435.681 2247.26 438.877C2247.26 443.11 2245.79 446.367 2242.84 448.65C2239.94 450.932 2235.85 452.073 2230.58 452.073ZM2267.23 452.135C2263.33 452.135 2260.45 451.222 2258.58 449.397C2256.75 447.529 2255.84 444.749 2255.84 441.055V412.546L2263.75 409.62V441.242C2263.75 442.778 2264.16 443.919 2264.99 444.666C2265.82 445.413 2267.13 445.786 2268.91 445.786C2269.62 445.786 2270.24 445.745 2270.78 445.662C2271.36 445.537 2271.9 445.392 2272.4 445.226V451.326C2271.9 451.575 2271.19 451.762 2270.28 451.886C2269.37 452.052 2268.35 452.135 2267.23 452.135ZM2249.74 425.929V419.767H2272.4V425.929H2249.74ZM2291.55 452.135C2288.19 452.135 2285.24 451.43 2282.71 450.019C2280.22 448.608 2278.27 446.658 2276.86 444.168C2275.49 441.678 2274.8 438.814 2274.8 435.578C2274.8 432.341 2275.49 429.498 2276.86 427.05C2278.27 424.56 2280.22 422.63 2282.71 421.261C2285.2 419.85 2288.1 419.144 2291.42 419.144C2294.58 419.144 2297.32 419.808 2299.64 421.136C2301.96 422.422 2303.77 424.248 2305.06 426.614C2306.34 428.979 2306.98 431.739 2306.98 434.893C2306.98 435.474 2306.96 436.013 2306.92 436.511C2306.88 437.009 2306.82 437.507 2306.74 438.005H2279.66V432.527H2300.7L2299.08 434.021C2299.08 431.033 2298.39 428.793 2297.03 427.299C2295.66 425.805 2293.75 425.058 2291.3 425.058C2288.64 425.058 2286.53 425.971 2284.95 427.797C2283.41 429.622 2282.65 432.258 2282.65 435.702C2282.65 439.105 2283.41 441.719 2284.95 443.545C2286.53 445.33 2288.75 446.222 2291.61 446.222C2293.27 446.222 2294.72 445.911 2295.97 445.288C2297.21 444.666 2298.12 443.711 2298.71 442.425H2306.11C2305.08 445.413 2303.31 447.778 2300.82 449.521C2298.37 451.264 2295.28 452.135 2291.55 452.135ZM2330.97 452.135C2327.94 452.135 2325.47 451.43 2323.56 450.019C2321.69 448.567 2320.53 446.575 2320.07 444.043L2320.7 443.981V464.274H2312.85V419.767H2320.51V426.925L2319.89 426.801C2320.47 424.435 2321.8 422.568 2323.87 421.198C2325.95 419.829 2328.48 419.144 2331.47 419.144C2334.29 419.144 2336.74 419.829 2338.81 421.198C2340.93 422.526 2342.57 424.414 2343.73 426.863C2344.89 429.311 2345.47 432.195 2345.47 435.515C2345.47 438.877 2344.87 441.802 2343.67 444.292C2342.46 446.782 2340.78 448.712 2338.62 450.081C2336.47 451.451 2333.91 452.135 2330.97 452.135ZM2328.98 445.662C2331.51 445.662 2333.52 444.79 2335.01 443.047C2336.51 441.263 2337.26 438.773 2337.26 435.578C2337.26 432.382 2336.49 429.913 2334.95 428.17C2333.46 426.427 2331.45 425.556 2328.91 425.556C2326.42 425.556 2324.41 426.448 2322.88 428.232C2321.34 429.975 2320.57 432.444 2320.57 435.64C2320.57 438.835 2321.34 441.304 2322.88 443.047C2324.41 444.79 2326.44 445.662 2328.98 445.662ZM2353.52 451.513V416.841C2353.52 413.355 2354.47 410.699 2356.38 408.873C2358.33 407.006 2361.24 406.072 2365.1 406.072C2365.97 406.072 2366.7 406.114 2367.28 406.197C2367.86 406.28 2368.42 406.404 2368.96 406.57V412.67C2368.67 412.546 2368.29 412.463 2367.84 412.421C2367.38 412.338 2366.86 412.297 2366.28 412.297C2364.62 412.297 2363.38 412.712 2362.55 413.542C2361.76 414.33 2361.36 415.492 2361.36 417.028V451.513H2353.52ZM2347.79 425.929V419.767H2368.27V425.929H2347.79ZM2387.11 452.135C2383.75 452.135 2380.78 451.43 2378.21 450.019C2375.68 448.608 2373.71 446.658 2372.3 444.168C2370.89 441.636 2370.18 438.752 2370.18 435.515C2370.18 432.278 2370.89 429.436 2372.3 426.987C2373.71 424.539 2375.68 422.63 2378.21 421.261C2380.78 419.85 2383.75 419.144 2387.11 419.144C2390.51 419.144 2393.48 419.85 2396.01 421.261C2398.54 422.63 2400.52 424.539 2401.93 426.987C2403.34 429.436 2404.04 432.278 2404.04 435.515C2404.04 438.752 2403.32 441.636 2401.86 444.168C2400.45 446.658 2398.48 448.608 2395.95 450.019C2393.42 451.43 2390.47 452.135 2387.11 452.135ZM2387.11 445.848C2388.77 445.848 2390.27 445.433 2391.59 444.603C2392.92 443.732 2393.96 442.529 2394.71 440.993C2395.45 439.416 2395.83 437.569 2395.83 435.453C2395.83 432.341 2395 429.892 2393.34 428.108C2391.72 426.323 2389.64 425.431 2387.11 425.431C2384.58 425.431 2382.48 426.323 2380.82 428.108C2379.16 429.892 2378.34 432.341 2378.34 435.453C2378.34 437.569 2378.71 439.416 2379.46 440.993C2380.24 442.529 2381.28 443.732 2382.57 444.603C2383.9 445.433 2385.41 445.848 2387.11 445.848ZM2409.81 451.513V419.767H2417.47V427.423H2417.66V451.513H2409.81ZM2417.66 434.955L2416.85 427.423C2417.59 424.726 2418.86 422.671 2420.64 421.261C2422.43 419.85 2424.57 419.144 2427.06 419.144C2427.93 419.144 2428.55 419.227 2428.92 419.393V426.801C2428.72 426.718 2428.42 426.676 2428.05 426.676C2427.68 426.635 2427.22 426.614 2426.68 426.614C2423.65 426.614 2421.39 427.278 2419.9 428.606C2418.4 429.934 2417.66 432.05 2417.66 434.955ZM2456 451.513V444.354L2456.62 444.479C2456.08 446.803 2454.77 448.67 2452.7 450.081C2450.62 451.451 2448.15 452.135 2445.29 452.135C2442.38 452.135 2439.85 451.471 2437.7 450.144C2435.58 448.774 2433.94 446.865 2432.78 444.417C2431.62 441.968 2431.03 439.084 2431.03 435.764C2431.03 432.403 2431.64 429.477 2432.84 426.987C2434.04 424.497 2435.72 422.568 2437.88 421.198C2440.08 419.829 2442.63 419.144 2445.54 419.144C2448.53 419.144 2451 419.87 2452.95 421.323C2454.9 422.734 2456.1 424.705 2456.56 427.236L2455.75 427.299V406.695H2463.65V451.513H2456ZM2447.59 445.724C2450.12 445.724 2452.14 444.852 2453.63 443.11C2455.17 441.325 2455.93 438.835 2455.93 435.64C2455.93 432.444 2455.17 429.975 2453.63 428.232C2452.1 426.489 2450.06 425.618 2447.53 425.618C2445.04 425.618 2443.03 426.51 2441.49 428.295C2439.96 430.037 2439.19 432.507 2439.19 435.702C2439.19 438.897 2439.96 441.367 2441.49 443.11C2443.03 444.852 2445.06 445.724 2447.59 445.724Z" fill="white"/>
<path d="M2224.03 389.046V355.432H2211.22V351.697H2241.1V355.432H2228.29V389.046H2224.03ZM2241.11 389.046V362.591H2245V369.334H2245.26V389.046H2241.11ZM2245.26 375.248L2244.59 368.971C2245.21 366.723 2246.32 365.012 2247.91 363.836C2249.5 362.66 2251.33 362.072 2253.41 362.072C2254.27 362.072 2254.86 362.141 2255.17 362.28V366.274C2255 366.205 2254.76 366.17 2254.44 366.17C2254.13 366.135 2253.75 366.118 2253.3 366.118C2250.67 366.118 2248.67 366.914 2247.29 368.504C2245.94 370.061 2245.26 372.308 2245.26 375.248ZM2276.04 389.046C2275.9 388.458 2275.8 387.784 2275.73 387.023C2275.7 386.262 2275.68 385.294 2275.68 384.118H2275.42V371.461C2275.42 369.455 2274.95 367.986 2274.02 367.052C2273.12 366.084 2271.65 365.599 2269.61 365.599C2267.6 365.599 2266 366.014 2264.79 366.844C2263.61 367.64 2262.95 368.781 2262.81 370.268H2258.82C2258.99 367.709 2260.06 365.703 2262.04 364.251C2264.01 362.798 2266.58 362.072 2269.76 362.072C2273.05 362.072 2275.49 362.85 2277.08 364.406C2278.67 365.963 2279.47 368.297 2279.47 371.409V384.118C2279.47 384.879 2279.52 385.674 2279.62 386.504C2279.72 387.3 2279.86 388.147 2280.04 389.046H2276.04ZM2266.96 389.565C2264.23 389.565 2262.05 388.908 2260.43 387.594C2258.84 386.245 2258.04 384.412 2258.04 382.095C2258.04 379.778 2258.84 377.98 2260.43 376.7C2262.02 375.421 2264.34 374.522 2267.38 374.003L2276.61 372.447V375.87L2268 377.219C2266.06 377.53 2264.59 378.049 2263.59 378.775C2262.59 379.501 2262.09 380.556 2262.09 381.939C2262.09 383.288 2262.54 384.308 2263.44 385C2264.37 385.692 2265.74 386.037 2267.53 386.037C2269.85 386.037 2271.74 385.519 2273.19 384.481C2274.68 383.409 2275.42 382.026 2275.42 380.331L2276.09 384.014C2275.54 385.778 2274.45 387.144 2272.83 388.112C2271.23 389.081 2269.28 389.565 2266.96 389.565ZM2287.46 389.046V362.591H2291.35V368.816H2291.61V389.046H2287.46ZM2306.4 389.046V371.72C2306.4 369.715 2305.9 368.21 2304.89 367.207C2303.89 366.205 2302.4 365.703 2300.43 365.703C2298.7 365.703 2297.16 366.084 2295.82 366.844C2294.5 367.605 2293.46 368.66 2292.7 370.009C2291.98 371.357 2291.61 372.931 2291.61 374.729L2290.94 368.452C2291.84 366.481 2293.2 364.925 2295.04 363.784C2296.91 362.643 2299.01 362.072 2301.37 362.072C2304.13 362.072 2306.35 362.867 2308.01 364.458C2309.7 366.014 2310.55 368.072 2310.55 370.631V389.046H2306.4ZM2327.39 389.565C2324.14 389.565 2321.55 388.821 2319.61 387.334C2317.67 385.813 2316.57 383.669 2316.29 380.902H2320.28C2320.53 382.597 2321.27 383.893 2322.51 384.793C2323.76 385.692 2325.42 386.141 2327.49 386.141C2329.33 386.141 2330.76 385.795 2331.8 385.104C2332.84 384.412 2333.36 383.427 2333.36 382.147C2333.36 381.248 2333.06 380.47 2332.47 379.813C2331.89 379.121 2330.71 378.55 2328.95 378.101L2324.69 377.012C2322.27 376.389 2320.46 375.438 2319.25 374.159C2318.04 372.844 2317.43 371.288 2317.43 369.49C2317.43 367.207 2318.28 365.409 2319.97 364.095C2321.67 362.746 2323.97 362.072 2326.87 362.072C2329.74 362.072 2332.08 362.764 2333.87 364.147C2335.67 365.53 2336.69 367.45 2336.93 369.905H2332.94C2332.7 368.487 2332.04 367.398 2330.97 366.637C2329.9 365.876 2328.48 365.496 2326.72 365.496C2325.02 365.496 2323.71 365.824 2322.77 366.481C2321.84 367.104 2321.37 368.003 2321.37 369.179C2321.37 370.078 2321.7 370.856 2322.36 371.513C2323.05 372.17 2324.19 372.723 2325.78 373.173L2329.93 374.314C2332.39 374.971 2334.24 375.974 2335.48 377.323C2336.73 378.671 2337.35 380.297 2337.35 382.199C2337.35 384.516 2336.47 386.331 2334.7 387.646C2332.94 388.925 2330.5 389.565 2327.39 389.565ZM2356.01 389.513C2353.52 389.513 2351.42 388.908 2349.73 387.697C2348.03 386.487 2346.88 384.775 2346.25 382.562L2347.08 382.458V399.68H2342.93V362.591H2346.82V368.764L2346.25 368.608C2346.91 366.568 2348.16 364.977 2349.99 363.836C2351.82 362.66 2353.95 362.072 2356.37 362.072C2358.72 362.072 2360.76 362.643 2362.49 363.784C2364.25 364.925 2365.62 366.516 2366.59 368.556C2367.56 370.597 2368.04 372.983 2368.04 375.715C2368.04 378.481 2367.54 380.902 2366.54 382.977C2365.53 385.052 2364.13 386.66 2362.33 387.801C2360.54 388.942 2358.43 389.513 2356.01 389.513ZM2355.38 385.882C2358.01 385.882 2360.07 384.983 2361.56 383.184C2363.04 381.352 2363.79 378.862 2363.79 375.715C2363.79 372.602 2363.04 370.164 2361.56 368.401C2360.07 366.602 2358.01 365.703 2355.38 365.703C2352.76 365.703 2350.68 366.62 2349.16 368.452C2347.64 370.251 2346.88 372.723 2346.88 375.87C2346.88 378.948 2347.64 381.386 2349.16 383.184C2350.68 384.983 2352.76 385.882 2355.38 385.882ZM2385.39 389.565C2382.8 389.565 2380.51 388.96 2378.54 387.749C2376.57 386.539 2375.03 384.896 2373.93 382.821C2372.85 380.712 2372.32 378.343 2372.32 375.715C2372.32 373.052 2372.87 370.7 2373.98 368.66C2375.08 366.62 2376.61 365.012 2378.54 363.836C2380.51 362.66 2382.8 362.072 2385.39 362.072C2388.02 362.072 2390.3 362.66 2392.24 363.836C2394.21 365.012 2395.73 366.62 2396.8 368.66C2397.91 370.7 2398.46 373.052 2398.46 375.715C2398.46 378.343 2397.91 380.712 2396.8 382.821C2395.73 384.896 2394.21 386.539 2392.24 387.749C2390.3 388.96 2388.02 389.565 2385.39 389.565ZM2385.39 386.037C2387.19 386.037 2388.74 385.605 2390.06 384.741C2391.37 383.842 2392.39 382.614 2393.12 381.058C2393.84 379.501 2394.21 377.703 2394.21 375.663C2394.21 372.62 2393.4 370.182 2391.77 368.349C2390.18 366.516 2388.05 365.599 2385.39 365.599C2382.76 365.599 2380.63 366.516 2379.01 368.349C2377.38 370.182 2376.57 372.62 2376.57 375.663C2376.57 377.703 2376.93 379.501 2377.66 381.058C2378.39 382.614 2379.41 383.842 2380.72 384.741C2382.07 385.605 2383.63 386.037 2385.39 386.037ZM2404.69 389.046V362.591H2408.58V369.334H2408.84V389.046H2404.69ZM2408.84 375.248L2408.16 368.971C2408.78 366.723 2409.89 365.012 2411.48 363.836C2413.07 362.66 2414.9 362.072 2416.98 362.072C2417.84 362.072 2418.43 362.141 2418.74 362.28V366.274C2418.57 366.205 2418.33 366.17 2418.02 366.17C2417.71 366.135 2417.33 366.118 2416.88 366.118C2414.25 366.118 2412.24 366.914 2410.86 368.504C2409.51 370.061 2408.84 372.308 2408.84 375.248ZM2435.33 389.513C2432.39 389.513 2430.24 388.856 2428.9 387.542C2427.58 386.193 2426.92 384.256 2426.92 381.732V356.418L2431.07 354.862V381.68C2431.07 383.167 2431.45 384.256 2432.22 384.948C2432.98 385.64 2434.22 385.986 2435.95 385.986C2436.64 385.986 2437.23 385.951 2437.71 385.882C2438.23 385.778 2438.65 385.657 2438.96 385.519V389.046C2438.61 389.184 2438.11 389.288 2437.45 389.357C2436.83 389.461 2436.12 389.513 2435.33 389.513ZM2421.48 366.118V362.591H2438.96V366.118H2421.48ZM2456.86 389.046V358.856C2456.86 356.435 2457.55 354.55 2458.94 353.202C2460.36 351.853 2462.5 351.179 2465.37 351.179C2466.06 351.179 2466.6 351.213 2466.98 351.282C2467.39 351.352 2467.74 351.438 2468.02 351.542V354.81C2467.77 354.741 2467.43 354.671 2466.98 354.602C2466.56 354.533 2466.11 354.499 2465.63 354.499C2464.04 354.499 2462.86 354.896 2462.1 355.692C2461.38 356.487 2461.01 357.611 2461.01 359.063V389.046H2456.86ZM2451.42 366.118V362.591H2467.45V366.118H2451.42ZM2483.01 389.565C2480.41 389.565 2478.13 388.96 2476.16 387.749C2474.19 386.539 2472.65 384.896 2471.54 382.821C2470.47 380.712 2469.93 378.343 2469.93 375.715C2469.93 373.052 2470.49 370.7 2471.59 368.66C2472.7 366.62 2474.22 365.012 2476.16 363.836C2478.13 362.66 2480.41 362.072 2483.01 362.072C2485.63 362.072 2487.92 362.66 2489.85 363.836C2491.82 365.012 2493.35 366.62 2494.42 368.66C2495.52 370.7 2496.08 373.052 2496.08 375.715C2496.08 378.343 2495.52 380.712 2494.42 382.821C2493.35 384.896 2491.82 386.539 2489.85 387.749C2487.92 388.96 2485.63 389.565 2483.01 389.565ZM2483.01 386.037C2484.8 386.037 2486.36 385.605 2487.67 384.741C2488.99 383.842 2490.01 382.614 2490.74 381.058C2491.46 379.501 2491.82 377.703 2491.82 375.663C2491.82 372.62 2491.01 370.182 2489.39 368.349C2487.8 366.516 2485.67 365.599 2483.01 365.599C2480.38 365.599 2478.25 366.516 2476.63 368.349C2475 370.182 2474.19 372.62 2474.19 375.663C2474.19 377.703 2474.55 379.501 2475.28 381.058C2476 382.614 2477.02 383.842 2478.34 384.741C2479.69 385.605 2481.24 386.037 2483.01 386.037ZM2502.3 389.046V362.591H2506.19V369.334H2506.45V389.046H2502.3ZM2506.45 375.248L2505.78 368.971C2506.4 366.723 2507.51 365.012 2509.1 363.836C2510.69 362.66 2512.52 362.072 2514.6 362.072C2515.46 362.072 2516.05 362.141 2516.36 362.28V366.274C2516.19 366.205 2515.94 366.17 2515.63 366.17C2515.32 366.135 2514.94 366.118 2514.49 366.118C2511.86 366.118 2509.86 366.914 2508.48 368.504C2507.13 370.061 2506.45 372.308 2506.45 375.248Z" fill="white"/>
</g>
<defs>
<linearGradient id="paint0_linear_12_673" x1="0" y1="256" x2="2560" y2="256" gradientUnits="userSpaceOnUse">
<stop stop-color="#040D1C"/>
<stop offset="1" stop-color="#001840"/>
</linearGradient>
<clipPath id="clip0_12_673">
<rect width="450" height="145.245" fill="white" transform="translate(2068 330)"/>
</clipPath>
</defs>
</svg>
