<svg width="2560" height="512" viewBox="0 0 2560 512" fill="none" xmlns="http://www.w3.org/2000/svg">
<rect width="2560" height="512" fill="#34495E"/>
<path d="M2105 512L2217 0H2560V512H2105Z" fill="#2A2A2A"/>
<g clip-path="url(#clip0_12_1562)">
<path d="M2428.71 192.193H2454.22L2400.78 319.233H2377.94L2355.11 261.907L2332.28 319.233H2309.45L2255.76 192.193H2281.27L2322.08 293.242L2340.05 246.361L2318.19 192.436H2340.78L2355.11 232.03L2369.2 192.436H2391.79L2370.17 246.361L2388.15 293.242L2428.71 192.193Z" fill="#B2BBC8"/>
</g>
<path d="M148.683 230.149V319H128.86V193.334H145.143L216.295 284.132V193.511H236.295V319H218.95L148.683 230.149ZM293.608 320.77C286.41 320.77 279.861 319.531 273.962 317.053C268.18 314.457 263.165 310.976 258.917 306.61C254.669 302.127 251.365 297.053 249.005 291.389C246.764 285.607 245.643 279.471 245.643 272.982C245.643 264.25 247.648 256.285 251.66 249.087C255.672 241.772 261.277 235.931 268.475 231.565C275.673 227.081 284.109 224.839 293.785 224.839C303.461 224.839 311.779 227.081 318.741 231.565C325.821 235.931 331.308 241.713 335.202 248.91C339.095 256.108 341.042 263.837 341.042 272.097C341.042 273.513 340.983 274.869 340.865 276.167C340.747 277.347 340.629 278.35 340.511 279.176H266.351C266.705 284.604 268.18 289.383 270.776 293.513C273.49 297.525 276.911 300.711 281.041 303.071C285.171 305.312 289.596 306.433 294.316 306.433C299.508 306.433 304.405 305.135 309.006 302.54C313.726 299.944 316.912 296.522 318.564 292.274L335.202 297.053C333.196 301.537 330.128 305.607 325.998 309.265C321.986 312.805 317.207 315.637 311.661 317.761C306.116 319.767 300.098 320.77 293.608 320.77ZM265.82 266.256H321.75C321.396 260.946 319.862 256.285 317.148 252.273C314.552 248.143 311.189 244.958 307.059 242.716C303.048 240.356 298.564 239.176 293.608 239.176C288.77 239.176 284.286 240.356 280.156 242.716C276.145 244.958 272.841 248.143 270.245 252.273C267.649 256.285 266.174 260.946 265.82 266.256ZM460.881 226.432H479.465L440.527 319H423.889L407.252 277.229L390.614 319H373.977L334.861 226.432H353.446L383.181 300.062L396.278 265.902L380.349 226.609H396.809L407.252 255.459L417.518 226.609H433.978L418.226 265.902L431.323 300.062L460.881 226.432ZM535.586 243.247C528.035 243.365 521.309 245.076 515.409 248.379C509.627 251.683 505.497 256.344 503.019 262.362V319H483.55V226.432H501.604V247.14C504.789 240.769 508.978 235.695 514.17 231.919C519.362 228.025 524.849 225.901 530.631 225.547C531.81 225.547 532.754 225.547 533.462 225.547C534.288 225.547 534.996 225.606 535.586 225.724V243.247ZM544.086 340.77C545.856 341.006 547.567 341.242 549.219 341.478C550.989 341.832 552.405 342.009 553.467 342.009C555.473 342.009 557.184 341.36 558.6 340.062C560.134 338.882 561.668 336.64 563.202 333.337C564.736 330.033 566.623 325.254 568.865 319L530.812 226.432H551.166L579.485 299.177L604.618 226.432H623.38L581.432 340.416C580.134 343.838 578.246 346.965 575.768 349.797C573.29 352.747 570.222 355.048 566.564 356.7C562.907 358.352 558.6 359.178 553.644 359.178C552.228 359.178 550.753 359.06 549.219 358.824C547.685 358.588 545.974 358.234 544.086 357.762V340.77ZM764.723 193.334V319H744.723V263.601H681.359V319H661.536V193.334H681.359V245.901H744.723V193.334H764.723ZM773.981 291.92C773.981 286.02 775.633 280.887 778.937 276.521C782.358 272.038 787.019 268.616 792.919 266.256C798.819 263.778 805.663 262.539 813.45 262.539C817.58 262.539 821.769 262.834 826.017 263.424C830.383 264.014 834.218 264.958 837.522 266.256V260.415C837.522 253.925 835.575 248.851 831.681 245.194C827.787 241.536 822.182 239.707 814.866 239.707C809.674 239.707 804.778 240.651 800.176 242.539C795.574 244.309 790.677 246.845 785.485 250.149L778.937 237.052C785.072 232.922 791.208 229.854 797.344 227.848C803.598 225.842 810.146 224.839 816.99 224.839C829.38 224.839 839.114 228.143 846.194 234.751C853.392 241.241 856.991 250.503 856.991 262.539V297.053C856.991 299.295 857.345 300.888 858.053 301.832C858.879 302.776 860.236 303.307 862.124 303.425V319C860.354 319.354 858.761 319.59 857.345 319.708C855.929 319.826 854.749 319.885 853.805 319.885C849.675 319.885 846.548 318.882 844.424 316.876C842.3 314.87 841.061 312.51 840.707 309.796L840.176 304.486C836.165 309.678 831.032 313.69 824.778 316.522C818.524 319.354 812.211 320.77 805.84 320.77C799.704 320.77 794.217 319.531 789.379 317.053C784.541 314.457 780.765 310.976 778.052 306.61C775.338 302.245 773.981 297.348 773.981 291.92ZM832.92 297.584C834.336 296.05 835.457 294.516 836.283 292.982C837.109 291.448 837.522 290.091 837.522 288.911V278.291C834.218 276.993 830.737 276.049 827.079 275.459C823.421 274.752 819.822 274.398 816.282 274.398C809.202 274.398 803.421 275.813 798.937 278.645C794.571 281.477 792.388 285.371 792.388 290.327C792.388 293.041 793.096 295.637 794.512 298.115C796.046 300.593 798.17 302.599 800.884 304.133C803.716 305.666 807.197 306.433 811.326 306.433C815.574 306.433 819.645 305.607 823.539 303.956C827.433 302.304 830.56 300.18 832.92 297.584ZM923.798 243.247C916.246 243.365 909.52 245.076 903.62 248.379C897.839 251.683 893.709 256.344 891.231 262.362V319H871.762V226.432H889.815V247.14C893.001 240.769 897.19 235.695 902.382 231.919C907.573 228.025 913.06 225.901 918.842 225.547C920.022 225.547 920.966 225.547 921.674 225.547C922.5 225.547 923.208 225.606 923.798 225.724V243.247ZM979.024 320.77C971.944 320.77 965.514 319.118 959.732 315.814C954.068 312.392 949.584 307.849 946.28 302.186V319H929.112V189.794H948.581V243.955C952.239 238.055 956.782 233.394 962.21 229.972C967.755 226.55 974.245 224.839 981.679 224.839C987.815 224.839 993.42 226.137 998.493 228.733C1003.57 231.329 1007.87 234.869 1011.41 239.353C1015.07 243.837 1017.84 248.969 1019.73 254.751C1021.74 260.533 1022.74 266.669 1022.74 273.159C1022.74 279.648 1021.62 285.784 1019.38 291.566C1017.25 297.348 1014.19 302.422 1010.18 306.787C1006.16 311.153 1001.5 314.575 996.193 317.053C991.001 319.531 985.278 320.77 979.024 320.77ZM973.891 304.133C978.139 304.133 982.033 303.307 985.573 301.655C989.113 299.885 992.181 297.584 994.777 294.752C997.372 291.92 999.319 288.616 1000.62 284.84C1002.03 281.064 1002.74 277.17 1002.74 273.159C1002.74 267.613 1001.56 262.421 999.201 257.583C996.959 252.745 993.774 248.851 989.644 245.901C985.514 242.952 980.735 241.477 975.307 241.477C971.413 241.477 967.755 242.421 964.334 244.309C960.912 246.078 957.844 248.497 955.13 251.565C952.534 254.515 950.351 257.819 948.581 261.477V285.902C949.289 288.616 950.528 291.094 952.298 293.336C954.068 295.46 956.133 297.348 958.493 299C960.853 300.534 963.39 301.773 966.104 302.717C968.817 303.661 971.413 304.133 973.891 304.133ZM1073 320.77C1065.68 320.77 1059.13 319.531 1053.35 317.053C1047.57 314.457 1042.55 310.917 1038.3 306.433C1034.17 301.95 1030.99 296.876 1028.75 291.212C1026.5 285.43 1025.38 279.294 1025.38 272.805C1025.38 266.315 1026.5 260.179 1028.75 254.397C1030.99 248.615 1034.17 243.542 1038.3 239.176C1042.55 234.692 1047.57 231.211 1053.35 228.733C1059.25 226.137 1065.8 224.839 1073 224.839C1080.19 224.839 1086.68 226.137 1092.46 228.733C1098.36 231.211 1103.38 234.692 1107.51 239.176C1111.76 243.542 1115 248.615 1117.24 254.397C1119.49 260.179 1120.61 266.315 1120.61 272.805C1120.61 279.294 1119.49 285.43 1117.24 291.212C1115 296.876 1111.76 301.95 1107.51 306.433C1103.38 310.917 1098.36 314.457 1092.46 317.053C1086.68 319.531 1080.19 320.77 1073 320.77ZM1045.38 272.982C1045.38 278.881 1046.62 284.191 1049.1 288.911C1051.58 293.631 1054.88 297.348 1059.01 300.062C1063.14 302.776 1067.8 304.133 1073 304.133C1078.07 304.133 1082.67 302.776 1086.8 300.062C1091.05 297.23 1094.41 293.454 1096.89 288.734C1099.37 283.896 1100.61 278.586 1100.61 272.805C1100.61 266.905 1099.37 261.595 1096.89 256.875C1094.41 252.155 1091.05 248.438 1086.8 245.724C1082.67 242.893 1078.07 241.477 1073 241.477C1067.8 241.477 1063.14 242.893 1059.01 245.724C1054.88 248.556 1051.58 252.332 1049.1 257.052C1046.62 261.654 1045.38 266.964 1045.38 272.982ZM1128.14 283.07V226.432H1147.61V279.176C1147.61 287.436 1149.08 293.69 1152.03 297.938C1155.1 302.068 1159.53 304.133 1165.31 304.133C1168.97 304.133 1172.51 303.366 1175.93 301.832C1179.47 300.298 1182.65 298.056 1185.49 295.106C1188.44 292.038 1190.8 288.38 1192.57 284.132V226.432H1212.04V297.053C1212.04 299.295 1212.45 300.888 1213.27 301.832C1214.1 302.776 1215.46 303.307 1217.35 303.425V319C1215.34 319.354 1213.69 319.59 1212.39 319.708C1211.09 319.826 1209.85 319.885 1208.67 319.885C1205.13 319.885 1202.18 318.941 1199.82 317.053C1197.46 315.047 1196.11 312.51 1195.75 309.442L1195.4 300.239C1191.27 306.964 1185.9 312.097 1179.29 315.637C1172.68 319.059 1165.43 320.77 1157.52 320.77C1147.85 320.77 1140.53 317.584 1135.57 311.212C1130.62 304.84 1128.14 295.46 1128.14 283.07ZM1280.07 243.247C1272.52 243.365 1265.79 245.076 1259.89 248.379C1254.11 251.683 1249.98 256.344 1247.5 262.362V319H1228.03V226.432H1246.08V247.14C1249.27 240.769 1253.46 235.695 1258.65 231.919C1263.84 228.025 1269.33 225.901 1275.11 225.547C1276.29 225.547 1277.24 225.547 1277.94 225.547C1278.77 225.547 1279.48 225.606 1280.07 225.724V243.247Z" fill="white"/>
<defs>
<clipPath id="clip0_12_1562">
<rect width="198.602" height="127.246" fill="white" transform="translate(2255.7 192.177)"/>
</clipPath>
</defs>
</svg>
