<svg width="2560" height="512" viewBox="0 0 2560 512" fill="none" xmlns="http://www.w3.org/2000/svg">
<rect width="2560" height="512" fill="#34495E"/>
<path d="M2105 512L2217 0H2560V512H2105Z" fill="#2A2A2A"/>
<path d="M120.892 255.282C120.892 247.612 122.249 240.12 124.963 232.804C127.677 225.37 131.63 218.644 136.822 212.627C142.131 206.491 148.562 201.653 156.114 198.113C163.666 194.455 172.22 192.626 181.778 192.626C193.106 192.626 202.899 195.222 211.159 200.414C219.419 205.488 225.555 212.037 229.566 220.06L213.991 230.503C211.631 225.429 208.622 221.417 204.964 218.467C201.424 215.518 197.53 213.453 193.283 212.273C189.153 211.093 185.082 210.503 181.07 210.503C174.462 210.503 168.68 211.86 163.725 214.574C158.769 217.169 154.58 220.65 151.158 225.016C147.854 229.382 145.317 234.279 143.547 239.707C141.895 245.135 141.069 250.562 141.069 255.99C141.069 262.008 142.072 267.849 144.078 273.513C146.084 279.058 148.857 284.014 152.397 288.38C156.055 292.628 160.362 295.991 165.318 298.469C170.273 300.947 175.701 302.186 181.601 302.186C185.613 302.186 189.802 301.478 194.168 300.062C198.533 298.646 202.545 296.463 206.203 293.513C209.979 290.445 212.929 286.433 215.053 281.477L231.513 290.858C228.917 297.112 224.847 302.422 219.301 306.787C213.873 311.153 207.737 314.457 200.893 316.699C194.168 318.941 187.501 320.062 180.893 320.062C172.043 320.062 163.961 318.233 156.645 314.575C149.329 310.799 143.016 305.843 137.706 299.708C132.397 293.454 128.267 286.492 125.317 278.822C122.367 271.035 120.892 263.188 120.892 255.282ZM279.942 320.77C272.626 320.77 266.077 319.531 260.296 317.053C254.514 314.457 249.499 310.917 245.251 306.433C241.121 301.95 237.935 296.876 235.693 291.212C233.451 285.43 232.331 279.294 232.331 272.805C232.331 266.315 233.451 260.179 235.693 254.397C237.935 248.615 241.121 243.542 245.251 239.176C249.499 234.692 254.514 231.211 260.296 228.733C266.195 226.137 272.744 224.839 279.942 224.839C287.14 224.839 293.629 226.137 299.411 228.733C305.311 231.211 310.326 234.692 314.456 239.176C318.704 243.542 321.948 248.615 324.19 254.397C326.432 260.179 327.553 266.315 327.553 272.805C327.553 279.294 326.432 285.43 324.19 291.212C321.948 296.876 318.704 301.95 314.456 306.433C310.326 310.917 305.311 314.457 299.411 317.053C293.629 319.531 287.14 320.77 279.942 320.77ZM252.331 272.982C252.331 278.881 253.57 284.191 256.048 288.911C258.526 293.631 261.83 297.348 265.959 300.062C270.089 302.776 274.75 304.133 279.942 304.133C285.016 304.133 289.618 302.776 293.747 300.062C297.995 297.23 301.358 293.454 303.836 288.734C306.314 283.896 307.553 278.586 307.553 272.805C307.553 266.905 306.314 261.595 303.836 256.875C301.358 252.155 297.995 248.438 293.747 245.724C289.618 242.893 285.016 241.477 279.942 241.477C274.75 241.477 270.089 242.893 265.959 245.724C261.83 248.556 258.526 252.332 256.048 257.052C253.57 261.654 252.331 266.964 252.331 272.982ZM418.982 319H399.512V267.141C399.512 258.527 398.096 252.214 395.265 248.202C392.551 244.191 388.48 242.185 383.052 242.185C379.276 242.185 375.5 243.129 371.724 245.017C368.066 246.904 364.763 249.5 361.813 252.804C358.863 255.99 356.739 259.707 355.441 263.955V319H335.972V226.432H353.671V245.017C356.031 240.887 359.099 237.347 362.875 234.397C366.769 231.329 371.134 228.969 375.972 227.317C380.81 225.665 385.943 224.839 391.371 224.839C396.916 224.839 401.459 225.842 404.999 227.848C408.657 229.854 411.489 232.627 413.495 236.167C415.619 239.589 417.035 243.601 417.743 248.202C418.569 252.686 418.982 257.465 418.982 262.539V319ZM515.741 319H496.271V267.141C496.271 258.527 494.855 252.214 492.024 248.202C489.31 244.191 485.239 242.185 479.811 242.185C476.035 242.185 472.259 243.129 468.483 245.017C464.825 246.904 461.522 249.5 458.572 252.804C455.622 255.99 453.498 259.707 452.2 263.955V319H432.731V226.432H450.43V245.017C452.79 240.887 455.858 237.347 459.634 234.397C463.528 231.329 467.893 228.969 472.731 227.317C477.569 225.665 482.702 224.839 488.13 224.839C493.676 224.839 498.218 225.842 501.758 227.848C505.416 229.854 508.248 232.627 510.254 236.167C512.378 239.589 513.794 243.601 514.502 248.202C515.328 252.686 515.741 257.465 515.741 262.539V319ZM571.083 320.77C563.767 320.77 557.219 319.531 551.437 317.053C545.655 314.457 540.64 310.917 536.392 306.433C532.262 301.95 529.077 296.876 526.835 291.212C524.593 285.43 523.472 279.294 523.472 272.805C523.472 266.315 524.593 260.179 526.835 254.397C529.077 248.615 532.262 243.542 536.392 239.176C540.64 234.692 545.655 231.211 551.437 228.733C557.337 226.137 563.885 224.839 571.083 224.839C578.281 224.839 584.771 226.137 590.553 228.733C596.452 231.211 601.467 234.692 605.597 239.176C609.845 243.542 613.09 248.615 615.332 254.397C617.574 260.179 618.695 266.315 618.695 272.805C618.695 279.294 617.574 285.43 615.332 291.212C613.09 296.876 609.845 301.95 605.597 306.433C601.467 310.917 596.452 314.457 590.553 317.053C584.771 319.531 578.281 320.77 571.083 320.77ZM543.472 272.982C543.472 278.881 544.711 284.191 547.189 288.911C549.667 293.631 552.971 297.348 557.101 300.062C561.231 302.776 565.891 304.133 571.083 304.133C576.157 304.133 580.759 302.776 584.889 300.062C589.137 297.23 592.499 293.454 594.977 288.734C597.455 283.896 598.694 278.586 598.694 272.805C598.694 266.905 597.455 261.595 594.977 256.875C592.499 252.155 589.137 248.438 584.889 245.724C580.759 242.893 576.157 241.477 571.083 241.477C565.891 241.477 561.231 242.893 557.101 245.724C552.971 248.556 549.667 252.332 547.189 257.052C544.711 261.654 543.472 266.964 543.472 272.982ZM627.29 189.794H646.759V292.274C646.759 296.994 647.467 300.003 648.883 301.301C650.299 302.599 652.069 303.248 654.193 303.248C656.553 303.248 658.736 303.012 660.742 302.54C662.866 302.068 664.695 301.478 666.229 300.77L669.06 316.168C666.229 317.348 662.866 318.351 658.972 319.177C655.078 320.003 651.597 320.416 648.529 320.416C641.921 320.416 636.73 318.587 632.954 314.929C629.178 311.153 627.29 305.961 627.29 299.354V189.794ZM671.677 189.794H691.146V292.274C691.146 296.994 691.854 300.003 693.27 301.301C694.686 302.599 696.456 303.248 698.58 303.248C700.94 303.248 703.123 303.012 705.128 302.54C707.252 302.068 709.081 301.478 710.615 300.77L713.447 316.168C710.615 317.348 707.252 318.351 703.359 319.177C699.465 320.003 695.984 320.416 692.916 320.416C686.308 320.416 681.116 318.587 677.34 314.929C673.565 311.153 671.677 305.961 671.677 299.354V189.794ZM715.097 340.77C716.867 341.006 718.578 341.242 720.23 341.478C722 341.832 723.416 342.009 724.477 342.009C726.483 342.009 728.194 341.36 729.61 340.062C731.144 338.882 732.678 336.64 734.212 333.337C735.746 330.033 737.634 325.254 739.876 319L701.822 226.432H722.177L750.496 299.177L775.629 226.432H794.39L752.443 340.416C751.145 343.838 749.257 346.965 746.779 349.797C744.301 352.747 741.233 355.048 737.575 356.7C733.917 358.352 729.61 359.178 724.654 359.178C723.239 359.178 721.764 359.06 720.23 358.824C718.696 358.588 716.985 358.234 715.097 357.762V340.77Z" fill="white"/>
<g clip-path="url(#clip0_12_1643)">
<path d="M2429.02 192.193H2454.52L2401.08 319.233H2378.25L2355.42 261.907L2332.58 319.233H2309.75L2256.07 192.193H2281.57L2322.38 293.242L2340.36 246.361L2318.49 192.436H2341.08L2355.42 232.03L2369.5 192.436H2392.09L2370.48 246.361L2388.45 293.242L2429.02 192.193Z" fill="#B2BBC8"/>
</g>
<defs>
<clipPath id="clip0_12_1643">
<rect width="198.602" height="127.246" fill="white" transform="translate(2256 192.177)"/>
</clipPath>
</defs>
</svg>
