<svg width="2560" height="512" viewBox="0 0 2560 512" fill="none" xmlns="http://www.w3.org/2000/svg">
<g clip-path="url(#clip0_12_2031)">
<rect width="2560" height="512" fill="#1F1B36"/>
<g clip-path="url(#clip1_12_2031)">
<path d="M1569.61 0H475.56V145.9H1569.61V0Z" fill="#E4E5F1"/>
<path d="M1569.61 365.173H475.56V511.073H1569.61V365.173Z" fill="#FF0080"/>
</g>
<g clip-path="url(#clip2_12_2031)">
<path d="M2559.61 0H1465.56V145.9H2559.61V0Z" fill="#E4E5F1"/>
<path d="M2559.61 365.173H1465.56V511.073H2559.61V365.173Z" fill="#E4E5F1"/>
<path fill-rule="evenodd" clip-rule="evenodd" d="M1587.81 511.073H1465.56V365.173H1587.81C1784.12 365.173 1873.15 282.393 1962.41 201.484C2074.67 99.7282 2187.09 0.00313453 2431.09 0H2559.62V145.9H2431.09C2237.28 145.906 2149.57 228.761 2060.4 309.588C1948.22 411.266 1834.52 511.073 1587.81 511.073Z" fill="#FF0080"/>
</g>
<g clip-path="url(#clip3_12_2031)">
<path d="M1094.61 -1H0.55957V144.9H1094.61V-1Z" fill="#E4E5F1"/>
<path d="M1094.61 364.173H0.55957V510.073H1094.61V364.173Z" fill="#FF0080"/>
</g>
<path d="M99.5381 301L87.2501 211.4H100.434L107.858 276.552L118.866 211.4H132.178L143.186 276.552L150.61 211.4H163.794L151.506 301H135.762L125.522 237.64L115.282 301H99.5381ZM196.64 302.536C190.496 302.536 185.077 301.171 180.384 298.44C175.691 295.624 172.021 291.741 169.376 286.792C166.731 281.843 165.408 276.083 165.408 269.512C165.408 262.856 166.688 257.011 169.248 251.976C171.893 246.941 175.563 243.016 180.256 240.2C185.035 237.384 190.539 235.976 196.768 235.976C202.912 235.976 208.203 237.384 212.64 240.2C217.077 242.931 220.491 246.6 222.88 251.208C225.355 255.816 226.592 260.893 226.592 266.44C226.592 267.293 226.592 268.232 226.592 269.256C226.592 270.195 226.549 271.261 226.464 272.456H178.72C179.147 278.344 181.067 282.824 184.48 285.896C187.893 288.883 191.904 290.376 196.512 290.376C200.523 290.376 203.68 289.565 205.984 287.944C208.373 286.237 210.123 283.933 211.232 281.032H224.928C223.392 287.091 220.192 292.211 215.328 296.392C210.464 300.488 204.235 302.536 196.64 302.536ZM196.64 247.752C192.459 247.752 188.747 249.032 185.504 251.592C182.261 254.067 180.171 257.565 179.232 262.088H213.024C212.683 257.821 211.019 254.365 208.032 251.72C205.045 249.075 201.248 247.752 196.64 247.752ZM266.734 302.536C258.371 302.536 251.715 300.573 246.766 296.648C241.817 292.723 239.001 287.517 238.318 281.032H252.27C252.782 284.019 254.275 286.451 256.75 288.328C259.31 290.205 262.681 291.144 266.862 291.144C270.873 291.144 273.945 290.333 276.078 288.712C278.297 287.005 279.406 285.043 279.406 282.824C279.406 279.581 278.083 277.363 275.438 276.168C272.878 274.973 269.081 274.077 264.046 273.48C259.694 272.968 255.726 271.987 252.142 270.536C248.643 269 245.87 266.952 243.822 264.392C241.774 261.747 240.75 258.461 240.75 254.536C240.75 248.989 242.926 244.509 247.278 241.096C251.63 237.683 257.689 235.976 265.454 235.976C273.219 235.976 279.235 237.725 283.502 241.224C287.769 244.723 290.243 249.501 290.926 255.56H277.87C277.529 253 276.206 250.995 273.902 249.544C271.598 248.008 268.739 247.24 265.326 247.24C261.827 247.24 259.054 247.923 257.006 249.288C254.958 250.568 253.934 252.275 253.934 254.408C253.934 259.016 258.883 261.832 268.782 262.856C273.475 263.368 277.657 264.264 281.326 265.544C284.995 266.739 287.897 268.659 290.03 271.304C292.163 273.864 293.23 277.491 293.23 282.184C293.315 286.024 292.206 289.48 289.902 292.552C287.683 295.624 284.569 298.056 280.558 299.848C276.633 301.64 272.025 302.536 266.734 302.536ZM343.484 301C337.255 301 332.305 299.507 328.636 296.52C324.967 293.448 323.132 288.029 323.132 280.264V249.032H307.132V237.512H316.604C320.956 237.512 323.516 235.379 324.284 231.112L326.204 220.872H336.7V237.512H361.788V249.032H336.7V280.008C336.7 283.336 337.425 285.683 338.876 287.048C340.412 288.328 343.015 288.968 346.684 288.968H361.532V301H343.484ZM383.37 301L369.546 237.512H382.858L390.538 282.056L399.626 237.512H414.218L423.306 282.056L430.986 237.512H444.298L430.474 301H416.522L406.922 255.176L397.322 301H383.37ZM457.176 329.16L472.28 295.752H468.568L443.864 237.512H458.584L477.528 283.976L497.624 237.512H511.832L471.512 329.16H457.176ZM539.43 301L511.91 237.512H527.27L547.622 286.664L568.102 237.512H583.334L555.686 301H539.43ZM618.74 302.536C612.596 302.536 607.177 301.171 602.484 298.44C597.791 295.624 594.121 291.741 591.476 286.792C588.831 281.843 587.508 276.083 587.508 269.512C587.508 262.856 588.788 257.011 591.348 251.976C593.993 246.941 597.663 243.016 602.356 240.2C607.135 237.384 612.639 235.976 618.868 235.976C625.012 235.976 630.303 237.384 634.74 240.2C639.177 242.931 642.591 246.6 644.98 251.208C647.455 255.816 648.692 260.893 648.692 266.44C648.692 267.293 648.692 268.232 648.692 269.256C648.692 270.195 648.649 271.261 648.564 272.456H600.82C601.247 278.344 603.167 282.824 606.58 285.896C609.993 288.883 614.004 290.376 618.612 290.376C622.623 290.376 625.78 289.565 628.084 287.944C630.473 286.237 632.223 283.933 633.332 281.032H647.028C645.492 287.091 642.292 292.211 637.428 296.392C632.564 300.488 626.335 302.536 618.74 302.536ZM618.74 247.752C614.559 247.752 610.847 249.032 607.604 251.592C604.361 254.067 602.271 257.565 601.332 262.088H635.124C634.783 257.821 633.119 254.365 630.132 251.72C627.145 249.075 623.348 247.752 618.74 247.752ZM659.778 301V289.224H675.266V253.512C675.266 250.696 673.901 249.288 671.17 249.288H661.058V237.512H676.29C679.789 237.512 682.647 238.536 684.866 240.584C687.085 242.547 688.194 245.32 688.194 248.904V250.44H688.834C689.773 245.661 691.778 242.077 694.85 239.688C698.007 237.213 702.573 235.976 708.546 235.976H718.402V250.312H704.578C699.543 250.312 695.661 252.061 692.93 255.56C690.199 259.059 688.834 263.24 688.834 268.104V289.224H708.546V301H659.778ZM730.256 301V237.512H742.032L743.184 246.984H743.824C745.531 243.912 748.176 241.309 751.76 239.176C755.344 237.043 759.483 235.976 764.176 235.976C771.941 235.976 777.787 238.323 781.712 243.016C785.637 247.709 787.6 254.621 787.6 263.752V301H774.032V265.416C774.032 260.125 772.923 256.029 770.704 253.128C768.485 250.227 764.987 248.776 760.208 248.776C755.515 248.776 751.589 250.355 748.432 253.512C745.36 256.669 743.824 261.235 743.824 267.208V301H730.256Z" fill="#E4E5F1"/>
</g>
<defs>
<clipPath id="clip0_12_2031">
<rect width="2560" height="512" fill="white"/>
</clipPath>
<clipPath id="clip1_12_2031">
<rect width="1095.4" height="512.055" fill="white" transform="translate(475.122)"/>
</clipPath>
<clipPath id="clip2_12_2031">
<rect width="1095.4" height="512.055" fill="white" transform="translate(1465.12)"/>
</clipPath>
<clipPath id="clip3_12_2031">
<rect width="1095.4" height="512.055" fill="white" transform="translate(0.12207 -1)"/>
</clipPath>
</defs>
</svg>
